<?xml version="1.0" encoding="utf-8"?>
<!-- Generator: Adobe Illustrator 16.0.0, SVG Export Plug-In . SVG Version: 6.00 Build 0)  -->
<!DOCTYPE svg PUBLIC "-//W3C//DTD SVG 1.1//EN" "http://www.w3.org/Graphics/SVG/1.1/DTD/svg11.dtd">
<svg version="1.1" id="Layer_1" xmlns="http://www.w3.org/2000/svg" xmlns:xlink="http://www.w3.org/1999/xlink" x="0px" y="0px"
	 width="180px" height="260px" viewBox="0 0 180 260" enable-background="new 0 0 180 260" xml:space="preserve">
<rect fill="#A1CAE5" width="180" height="260"/>
<g>
	<path fill="#EE5D73" d="M22.385,91.251v-0.647h8.175v0.647h-0.365c-0.611,0-1.08,0.055-1.406,0.165
		c-0.325,0.11-0.555,0.312-0.688,0.606s-0.2,0.712-0.2,1.253v11.516c0,0.447,0.077,0.794,0.229,1.041s0.43,0.43,0.83,0.547
		s0.964,0.176,1.694,0.176c0.619,0,1.188-0.051,1.706-0.153s1.031-0.282,1.541-0.541s1.035-0.627,1.576-1.106
		c0.542-0.478,1.086-1.074,1.635-1.788h1.082l-1.564,4.235H22.385v-0.647h0.153c0.706,0,1.227-0.065,1.564-0.194
		c0.337-0.129,0.566-0.333,0.688-0.611s0.183-0.668,0.183-1.17V93.451c0-0.588-0.053-1.031-0.159-1.329
		c-0.105-0.298-0.345-0.518-0.717-0.659S23.153,91.251,22.385,91.251z M25.35,93.062v12.046c0,0.384-0.069,0.682-0.206,0.894
		c-0.137,0.211-0.347,0.396-0.629,0.553c0.031,0,0.098,0.008,0.2,0.023c0.102,0.016,0.168,0.023,0.2,0.023
		c0.792,0,1.188-0.572,1.188-1.717V93.592c0-0.792-0.061-1.38-0.182-1.765c-0.122-0.384-0.473-0.576-1.053-0.576h-0.353
		c0.322,0.188,0.541,0.392,0.659,0.612S25.35,92.482,25.35,93.062z M33.325,106.555h2.152l1.012-2.317
		c-0.447,0.533-0.923,0.986-1.429,1.359S33.976,106.289,33.325,106.555z"/>
	<path fill="#EE5D73" d="M43.159,96.721v8.505c0,0.361,0.037,0.633,0.112,0.817c0.075,0.185,0.216,0.312,0.423,0.382
		c0.208,0.071,0.527,0.114,0.959,0.129v0.647H39.16v-0.647c0.486-0.016,0.825-0.114,1.018-0.294
		c0.192-0.181,0.288-0.502,0.288-0.965v-5.399c0-0.337-0.114-0.651-0.341-0.941c-0.228-0.29-0.549-0.506-0.965-0.647v-0.376
		l3.518-1.211H43.159z M40.854,99.932v5.588c0,0.455-0.161,0.8-0.482,1.035c0.431,0,0.747-0.098,0.947-0.294
		c0.2-0.196,0.3-0.518,0.3-0.965v-5.517c0-0.501-0.122-0.888-0.365-1.159s-0.561-0.406-0.953-0.406
		c-0.181,0-0.326,0.008-0.435,0.023C40.524,98.583,40.854,99.148,40.854,99.932z M41.712,90.992c0.298,0,0.577,0.073,0.835,0.218
		s0.462,0.343,0.611,0.594s0.224,0.526,0.224,0.824s-0.075,0.574-0.224,0.829s-0.353,0.457-0.611,0.606s-0.538,0.224-0.835,0.224
		c-0.447,0-0.832-0.165-1.153-0.494c-0.322-0.33-0.482-0.718-0.482-1.165c0-0.29,0.073-0.563,0.218-0.818
		c0.145-0.254,0.345-0.455,0.6-0.6C41.149,91.065,41.422,90.992,41.712,90.992z M41.913,91.369c-0.463,0-0.82,0.11-1.071,0.329
		c-0.251,0.22-0.376,0.522-0.376,0.906c0,0.369,0.122,0.672,0.365,0.912s0.604,0.37,1.083,0.394
		c-0.251-0.228-0.436-0.43-0.553-0.606s-0.176-0.402-0.176-0.676C41.183,92.118,41.426,91.698,41.913,91.369z"/>
	<path fill="#EE5D73" d="M46.876,105.52v-7.788h-1.67v-0.812h1.67v-1.6c0-1.027,0.183-1.919,0.547-2.676s0.888-1.339,1.57-1.747
		c0.682-0.408,1.478-0.612,2.388-0.612c0.542,0,1.01,0.083,1.406,0.247c0.396,0.165,0.69,0.382,0.882,0.653
		c0.192,0.271,0.289,0.567,0.289,0.888c0,0.361-0.128,0.685-0.382,0.971c-0.255,0.286-0.571,0.429-0.947,0.429
		c-0.353,0-0.645-0.135-0.876-0.406s-0.347-0.562-0.347-0.876c0.007-0.078,0.014-0.147,0.018-0.206
		c0.004-0.059,0.006-0.143,0.006-0.253c0-0.243-0.075-0.436-0.224-0.577s-0.333-0.211-0.553-0.211c-0.337,0-0.602,0.163-0.794,0.488
		c-0.192,0.326-0.289,0.794-0.289,1.406v4.082h2.188v0.812H49.57v7.611c0,0.313,0.043,0.559,0.129,0.735
		c0.086,0.177,0.241,0.3,0.465,0.371c0.224,0.071,0.523,0.106,0.9,0.106h0.388v0.647h-6.141v-0.647
		c0.518-0.016,0.908-0.096,1.17-0.241S46.876,105.904,46.876,105.52z M47.252,95.321v10.116c0,0.518-0.208,0.922-0.623,1.212
		c0.933,0,1.399-0.404,1.399-1.212V95.345c0-0.925,0.1-1.708,0.3-2.347c0.2-0.639,0.507-1.261,0.923-1.865
		c-0.667,0.463-1.167,1.031-1.5,1.706C47.419,93.514,47.252,94.341,47.252,95.321z M51.452,90.992
		c0.204,0.235,0.313,0.482,0.33,0.741c0.016,0.149,0.031,0.308,0.047,0.476c0.016,0.169,0.047,0.316,0.094,0.441
		c0.047,0.125,0.127,0.226,0.241,0.3c0.113,0.075,0.269,0.112,0.464,0.112c0.392,0,0.69-0.208,0.894-0.624
		c-0.188,0.063-0.317,0.094-0.388,0.094c-0.29,0-0.514-0.153-0.67-0.459c-0.22-0.455-0.369-0.731-0.447-0.829
		C51.938,91.147,51.75,91.063,51.452,90.992z"/>
	<path fill="#EE5D73" d="M61.863,104.285l0.471,0.365c-0.353,0.659-0.772,1.2-1.259,1.624c-0.486,0.423-1.021,0.737-1.605,0.941
		c-0.584,0.204-1.194,0.306-1.83,0.306c-0.863,0-1.665-0.208-2.405-0.623c-0.741-0.416-1.328-1.016-1.759-1.8
		s-0.647-1.674-0.647-2.67c0-0.784,0.131-1.521,0.394-2.211s0.627-1.298,1.094-1.823c0.466-0.525,1.007-0.936,1.623-1.229
		s1.272-0.441,1.971-0.441c0.706,0,1.378,0.147,2.017,0.441s1.147,0.7,1.523,1.217c0.274,0.376,0.472,0.763,0.594,1.159
		c0.122,0.396,0.217,0.873,0.288,1.43h-7.105c0.031,0.815,0.17,1.505,0.417,2.07c0.247,0.564,0.568,1.02,0.964,1.364
		c0.396,0.345,0.818,0.592,1.265,0.741c0.447,0.149,0.875,0.224,1.282,0.224C60.146,105.367,61.047,105.006,61.863,104.285z
		 M55.405,97.897c-1.466,1.161-2.2,2.682-2.2,4.564c0,1.365,0.437,2.48,1.312,3.347c0.875,0.867,1.884,1.3,3.029,1.3
		c0.667,0,1.335-0.135,2.005-0.406c0.671-0.271,1.237-0.672,1.7-1.206c-0.479,0.306-0.967,0.555-1.465,0.747
		c-0.498,0.192-1.092,0.288-1.782,0.288c-1.168,0-2.143-0.408-2.923-1.224c-0.781-0.815-1.171-1.878-1.171-3.188
		c0-0.831,0.129-1.576,0.388-2.235S54.926,98.564,55.405,97.897z M55.299,100.215h4.105v-0.388c0-0.455-0.082-0.861-0.247-1.218
		c-0.165-0.356-0.39-0.631-0.676-0.823s-0.614-0.288-0.982-0.288c-0.596,0-1.102,0.265-1.517,0.794
		C55.565,98.821,55.338,99.462,55.299,100.215z M59.781,100.215h0.823c-0.023-0.878-0.204-1.527-0.541-1.947
		c-0.337-0.419-0.902-0.7-1.694-0.841c0.502,0.228,0.863,0.523,1.083,0.888c0.219,0.365,0.329,0.919,0.329,1.665V100.215z"/>
	<path fill="#EE5D73" d="M69.823,101.995h0.65l-1.121,3.076c-0.041,0.114-0.082,0.231-0.123,0.349
		c-0.041,0.119-0.077,0.236-0.108,0.352c-0.03,0.116-0.056,0.228-0.074,0.334c-0.02,0.107-0.029,0.206-0.029,0.297
		c0,0.202,0.053,0.363,0.161,0.483c0.106,0.12,0.273,0.18,0.499,0.18c0.196,0,0.386-0.042,0.569-0.127s0.365-0.213,0.545-0.385
		c0.181-0.171,0.361-0.387,0.543-0.646c0.182-0.26,0.371-0.562,0.567-0.908l0.229-0.404l0.119,0.083l-0.229,0.404
		c-0.214,0.378-0.418,0.705-0.613,0.982c-0.195,0.276-0.39,0.505-0.584,0.686c-0.195,0.18-0.394,0.314-0.596,0.402
		s-0.417,0.132-0.646,0.132c-0.179,0-0.336-0.027-0.472-0.082c-0.137-0.054-0.251-0.131-0.343-0.23
		c-0.093-0.1-0.162-0.22-0.209-0.36s-0.07-0.297-0.07-0.47c0-0.152,0.019-0.319,0.055-0.501c0.037-0.182,0.09-0.372,0.161-0.571
		L69.823,101.995z M70.175,100.843c0-0.103,0.036-0.19,0.107-0.264s0.159-0.11,0.262-0.11s0.189,0.036,0.262,0.107
		c0.071,0.072,0.107,0.159,0.107,0.262c0,0.05-0.01,0.098-0.028,0.143c-0.02,0.046-0.046,0.084-0.079,0.117
		c-0.034,0.032-0.074,0.058-0.119,0.077c-0.045,0.02-0.094,0.029-0.147,0.029c-0.103,0-0.189-0.034-0.259-0.103
		S70.175,100.946,70.175,100.843z"/>
	<path fill="#EE5D73" d="M73.075,101.995h0.65l-0.69,1.89c0.196-0.334,0.385-0.625,0.567-0.873c0.182-0.247,0.363-0.452,0.542-0.615
		c0.181-0.162,0.363-0.284,0.547-0.364s0.379-0.121,0.584-0.121c0.185,0,0.346,0.03,0.483,0.09c0.138,0.061,0.253,0.143,0.347,0.246
		c0.094,0.104,0.164,0.225,0.211,0.363s0.07,0.283,0.07,0.435c0,0.167-0.024,0.349-0.073,0.545
		c-0.048,0.196-0.109,0.398-0.182,0.606s-0.152,0.418-0.237,0.631s-0.164,0.417-0.237,0.613s-0.134,0.38-0.182,0.551
		c-0.049,0.172-0.073,0.322-0.073,0.451c0,0.179,0.055,0.328,0.165,0.446c0.11,0.119,0.282,0.178,0.517,0.178
		c0.188,0,0.371-0.043,0.552-0.129c0.18-0.086,0.36-0.216,0.54-0.387c0.181-0.172,0.362-0.387,0.545-0.646
		c0.183-0.259,0.372-0.56,0.565-0.903l0.229-0.404l0.119,0.083l-0.229,0.404c-0.211,0.369-0.413,0.692-0.606,0.969
		c-0.193,0.277-0.387,0.506-0.58,0.688s-0.391,0.318-0.591,0.409c-0.201,0.091-0.414,0.136-0.64,0.136
		c-0.185,0-0.347-0.028-0.485-0.083c-0.14-0.056-0.256-0.132-0.35-0.229s-0.164-0.209-0.211-0.336
		c-0.047-0.128-0.07-0.263-0.07-0.407c0-0.152,0.024-0.323,0.072-0.512c0.049-0.188,0.109-0.387,0.183-0.593
		c0.073-0.207,0.152-0.416,0.237-0.629c0.085-0.212,0.164-0.418,0.237-0.619s0.134-0.392,0.183-0.571
		c0.048-0.181,0.072-0.341,0.072-0.481c0-0.1-0.013-0.192-0.04-0.277s-0.068-0.158-0.125-0.22c-0.057-0.062-0.129-0.11-0.215-0.145
		c-0.087-0.035-0.19-0.053-0.31-0.053c-0.185,0-0.365,0.045-0.541,0.134c-0.176,0.09-0.353,0.224-0.529,0.402
		c-0.178,0.179-0.358,0.402-0.541,0.67c-0.183,0.269-0.375,0.581-0.578,0.938l-0.229,0.404l-0.923,2.522h-0.65L73.075,101.995z"/>
</g>
<g>
	<g>
		<path fill="#72BFE8" d="M165.012,70.992c3.37-6.069,7.369-11.849,11.992-17.339c4.624-5.491,9.682-10.548,15.172-15.172
			c-8.478-0.77-16.883-1.901-25.214-3.396c-8.333-1.492-16.569-2.962-24.708-4.407c-8.142-1.445-16.161-2.695-24.059-3.757
			c-7.899-1.059-15.655-1.589-23.264-1.589c-8.574,0-15.799,0.772-21.673,2.312c-5.877,1.542-10.67,3.685-14.377,6.43
			c-3.709,2.745-6.382,6.046-8.019,9.897c-1.639,3.854-2.457,8.142-2.457,12.86c0,4.721,0.723,8.814,2.167,12.282
			s3.515,6.335,6.213,8.597c2.696,2.265,5.899,3.951,9.609,5.057c3.708,1.109,7.825,1.662,12.354,1.662
			c3.082,0,6.308-0.24,9.681-0.723c3.371-0.481,6.719-1.179,10.042-2.095c3.323-0.915,6.574-1.998,9.754-3.251
			c3.179-1.251,6.116-2.648,8.814-4.19l2.89,3.468c-6.358,3.662-13.199,6.502-20.519,8.525c-7.321,2.023-14.305,3.034-20.951,3.034
			c-5.588,0-10.598-0.745-15.027-2.24c-4.432-1.492-8.213-3.635-11.343-6.43c-3.131-2.793-5.516-6.213-7.152-10.259
			c-1.639-4.046-2.457-8.62-2.457-13.727c0-13.583,5.708-23.986,17.123-31.211s27.91-10.837,49.488-10.837
			c8.67,0,17.171,0.531,25.504,1.589c8.331,1.062,16.664,2.24,24.997,3.54c8.331,1.301,16.736,2.529,25.214,3.685
			c8.476,1.156,17.195,1.878,26.153,2.167c7.803-4.43,15.798-7.897,23.986-10.403c8.187-2.504,16.327-3.757,24.419-3.757
			c4.141,0,6.958,0.386,8.453,1.156c1.492,0.772,2.239,2.217,2.239,4.335c0,3.179-1.494,6.141-4.479,8.886
			c-2.987,2.746-7.105,5.129-12.354,7.152c-5.252,2.023-11.487,3.612-18.712,4.769c-7.225,1.156-15.027,1.734-23.408,1.734
			c-1.35,0-2.698,0-4.046,0c-1.35,0-2.697-0.047-4.046-0.145c-1.35,1.35-2.578,2.698-3.685,4.046
			c-1.108,1.35-2.145,2.745-3.106,4.19c-0.867,1.253-1.733,2.723-2.601,4.407c-0.867,1.687-1.879,3.854-3.034,6.502
			c-1.156,2.65-2.506,5.949-4.046,9.897c-1.542,3.951-3.396,8.886-5.563,14.811c-2.167,5.924-4.745,12.957-7.73,21.096
			c-2.986,8.141-6.454,17.7-10.403,28.682c-7.708,21.096-15.533,39.229-23.48,54.401c-7.946,15.172-16.399,27.599-25.358,37.279
			S95.413,241.326,85.106,245.9c-10.309,4.574-21.674,6.863-34.1,6.863c-16.377,0-28.971-3.612-37.785-10.837S0,224.349,0,210.861
			c0-4.913,0.578-9.537,1.734-13.872c1.156-4.334,2.696-8.139,4.624-11.414c1.926-3.274,4.165-5.875,6.719-7.803
			c2.551-1.926,5.274-2.891,8.164-2.891c2.503,0,4.454,0.748,5.852,2.24c1.396,1.494,2.095,3.637,2.095,6.43
			c0,1.351-0.217,2.506-0.65,3.468c-0.434,0.964-1.181,1.831-2.24,2.601c-1.061,0.772-2.506,1.59-4.335,2.457
			c-1.831,0.867-4.143,1.878-6.936,3.034c-2.795,1.253-4.865,3.012-6.213,5.274c-1.35,2.264-2.023,5.852-2.023,10.765
			c0,11.848,3.563,20.784,10.693,26.803c7.127,6.021,17.917,9.031,32.366,9.031c5.875,0,11.271-0.48,16.183-1.445
			c4.913-0.961,9.512-2.72,13.799-5.273c4.285-2.552,8.381-6.044,12.282-10.476c3.901-4.43,7.85-10.065,11.849-16.906
			c3.996-6.839,8.139-15.027,12.427-24.563c4.285-9.537,8.98-20.758,14.088-33.667c4.237-10.885,7.922-20.276,11.054-28.177
			c3.129-7.897,5.827-14.666,8.092-20.301c2.262-5.635,4.165-10.332,5.707-14.088c1.54-3.757,2.865-6.936,3.974-9.536
			c1.106-2.601,2.096-4.769,2.962-6.502C163.133,74.315,164.047,72.631,165.012,70.992z M258.643,15.362
			c-6.068,0-12.234,0.917-18.495,2.745c-6.263,1.831-12.281,4.288-18.062,7.369c5.491-0.192,10.812-0.553,15.967-1.083
			c5.152-0.528,9.753-1.179,13.799-1.951c4.046-0.77,7.272-1.612,9.682-2.529c2.406-0.914,3.612-1.854,3.612-2.817
			C265.146,15.939,262.978,15.362,258.643,15.362z"/>
	</g>
</g>
<g>
	<path d="M132.21,89.202c1.779-3.204,3.89-6.254,6.33-9.153c2.441-2.898,5.11-5.568,8.009-8.009
		c-4.475-0.406-8.912-1.003-13.31-1.792c-4.398-0.788-8.746-1.563-13.043-2.326s-8.53-1.423-12.699-1.983
		c-4.17-0.559-8.264-0.839-12.28-0.839c-4.526,0-8.34,0.408-11.44,1.22c-3.103,0.814-5.633,1.945-7.59,3.394
		c-1.958,1.449-3.369,3.192-4.232,5.225c-0.865,2.034-1.297,4.297-1.297,6.788c0,2.492,0.381,4.653,1.144,6.483
		s1.856,3.344,3.28,4.538c1.423,1.195,3.114,2.086,5.072,2.67c1.957,0.585,4.131,0.877,6.521,0.877c1.626,0,3.329-0.126,5.11-0.381
		c1.779-0.254,3.546-0.622,5.301-1.106c1.754-0.483,3.471-1.055,5.148-1.716c1.678-0.66,3.229-1.398,4.652-2.212l1.525,1.831
		c-3.355,1.933-6.967,3.433-10.83,4.5c-3.865,1.068-7.552,1.602-11.061,1.602c-2.949,0-5.594-0.394-7.932-1.182
		c-2.34-0.788-4.336-1.919-5.988-3.395c-1.652-1.474-2.911-3.28-3.775-5.415c-0.865-2.136-1.296-4.55-1.296-7.246
		c0-7.17,3.013-12.662,9.038-16.475c6.025-3.814,14.732-5.721,26.123-5.721c4.577,0,9.063,0.28,13.463,0.839
		c4.397,0.56,8.796,1.182,13.195,1.869c4.397,0.687,8.834,1.334,13.31,1.945c4.474,0.61,9.076,0.992,13.806,1.144
		c4.118-2.338,8.339-4.169,12.661-5.492c4.321-1.322,8.619-1.983,12.891-1.983c2.186,0,3.673,0.204,4.462,0.61
		c0.787,0.408,1.182,1.17,1.182,2.289c0,1.678-0.789,3.241-2.364,4.69c-1.577,1.449-3.75,2.708-6.521,3.776
		s-6.063,1.907-9.877,2.517c-3.813,0.61-7.933,0.915-12.356,0.915c-0.713,0-1.424,0-2.136,0c-0.713,0-1.424-0.025-2.136-0.076
		c-0.713,0.712-1.361,1.424-1.945,2.136c-0.585,0.712-1.132,1.449-1.64,2.212c-0.457,0.661-0.915,1.437-1.373,2.326
		c-0.457,0.89-0.991,2.034-1.602,3.432c-0.61,1.399-1.323,3.141-2.136,5.225c-0.813,2.085-1.792,4.69-2.937,7.818
		c-1.144,3.127-2.505,6.839-4.08,11.136c-1.577,4.298-3.407,9.344-5.492,15.141c-4.068,11.136-8.199,20.708-12.395,28.717
		c-4.194,8.009-8.657,14.568-13.386,19.679s-9.814,8.874-15.255,11.288c-5.441,2.415-11.44,3.623-18,3.623
		c-8.646,0-15.293-1.907-19.946-5.721c-4.652-3.813-6.979-9.279-6.979-16.398c0-2.594,0.305-5.034,0.915-7.322
		c0.61-2.288,1.423-4.297,2.441-6.025c1.017-1.729,2.199-3.102,3.547-4.119c1.346-1.017,2.784-1.525,4.309-1.525
		c1.322,0,2.352,0.395,3.089,1.183c0.737,0.789,1.106,1.92,1.106,3.394c0,0.713-0.114,1.323-0.343,1.831
		c-0.229,0.509-0.624,0.966-1.183,1.373c-0.561,0.407-1.323,0.839-2.288,1.296c-0.967,0.458-2.188,0.992-3.661,1.603
		c-1.476,0.661-2.568,1.59-3.28,2.783c-0.713,1.195-1.068,3.09-1.068,5.683c0,6.255,1.88,10.972,5.645,14.148
		c3.762,3.179,9.457,4.768,17.085,4.768c3.101,0,5.949-0.254,8.543-0.763c2.593-0.508,5.021-1.437,7.283-2.784
		c2.263-1.347,4.424-3.19,6.483-5.529s4.145-5.313,6.255-8.925c2.109-3.609,4.296-7.932,6.56-12.966
		c2.262-5.034,4.74-10.957,7.437-17.772c2.236-5.745,4.182-10.703,5.835-14.873c1.651-4.168,3.076-7.742,4.271-10.716
		c1.193-2.975,2.198-5.454,3.013-7.437c0.812-1.983,1.512-3.661,2.098-5.034c0.584-1.373,1.105-2.517,1.563-3.432
		C131.218,90.956,131.701,90.067,132.21,89.202z M181.635,59.836c-3.203,0-6.458,0.484-9.763,1.449
		c-3.307,0.967-6.483,2.263-9.534,3.89c2.898-0.101,5.707-0.292,8.428-0.572c2.72-0.279,5.148-0.623,7.284-1.03
		c2.136-0.407,3.839-0.851,5.11-1.335c1.271-0.482,1.907-0.979,1.907-1.487C185.067,60.141,183.923,59.836,181.635,59.836z"/>
</g>
<g>
	<path fill="#EE5D73" d="M46.412,113.402h14.951l0.847,3.882h-0.847c-0.604-1.012-1.235-1.752-1.894-2.223s-1.281-0.753-1.865-0.847
		c-0.584-0.094-1.347-0.149-2.288-0.165v13.375c0,0.518,0.083,0.912,0.247,1.183c0.165,0.27,0.436,0.456,0.812,0.559
		c0.376,0.102,0.901,0.164,1.576,0.188V130h-8.246v-0.647c0.682-0.016,1.206-0.068,1.57-0.158s0.639-0.278,0.823-0.564
		c0.185-0.287,0.277-0.735,0.277-1.347v-13.234c-0.847,0.008-1.584,0.092-2.212,0.253s-1.153,0.378-1.576,0.653
		s-0.774,0.567-1.053,0.876c-0.278,0.31-0.688,0.794-1.229,1.453h-0.717L46.412,113.402z M48.6,114.049h-1.906l-0.458,2
		c0.4-0.525,0.749-0.916,1.047-1.171C47.58,114.624,48.019,114.347,48.6,114.049z M53.517,127.012v-11.563
		c0-0.455-0.053-0.796-0.159-1.023s-0.304-0.353-0.594-0.376v13.375c0,0.486-0.059,0.875-0.177,1.165
		c-0.118,0.289-0.337,0.545-0.659,0.764h0.259c0.572,0,0.937-0.18,1.094-0.541C53.438,128.451,53.517,127.852,53.517,127.012z
		 M60.881,115.931l-0.529-1.882H58.14c0.596,0.188,1.094,0.431,1.494,0.729C60.034,115.076,60.449,115.46,60.881,115.931z"/>
	<path fill="#EE5D73" d="M67.562,119.519v1.812c0.604-0.683,1.066-1.155,1.388-1.417c0.321-0.263,0.709-0.394,1.165-0.394
		c0.392,0,0.724,0.139,0.994,0.417s0.406,0.629,0.406,1.053c0,0.439-0.122,0.806-0.365,1.1c-0.243,0.294-0.549,0.441-0.917,0.441
		c-0.165,0-0.345-0.031-0.541-0.094c-0.196-0.062-0.361-0.145-0.494-0.247c-0.079-0.062-0.161-0.129-0.247-0.2
		c-0.086-0.071-0.163-0.125-0.229-0.165c-0.067-0.039-0.139-0.059-0.218-0.059c-0.149,0-0.296,0.057-0.441,0.17
		c-0.145,0.114-0.312,0.273-0.5,0.477v5.682c0,0.408,0.057,0.698,0.17,0.871s0.29,0.28,0.529,0.323s0.657,0.064,1.253,0.064V130
		h-6.317v-0.647h0.318c0.91,0,1.364-0.36,1.364-1.082v-5.282c0-0.901-0.561-1.521-1.682-1.858v-0.4l3.788-1.211H67.562z
		 M65.269,122.989v5.353c0,0.267-0.043,0.464-0.129,0.594c-0.086,0.129-0.211,0.269-0.376,0.417
		c0.447-0.039,0.769-0.158,0.965-0.358c0.196-0.2,0.294-0.547,0.294-1.041v-4.964c0-0.674-0.118-1.165-0.353-1.47
		s-0.608-0.459-1.117-0.459c-0.04,0-0.125,0.008-0.259,0.024c-0.134,0.016-0.224,0.023-0.271,0.023
		C64.853,121.468,65.269,122.095,65.269,122.989z M68.351,121.331c0.212,0,0.423,0.07,0.635,0.211
		c0.486,0.384,0.894,0.577,1.224,0.577c0.408,0,0.706-0.263,0.894-0.788c-0.22,0.11-0.381,0.165-0.482,0.165
		c-0.235,0-0.471-0.078-0.706-0.235c-0.298-0.243-0.545-0.365-0.741-0.365C68.986,120.895,68.711,121.041,68.351,121.331z"/>
	<path fill="#EE5D73" d="M75.126,120.895c0,0.032,0.051,0.146,0.153,0.341c0.102,0.196,0.153,0.38,0.153,0.553
		c0,0.337-0.139,0.637-0.417,0.9c-0.279,0.263-0.625,0.394-1.041,0.394c-0.4,0-0.718-0.104-0.953-0.312s-0.353-0.449-0.353-0.724
		c0-0.408,0.198-0.808,0.594-1.2s0.941-0.712,1.635-0.959c0.694-0.247,1.46-0.37,2.3-0.37c0.611,0,1.182,0.105,1.711,0.317
		s0.951,0.533,1.265,0.964c0.313,0.432,0.471,0.953,0.471,1.565v5.976c0,0.478,0.137,0.717,0.412,0.717
		c0.165,0,0.365-0.129,0.6-0.388l0.436,0.506c-0.384,0.384-0.739,0.675-1.065,0.87c-0.325,0.196-0.711,0.294-1.159,0.294
		c-0.518,0-0.921-0.115-1.211-0.347s-0.494-0.59-0.612-1.076c-1.082,0.934-2.152,1.399-3.211,1.399
		c-0.753,0-1.351-0.196-1.794-0.588c-0.443-0.393-0.665-0.891-0.665-1.494c0-0.541,0.135-1.001,0.406-1.382s0.627-0.718,1.071-1.012
		c0.443-0.294,1.096-0.667,1.958-1.118c0.862-0.451,1.572-0.837,2.129-1.159v-1.776c0-0.533-0.122-0.937-0.364-1.211
		c-0.243-0.274-0.608-0.412-1.094-0.412c-0.423,0-0.755,0.076-0.994,0.229C75.246,120.548,75.126,120.715,75.126,120.895z
		 M75.867,129.765c-0.713,0-1.284-0.145-1.711-0.436c-0.428-0.29-0.641-0.709-0.641-1.258c0-0.4,0.104-0.778,0.312-1.135
		c0.208-0.356,0.519-0.754,0.935-1.194c-0.635,0.369-1.127,0.745-1.477,1.129s-0.523,0.839-0.523,1.364
		c0,0.479,0.21,0.877,0.629,1.194s0.876,0.477,1.371,0.477C75.24,129.906,75.608,129.858,75.867,129.765z M74.762,122.342
		c-0.282,0.024-0.498-0.031-0.647-0.165c-0.149-0.133-0.224-0.29-0.224-0.47c0-0.243,0.066-0.461,0.2-0.653
		c0.133-0.192,0.364-0.468,0.694-0.829c-0.557,0.282-0.984,0.564-1.282,0.847c-0.298,0.282-0.447,0.6-0.447,0.953
		c0,0.157,0.08,0.304,0.241,0.441c0.161,0.138,0.351,0.206,0.571,0.206C74.244,122.671,74.542,122.562,74.762,122.342z
		 M77.938,128.142v-3.776c-1.004,0.565-1.704,1.075-2.1,1.529c-0.396,0.455-0.594,1.004-0.594,1.647c0,0.431,0.117,0.765,0.353,1
		c0.235,0.234,0.51,0.352,0.824,0.352C76.915,128.894,77.42,128.644,77.938,128.142z M78.326,122.554v4.646
		c0,0.917,0.098,1.602,0.294,2.053c0.196,0.451,0.58,0.677,1.153,0.677c0.259,0,0.466-0.031,0.624-0.095
		c-0.471-0.07-0.804-0.259-1-0.564c-0.196-0.306-0.294-0.784-0.294-1.435v-5.399c0-0.815-0.116-1.378-0.347-1.688
		c-0.231-0.31-0.629-0.496-1.194-0.559c0.306,0.157,0.509,0.384,0.611,0.682C78.275,121.17,78.326,121.73,78.326,122.554z"/>
	<path fill="#EE5D73" d="M87.243,119.519v1.564c0.659-0.51,1.269-0.898,1.829-1.165s1.229-0.4,2.006-0.4
		c2.219,0,3.328,1.102,3.328,3.305v5.364c0,0.51,0.122,0.831,0.365,0.965c0.243,0.133,0.611,0.199,1.105,0.199V130h-5.67v-0.647
		c0.502,0,0.869-0.08,1.1-0.24c0.231-0.161,0.348-0.5,0.348-1.018v-5.682c0-0.416-0.064-0.767-0.194-1.053s-0.319-0.504-0.571-0.653
		c-0.251-0.149-0.557-0.224-0.917-0.224c-0.447,0-0.884,0.116-1.312,0.347c-0.428,0.231-0.9,0.582-1.417,1.053v6.211
		c0,0.353,0.059,0.624,0.176,0.811c0.118,0.188,0.276,0.307,0.477,0.354c0.2,0.047,0.488,0.078,0.865,0.094V130h-5.682v-0.647
		c0.479,0,0.847-0.064,1.106-0.193c0.259-0.13,0.388-0.426,0.388-0.888v-5.211c0-0.518-0.118-0.935-0.353-1.253
		c-0.235-0.317-0.616-0.559-1.141-0.723v-0.388l3.717-1.176H87.243z M84.96,122.671v5.399c0,0.353-0.025,0.608-0.076,0.764
		c-0.051,0.157-0.163,0.33-0.335,0.518c0.769-0.07,1.153-0.498,1.153-1.282v-5.611c0-0.392-0.139-0.727-0.417-1.005
		c-0.279-0.278-0.602-0.418-0.971-0.418c-0.039,0-0.11,0.008-0.212,0.023c-0.102,0.016-0.168,0.024-0.2,0.024
		C84.607,121.405,84.96,121.935,84.96,122.671z M92.042,122.295v5.799c0,0.243-0.006,0.422-0.018,0.536s-0.043,0.223-0.095,0.329
		c-0.051,0.105-0.15,0.237-0.299,0.394h0.223c0.408,0,0.679-0.15,0.812-0.453c0.133-0.301,0.199-0.754,0.199-1.358v-5.2
		c0-0.674-0.148-1.188-0.447-1.541c-0.297-0.353-0.822-0.545-1.576-0.576c0.423,0.172,0.73,0.422,0.917,0.747
		S92.042,121.738,92.042,122.295z"/>
	<path fill="#EE5D73" d="M97.054,129.424v-3.082h0.635c0.597,1.059,1.22,1.856,1.871,2.394c0.65,0.537,1.286,0.806,1.905,0.806
		c0.4,0,0.757-0.129,1.07-0.388c0.313-0.26,0.471-0.553,0.471-0.882c0-0.432-0.117-0.729-0.353-0.894
		c-0.887-0.588-1.737-1.039-2.553-1.353c-2.157-0.8-3.235-1.941-3.235-3.423c0-0.878,0.337-1.611,1.012-2.2
		c0.675-0.588,1.584-0.882,2.729-0.882c0.58,0,1.121,0.061,1.623,0.182s1.059,0.296,1.67,0.523l0.118,2.788h-0.576
		c-0.636-0.941-1.265-1.651-1.889-2.129c-0.623-0.478-1.237-0.717-1.841-0.717c-0.376,0-0.688,0.124-0.935,0.37
		c-0.247,0.247-0.371,0.52-0.371,0.818c0,0.384,0.153,0.688,0.459,0.912s0.948,0.555,1.929,0.994c0.98,0.439,1.84,0.863,2.576,1.27
		c0.463,0.243,0.832,0.584,1.106,1.023c0.274,0.439,0.411,0.918,0.411,1.436c0,0.604-0.174,1.161-0.523,1.67
		c-0.349,0.51-0.831,0.913-1.446,1.211c-0.616,0.299-1.308,0.447-2.076,0.447C99.751,130.317,98.488,130.02,97.054,129.424z
		 M103.253,128.87c0.212-0.195,0.368-0.374,0.471-0.535c0.102-0.161,0.152-0.378,0.152-0.653c0-0.839-0.611-1.506-1.835-2
		c-1.098-0.455-1.964-0.856-2.6-1.206c-0.635-0.349-1.094-0.709-1.376-1.082s-0.424-0.837-0.424-1.394
		c0-0.337,0.095-0.713,0.282-1.129c-0.204,0.251-0.366,0.5-0.488,0.747c-0.121,0.247-0.182,0.551-0.182,0.912
		c0,0.745,0.267,1.349,0.8,1.812c0.533,0.463,1.325,0.931,2.376,1.406s1.808,0.863,2.271,1.165s0.694,0.72,0.694,1.253
		C103.395,128.361,103.347,128.597,103.253,128.87z M97.489,127.377v1.47c0.392,0.173,1.043,0.381,1.952,0.624
		c-0.486-0.337-0.847-0.64-1.082-0.905C98.124,128.298,97.834,127.902,97.489,127.377z M103.159,121.978l-0.106-1.353
		c-0.518-0.212-0.922-0.357-1.212-0.435c-0.29-0.079-0.713-0.118-1.27-0.118c0.588,0.204,1.057,0.441,1.405,0.711
		S102.72,121.452,103.159,121.978z"/>
	<path fill="#EE5D73" d="M110.017,119.519v8.505c0,0.361,0.037,0.633,0.112,0.817c0.074,0.185,0.215,0.312,0.423,0.383
		s0.527,0.113,0.959,0.129V130h-5.493v-0.647c0.485-0.016,0.825-0.113,1.018-0.294c0.191-0.181,0.288-0.501,0.288-0.964v-5.399
		c0-0.337-0.114-0.651-0.342-0.941s-0.549-0.506-0.964-0.647v-0.376l3.517-1.211H110.017z M107.711,122.73v5.588
		c0,0.455-0.16,0.8-0.482,1.035c0.432,0,0.747-0.098,0.947-0.294s0.3-0.517,0.3-0.964v-5.517c0-0.501-0.121-0.888-0.364-1.159
		s-0.561-0.406-0.953-0.406c-0.181,0-0.325,0.008-0.436,0.023C107.382,121.381,107.711,121.946,107.711,122.73z M108.57,113.79
		c0.298,0,0.576,0.073,0.835,0.218s0.463,0.343,0.611,0.594c0.149,0.251,0.224,0.526,0.224,0.824s-0.074,0.574-0.224,0.829
		c-0.148,0.255-0.353,0.457-0.611,0.606s-0.537,0.224-0.835,0.224c-0.447,0-0.832-0.165-1.153-0.494
		c-0.321-0.33-0.482-0.718-0.482-1.165c0-0.29,0.072-0.563,0.218-0.818c0.146-0.254,0.345-0.455,0.6-0.6
		S108.279,113.79,108.57,113.79z M108.77,114.167c-0.463,0-0.819,0.11-1.07,0.329c-0.251,0.22-0.376,0.522-0.376,0.906
		c0,0.369,0.121,0.672,0.364,0.912s0.604,0.37,1.082,0.394c-0.251-0.228-0.435-0.43-0.553-0.606
		c-0.117-0.176-0.177-0.402-0.177-0.676C108.04,114.916,108.283,114.496,108.77,114.167z"/>
	<path fill="#EE5D73" d="M113.733,127.153v-6.693h-1.259v-0.6c0.69-0.518,1.208-0.916,1.553-1.194
		c0.346-0.278,0.673-0.59,0.982-0.935s0.574-0.706,0.794-1.083h0.624v3.07h2.917v0.741h-2.917v7.035
		c0,0.518,0.062,0.904,0.188,1.159c0.126,0.255,0.338,0.382,0.636,0.382c0.282,0,0.543-0.078,0.782-0.235
		c0.239-0.156,0.531-0.399,0.876-0.729l0.436,0.459c-0.588,0.604-1.127,1.052-1.617,1.347c-0.49,0.294-1.053,0.44-1.688,0.44
		c-0.604,0-1.074-0.133-1.411-0.399c-0.338-0.267-0.571-0.63-0.7-1.089C113.798,128.371,113.733,127.812,113.733,127.153z
		 M114.887,118.46l-0.776,0.647v7.811c0,1.043,0.135,1.802,0.405,2.276s0.755,0.712,1.453,0.712c0.368,0,0.737-0.06,1.105-0.177
		c-0.714,0.023-1.257-0.143-1.629-0.5c-0.373-0.357-0.559-0.951-0.559-1.782V118.46z"/>
</g>
<g>
	<path d="M79.15,230.998c0.026-0.063,0.057-0.153,0.093-0.269s0.07-0.241,0.104-0.378s0.062-0.279,0.086-0.428
		s0.037-0.287,0.037-0.417c0-0.086-0.007-0.167-0.02-0.241c-0.013-0.075-0.036-0.14-0.067-0.192
		c-0.032-0.054-0.073-0.096-0.124-0.128c-0.05-0.031-0.113-0.047-0.188-0.047c-0.126,0-0.26,0.041-0.399,0.123
		s-0.283,0.208-0.43,0.378c-0.147,0.17-0.296,0.385-0.447,0.646c-0.151,0.261-0.3,0.568-0.447,0.923l-0.117-0.078
		c0.158-0.392,0.319-0.725,0.482-0.998c0.163-0.273,0.327-0.496,0.492-0.667c0.166-0.172,0.332-0.297,0.497-0.374
		c0.166-0.078,0.331-0.117,0.495-0.117c0.158,0,0.29,0.03,0.396,0.091c0.105,0.061,0.188,0.144,0.248,0.249
		c0.061,0.104,0.103,0.228,0.128,0.367c0.024,0.14,0.037,0.289,0.037,0.447c0,0.083-0.006,0.176-0.018,0.278
		c-0.011,0.103-0.029,0.208-0.052,0.317c0.167-0.285,0.326-0.537,0.478-0.756s0.302-0.401,0.452-0.549
		c0.149-0.146,0.301-0.258,0.456-0.333c0.154-0.074,0.319-0.112,0.495-0.112c0.159,0,0.309,0.026,0.452,0.078
		s0.267,0.128,0.374,0.227c0.106,0.1,0.191,0.225,0.253,0.374s0.093,0.321,0.093,0.514c0,0.096-0.007,0.188-0.021,0.277
		c-0.015,0.089-0.036,0.18-0.065,0.271c0.167-0.285,0.326-0.536,0.478-0.754c0.151-0.217,0.301-0.398,0.449-0.544
		s0.3-0.256,0.454-0.331c0.154-0.074,0.319-0.112,0.495-0.112c0.156,0,0.303,0.026,0.443,0.078s0.262,0.128,0.368,0.227
		c0.105,0.1,0.188,0.225,0.25,0.374s0.093,0.321,0.093,0.514c0,0.223-0.04,0.465-0.119,0.729c-0.08,0.264-0.178,0.54-0.296,0.829
		c-0.118,0.29-0.246,0.586-0.383,0.889c-0.137,0.302-0.264,0.604-0.382,0.902c-0.118,0.3-0.217,0.593-0.296,0.88
		c-0.079,0.286-0.119,0.557-0.119,0.81c0,0.205,0.046,0.369,0.138,0.493c0.092,0.123,0.241,0.186,0.445,0.186
		c0.19,0,0.373-0.045,0.549-0.134c0.176-0.09,0.35-0.223,0.523-0.4c0.173-0.177,0.349-0.397,0.529-0.663
		c0.18-0.265,0.369-0.573,0.568-0.925l0.225-0.397l0.117,0.082l-0.225,0.398c-0.216,0.383-0.42,0.715-0.613,0.998
		c-0.193,0.282-0.384,0.516-0.573,0.701c-0.188,0.187-0.381,0.324-0.577,0.415s-0.406,0.137-0.631,0.137
		c-0.202,0-0.373-0.025-0.514-0.074s-0.256-0.118-0.346-0.209s-0.154-0.2-0.194-0.328c-0.04-0.129-0.061-0.271-0.061-0.431
		c0-0.198,0.023-0.408,0.069-0.631c0.046-0.222,0.107-0.45,0.184-0.687s0.163-0.476,0.259-0.72c0.096-0.243,0.196-0.484,0.298-0.724
		c0.103-0.239,0.202-0.472,0.298-0.7c0.097-0.227,0.183-0.443,0.259-0.647c0.076-0.205,0.137-0.394,0.184-0.568
		c0.046-0.174,0.069-0.329,0.069-0.465c0-0.244-0.058-0.427-0.175-0.546c-0.117-0.12-0.27-0.18-0.46-0.18
		c-0.162,0-0.318,0.046-0.469,0.139c-0.151,0.092-0.305,0.229-0.46,0.408c-0.155,0.18-0.317,0.401-0.486,0.665
		s-0.349,0.567-0.542,0.909l-0.082,0.147l-1.62,4.472h-0.639l1.3-3.595c0.089-0.245,0.176-0.483,0.261-0.717
		s0.161-0.454,0.227-0.661c0.066-0.208,0.12-0.399,0.162-0.575c0.042-0.176,0.062-0.331,0.062-0.467c0-0.244-0.062-0.435-0.188-0.57
		c-0.125-0.135-0.287-0.202-0.486-0.202c-0.162,0-0.318,0.049-0.469,0.146c-0.151,0.098-0.304,0.239-0.46,0.424
		c-0.155,0.184-0.316,0.409-0.481,0.676c-0.166,0.267-0.345,0.568-0.538,0.905l-1.689,4.636h-0.639L79.15,230.998z"/>
	<path d="M87.294,233.162c0.104-0.311,0.228-0.594,0.372-0.849c0.144-0.255,0.3-0.481,0.469-0.681
		c0.168-0.198,0.346-0.37,0.531-0.514c0.186-0.145,0.372-0.264,0.557-0.356c0.186-0.094,0.369-0.164,0.549-0.21
		c0.181-0.046,0.349-0.069,0.508-0.069c0.165,0,0.302,0.025,0.411,0.076c0.109,0.05,0.197,0.121,0.266,0.211
		c0.066,0.091,0.115,0.2,0.145,0.329c0.029,0.128,0.043,0.27,0.043,0.425l0.35-0.959h0.639l-1.102,3.024
		c-0.039,0.112-0.08,0.228-0.121,0.344c-0.039,0.116-0.074,0.231-0.105,0.346c-0.029,0.113-0.055,0.224-0.072,0.328
		c-0.02,0.105-0.029,0.202-0.029,0.292c0,0.198,0.053,0.357,0.158,0.475c0.105,0.118,0.27,0.178,0.49,0.178
		c0.193,0,0.381-0.041,0.562-0.123s0.359-0.208,0.537-0.376c0.178-0.169,0.355-0.38,0.533-0.636c0.18-0.255,0.363-0.554,0.553-0.896
		l0.221-0.397l0.117,0.082l-0.225,0.398c-0.211,0.374-0.412,0.697-0.604,0.97c-0.191,0.271-0.381,0.497-0.572,0.674
		c-0.189,0.177-0.385,0.309-0.582,0.394c-0.199,0.085-0.412,0.127-0.637,0.127c-0.176,0-0.33-0.026-0.463-0.08
		c-0.135-0.053-0.246-0.129-0.338-0.227c-0.09-0.098-0.159-0.216-0.205-0.354c-0.046-0.138-0.069-0.292-0.069-0.462
		c0-0.112,0.011-0.234,0.03-0.365c0.021-0.131,0.051-0.268,0.091-0.408c-0.377,0.634-0.75,1.108-1.119,1.424
		s-0.743,0.473-1.123,0.473c-0.179,0-0.331-0.032-0.456-0.097c-0.125-0.065-0.228-0.156-0.309-0.272
		c-0.081-0.117-0.14-0.254-0.177-0.411c-0.038-0.156-0.056-0.328-0.056-0.516c0-0.202,0.02-0.414,0.061-0.638
		C87.161,233.611,87.219,233.387,87.294,233.162z M88.214,235.552c0.156,0,0.314-0.041,0.476-0.123
		c0.161-0.082,0.322-0.194,0.481-0.337c0.16-0.143,0.315-0.31,0.464-0.502c0.15-0.191,0.292-0.396,0.426-0.613
		c0.133-0.217,0.256-0.441,0.369-0.672c0.111-0.23,0.209-0.457,0.291-0.681c0.082-0.223,0.146-0.436,0.191-0.639
		c0.043-0.203,0.066-0.386,0.066-0.547c0-0.146-0.018-0.271-0.055-0.369c-0.035-0.1-0.084-0.181-0.143-0.242
		s-0.127-0.105-0.203-0.132s-0.154-0.039-0.234-0.039c-0.162,0-0.342,0.05-0.539,0.149c-0.197,0.1-0.398,0.25-0.603,0.453
		c-0.205,0.203-0.406,0.46-0.603,0.77s-0.378,0.673-0.542,1.091c-0.136,0.349-0.237,0.671-0.305,0.968s-0.102,0.544-0.102,0.743
		c0,0.225,0.045,0.401,0.136,0.529S88.021,235.552,88.214,235.552z"/>
	<path d="M96.985,230.872c0-0.046-0.029-0.093-0.089-0.14c-0.059-0.048-0.145-0.071-0.257-0.071c-0.115,0-0.24,0.035-0.376,0.105
		s-0.289,0.195-0.462,0.374s-0.367,0.422-0.581,0.729c-0.215,0.309-0.458,0.702-0.729,1.18l-0.216,0.381l-0.816,2.255h-0.644
		l1.866-5.12h0.64l-0.757,2.074c0.236-0.406,0.452-0.747,0.648-1.021c0.196-0.275,0.377-0.497,0.544-0.666
		c0.167-0.168,0.324-0.288,0.472-0.36c0.146-0.072,0.291-0.108,0.432-0.108c0.19,0,0.339,0.057,0.447,0.169s0.162,0.259,0.162,0.44
		c0,0.075-0.01,0.146-0.028,0.214s-0.046,0.126-0.082,0.175s-0.08,0.088-0.132,0.117c-0.052,0.028-0.109,0.043-0.173,0.043
		c-0.046,0-0.091-0.007-0.136-0.021s-0.084-0.037-0.119-0.067c-0.034-0.03-0.062-0.066-0.084-0.11
		c-0.021-0.043-0.032-0.093-0.032-0.15c0-0.047,0.008-0.094,0.023-0.141c0.016-0.048,0.038-0.09,0.067-0.126
		c0.028-0.035,0.062-0.065,0.104-0.088c0.04-0.023,0.085-0.035,0.134-0.035c0.031,0,0.062,0.003,0.091,0.009
		c0.006,0.006,0.014,0.011,0.023,0.016c0.01,0.004,0.019,0.006,0.024,0.006C96.974,230.933,96.985,230.913,96.985,230.872z"/>
	<path d="M98.714,230.565h0.639l-1.102,3.024c-0.04,0.112-0.08,0.228-0.121,0.344c-0.04,0.116-0.075,0.231-0.105,0.346
		c-0.03,0.113-0.055,0.224-0.073,0.328c-0.019,0.105-0.028,0.202-0.028,0.292c0,0.198,0.053,0.357,0.157,0.475
		c0.105,0.118,0.269,0.178,0.491,0.178c0.192,0,0.379-0.042,0.56-0.125c0.18-0.084,0.358-0.21,0.535-0.379
		c0.178-0.168,0.355-0.38,0.534-0.635c0.178-0.255,0.364-0.552,0.557-0.893l0.225-0.397l0.117,0.082l-0.225,0.398
		c-0.211,0.371-0.411,0.693-0.603,0.965c-0.192,0.272-0.384,0.497-0.575,0.675c-0.191,0.177-0.387,0.309-0.585,0.395
		c-0.199,0.087-0.411,0.13-0.636,0.13c-0.176,0-0.33-0.026-0.464-0.08c-0.134-0.053-0.246-0.129-0.337-0.227
		s-0.159-0.216-0.206-0.354c-0.046-0.138-0.068-0.292-0.068-0.462c0-0.15,0.018-0.314,0.054-0.493
		c0.036-0.178,0.089-0.365,0.157-0.562L98.714,230.565z M99.06,229.434c0-0.101,0.035-0.188,0.105-0.259
		c0.07-0.072,0.156-0.108,0.257-0.108s0.187,0.035,0.257,0.105c0.071,0.071,0.106,0.156,0.106,0.258c0,0.049-0.01,0.096-0.028,0.14
		c-0.019,0.045-0.045,0.083-0.078,0.115c-0.032,0.031-0.071,0.057-0.116,0.075s-0.093,0.028-0.145,0.028
		c-0.101,0-0.186-0.034-0.255-0.102S99.06,229.534,99.06,229.434z"/>
	<path d="M101.91,230.565h0.64l-0.679,1.858c0.193-0.329,0.379-0.614,0.558-0.858c0.179-0.243,0.356-0.444,0.534-0.604
		c0.177-0.16,0.356-0.279,0.537-0.358c0.182-0.079,0.373-0.119,0.575-0.119c0.182,0,0.34,0.03,0.475,0.089
		c0.136,0.059,0.25,0.14,0.342,0.242c0.092,0.102,0.161,0.221,0.207,0.356c0.046,0.135,0.069,0.277,0.069,0.428
		c0,0.164-0.023,0.343-0.071,0.535c-0.048,0.193-0.107,0.392-0.18,0.597c-0.071,0.204-0.149,0.411-0.232,0.62
		c-0.084,0.209-0.162,0.409-0.233,0.603c-0.072,0.193-0.132,0.374-0.18,0.542c-0.048,0.169-0.071,0.316-0.071,0.443
		c0,0.176,0.054,0.321,0.162,0.438c0.108,0.116,0.277,0.175,0.508,0.175c0.185,0,0.365-0.043,0.542-0.128s0.354-0.211,0.531-0.38
		c0.178-0.169,0.355-0.38,0.536-0.635c0.18-0.255,0.365-0.551,0.555-0.889l0.225-0.397l0.117,0.082l-0.225,0.398
		c-0.208,0.362-0.406,0.68-0.597,0.952c-0.189,0.272-0.38,0.498-0.57,0.676c-0.189,0.179-0.384,0.313-0.581,0.402
		s-0.406,0.134-0.629,0.134c-0.181,0-0.34-0.027-0.477-0.082c-0.138-0.055-0.252-0.13-0.344-0.225
		c-0.093-0.095-0.161-0.205-0.207-0.331c-0.047-0.125-0.069-0.258-0.069-0.399c0-0.149,0.023-0.317,0.071-0.503
		c0.047-0.186,0.107-0.381,0.179-0.583c0.072-0.203,0.15-0.409,0.233-0.618c0.084-0.209,0.161-0.412,0.233-0.609
		s0.132-0.385,0.18-0.562c0.047-0.177,0.071-0.335,0.071-0.474c0-0.098-0.014-0.188-0.039-0.271
		c-0.026-0.084-0.067-0.156-0.123-0.216c-0.057-0.061-0.127-0.108-0.212-0.143c-0.085-0.035-0.187-0.053-0.305-0.053
		c-0.182,0-0.358,0.044-0.531,0.132s-0.347,0.22-0.521,0.396c-0.175,0.176-0.352,0.396-0.531,0.659
		c-0.181,0.264-0.37,0.571-0.568,0.922l-0.225,0.397l-0.907,2.48h-0.64L101.91,230.565z"/>
	<path d="M107.241,233.162c0.104-0.311,0.228-0.594,0.372-0.849c0.144-0.255,0.3-0.481,0.469-0.681
		c0.168-0.198,0.346-0.37,0.531-0.514c0.186-0.145,0.371-0.264,0.558-0.356c0.186-0.094,0.368-0.164,0.549-0.21
		c0.18-0.046,0.349-0.069,0.507-0.069c0.165,0,0.302,0.025,0.411,0.076c0.109,0.05,0.198,0.121,0.266,0.211
		c0.067,0.091,0.116,0.2,0.145,0.329c0.029,0.128,0.043,0.27,0.043,0.425l0.351-0.959h0.639l-1.102,3.024
		c-0.04,0.112-0.08,0.228-0.121,0.344c-0.04,0.116-0.075,0.231-0.105,0.346c-0.03,0.113-0.055,0.224-0.073,0.328
		c-0.019,0.105-0.028,0.202-0.028,0.292c0,0.198,0.053,0.357,0.158,0.475c0.104,0.118,0.269,0.178,0.49,0.178
		c0.192,0,0.38-0.041,0.562-0.123s0.36-0.208,0.538-0.376c0.177-0.169,0.354-0.38,0.533-0.636c0.179-0.255,0.363-0.554,0.553-0.896
		l0.221-0.397l0.116,0.082l-0.225,0.398c-0.21,0.374-0.411,0.697-0.603,0.97c-0.191,0.271-0.382,0.497-0.572,0.674
		s-0.385,0.309-0.583,0.394c-0.199,0.085-0.411,0.127-0.636,0.127c-0.176,0-0.33-0.026-0.464-0.08
		c-0.134-0.053-0.246-0.129-0.337-0.227s-0.159-0.216-0.206-0.354c-0.046-0.138-0.068-0.292-0.068-0.462
		c0-0.112,0.01-0.234,0.03-0.365c0.02-0.131,0.05-0.268,0.091-0.408c-0.378,0.634-0.751,1.108-1.119,1.424
		c-0.369,0.315-0.743,0.473-1.124,0.473c-0.179,0-0.33-0.032-0.455-0.097c-0.126-0.065-0.229-0.156-0.31-0.272
		c-0.08-0.117-0.14-0.254-0.177-0.411c-0.037-0.156-0.057-0.328-0.057-0.516c0-0.202,0.021-0.414,0.061-0.638
		C107.109,233.611,107.167,233.387,107.241,233.162z M108.162,235.552c0.155,0,0.313-0.041,0.475-0.123s0.322-0.194,0.482-0.337
		c0.159-0.143,0.314-0.31,0.464-0.502c0.15-0.191,0.292-0.396,0.426-0.613c0.134-0.217,0.257-0.441,0.369-0.672
		s0.21-0.457,0.292-0.681c0.082-0.223,0.146-0.436,0.19-0.639c0.044-0.203,0.066-0.386,0.066-0.547c0-0.146-0.018-0.271-0.054-0.369
		c-0.036-0.1-0.084-0.181-0.143-0.242c-0.06-0.062-0.127-0.105-0.203-0.132s-0.155-0.039-0.235-0.039
		c-0.161,0-0.341,0.05-0.538,0.149s-0.398,0.25-0.603,0.453c-0.205,0.203-0.405,0.46-0.603,0.77s-0.378,0.673-0.543,1.091
		c-0.135,0.349-0.236,0.671-0.305,0.968c-0.067,0.297-0.101,0.544-0.101,0.743c0,0.225,0.045,0.401,0.136,0.529
		S107.969,235.552,108.162,235.552z"/>
	<path d="M121.443,230.397c0.063-0.098,0.146-0.211,0.249-0.337c0.102-0.127,0.218-0.255,0.348-0.383s0.271-0.25,0.426-0.365
		s0.314-0.209,0.481-0.28c-0.173-0.044-0.357-0.076-0.553-0.1c-0.196-0.023-0.406-0.034-0.631-0.034c-0.306,0-0.6,0.021-0.882,0.064
		s-0.544,0.109-0.786,0.198c-0.242,0.09-0.462,0.204-0.659,0.344s-0.366,0.308-0.507,0.504c-0.142,0.195-0.25,0.42-0.326,0.674
		c-0.077,0.253-0.115,0.537-0.115,0.851c0,0.099,0.005,0.2,0.016,0.307c0.01,0.107,0.032,0.212,0.066,0.313
		c0.035,0.103,0.084,0.199,0.147,0.292c0.063,0.092,0.148,0.171,0.255,0.237l-0.057,0.091c-0.259-0.124-0.45-0.29-0.574-0.499
		s-0.186-0.481-0.186-0.818c0-0.409,0.089-0.781,0.268-1.115s0.426-0.62,0.743-0.857c0.316-0.237,0.694-0.422,1.134-0.553
		s0.92-0.197,1.441-0.197c0.541,0,1.023,0.07,1.445,0.21s0.777,0.339,1.066,0.597c0.29,0.258,0.51,0.566,0.661,0.927
		c0.151,0.359,0.228,0.76,0.228,1.2c0,0.274-0.029,0.543-0.087,0.809c-0.058,0.265-0.138,0.52-0.239,0.765
		c-0.103,0.245-0.226,0.478-0.367,0.697c-0.143,0.221-0.3,0.423-0.47,0.607s-0.358,0.356-0.565,0.517
		c-0.207,0.159-0.436,0.299-0.685,0.417s-0.519,0.211-0.806,0.278c-0.288,0.067-0.599,0.102-0.93,0.102
		c-0.201,0-0.393-0.012-0.574-0.034c-0.182-0.023-0.351-0.053-0.508-0.089s-0.3-0.075-0.428-0.117
		c-0.128-0.041-0.239-0.081-0.335-0.118c-0.21,0.121-0.429,0.21-0.654,0.268c-0.227,0.058-0.466,0.087-0.72,0.087
		c-0.179,0-0.324-0.013-0.437-0.037s-0.2-0.058-0.263-0.1c-0.063-0.042-0.107-0.089-0.132-0.141s-0.037-0.104-0.037-0.155
		c0-0.104,0.034-0.186,0.102-0.246s0.153-0.107,0.257-0.141s0.217-0.055,0.34-0.064c0.122-0.011,0.238-0.016,0.348-0.016
		c0.235,0,0.455,0.016,0.658,0.046s0.398,0.074,0.586,0.132c0.089-0.102,0.179-0.22,0.27-0.356s0.184-0.296,0.279-0.478
		c0.095-0.182,0.193-0.386,0.296-0.613c0.102-0.228,0.209-0.482,0.321-0.766c0.136-0.34,0.252-0.631,0.351-0.874
		c0.098-0.244,0.182-0.451,0.25-0.623c0.069-0.171,0.128-0.312,0.176-0.425c0.047-0.112,0.088-0.205,0.123-0.279
		c0.034-0.073,0.065-0.134,0.093-0.181C121.383,230.49,121.412,230.443,121.443,230.397z M117.806,235.698
		c0.216,0,0.412-0.02,0.588-0.058c0.176-0.039,0.344-0.118,0.506-0.236c-0.058-0.017-0.139-0.041-0.242-0.071
		s-0.217-0.059-0.339-0.086c-0.123-0.027-0.248-0.051-0.376-0.071c-0.129-0.021-0.249-0.03-0.361-0.03
		c-0.146,0-0.267,0.021-0.36,0.064c-0.094,0.044-0.141,0.115-0.141,0.217c0,0.037,0.01,0.072,0.028,0.105s0.055,0.062,0.107,0.086
		c0.054,0.025,0.127,0.044,0.221,0.059S117.653,235.698,117.806,235.698z M124.589,231.382c0-0.616-0.121-1.113-0.365-1.492
		c-0.243-0.379-0.615-0.648-1.116-0.811c-0.078,0.041-0.154,0.087-0.229,0.139c-0.074,0.052-0.146,0.108-0.211,0.168
		c-0.066,0.061-0.128,0.124-0.185,0.19c-0.056,0.066-0.105,0.131-0.148,0.194c-0.035,0.049-0.067,0.104-0.1,0.164
		c-0.031,0.061-0.066,0.134-0.105,0.221c-0.039,0.086-0.082,0.19-0.13,0.312c-0.048,0.12-0.104,0.266-0.166,0.434
		c-0.063,0.169-0.137,0.365-0.221,0.59s-0.179,0.484-0.285,0.777c-0.271,0.735-0.555,1.346-0.852,1.832
		c-0.296,0.487-0.614,0.869-0.954,1.146c0.109,0.04,0.229,0.084,0.358,0.132c0.13,0.047,0.27,0.091,0.419,0.132
		c0.149,0.04,0.308,0.073,0.473,0.099c0.166,0.026,0.34,0.039,0.521,0.039c0.285,0,0.546-0.033,0.781-0.102
		c0.236-0.067,0.452-0.16,0.646-0.278s0.37-0.256,0.527-0.413c0.156-0.156,0.299-0.324,0.425-0.503
		c0.139-0.199,0.264-0.416,0.376-0.65s0.209-0.48,0.29-0.736c0.08-0.257,0.143-0.518,0.186-0.784S124.589,231.647,124.589,231.382z"
		/>
	<path d="M126.309,233.176c0.101-0.387,0.248-0.743,0.442-1.072c0.194-0.328,0.418-0.612,0.67-0.853
		c0.252-0.241,0.525-0.429,0.82-0.564c0.296-0.135,0.593-0.203,0.893-0.203c0.242,0,0.445,0.041,0.611,0.123
		s0.299,0.192,0.399,0.331c0.102,0.138,0.173,0.298,0.217,0.479c0.043,0.182,0.064,0.371,0.064,0.57
		c0,0.216-0.021,0.432-0.062,0.647c-0.042,0.217-0.096,0.423-0.162,0.618c-0.04,0.124-0.087,0.243-0.139,0.358
		s-0.106,0.228-0.164,0.337c0.04,0.096,0.1,0.173,0.178,0.231c0.077,0.06,0.186,0.089,0.323,0.089c0.081,0,0.167-0.013,0.26-0.039
		c0.092-0.026,0.185-0.068,0.278-0.127c0.094-0.06,0.186-0.137,0.276-0.231c0.091-0.096,0.176-0.212,0.253-0.351l0.225-0.397
		l0.117,0.082l-0.225,0.398c-0.11,0.192-0.222,0.345-0.335,0.455c-0.114,0.111-0.225,0.195-0.331,0.253s-0.206,0.095-0.3,0.11
		s-0.174,0.023-0.24,0.023c-0.135,0-0.256-0.018-0.362-0.054c-0.107-0.036-0.202-0.084-0.285-0.145
		c-0.145,0.23-0.304,0.439-0.478,0.626c-0.175,0.188-0.358,0.348-0.551,0.479c-0.193,0.133-0.393,0.235-0.599,0.307
		c-0.206,0.072-0.411,0.108-0.616,0.108c-0.204,0-0.388-0.037-0.551-0.11c-0.162-0.073-0.3-0.179-0.412-0.317
		s-0.199-0.308-0.26-0.508s-0.091-0.426-0.091-0.676c0-0.158,0.012-0.32,0.035-0.486
		C126.231,233.505,126.265,233.34,126.309,233.176z M127.553,235.552c0.167,0,0.336-0.038,0.508-0.114
		c0.171-0.077,0.34-0.186,0.505-0.326c0.166-0.142,0.326-0.312,0.479-0.513c0.154-0.2,0.296-0.423,0.426-0.667
		c-0.034-0.066-0.06-0.135-0.075-0.205c-0.017-0.071-0.024-0.144-0.024-0.219c0-0.083,0.012-0.166,0.035-0.248
		c0.022-0.082,0.059-0.158,0.105-0.229c0.048-0.07,0.108-0.135,0.182-0.192s0.159-0.104,0.257-0.138
		c0.043-0.161,0.079-0.329,0.108-0.504c0.028-0.174,0.043-0.346,0.043-0.516c0-0.139-0.013-0.271-0.039-0.396
		c-0.025-0.125-0.069-0.234-0.132-0.326c-0.062-0.092-0.146-0.166-0.25-0.221c-0.105-0.055-0.235-0.082-0.392-0.082
		c-0.225,0-0.447,0.06-0.667,0.18c-0.221,0.119-0.43,0.288-0.627,0.505c-0.197,0.218-0.376,0.478-0.538,0.78
		c-0.161,0.303-0.295,0.637-0.401,1.002c-0.072,0.245-0.128,0.491-0.166,0.737c-0.039,0.246-0.059,0.47-0.059,0.672
		C126.831,235.212,127.071,235.552,127.553,235.552z"/>
	<path d="M132.577,232.424c0.225-0.384,0.431-0.704,0.618-0.964c0.188-0.259,0.368-0.467,0.542-0.622
		c0.175-0.155,0.349-0.267,0.523-0.333c0.174-0.065,0.36-0.099,0.56-0.099c0.328,0,0.579,0.076,0.754,0.229
		c0.174,0.152,0.261,0.373,0.261,0.661c0,0.242-0.06,0.462-0.179,0.661c-0.12,0.198-0.292,0.371-0.517,0.519
		c-0.072,0.046-0.15,0.089-0.235,0.13c-0.085,0.04-0.183,0.08-0.292,0.12c-0.109,0.041-0.233,0.082-0.371,0.123
		c-0.139,0.042-0.297,0.085-0.476,0.128v0.018c0.354,0.022,0.626,0.102,0.814,0.237s0.283,0.307,0.283,0.515
		c0,0.092-0.016,0.188-0.048,0.287c-0.031,0.099-0.066,0.2-0.105,0.305c-0.039,0.104-0.074,0.208-0.106,0.312
		c-0.031,0.105-0.047,0.209-0.047,0.31c0,0.176,0.056,0.318,0.168,0.428s0.278,0.164,0.497,0.164c0.176,0,0.35-0.04,0.522-0.121
		s0.348-0.204,0.523-0.369c0.176-0.166,0.354-0.376,0.538-0.631c0.183-0.255,0.373-0.559,0.572-0.91l0.225-0.397l0.116,0.082
		l-0.225,0.398c-0.236,0.417-0.455,0.765-0.656,1.043c-0.202,0.278-0.4,0.5-0.595,0.665c-0.194,0.166-0.39,0.283-0.585,0.353
		c-0.196,0.069-0.406,0.104-0.631,0.104c-0.133,0-0.26-0.013-0.38-0.037c-0.121-0.024-0.228-0.065-0.32-0.123
		c-0.092-0.058-0.165-0.135-0.22-0.233c-0.055-0.098-0.082-0.22-0.082-0.367c0-0.115,0.015-0.232,0.045-0.352
		c0.03-0.12,0.063-0.236,0.1-0.351c0.036-0.113,0.069-0.224,0.099-0.33c0.03-0.106,0.046-0.206,0.046-0.298
		c0-0.179-0.072-0.329-0.216-0.449c-0.145-0.121-0.367-0.187-0.67-0.194v-0.022c0.303-0.083,0.574-0.187,0.814-0.311
		s0.442-0.26,0.607-0.406c0.319-0.291,0.479-0.632,0.479-1.024c0-0.466-0.217-0.699-0.648-0.699c-0.17,0-0.336,0.039-0.499,0.118
		c-0.163,0.08-0.336,0.22-0.521,0.42s-0.387,0.47-0.607,0.81c-0.22,0.34-0.473,0.77-0.758,1.287l-0.907,2.48h-0.64l2.691-7.396
		h0.644L132.577,232.424z"/>
	<path d="M137.568,233.176c0.101-0.387,0.248-0.743,0.442-1.072c0.194-0.328,0.418-0.612,0.67-0.853
		c0.252-0.241,0.525-0.429,0.82-0.564c0.296-0.135,0.593-0.203,0.893-0.203c0.242,0,0.445,0.041,0.611,0.123
		s0.299,0.192,0.399,0.331c0.102,0.138,0.173,0.298,0.217,0.479c0.043,0.182,0.064,0.371,0.064,0.57
		c0,0.216-0.021,0.432-0.062,0.647c-0.042,0.217-0.096,0.423-0.162,0.618c-0.04,0.124-0.087,0.243-0.139,0.358
		s-0.106,0.228-0.164,0.337c0.04,0.096,0.1,0.173,0.178,0.231c0.077,0.06,0.186,0.089,0.323,0.089c0.081,0,0.167-0.013,0.26-0.039
		c0.092-0.026,0.185-0.068,0.278-0.127c0.094-0.06,0.186-0.137,0.276-0.231c0.091-0.096,0.176-0.212,0.253-0.351l0.225-0.397
		l0.117,0.082l-0.225,0.398c-0.11,0.192-0.222,0.345-0.335,0.455c-0.114,0.111-0.225,0.195-0.331,0.253s-0.206,0.095-0.3,0.11
		s-0.174,0.023-0.24,0.023c-0.135,0-0.256-0.018-0.362-0.054c-0.107-0.036-0.202-0.084-0.285-0.145
		c-0.145,0.23-0.304,0.439-0.478,0.626c-0.175,0.188-0.358,0.348-0.551,0.479c-0.193,0.133-0.393,0.235-0.599,0.307
		c-0.206,0.072-0.411,0.108-0.616,0.108c-0.204,0-0.388-0.037-0.551-0.11c-0.162-0.073-0.3-0.179-0.412-0.317
		s-0.199-0.308-0.26-0.508s-0.091-0.426-0.091-0.676c0-0.158,0.012-0.32,0.035-0.486
		C137.491,233.505,137.524,233.34,137.568,233.176z M138.812,235.552c0.167,0,0.336-0.038,0.508-0.114
		c0.171-0.077,0.34-0.186,0.505-0.326c0.166-0.142,0.326-0.312,0.479-0.513c0.154-0.2,0.296-0.423,0.426-0.667
		c-0.034-0.066-0.06-0.135-0.075-0.205c-0.017-0.071-0.024-0.144-0.024-0.219c0-0.083,0.012-0.166,0.035-0.248
		c0.022-0.082,0.059-0.158,0.105-0.229c0.048-0.07,0.108-0.135,0.182-0.192s0.159-0.104,0.257-0.138
		c0.043-0.161,0.079-0.329,0.108-0.504c0.028-0.174,0.043-0.346,0.043-0.516c0-0.139-0.013-0.271-0.039-0.396
		c-0.025-0.125-0.069-0.234-0.132-0.326c-0.062-0.092-0.146-0.166-0.25-0.221c-0.105-0.055-0.235-0.082-0.392-0.082
		c-0.225,0-0.447,0.06-0.667,0.18c-0.221,0.119-0.43,0.288-0.627,0.505c-0.197,0.218-0.376,0.478-0.538,0.78
		c-0.161,0.303-0.295,0.637-0.401,1.002c-0.072,0.245-0.128,0.491-0.166,0.737c-0.039,0.246-0.059,0.47-0.059,0.672
		C138.091,235.212,138.331,235.552,138.812,235.552z"/>
	<path d="M143.413,233.59c-0.112,0.312-0.195,0.572-0.249,0.782c-0.053,0.21-0.079,0.386-0.079,0.527
		c0,0.207,0.055,0.368,0.164,0.481c0.109,0.114,0.269,0.171,0.479,0.171c0.195,0,0.396-0.051,0.601-0.153
		c0.204-0.103,0.403-0.244,0.596-0.426c0.193-0.182,0.373-0.396,0.54-0.642s0.312-0.512,0.437-0.797
		c0.115-0.269,0.204-0.544,0.266-0.828c0.062-0.283,0.093-0.576,0.093-0.879c0-0.219-0.014-0.394-0.041-0.524
		c-0.027-0.132-0.058-0.236-0.093-0.313c-0.034-0.078-0.065-0.138-0.093-0.18c-0.027-0.041-0.041-0.082-0.041-0.123
		c0-0.052,0.022-0.098,0.067-0.138c0.044-0.041,0.096-0.061,0.153-0.061c0.063,0,0.117,0.025,0.162,0.077
		c0.044,0.052,0.081,0.123,0.109,0.212c0.029,0.09,0.051,0.194,0.065,0.315s0.021,0.249,0.021,0.385c0,0.195-0.014,0.39-0.041,0.583
		s-0.063,0.38-0.108,0.562c-0.044,0.182-0.097,0.356-0.157,0.523s-0.124,0.323-0.19,0.471c-0.144,0.313-0.31,0.603-0.497,0.866
		c-0.187,0.264-0.388,0.49-0.603,0.681c-0.215,0.189-0.437,0.338-0.667,0.444s-0.463,0.16-0.696,0.16
		c-0.164,0-0.311-0.026-0.44-0.08c-0.13-0.053-0.239-0.129-0.33-0.227s-0.16-0.216-0.208-0.354
		c-0.047-0.138-0.071-0.292-0.071-0.462c0-0.147,0.019-0.311,0.055-0.49c0.035-0.181,0.088-0.368,0.157-0.564l1.098-3.024h0.64
		L143.413,233.59z"/>
	<path d="M147.776,233.162c0.104-0.311,0.228-0.594,0.372-0.849c0.144-0.255,0.3-0.481,0.469-0.681
		c0.168-0.198,0.346-0.37,0.531-0.514c0.186-0.145,0.371-0.264,0.558-0.356c0.186-0.094,0.368-0.164,0.549-0.21
		c0.18-0.046,0.349-0.069,0.507-0.069c0.165,0,0.302,0.025,0.411,0.076c0.109,0.05,0.198,0.121,0.266,0.211
		c0.067,0.091,0.116,0.2,0.145,0.329c0.029,0.128,0.043,0.27,0.043,0.425l0.351-0.959h0.639l-1.102,3.024
		c-0.04,0.112-0.08,0.228-0.121,0.344c-0.04,0.116-0.075,0.231-0.105,0.346c-0.03,0.113-0.055,0.224-0.073,0.328
		c-0.019,0.105-0.028,0.202-0.028,0.292c0,0.198,0.053,0.357,0.158,0.475c0.104,0.118,0.269,0.178,0.49,0.178
		c0.192,0,0.38-0.041,0.562-0.123s0.36-0.208,0.538-0.376c0.177-0.169,0.354-0.38,0.533-0.636c0.179-0.255,0.363-0.554,0.553-0.896
		l0.221-0.397l0.116,0.082l-0.225,0.398c-0.21,0.374-0.411,0.697-0.603,0.97c-0.191,0.271-0.382,0.497-0.572,0.674
		s-0.385,0.309-0.583,0.394c-0.199,0.085-0.411,0.127-0.636,0.127c-0.176,0-0.33-0.026-0.464-0.08
		c-0.134-0.053-0.246-0.129-0.337-0.227s-0.159-0.216-0.206-0.354c-0.046-0.138-0.068-0.292-0.068-0.462
		c0-0.112,0.01-0.234,0.03-0.365c0.02-0.131,0.05-0.268,0.091-0.408c-0.378,0.634-0.751,1.108-1.119,1.424
		c-0.369,0.315-0.743,0.473-1.124,0.473c-0.179,0-0.33-0.032-0.455-0.097c-0.126-0.065-0.229-0.156-0.31-0.272
		c-0.08-0.117-0.14-0.254-0.177-0.411c-0.037-0.156-0.057-0.328-0.057-0.516c0-0.202,0.021-0.414,0.061-0.638
		C147.645,233.611,147.702,233.387,147.776,233.162z M148.697,235.552c0.155,0,0.313-0.041,0.475-0.123s0.322-0.194,0.482-0.337
		c0.159-0.143,0.314-0.31,0.464-0.502c0.15-0.191,0.292-0.396,0.426-0.613c0.134-0.217,0.257-0.441,0.369-0.672
		s0.21-0.457,0.292-0.681c0.082-0.223,0.146-0.436,0.19-0.639c0.044-0.203,0.066-0.386,0.066-0.547c0-0.146-0.018-0.271-0.054-0.369
		c-0.036-0.1-0.084-0.181-0.143-0.242c-0.06-0.062-0.127-0.105-0.203-0.132s-0.155-0.039-0.235-0.039
		c-0.161,0-0.341,0.05-0.538,0.149s-0.398,0.25-0.603,0.453c-0.205,0.203-0.405,0.46-0.603,0.77s-0.378,0.673-0.543,1.091
		c-0.135,0.349-0.236,0.671-0.305,0.968c-0.067,0.297-0.101,0.544-0.101,0.743c0,0.225,0.045,0.401,0.136,0.529
		S148.504,235.552,148.697,235.552z"/>
</g>
</svg>
