<?xml version="1.0" encoding="utf-8"?>
<!-- Generator: Adobe Illustrator 16.0.0, SVG Export Plug-In . SVG Version: 6.00 Build 0)  -->
<!DOCTYPE svg PUBLIC "-//W3C//DTD SVG 1.1//EN" "http://www.w3.org/Graphics/SVG/1.1/DTD/svg11.dtd">
<svg version="1.1" id="Layer_1" xmlns="http://www.w3.org/2000/svg" xmlns:xlink="http://www.w3.org/1999/xlink" x="0px" y="0px"
	 width="180px" height="260px" viewBox="0 0 180 260" enable-background="new 0 0 180 260" xml:space="preserve">
<rect fill="#009BDB" width="180" height="260"/>
<g>
	<g>
		<g enable-background="new    ">
			<g enable-background="new    ">
				<g>
					<g>
						<defs>
							<path id="SVGID_1_" d="M12.412,11.848l70.321,23.956L29.828,176.535c-1.586,4.023-2.387,7.613-2.402,10.754
								c-0.034,6.791,2.546,12.641,7.759,17.545c5.204,4.906,11.409,7.354,18.599,7.354c7.199,0,13.322-2.48,18.386-7.447
								s7.614-10.971,7.649-18.021c0.035-7.043-2.455-13.012-7.469-17.918c-5.015-4.904-11.112-7.354-18.312-7.354
								c-1.7,0-4.248,0.25-7.652,0.752l32.352-73.951c27.675,11.575,47.585,24.873,59.75,39.9
								c12.152,15.027,18.17,33.67,18.059,55.932c-0.14,27.918-10.165,51.439-30.074,70.551c-3.438,3.305-7.022,6.299-10.728,9.031
								H-5.981l1.033-206.42L12.412,11.848z"/>
						</defs>
						<clipPath id="SVGID_2_">
							<use xlink:href="#SVGID_1_"  overflow="visible"/>
						</clipPath>
						<path clip-path="url(#SVGID_2_)" fill="none" stroke="#000000" stroke-width="0.25" stroke-miterlimit="10" d="M12.412,11.848
							l70.321,23.956L29.828,176.535c-1.586,4.023-2.387,7.613-2.402,10.754c-0.034,6.791,2.546,12.641,7.759,17.545
							c5.204,4.906,11.409,7.354,18.599,7.354c7.199,0,13.322-2.48,18.386-7.447s7.614-10.971,7.649-18.021
							c0.035-7.043-2.455-13.012-7.469-17.918c-5.015-4.904-11.112-7.354-18.312-7.354c-1.7,0-4.248,0.25-7.652,0.752l32.352-73.951
							c27.675,11.575,47.585,24.873,59.75,39.9c12.152,15.027,18.17,33.67,18.059,55.932c-0.14,27.918-10.165,51.439-30.074,70.551
							c-3.438,3.305-7.022,6.299-10.728,9.031H-5.981l1.033-206.42L12.412,11.848z"/>
					</g>
				</g>
			</g>
			<g enable-background="new    ">
				<g>
					<g>
						<defs>
							<path id="SVGID_3_" d="M13.251,25.63l70.321,23.956L30.667,190.318c-1.586,4.021-2.387,7.611-2.402,10.752
								c-0.034,6.793,2.546,12.641,7.759,17.545c5.204,4.906,11.409,7.354,18.599,7.354c7.199,0,13.321-2.482,18.386-7.447
								c5.064-4.967,7.614-10.971,7.649-18.021c0.035-7.043-2.455-13.012-7.469-17.916c-5.015-4.905-11.112-7.354-18.312-7.354
								c-1.7,0-4.248,0.252-7.652,0.754l32.352-73.951c27.675,11.575,47.585,24.873,59.75,39.898
								c12.153,15.026,18.17,33.672,18.06,55.932c-0.141,27.919-10.166,51.438-30.076,70.552c-3.437,3.305-7.021,6.299-10.727,9.032
								H-5.143L-4.11,71.025L13.251,25.63z"/>
						</defs>
						<clipPath id="SVGID_4_">
							<use xlink:href="#SVGID_3_"  overflow="visible"/>
						</clipPath>
						<path clip-path="url(#SVGID_4_)" fill="none" stroke="#000000" stroke-width="0.25" stroke-miterlimit="10" d="M13.251,25.63
							l70.321,23.956L30.667,190.318c-1.586,4.021-2.387,7.611-2.402,10.752c-0.034,6.793,2.546,12.641,7.759,17.545
							c5.204,4.906,11.409,7.354,18.599,7.354c7.199,0,13.321-2.482,18.386-7.447c5.064-4.967,7.614-10.971,7.649-18.021
							c0.035-7.043-2.455-13.012-7.469-17.916c-5.015-4.905-11.112-7.354-18.312-7.354c-1.7,0-4.248,0.252-7.652,0.754
							l32.352-73.951c27.675,11.575,47.585,24.873,59.75,39.898c12.153,15.026,18.17,33.672,18.06,55.932
							c-0.141,27.919-10.166,51.438-30.076,70.552c-3.437,3.305-7.021,6.299-10.727,9.032H-5.143L-4.11,71.025L13.251,25.63z"/>
					</g>
				</g>
			</g>
			<g enable-background="new    ">
				<g>
					<g>
						<defs>
							<polygon id="SVGID_5_" points="13.251,25.63 12.412,11.848 82.733,35.804 83.572,49.585 							"/>
						</defs>
						<clipPath id="SVGID_6_">
							<use xlink:href="#SVGID_5_"  overflow="visible"/>
						</clipPath>
						<polygon clip-path="url(#SVGID_6_)" fill="none" stroke="#000000" stroke-width="0.25" stroke-miterlimit="10" points="
							13.251,25.63 12.412,11.848 82.733,35.804 83.572,49.585 						"/>
					</g>
				</g>
			</g>
			<g enable-background="new    ">
				<g>
					<g>
						<defs>
							<polygon id="SVGID_7_" points="83.572,49.585 30.667,190.318 29.828,176.535 82.733,35.804 							"/>
						</defs>
						<clipPath id="SVGID_8_">
							<use xlink:href="#SVGID_7_"  overflow="visible"/>
						</clipPath>
						<polygon clip-path="url(#SVGID_8_)" fill="none" stroke="#000000" stroke-width="0.25" stroke-miterlimit="10" points="
							83.572,49.585 30.667,190.318 29.828,176.535 82.733,35.804 						"/>
					</g>
				</g>
			</g>
			<g enable-background="new    ">
				<g>
					<g>
						<defs>
							<path id="SVGID_9_" d="M28.311,202.756c-0.28-4.594-0.559-9.188-0.839-13.781c0.37,6.078,2.936,11.365,7.712,15.859
								c5.204,4.906,11.409,7.354,18.599,7.354c7.199,0,13.322-2.48,18.386-7.449c5.064-4.965,7.614-10.969,7.649-18.02
								c0.003-0.631-0.014-1.254-0.051-1.867l0.839,13.783c0.038,0.613,0.054,1.234,0.051,1.865
								c-0.035,7.051-2.585,13.055-7.649,18.021c-5.064,4.965-11.187,7.445-18.386,7.445c-7.19,0-13.396-2.445-18.599-7.354
								C31.247,214.121,28.681,208.834,28.311,202.756z"/>
						</defs>
						<clipPath id="SVGID_10_">
							<use xlink:href="#SVGID_9_"  overflow="visible"/>
						</clipPath>
						<g clip-path="url(#SVGID_10_)" enable-background="new    ">
							<g>
								<path fill="none" stroke="#000000" stroke-width="0.25" stroke-miterlimit="10" d="M28.265,201.07l-0.839-13.781
									c-0.034,6.791,2.546,12.641,7.759,17.545l0.839,13.781C30.811,213.711,28.23,207.863,28.265,201.07z"/>
								
									<line fill="none" stroke="#000000" stroke-width="0.25" stroke-miterlimit="10" x1="29.103" y1="207.547" x2="28.264" y2="193.766"/>
								
									<line fill="none" stroke="#000000" stroke-width="0.25" stroke-miterlimit="10" x1="31.688" y1="213.396" x2="30.849" y2="199.615"/>
							</g>
							<g>
								<path fill="none" stroke="#000000" stroke-width="0.25" stroke-miterlimit="10" d="M36.023,218.615l-0.839-13.781
									c5.204,4.906,11.409,7.354,18.599,7.354l0.839,13.781C47.433,225.969,41.227,223.521,36.023,218.615z"/>
								
									<line fill="none" stroke="#000000" stroke-width="0.25" stroke-miterlimit="10" x1="41.561" y1="222.703" x2="40.722" y2="208.92"/>
								
									<line fill="none" stroke="#000000" stroke-width="0.25" stroke-miterlimit="10" x1="47.762" y1="225.152" x2="46.923" y2="211.371"/>
							</g>
							<g>
								<path fill="none" stroke="#000000" stroke-width="0.25" stroke-miterlimit="10" d="M54.623,225.969l-0.839-13.781
									c7.199,0,13.322-2.48,18.386-7.449l0.839,13.783C67.944,223.486,61.822,225.969,54.623,225.969z"/>
								
									<line fill="none" stroke="#000000" stroke-width="0.25" stroke-miterlimit="10" x1="61.463" y1="225.143" x2="60.625" y2="211.359"/>
								
									<line fill="none" stroke="#000000" stroke-width="0.25" stroke-miterlimit="10" x1="67.591" y1="222.658" x2="66.752" y2="208.877"/>
							</g>
							<g>
								<path fill="none" stroke="#000000" stroke-width="0.25" stroke-miterlimit="10" d="M73.008,218.521l-0.839-13.783
									c5.064-4.965,7.614-10.969,7.649-18.021l0.839,13.781C80.622,207.551,78.072,213.555,73.008,218.521z"/>
								
									<line fill="none" stroke="#000000" stroke-width="0.25" stroke-miterlimit="10" x1="77.234" y1="213.209" x2="76.396" y2="199.426"/>
								
									<line fill="none" stroke="#000000" stroke-width="0.25" stroke-miterlimit="10" x1="79.784" y1="207.201" x2="78.945" y2="193.42"/>
							</g>
							<g>
								<path fill="none" stroke="#000000" stroke-width="0.25" stroke-miterlimit="10" d="M80.657,200.5l-0.839-13.781
									c0.035-7.043-2.455-13.012-7.469-17.918l0.839,13.783C78.203,187.488,80.692,193.457,80.657,200.5z"/>
							</g>
						</g>
					</g>
				</g>
				<g>
					<g>
						<defs>
							<path id="SVGID_11_" d="M28.311,202.756c-0.28-4.594-0.559-9.188-0.839-13.781c0.37,6.078,2.936,11.365,7.712,15.859
								c5.204,4.906,11.409,7.354,18.599,7.354c7.199,0,13.322-2.48,18.386-7.449c5.064-4.965,7.614-10.969,7.649-18.02
								c0.003-0.631-0.014-1.254-0.051-1.867l0.839,13.783c0.038,0.613,0.054,1.234,0.051,1.865
								c-0.035,7.051-2.585,13.055-7.649,18.021c-5.064,4.965-11.187,7.445-18.386,7.445c-7.19,0-13.396-2.445-18.599-7.354
								C31.247,214.121,28.681,208.834,28.311,202.756z"/>
						</defs>
						<clipPath id="SVGID_12_">
							<use xlink:href="#SVGID_11_"  overflow="visible"/>
						</clipPath>
						<path clip-path="url(#SVGID_12_)" fill="none" stroke="#000000" stroke-width="0.25" stroke-miterlimit="10" d="
							M28.311,202.756c-0.28-4.594-0.559-9.188-0.839-13.781c0.37,6.078,2.936,11.365,7.712,15.859
							c5.204,4.906,11.409,7.354,18.599,7.354c7.199,0,13.322-2.48,18.386-7.449c5.064-4.965,7.614-10.969,7.649-18.02
							c0.003-0.631-0.014-1.254-0.051-1.867l0.839,13.783c0.038,0.613,0.054,1.234,0.051,1.865
							c-0.035,7.051-2.585,13.055-7.649,18.021c-5.064,4.965-11.187,7.445-18.386,7.445c-7.19,0-13.396-2.445-18.599-7.354
							C31.247,214.121,28.681,208.834,28.311,202.756z"/>
					</g>
				</g>
			</g>
			<g enable-background="new    ">
				<g>
					<g>
						<defs>
							<path id="SVGID_13_" d="M27.472,188.975c-0.034-0.555-0.049-1.117-0.046-1.686c0.016-3.141,0.816-6.73,2.402-10.754
								l0.839,13.783c-1.586,4.021-2.387,7.611-2.402,10.752c-0.003,0.568,0.012,1.131,0.046,1.686
								C28.031,198.162,27.752,193.568,27.472,188.975z"/>
						</defs>
						<clipPath id="SVGID_14_">
							<use xlink:href="#SVGID_13_"  overflow="visible"/>
						</clipPath>
						<g clip-path="url(#SVGID_14_)" enable-background="new    ">
							<g>
								<path fill="none" stroke="#000000" stroke-width="0.25" stroke-miterlimit="10" d="M30.667,190.318l-0.839-13.783
									c-1.586,4.023-2.387,7.613-2.402,10.754l0.839,13.781C28.28,197.93,29.081,194.34,30.667,190.318z"/>
								
									<line fill="none" stroke="#000000" stroke-width="0.25" stroke-miterlimit="10" x1="29.343" y1="194.195" x2="28.504" y2="180.414"/>
								
									<line fill="none" stroke="#000000" stroke-width="0.25" stroke-miterlimit="10" x1="28.542" y1="197.781" x2="27.703" y2="184"/>
							</g>
							<g>
								<path fill="none" stroke="#000000" stroke-width="0.25" stroke-miterlimit="10" d="M28.265,201.07l-0.839-13.781
									c-0.034,6.791,2.546,12.641,7.759,17.545l0.839,13.781C30.811,213.711,28.23,207.863,28.265,201.07z"/>
							</g>
						</g>
					</g>
				</g>
				<g>
					<g>
						<defs>
							<path id="SVGID_15_" d="M27.472,188.975c-0.034-0.555-0.049-1.117-0.046-1.686c0.016-3.141,0.816-6.73,2.402-10.754
								l0.839,13.783c-1.586,4.021-2.387,7.611-2.402,10.752c-0.003,0.568,0.012,1.131,0.046,1.686
								C28.031,198.162,27.752,193.568,27.472,188.975z"/>
						</defs>
						<clipPath id="SVGID_16_">
							<use xlink:href="#SVGID_15_"  overflow="visible"/>
						</clipPath>
						<path clip-path="url(#SVGID_16_)" fill="none" stroke="#000000" stroke-width="0.25" stroke-miterlimit="10" d="
							M27.472,188.975c-0.034-0.555-0.049-1.117-0.046-1.686c0.016-3.141,0.816-6.73,2.402-10.754l0.839,13.783
							c-1.586,4.021-2.387,7.611-2.402,10.752c-0.003,0.568,0.012,1.131,0.046,1.686C28.031,198.162,27.752,193.568,27.472,188.975z
							"/>
					</g>
				</g>
			</g>
			<g enable-background="new    ">
				<g>
					<g>
						<defs>
							<path id="SVGID_17_" d="M80.606,198.635c-0.379-6.238-2.852-11.586-7.418-16.051c-5.015-4.906-11.112-7.355-18.312-7.355
								c-1.7,0-4.248,0.252-7.652,0.754L46.385,162.2c3.404-0.502,5.952-0.752,7.652-0.752c7.199,0,13.297,2.448,18.312,7.354
								c4.566,4.468,7.039,9.814,7.418,16.052C80.019,188.986,80.354,194.5,80.606,198.635z"/>
						</defs>
						<clipPath id="SVGID_18_">
							<use xlink:href="#SVGID_17_"  overflow="visible"/>
						</clipPath>
						<g clip-path="url(#SVGID_18_)" enable-background="new    ">
							<g>
								<path fill="none" stroke="#000000" stroke-width="0.25" stroke-miterlimit="10" d="M80.657,200.5l-0.839-13.781
									c0.035-7.043-2.455-13.012-7.469-17.918l0.839,13.783C78.203,187.488,80.692,193.457,80.657,200.5z"/>
								
									<line fill="none" stroke="#000000" stroke-width="0.25" stroke-miterlimit="10" x1="79.851" y1="193.814" x2="79.012" y2="180.033"/>
								
									<line fill="none" stroke="#000000" stroke-width="0.25" stroke-miterlimit="10" x1="77.361" y1="187.844" x2="76.522" y2="174.061"/>
							</g>
							<g>
								<path fill="none" stroke="#000000" stroke-width="0.25" stroke-miterlimit="10" d="M73.188,182.584l-0.839-13.783
									c-5.015-4.904-11.112-7.354-18.312-7.354l0.839,13.781C62.076,175.229,68.173,177.678,73.188,182.584z"/>
								
									<line fill="none" stroke="#000000" stroke-width="0.25" stroke-miterlimit="10" x1="67.812" y1="178.496" x2="66.973" y2="164.715"/>
								
									<line fill="none" stroke="#000000" stroke-width="0.25" stroke-miterlimit="10" x1="61.709" y1="176.045" x2="60.87" y2="162.264"/>
							</g>
							<g>
								<path fill="none" stroke="#000000" stroke-width="0.25" stroke-miterlimit="10" d="M54.876,175.229l-0.839-13.779
									c-1.7,0-4.248,0.25-7.652,0.752l0.839,13.781C50.628,175.48,53.176,175.229,54.876,175.229z"/>
								
									<line fill="none" stroke="#000000" stroke-width="0.25" stroke-miterlimit="10" x1="52.894" y1="175.312" x2="52.055" y2="161.531"/>
								
									<line fill="none" stroke="#000000" stroke-width="0.25" stroke-miterlimit="10" x1="50.343" y1="175.564" x2="49.504" y2="161.781"/>
							</g>
						</g>
					</g>
				</g>
				<g>
					<g>
						<defs>
							<path id="SVGID_19_" d="M80.606,198.635c-0.379-6.238-2.852-11.586-7.418-16.051c-5.015-4.906-11.112-7.355-18.312-7.355
								c-1.7,0-4.248,0.252-7.652,0.754L46.385,162.2c3.404-0.502,5.952-0.752,7.652-0.752c7.199,0,13.297,2.448,18.312,7.354
								c4.566,4.468,7.039,9.814,7.418,16.052C80.019,188.986,80.354,194.5,80.606,198.635z"/>
						</defs>
						<clipPath id="SVGID_20_">
							<use xlink:href="#SVGID_19_"  overflow="visible"/>
						</clipPath>
						<path clip-path="url(#SVGID_20_)" fill="none" stroke="#000000" stroke-width="0.25" stroke-miterlimit="10" d="
							M80.606,198.635c-0.379-6.238-2.852-11.586-7.418-16.051c-5.015-4.906-11.112-7.355-18.312-7.355
							c-1.7,0-4.248,0.252-7.652,0.754L46.385,162.2c3.404-0.502,5.952-0.752,7.652-0.752c7.199,0,13.297,2.448,18.312,7.354
							c4.566,4.468,7.039,9.814,7.418,16.052C80.019,188.986,80.354,194.5,80.606,198.635z"/>
					</g>
				</g>
			</g>
			<g enable-background="new    ">
				<g>
					<g>
						<defs>
							<polygon id="SVGID_21_" points="47.224,175.982 46.385,162.199 78.737,88.249 79.576,102.03 							"/>
						</defs>
						<clipPath id="SVGID_22_">
							<use xlink:href="#SVGID_21_"  overflow="visible"/>
						</clipPath>
						<polygon clip-path="url(#SVGID_22_)" fill="none" stroke="#000000" stroke-width="0.25" stroke-miterlimit="10" points="
							47.224,175.982 46.385,162.199 78.737,88.249 79.576,102.03 						"/>
					</g>
				</g>
			</g>
			<g enable-background="new    ">
				<g>
					<g>
						<defs>
							<path id="SVGID_23_" d="M157.178,190.295c0.15,2.475,0.219,4.996,0.206,7.566c-0.14,27.918-10.165,51.438-30.075,70.551
								c-3.437,3.305-7.021,6.299-10.727,9.033l-0.839-13.783c3.702-2.732,7.29-5.727,10.728-9.031
								c19.909-19.111,29.937-42.633,30.074-70.551c0.014-2.572-0.057-5.094-0.206-7.568
								C156.618,181.107,156.896,185.701,157.178,190.295z"/>
						</defs>
						<clipPath id="SVGID_24_">
							<use xlink:href="#SVGID_23_"  overflow="visible"/>
						</clipPath>
						<g clip-path="url(#SVGID_24_)" enable-background="new    ">
							<g>
								<path fill="none" stroke="#000000" stroke-width="0.25" stroke-miterlimit="10" d="M139.325,141.93l-0.839-13.781
									c12.152,15.027,18.17,33.669,18.059,55.932l0.839,13.78C157.495,175.602,151.479,156.957,139.325,141.93z"/>
							</g>
							<g>
								<path fill="none" stroke="#000000" stroke-width="0.25" stroke-miterlimit="10" d="M157.384,197.861l-0.839-13.781
									c-0.141,27.918-10.165,51.439-30.074,70.551l0.838,13.781C147.219,249.301,157.244,225.779,157.384,197.861z"/>
								
									<line fill="none" stroke="#000000" stroke-width="0.25" stroke-miterlimit="10" x1="153.949" y1="224.312" x2="153.109" y2="210.531"/>
								
									<line fill="none" stroke="#000000" stroke-width="0.25" stroke-miterlimit="10" x1="143.924" y1="247.832" x2="143.085" y2="234.049"/>
							</g>
							<g>
								<path fill="none" stroke="#000000" stroke-width="0.25" stroke-miterlimit="10" d="M127.309,268.412l-0.838-13.781
									c-3.438,3.305-7.022,6.299-10.728,9.031l0.839,13.783C120.285,274.711,123.872,271.717,127.309,268.412z"/>
								
									<line fill="none" stroke="#000000" stroke-width="0.25" stroke-miterlimit="10" x1="123.823" y1="271.615" x2="122.984" y2="257.834"/>
								
									<line fill="none" stroke="#000000" stroke-width="0.25" stroke-miterlimit="10" x1="120.245" y1="274.623" x2="119.406" y2="260.842"/>
							</g>
						</g>
					</g>
				</g>
				<g>
					<g>
						<defs>
							<path id="SVGID_25_" d="M157.178,190.295c0.15,2.475,0.219,4.996,0.206,7.566c-0.14,27.918-10.165,51.438-30.075,70.551
								c-3.437,3.305-7.021,6.299-10.727,9.033l-0.839-13.783c3.702-2.732,7.29-5.727,10.728-9.031
								c19.909-19.111,29.937-42.633,30.074-70.551c0.014-2.572-0.057-5.094-0.206-7.568
								C156.618,181.107,156.896,185.701,157.178,190.295z"/>
						</defs>
						<clipPath id="SVGID_26_">
							<use xlink:href="#SVGID_25_"  overflow="visible"/>
						</clipPath>
						<path clip-path="url(#SVGID_26_)" fill="none" stroke="#000000" stroke-width="0.25" stroke-miterlimit="10" d="
							M157.178,190.295c0.15,2.475,0.219,4.996,0.206,7.566c-0.14,27.918-10.165,51.438-30.075,70.551
							c-3.437,3.305-7.021,6.299-10.727,9.033l-0.839-13.783c3.702-2.732,7.29-5.727,10.728-9.031
							c19.909-19.111,29.937-42.633,30.074-70.551c0.014-2.572-0.057-5.094-0.206-7.568
							C156.618,181.107,156.896,185.701,157.178,190.295z"/>
					</g>
				</g>
			</g>
			<g enable-background="new    ">
				<g>
					<g>
						<defs>
							<path id="SVGID_27_" d="M156.339,176.512c0.279,4.596,0.56,9.189,0.839,13.783c-1.154-18.951-7.103-35.072-17.853-48.365
								c-12.164-15.027-32.074-28.324-59.75-39.897L78.736,88.25c27.675,11.575,47.584,24.873,59.75,39.9
								C149.236,141.441,155.186,157.562,156.339,176.512z"/>
						</defs>
						<clipPath id="SVGID_28_">
							<use xlink:href="#SVGID_27_"  overflow="visible"/>
						</clipPath>
						<g clip-path="url(#SVGID_28_)" enable-background="new    ">
							<g>
								<path fill="none" stroke="#000000" stroke-width="0.25" stroke-miterlimit="10" d="M79.576,102.03l-0.839-13.782
									c27.675,11.575,47.585,24.873,59.75,39.9l0.841,13.782C127.161,126.903,107.251,113.605,79.576,102.03z"/>
								
									<line fill="none" stroke="#000000" stroke-width="0.25" stroke-miterlimit="10" x1="104.663" y1="114.18" x2="103.824" y2="100.398"/>
								
									<line fill="none" stroke="#000000" stroke-width="0.25" stroke-miterlimit="10" x1="124.578" y1="127.479" x2="123.738" y2="113.697"/>
							</g>
							<g>
								<path fill="none" stroke="#000000" stroke-width="0.25" stroke-miterlimit="10" d="M139.325,141.93l-0.839-13.781
									c12.152,15.027,18.17,33.669,18.059,55.932l0.839,13.78C157.495,175.602,151.479,156.957,139.325,141.93z"/>
								
									<line fill="none" stroke="#000000" stroke-width="0.25" stroke-miterlimit="10" x1="149.434" y1="158.162" x2="148.594" y2="144.381"/>
								
									<line fill="none" stroke="#000000" stroke-width="0.25" stroke-miterlimit="10" x1="155.452" y1="176.807" x2="154.613" y2="163.025"/>
							</g>
						</g>
					</g>
				</g>
				<g>
					<g>
						<defs>
							<path id="SVGID_29_" d="M156.339,176.512c0.279,4.596,0.56,9.189,0.839,13.783c-1.154-18.951-7.103-35.072-17.853-48.365
								c-12.164-15.027-32.074-28.324-59.75-39.897L78.736,88.25c27.675,11.575,47.584,24.873,59.75,39.9
								C149.236,141.441,155.186,157.562,156.339,176.512z"/>
						</defs>
						<clipPath id="SVGID_30_">
							<use xlink:href="#SVGID_29_"  overflow="visible"/>
						</clipPath>
						<path clip-path="url(#SVGID_30_)" fill="none" stroke="#000000" stroke-width="0.25" stroke-miterlimit="10" d="
							M156.339,176.512c0.279,4.596,0.56,9.189,0.839,13.783c-1.154-18.951-7.103-35.072-17.853-48.365
							c-12.164-15.027-32.074-28.324-59.75-39.897L78.736,88.25c27.675,11.575,47.584,24.873,59.75,39.9
							C149.236,141.441,155.186,157.562,156.339,176.512z"/>
					</g>
				</g>
			</g>
			<g enable-background="new    ">
				<g>
					<g>
						<defs>
							<polygon id="SVGID_31_" points="116.582,277.445 -5.143,277.445 -5.981,263.662 115.743,263.662 							"/>
						</defs>
						<clipPath id="SVGID_32_">
							<use xlink:href="#SVGID_31_"  overflow="visible"/>
						</clipPath>
						<polygon clip-path="url(#SVGID_32_)" fill="none" stroke="#000000" stroke-width="0.25" stroke-miterlimit="10" points="
							116.582,277.445 -5.143,277.445 -5.981,263.662 115.743,263.662 						"/>
					</g>
				</g>
			</g>
			<g enable-background="new    ">
				<g>
					<g>
						<defs>
							<polygon id="SVGID_33_" points="-5.143,277.445 -5.981,263.662 -4.948,57.242 -4.109,71.023 							"/>
						</defs>
						<clipPath id="SVGID_34_">
							<use xlink:href="#SVGID_33_"  overflow="visible"/>
						</clipPath>
						<polygon clip-path="url(#SVGID_34_)" fill="none" stroke="#000000" stroke-width="0.25" stroke-miterlimit="10" points="
							-5.143,277.445 -5.981,263.662 -4.948,57.242 -4.109,71.023 						"/>
					</g>
				</g>
			</g>
			<g enable-background="new    ">
				<g>
					<g>
						<defs>
							<polygon id="SVGID_35_" points="-4.109,71.023 -4.948,57.242 12.412,11.848 13.251,25.63 							"/>
						</defs>
						<clipPath id="SVGID_36_">
							<use xlink:href="#SVGID_35_"  overflow="visible"/>
						</clipPath>
						<polygon clip-path="url(#SVGID_36_)" fill="none" stroke="#000000" stroke-width="0.25" stroke-miterlimit="10" points="
							-4.109,71.023 -4.948,57.242 12.412,11.848 13.251,25.63 						"/>
					</g>
				</g>
			</g>
			<g enable-background="new    ">
				<g>
					<g>
						<defs>
							<path id="SVGID_37_" d="M-5.981,263.662l-0.003,0.658c-0.296-0.207-0.583-0.441-0.878-0.658H-5.981z"/>
						</defs>
						<clipPath id="SVGID_38_">
							<use xlink:href="#SVGID_37_"  overflow="visible"/>
						</clipPath>
						<path clip-path="url(#SVGID_38_)" fill="none" stroke="#000000" stroke-width="0.25" stroke-miterlimit="10" d="
							M-5.981,263.662l-0.003,0.658c-0.296-0.207-0.583-0.441-0.878-0.658H-5.981z"/>
					</g>
				</g>
			</g>
			<g enable-background="new    ">
				<g>
					<g>
						<defs>
							<path id="SVGID_39_" d="M-5.143,277.445l-0.003,0.656c-0.296-0.207-0.583-0.441-0.879-0.656H-5.143z"/>
						</defs>
						<clipPath id="SVGID_40_">
							<use xlink:href="#SVGID_39_"  overflow="visible"/>
						</clipPath>
						<path clip-path="url(#SVGID_40_)" fill="none" stroke="#000000" stroke-width="0.25" stroke-miterlimit="10" d="
							M-5.143,277.445l-0.003,0.656c-0.296-0.207-0.583-0.441-0.879-0.656H-5.143z"/>
					</g>
				</g>
			</g>
			<g enable-background="new    ">
				<g>
					<g>
						<defs>
							<polygon id="SVGID_41_" points="-5.143,277.445 -5.146,278.102 -5.985,264.32 -5.981,263.662 							"/>
						</defs>
						<clipPath id="SVGID_42_">
							<use xlink:href="#SVGID_41_"  overflow="visible"/>
						</clipPath>
						<polygon clip-path="url(#SVGID_42_)" fill="none" stroke="#000000" stroke-width="0.25" stroke-miterlimit="10" points="
							-5.143,277.445 -5.146,278.102 -5.985,264.32 -5.981,263.662 						"/>
					</g>
				</g>
			</g>
			<g enable-background="new    ">
				<g>
					<g>
						<defs>
							<path id="SVGID_43_" d="M-5.146,278.102c-0.296-0.207-0.583-0.439-0.879-0.656l-0.838-13.781
								c0.296,0.217,0.583,0.449,0.878,0.656C-5.733,268.455-5.397,273.967-5.146,278.102z"/>
						</defs>
						<clipPath id="SVGID_44_">
							<use xlink:href="#SVGID_43_"  overflow="visible"/>
						</clipPath>
						<g clip-path="url(#SVGID_44_)" enable-background="new    ">
							<g>
								<path fill="none" stroke="#000000" stroke-width="0.25" stroke-miterlimit="10" d="M-5.146,278.102l-0.839-13.781
									c-0.296-0.207-0.583-0.439-0.878-0.656l0.838,13.781C-5.729,277.66-5.442,277.895-5.146,278.102z"/>
								
									<line fill="none" stroke="#000000" stroke-width="0.25" stroke-miterlimit="10" x1="-5.439" y1="277.887" x2="-6.278" y2="264.105"/>
								
									<line fill="none" stroke="#000000" stroke-width="0.25" stroke-miterlimit="10" x1="-5.731" y1="277.666" x2="-6.57" y2="263.883"/>
							</g>
						</g>
					</g>
				</g>
				<g>
					<g>
						<defs>
							<path id="SVGID_45_" d="M-5.146,278.102c-0.296-0.207-0.583-0.439-0.879-0.656l-0.838-13.781
								c0.296,0.217,0.583,0.449,0.878,0.656C-5.733,268.455-5.397,273.967-5.146,278.102z"/>
						</defs>
						<clipPath id="SVGID_46_">
							<use xlink:href="#SVGID_45_"  overflow="visible"/>
						</clipPath>
						<path clip-path="url(#SVGID_46_)" fill="none" stroke="#000000" stroke-width="0.25" stroke-miterlimit="10" d="
							M-5.146,278.102c-0.296-0.207-0.583-0.439-0.879-0.656l-0.838-13.781c0.296,0.217,0.583,0.449,0.878,0.656
							C-5.733,268.455-5.397,273.967-5.146,278.102z"/>
					</g>
				</g>
			</g>
			<g enable-background="new    ">
				<g>
					<g>
						<defs>
							<polygon id="SVGID_47_" points="-6.025,277.445 -6.863,263.662 -5.981,263.662 -5.143,277.445 							"/>
						</defs>
						<clipPath id="SVGID_48_">
							<use xlink:href="#SVGID_47_"  overflow="visible"/>
						</clipPath>
						<polygon clip-path="url(#SVGID_48_)" fill="none" stroke="#000000" stroke-width="0.25" stroke-miterlimit="10" points="
							-6.025,277.445 -6.863,263.662 -5.981,263.662 -5.143,277.445 						"/>
					</g>
				</g>
			</g>
		</g>
	</g>
</g>
<g enable-background="new    ">
	<path d="M88.501,77.924l4.725-6.828l-0.025-0.026c-0.26,0.121-0.576,0.208-0.948,0.26s-0.714,0.078-1.025,0.078
		c-0.814,0-1.575-0.151-2.285-0.454c-0.71-0.303-1.333-0.719-1.87-1.247c-0.537-0.527-0.957-1.15-1.259-1.869
		c-0.303-0.718-0.455-1.492-0.455-2.323c0-0.97,0.173-1.853,0.52-2.648c0.346-0.796,0.817-1.476,1.415-2.038
		s1.307-0.995,2.129-1.298c0.822-0.303,1.7-0.455,2.635-0.455c0.951,0,1.839,0.16,2.661,0.48c0.821,0.32,1.536,0.767,2.142,1.337
		c0.605,0.571,1.078,1.242,1.415,2.013c0.338,0.771,0.507,1.597,0.507,2.479c0,0.52-0.044,1.009-0.131,1.467
		c-0.086,0.459-0.211,0.9-0.376,1.324s-0.363,0.853-0.597,1.285c-0.234,0.433-0.498,0.883-0.792,1.35l-4.596,7.114H88.501z
		 M95.615,65.306c0-0.484-0.082-0.943-0.246-1.376c-0.165-0.433-0.402-0.817-0.715-1.155c-0.311-0.338-0.684-0.605-1.116-0.805
		s-0.917-0.299-1.454-0.299c-1.056,0-1.908,0.342-2.557,1.025c-0.649,0.685-0.974,1.571-0.974,2.661c0,0.52,0.082,1,0.247,1.441
		s0.403,0.817,0.714,1.129s0.679,0.559,1.103,0.74c0.424,0.182,0.896,0.272,1.415,0.272c0.52,0,1-0.086,1.44-0.26
		c0.441-0.173,0.822-0.419,1.143-0.739s0.567-0.705,0.74-1.155S95.615,65.843,95.615,65.306z"/>
</g>
<g enable-background="new    ">
	<path fill="#FFFFFF" d="M102.65,59.542h3.271v15.474h7.815v2.908H102.65V59.542z"/>
	<path fill="#FFFFFF" d="M115.918,59.542h3.271v18.382h-3.271V59.542z"/>
	<path fill="#FFFFFF" d="M120.955,59.542h3.66l5.062,14.149h0.104l5.114-14.149h3.531l-7.373,18.382h-2.83L120.955,59.542z"/>
	<path fill="#FFFFFF" d="M140.193,59.542h12.176v2.855h-8.904v4.674h8.438v2.752h-8.438v5.192h9.372v2.908h-12.644V59.542z"/>
	<path fill="#FFFFFF" d="M165.403,63.385c-0.347-0.45-0.835-0.826-1.468-1.13c-0.631-0.303-1.268-0.454-1.908-0.454
		c-0.381,0-0.762,0.048-1.142,0.143c-0.381,0.096-0.728,0.243-1.038,0.441c-0.312,0.199-0.568,0.459-0.767,0.779
		c-0.199,0.32-0.298,0.705-0.298,1.155c0,0.415,0.086,0.771,0.259,1.064s0.411,0.545,0.714,0.753s0.671,0.39,1.104,0.545
		c0.433,0.156,0.909,0.312,1.428,0.468c0.589,0.19,1.199,0.406,1.831,0.648c0.632,0.243,1.211,0.563,1.739,0.961
		c0.527,0.398,0.961,0.9,1.299,1.506c0.337,0.606,0.506,1.359,0.506,2.259c0,0.986-0.182,1.848-0.545,2.583
		c-0.363,0.736-0.849,1.347-1.455,1.831c-0.605,0.484-1.314,0.848-2.129,1.09c-0.812,0.242-1.67,0.364-2.57,0.364
		c-1.193,0-2.361-0.221-3.504-0.662s-2.078-1.095-2.805-1.961l2.337-2.181c0.45,0.623,1.052,1.116,1.804,1.48
		c0.754,0.363,1.494,0.545,2.221,0.545c0.381,0,0.77-0.048,1.168-0.143c0.398-0.096,0.758-0.256,1.078-0.48
		c0.319-0.225,0.579-0.507,0.778-0.844c0.198-0.338,0.299-0.757,0.299-1.26c0-0.484-0.112-0.887-0.338-1.207
		s-0.528-0.597-0.909-0.831c-0.381-0.233-0.83-0.437-1.35-0.61c-0.52-0.172-1.064-0.354-1.635-0.545
		c-0.555-0.173-1.108-0.38-1.662-0.623c-0.555-0.242-1.052-0.562-1.493-0.961c-0.441-0.397-0.801-0.887-1.077-1.467
		c-0.277-0.579-0.416-1.302-0.416-2.168c0-0.935,0.195-1.739,0.584-2.414c0.391-0.675,0.9-1.233,1.532-1.675s1.351-0.77,2.155-0.986
		s1.623-0.325,2.453-0.325c0.936,0,1.883,0.165,2.844,0.494c0.96,0.328,1.795,0.822,2.505,1.479L165.403,63.385z"/>
</g>
<g enable-background="new    ">
	<path d="M88.243,86.811h-0.79l2.206-5.087h0.647l2.185,5.087h-0.805l-0.518-1.25h-2.415L88.243,86.811z M89.005,84.936h1.904
		L89.96,82.55L89.005,84.936z"/>
	<path d="M93.719,83.404c0.01,0.087,0.017,0.184,0.021,0.291c0.005,0.108,0.008,0.198,0.008,0.27h0.021
		c0.043-0.091,0.102-0.176,0.176-0.255s0.158-0.148,0.255-0.208c0.096-0.061,0.201-0.106,0.315-0.141
		c0.115-0.033,0.235-0.05,0.359-0.05c0.221,0,0.41,0.037,0.568,0.111s0.289,0.174,0.395,0.298c0.105,0.125,0.184,0.271,0.234,0.438
		c0.05,0.168,0.075,0.348,0.075,0.539v2.112h-0.676v-1.89c0-0.139-0.011-0.271-0.032-0.396c-0.021-0.124-0.061-0.234-0.119-0.33
		c-0.057-0.096-0.136-0.173-0.236-0.23s-0.23-0.086-0.389-0.086c-0.268,0-0.486,0.102-0.656,0.306
		c-0.171,0.203-0.256,0.476-0.256,0.815v1.811h-0.676v-2.673c0-0.091-0.002-0.208-0.007-0.353c-0.005-0.144-0.012-0.271-0.021-0.381
		H93.719z"/>
	<path d="M100.006,86.271c-0.129,0.206-0.306,0.363-0.528,0.471s-0.456,0.162-0.7,0.162c-0.264,0-0.501-0.047-0.712-0.141
		c-0.211-0.093-0.39-0.222-0.538-0.384c-0.149-0.163-0.264-0.354-0.346-0.575s-0.122-0.455-0.122-0.704s0.04-0.482,0.122-0.701
		c0.082-0.218,0.197-0.408,0.349-0.57c0.151-0.163,0.331-0.29,0.542-0.381c0.211-0.092,0.443-0.137,0.697-0.137
		c0.277,0,0.52,0.059,0.727,0.176c0.205,0.117,0.368,0.26,0.488,0.428h0.014v-2.536h0.676v5.432h-0.654v-0.539H100.006z
		 M97.764,85.104c0,0.157,0.023,0.311,0.072,0.458c0.047,0.148,0.119,0.279,0.215,0.395c0.096,0.114,0.213,0.206,0.353,0.275
		c0.139,0.069,0.302,0.104,0.489,0.104c0.172,0,0.328-0.033,0.47-0.1c0.142-0.067,0.263-0.156,0.363-0.269s0.179-0.243,0.233-0.391
		c0.055-0.148,0.082-0.304,0.082-0.466s-0.027-0.317-0.082-0.466s-0.133-0.279-0.233-0.394c-0.101-0.115-0.222-0.206-0.363-0.272
		c-0.142-0.067-0.298-0.101-0.47-0.101c-0.188,0-0.351,0.033-0.489,0.101c-0.14,0.066-0.257,0.157-0.353,0.272
		c-0.096,0.114-0.168,0.245-0.215,0.394C97.787,84.794,97.764,84.946,97.764,85.104z"/>
	<path d="M101.845,83.785c-0.005-0.144-0.012-0.271-0.021-0.381h0.64c0.01,0.087,0.017,0.187,0.021,0.299s0.008,0.204,0.008,0.276
		h0.021c0.096-0.201,0.235-0.363,0.42-0.485c0.184-0.122,0.392-0.183,0.621-0.183c0.105,0,0.194,0.01,0.266,0.028l-0.028,0.625
		c-0.096-0.023-0.198-0.035-0.31-0.035c-0.162,0-0.304,0.029-0.424,0.09c-0.119,0.06-0.219,0.14-0.298,0.24
		s-0.138,0.217-0.176,0.349s-0.058,0.27-0.058,0.413v1.789h-0.676v-2.673C101.852,84.047,101.85,83.93,101.845,83.785z"/>
	<path d="M107.507,85.079c0,0.038,0,0.076,0,0.115c0,0.038-0.003,0.076-0.007,0.114h-2.709c0.004,0.143,0.037,0.277,0.097,0.403
		s0.14,0.235,0.241,0.328c0.1,0.093,0.217,0.165,0.348,0.218c0.132,0.053,0.271,0.078,0.421,0.078c0.229,0,0.429-0.05,0.597-0.15
		c0.167-0.101,0.299-0.223,0.395-0.366l0.475,0.381c-0.182,0.241-0.396,0.419-0.643,0.533c-0.248,0.113-0.521,0.171-0.823,0.171
		c-0.259,0-0.499-0.043-0.719-0.13c-0.22-0.086-0.409-0.207-0.567-0.362c-0.158-0.156-0.283-0.344-0.374-0.564
		c-0.091-0.22-0.136-0.465-0.136-0.732c0-0.264,0.044-0.507,0.133-0.729c0.088-0.223,0.212-0.413,0.371-0.571
		c0.158-0.158,0.346-0.281,0.561-0.37c0.217-0.089,0.449-0.133,0.699-0.133s0.477,0.041,0.68,0.122
		c0.205,0.081,0.377,0.198,0.52,0.352c0.141,0.153,0.25,0.339,0.327,0.558C107.469,84.561,107.507,84.806,107.507,85.079z
		 M106.816,84.806c-0.004-0.134-0.027-0.26-0.068-0.377c-0.04-0.117-0.1-0.22-0.179-0.306s-0.178-0.154-0.295-0.204
		c-0.117-0.051-0.255-0.076-0.413-0.076c-0.144,0-0.279,0.025-0.406,0.076c-0.127,0.05-0.236,0.118-0.33,0.204
		s-0.17,0.188-0.23,0.306c-0.06,0.117-0.094,0.243-0.104,0.377H106.816z"/>
	<path d="M108.692,83.404l0.769,2.602h0.015l0.812-2.602h0.712l0.826,2.602h0.015l0.769-2.602h0.712l-1.129,3.406h-0.704
		l-0.841-2.558h-0.014l-0.834,2.558h-0.704l-1.136-3.406H108.692z"/>
	<path d="M115.828,81.724h0.711v2.127h2.572v-2.127h0.719v5.087h-0.719v-2.328h-2.572v2.328h-0.711V81.724z"/>
	<path d="M123.43,86.811c-0.01-0.086-0.018-0.184-0.021-0.291c-0.005-0.107-0.008-0.197-0.008-0.27h-0.014
		c-0.086,0.183-0.231,0.337-0.436,0.464c-0.203,0.127-0.43,0.19-0.678,0.19c-0.221,0-0.412-0.036-0.572-0.108
		c-0.16-0.071-0.292-0.171-0.395-0.298c-0.104-0.127-0.18-0.274-0.23-0.442c-0.05-0.167-0.075-0.347-0.075-0.538v-2.113h0.675v1.883
		c0,0.139,0.012,0.272,0.033,0.399s0.061,0.238,0.118,0.334s0.137,0.172,0.237,0.229s0.23,0.086,0.389,0.086
		c0.272,0,0.492-0.102,0.66-0.305c0.168-0.204,0.252-0.476,0.252-0.815v-1.812h0.676v2.674c0,0.091,0.002,0.208,0.006,0.352
		c0.006,0.144,0.013,0.271,0.022,0.381H123.43z"/>
	<path d="M127.928,86.271c-0.129,0.206-0.306,0.363-0.528,0.471s-0.456,0.162-0.7,0.162c-0.264,0-0.501-0.047-0.712-0.141
		c-0.211-0.093-0.39-0.222-0.538-0.384c-0.149-0.163-0.264-0.354-0.346-0.575s-0.122-0.455-0.122-0.704s0.04-0.482,0.122-0.701
		c0.082-0.218,0.197-0.408,0.349-0.57c0.151-0.163,0.331-0.29,0.542-0.381c0.211-0.092,0.443-0.137,0.697-0.137
		c0.277,0,0.52,0.059,0.727,0.176c0.205,0.117,0.368,0.26,0.488,0.428h0.014v-2.536h0.676v5.432h-0.654v-0.539H127.928z
		 M125.686,85.104c0,0.157,0.023,0.311,0.072,0.458c0.047,0.148,0.119,0.279,0.215,0.395c0.096,0.114,0.213,0.206,0.353,0.275
		c0.139,0.069,0.302,0.104,0.489,0.104c0.172,0,0.328-0.033,0.47-0.1c0.142-0.067,0.263-0.156,0.363-0.269s0.179-0.243,0.233-0.391
		c0.055-0.148,0.082-0.304,0.082-0.466s-0.027-0.317-0.082-0.466s-0.133-0.279-0.233-0.394c-0.101-0.115-0.222-0.206-0.363-0.272
		c-0.142-0.067-0.298-0.101-0.47-0.101c-0.188,0-0.351,0.033-0.489,0.101c-0.14,0.066-0.257,0.157-0.353,0.272
		c-0.096,0.114-0.168,0.245-0.215,0.394C125.709,84.794,125.686,84.946,125.686,85.104z"/>
	<path d="M131.613,84.267c-0.076-0.124-0.185-0.226-0.323-0.305c-0.14-0.079-0.294-0.119-0.468-0.119
		c-0.076,0-0.152,0.009-0.229,0.025c-0.078,0.017-0.146,0.043-0.205,0.079c-0.061,0.036-0.108,0.081-0.145,0.137
		c-0.035,0.055-0.054,0.123-0.054,0.204c0,0.145,0.065,0.251,0.194,0.32s0.323,0.133,0.582,0.19
		c0.162,0.038,0.313,0.084,0.453,0.137c0.139,0.053,0.26,0.118,0.362,0.197s0.183,0.174,0.241,0.284
		c0.057,0.109,0.086,0.239,0.086,0.388c0,0.201-0.039,0.371-0.115,0.51c-0.076,0.14-0.179,0.253-0.305,0.342
		c-0.127,0.089-0.272,0.152-0.436,0.19c-0.162,0.038-0.33,0.058-0.503,0.058c-0.259,0-0.511-0.051-0.758-0.151
		s-0.452-0.254-0.614-0.46l0.481-0.409c0.091,0.134,0.216,0.247,0.377,0.338s0.337,0.136,0.528,0.136
		c0.086,0,0.169-0.008,0.248-0.024c0.078-0.017,0.15-0.045,0.215-0.083s0.117-0.089,0.154-0.15c0.039-0.062,0.059-0.142,0.059-0.237
		c0-0.158-0.076-0.275-0.227-0.353c-0.151-0.076-0.373-0.148-0.665-0.215c-0.114-0.029-0.231-0.063-0.349-0.104
		s-0.224-0.098-0.319-0.169c-0.097-0.072-0.174-0.162-0.233-0.27c-0.061-0.107-0.09-0.24-0.09-0.398
		c0-0.183,0.037-0.339,0.111-0.471s0.171-0.24,0.291-0.323c0.119-0.084,0.256-0.146,0.409-0.188c0.153-0.04,0.312-0.061,0.475-0.061
		c0.244,0,0.479,0.048,0.708,0.144c0.227,0.096,0.402,0.234,0.527,0.417L131.613,84.267z"/>
	<path d="M136.412,85.101c0,0.264-0.046,0.505-0.14,0.726c-0.093,0.221-0.223,0.411-0.388,0.571
		c-0.166,0.16-0.361,0.285-0.586,0.374c-0.225,0.088-0.467,0.133-0.726,0.133s-0.501-0.045-0.726-0.133
		c-0.225-0.089-0.42-0.214-0.582-0.374c-0.163-0.16-0.291-0.351-0.385-0.571s-0.14-0.462-0.14-0.726s0.046-0.504,0.14-0.723
		c0.094-0.218,0.222-0.405,0.385-0.563c0.162-0.158,0.357-0.281,0.582-0.37s0.467-0.133,0.726-0.133s0.501,0.044,0.726,0.133
		s0.42,0.212,0.586,0.37c0.165,0.158,0.295,0.346,0.388,0.563C136.366,84.597,136.412,84.837,136.412,85.101z M135.709,85.104
		c0-0.163-0.025-0.318-0.076-0.466c-0.051-0.148-0.123-0.278-0.22-0.391s-0.215-0.202-0.356-0.269
		c-0.143-0.067-0.305-0.101-0.486-0.101c-0.184,0-0.346,0.033-0.487,0.101c-0.142,0.066-0.261,0.156-0.356,0.269
		s-0.17,0.242-0.221,0.391c-0.05,0.147-0.075,0.303-0.075,0.466c0,0.162,0.025,0.317,0.075,0.465
		c0.051,0.148,0.125,0.28,0.221,0.395s0.215,0.205,0.356,0.272c0.142,0.066,0.304,0.1,0.487,0.1c0.182,0,0.344-0.033,0.486-0.1
		c0.142-0.067,0.26-0.158,0.356-0.272s0.169-0.246,0.22-0.395C135.684,85.422,135.709,85.267,135.709,85.104z"/>
	<path d="M137.958,83.404c0.009,0.087,0.017,0.184,0.021,0.291c0.005,0.108,0.007,0.198,0.007,0.27h0.021
		c0.043-0.091,0.102-0.176,0.176-0.255s0.16-0.148,0.256-0.208c0.096-0.061,0.201-0.106,0.316-0.141
		c0.115-0.033,0.234-0.05,0.359-0.05c0.22,0,0.409,0.037,0.566,0.111c0.158,0.074,0.291,0.174,0.396,0.298
		c0.105,0.125,0.183,0.271,0.232,0.438c0.051,0.168,0.076,0.348,0.076,0.539v2.112h-0.676v-1.89c0-0.139-0.011-0.271-0.032-0.396
		c-0.021-0.124-0.062-0.234-0.118-0.33c-0.058-0.096-0.137-0.173-0.237-0.23s-0.229-0.086-0.388-0.086
		c-0.269,0-0.488,0.102-0.658,0.306c-0.17,0.203-0.255,0.476-0.255,0.815v1.811h-0.675v-2.673c0-0.091-0.003-0.208-0.008-0.353
		c-0.005-0.144-0.012-0.271-0.021-0.381H137.958z"/>
</g>
</svg>
