<?xml version="1.0" encoding="utf-8"?>
<!-- Generator: Adobe Illustrator 16.0.0, SVG Export Plug-In . SVG Version: 6.00 Build 0)  -->
<!DOCTYPE svg PUBLIC "-//W3C//DTD SVG 1.1//EN" "http://www.w3.org/Graphics/SVG/1.1/DTD/svg11.dtd">
<svg version="1.1" id="Layer_1" xmlns="http://www.w3.org/2000/svg" xmlns:xlink="http://www.w3.org/1999/xlink" x="0px" y="0px"
	 width="180px" height="260px" viewBox="0 0 180 260" enable-background="new 0 0 180 260" xml:space="preserve">
<rect fill="#EBE6E5" width="180" height="260"/>
<g>
	<path fill="#DCD9CC" d="M55.179,97.798H40.828l-3.734,8.142h-5.45l16.588-35.629l16.002,35.629h-5.537L55.179,97.798z
		 M53.117,93.043l-4.972-11.398l-5.211,11.398H53.117z"/>
	<path fill="#DCD9CC" d="M46.842,127.226l10.378,14.287h-6.188l-9.575-13.722h-0.912v13.722h-5.059V107.99h5.927
		c4.429,0,7.628,0.833,9.597,2.497c2.171,1.853,3.257,4.299,3.257,7.339c0,2.374-0.681,4.415-2.041,6.123
		C50.866,125.656,49.071,126.749,46.842,127.226z M40.546,123.383h1.606c4.791,0,7.187-1.831,7.187-5.493
		c0-3.431-2.331-5.146-6.991-5.146h-1.802V123.383z"/>
	<path fill="#DCD9CC" d="M60.26,145.354v5.981c-2.924-2.446-5.949-3.669-9.075-3.669c-3.445,0-6.348,1.237-8.707,3.713
		c-2.374,2.461-3.561,5.471-3.561,9.031c0,3.518,1.187,6.485,3.561,8.902c2.374,2.418,5.283,3.626,8.729,3.626
		c1.78,0,3.293-0.29,4.537-0.868c0.695-0.289,1.415-0.681,2.161-1.173c0.745-0.491,1.53-1.085,2.355-1.78v6.111
		c-2.896,1.644-5.935,2.465-9.119,2.465c-4.791,0-8.88-1.672-12.267-5.016c-3.373-3.372-5.059-7.439-5.059-12.201
		c0-4.271,1.412-8.078,4.234-11.422c3.474-4.096,7.968-6.144,13.483-6.144C54.542,142.911,57.452,143.725,60.26,145.354z"/>
	<path fill="#DCD9CC" d="M40.546,192.249h14.46v-13.114h5.059v33.523h-5.059v-15.654h-14.46v15.654h-5.059v-33.523h5.059V192.249z"
		/>
	<path fill="#DCD9CC" d="M40.546,214.708v33.522h-5.059v-33.522H40.546z"/>
	<path fill="#DCD9CC" d="M44.736,255.035v28.769h-5.059v-28.769H31.97v-4.754h20.453v4.754H44.736z"/>
	<path fill="#DCD9CC" d="M53.986,290.608h-13.44v8.055h13.048v4.755H40.546v11.203h13.44v4.756H35.487v-33.523h18.499V290.608z"/>
	<path fill="#DCD9CC" d="M60.26,323.217v5.982c-2.924-2.446-5.949-3.67-9.075-3.67c-3.445,0-6.348,1.238-8.707,3.713
		c-2.374,2.461-3.561,5.472-3.561,9.032c0,3.518,1.187,6.485,3.561,8.901c2.374,2.418,5.283,3.627,8.729,3.627
		c1.78,0,3.293-0.29,4.537-0.869c0.695-0.289,1.415-0.68,2.161-1.172c0.745-0.492,1.53-1.086,2.355-1.781v6.111
		c-2.896,1.645-5.935,2.465-9.119,2.465c-4.791,0-8.88-1.672-12.267-5.016c-3.373-3.371-5.059-7.439-5.059-12.201
		c0-4.27,1.412-8.077,4.234-11.421c3.474-4.096,7.968-6.144,13.483-6.144C54.542,320.775,57.452,321.589,60.26,323.217z"/>
	<path fill="#DCD9CC" d="M44.736,361.754v28.768h-5.059v-28.768H31.97v-4.755h20.453v4.755H44.736z"/>
	<path fill="#DCD9CC" d="M40.546,392.572v20.177c0,2.878,0.47,4.982,1.411,6.313c1.404,1.924,3.379,2.886,5.927,2.886
		c2.562,0,4.545-0.962,5.949-2.886c0.94-1.287,1.411-3.393,1.411-6.313v-20.177h5.059v21.581c0,3.532-1.1,6.441-3.3,8.729
		c-2.476,2.547-5.515,3.821-9.119,3.821c-3.604,0-6.637-1.274-9.097-3.821c-2.2-2.287-3.3-5.196-3.3-8.729v-21.581H40.546z"/>
	<path fill="#DCD9CC" d="M46.842,447.382l10.378,14.286h-6.188l-9.575-13.722h-0.912v13.722h-5.059v-33.523h5.927
		c4.429,0,7.628,0.833,9.597,2.497c2.171,1.854,3.257,4.299,3.257,7.339c0,2.374-0.681,4.415-2.041,6.123
		C50.866,445.812,49.071,446.904,46.842,447.382z M40.546,443.538h1.606c4.791,0,7.187-1.83,7.187-5.492
		c0-3.431-2.331-5.146-6.991-5.146h-1.802V443.538z"/>
	<path fill="#DCD9CC" d="M53.986,468.472h-13.44v8.056h13.048v4.755H40.546v11.203h13.44v4.755H35.487v-33.523h18.499V468.472z"/>
</g>
<path fill="#939598" d="M29.393,23.075h-8.069l-2.1,4.578h-3.064l9.326-20.032l8.997,20.032h-3.113L29.393,23.075z M28.233,20.402
	l-2.795-6.409l-2.93,6.409H28.233z"/>
<path fill="#939598" d="M24.706,39.621l5.835,8.032h-3.479l-5.383-7.715h-0.513v7.715h-2.844V28.805h3.333
	c2.49,0,4.289,0.468,5.396,1.404c1.221,1.042,1.831,2.417,1.831,4.126c0,1.335-0.383,2.482-1.147,3.442
	C26.968,38.738,25.958,39.352,24.706,39.621z M21.166,37.46h0.903c2.693,0,4.041-1.029,4.041-3.088c0-1.929-1.311-2.893-3.931-2.893
	h-1.013V37.46z"/>
<path fill="#939598" d="M32.25,49.812v3.363c-1.644-1.375-3.345-2.063-5.103-2.063c-1.937,0-3.569,0.696-4.895,2.087
	c-1.335,1.384-2.002,3.076-2.002,5.078c0,1.978,0.667,3.646,2.002,5.005c1.334,1.359,2.97,2.039,4.907,2.039
	c1.001,0,1.851-0.163,2.551-0.488c0.391-0.163,0.795-0.382,1.215-0.659c0.419-0.276,0.86-0.61,1.324-1.001v3.436
	c-1.628,0.924-3.337,1.386-5.127,1.386c-2.694,0-4.993-0.94-6.897-2.82c-1.896-1.896-2.844-4.183-2.844-6.86
	c0-2.4,0.793-4.541,2.38-6.421c1.953-2.303,4.48-3.455,7.581-3.455C29.035,48.439,30.67,48.897,32.25,49.812z"/>
<path fill="#939598" d="M21.166,76.178h8.13v-7.373h2.844v18.848h-2.844v-8.801h-8.13v8.801h-2.844V68.805h2.844V76.178z"/>
<path fill="#939598" d="M21.166,88.805v18.848h-2.844V88.805H21.166z"/>
<path fill="#939598" d="M23.521,111.479v16.174h-2.844v-16.174h-4.333v-2.673h11.499v2.673H23.521z"/>
<path fill="#939598" d="M28.722,131.479h-7.556v4.528h7.336v2.673h-7.336v6.299h7.556v2.674h-10.4v-18.848h10.4V131.479z"/>
<path fill="#939598" d="M32.25,149.812v3.363c-1.644-1.375-3.345-2.063-5.103-2.063c-1.937,0-3.569,0.696-4.895,2.088
	c-1.335,1.384-2.002,3.076-2.002,5.078c0,1.978,0.667,3.646,2.002,5.005c1.334,1.359,2.97,2.038,4.907,2.038
	c1.001,0,1.851-0.162,2.551-0.488c0.391-0.162,0.795-0.382,1.215-0.658c0.419-0.277,0.86-0.611,1.324-1.002v3.437
	c-1.628,0.924-3.337,1.386-5.127,1.386c-2.694,0-4.993-0.939-6.897-2.82c-1.896-1.896-2.844-4.183-2.844-6.859
	c0-2.401,0.793-4.541,2.38-6.422c1.953-2.303,4.48-3.454,7.581-3.454C29.035,148.438,30.67,148.896,32.25,149.812z"/>
<path fill="#939598" d="M23.521,171.479v16.174h-2.844v-16.174h-4.333v-2.674h11.499v2.674H23.521z"/>
<path fill="#939598" d="M21.166,188.805v11.344c0,1.619,0.264,2.802,0.793,3.55c0.789,1.082,1.9,1.622,3.333,1.622
	c1.44,0,2.555-0.54,3.345-1.622c0.529-0.724,0.793-1.907,0.793-3.55v-11.344h2.844v12.134c0,1.985-0.619,3.621-1.855,4.907
	c-1.392,1.433-3.101,2.148-5.127,2.148s-3.731-0.716-5.115-2.148c-1.237-1.286-1.855-2.922-1.855-4.907v-12.134H21.166z"/>
<path d="M24.706,219.62l5.835,8.032h-3.479l-5.383-7.715h-0.513v7.715h-2.844v-18.848h3.333c2.49,0,4.289,0.468,5.396,1.404
	c1.221,1.041,1.831,2.416,1.831,4.125c0,1.335-0.383,2.482-1.147,3.443C26.968,218.737,25.958,219.352,24.706,219.62z
	 M21.166,217.459h0.903c2.693,0,4.041-1.029,4.041-3.088c0-1.929-1.311-2.893-3.931-2.893h-1.013V217.459z"/>
<path fill="#939598" d="M28.722,231.479h-7.556v4.528h7.336v2.673h-7.336v6.299h7.556v2.674h-10.4v-18.848h10.4V231.479z"/>
<g>
	<path d="M35.481,225.443l-5.347-9.681h3.186l3.638,6.836l3.394-6.836h3.101l-9.473,18.359h-3.137L35.481,225.443z"/>
	<path d="M53.658,215.763h2.758v11.89h-2.758v-1.245c-1.131,1.058-2.348,1.587-3.65,1.587c-1.644,0-3.003-0.594-4.077-1.782
		c-1.066-1.212-1.599-2.726-1.599-4.541c0-1.782,0.533-3.267,1.599-4.456c1.066-1.188,2.4-1.781,4.004-1.781
		c1.384,0,2.624,0.569,3.724,1.709V215.763z M47.139,221.671c0,1.14,0.305,2.067,0.916,2.783c0.626,0.725,1.416,1.087,2.369,1.087
		c1.016,0,1.838-0.35,2.465-1.051c0.627-0.724,0.939-1.643,0.939-2.758s-0.312-2.035-0.939-2.76
		c-0.627-0.707-1.439-1.062-2.441-1.062c-0.944,0-1.733,0.358-2.368,1.074C47.452,219.71,47.139,220.605,47.139,221.671z"/>
	<path d="M59.883,215.763h2.759v1.099c0.96-0.952,2.043-1.428,3.247-1.428c1.384,0,2.462,0.436,3.235,1.306
		c0.667,0.741,1,1.949,1,3.626v7.287h-2.758v-6.633c0-1.17-0.163-1.979-0.488-2.426c-0.318-0.455-0.896-0.683-1.734-0.683
		c-0.911,0-1.558,0.301-1.94,0.902c-0.374,0.593-0.562,1.63-0.562,3.108v5.73h-2.759V215.763z"/>
	<path d="M95.76,209.812v3.363c-1.645-1.375-3.346-2.063-5.103-2.063c-1.937,0-3.568,0.696-4.895,2.088
		c-1.335,1.384-2.002,3.076-2.002,5.078c0,1.978,0.667,3.646,2.002,5.005c1.334,1.359,2.97,2.038,4.906,2.038
		c1.001,0,1.851-0.162,2.552-0.488c0.391-0.162,0.795-0.382,1.215-0.658c0.418-0.277,0.859-0.611,1.324-1.002v3.437
		c-1.629,0.924-3.338,1.386-5.127,1.386c-2.693,0-4.993-0.939-6.897-2.82c-1.896-1.896-2.844-4.182-2.844-6.859
		c0-2.4,0.793-4.541,2.381-6.422c1.953-2.303,4.479-3.454,7.58-3.454C92.545,208.438,94.18,208.896,95.76,209.812z"/>
	<path d="M98.262,221.622c0-1.717,0.613-3.178,1.844-4.382c1.229-1.205,2.725-1.807,4.492-1.807c1.773,0,3.279,0.605,4.516,1.818
		c1.221,1.213,1.832,2.702,1.832,4.468c0,1.782-0.615,3.276-1.844,4.479c-1.238,1.197-2.756,1.795-4.553,1.795
		c-1.783,0-3.277-0.61-4.48-1.831C98.863,224.959,98.262,223.445,98.262,221.622z M101.068,221.671c0,1.188,0.318,2.128,0.953,2.819
		c0.65,0.701,1.51,1.051,2.576,1.051c1.074,0,1.932-0.346,2.574-1.038c0.643-0.691,0.965-1.615,0.965-2.771
		c0-1.156-0.322-2.08-0.965-2.771c-0.65-0.699-1.51-1.05-2.574-1.05c-1.051,0-1.9,0.351-2.553,1.05
		C101.395,219.661,101.068,220.564,101.068,221.671z"/>
	<path d="M113.289,221.622c0-1.717,0.613-3.178,1.844-4.382c1.229-1.205,2.725-1.807,4.492-1.807c1.773,0,3.279,0.605,4.516,1.818
		c1.221,1.213,1.832,2.702,1.832,4.468c0,1.782-0.615,3.276-1.844,4.479c-1.238,1.197-2.756,1.795-4.553,1.795
		c-1.783,0-3.277-0.61-4.48-1.831C113.891,224.959,113.289,223.445,113.289,221.622z M116.096,221.671
		c0,1.188,0.318,2.128,0.953,2.819c0.65,0.701,1.51,1.051,2.576,1.051c1.074,0,1.932-0.346,2.574-1.038
		c0.643-0.691,0.965-1.615,0.965-2.771c0-1.156-0.322-2.08-0.965-2.771c-0.65-0.699-1.51-1.05-2.574-1.05
		c-1.051,0-1.9,0.351-2.553,1.05C116.422,219.661,116.096,220.564,116.096,221.671z"/>
	<path d="M131.625,234.122h-2.748v-18.359h2.748v1.294c1.082-1.082,2.311-1.623,3.686-1.623c1.637,0,2.982,0.602,4.041,1.807
		c1.074,1.195,1.611,2.705,1.611,4.528c0,1.782-0.533,3.268-1.6,4.456c-1.059,1.18-2.393,1.77-4.004,1.77
		c-1.391,0-2.637-0.557-3.734-1.672V234.122z M138.154,221.781c0-1.14-0.309-2.067-0.928-2.783
		c-0.627-0.725-1.416-1.087-2.367-1.087c-1.01,0-1.828,0.351-2.453,1.05c-0.627,0.7-0.941,1.619-0.941,2.759
		c0,1.115,0.314,2.034,0.941,2.759c0.617,0.708,1.432,1.062,2.441,1.062c0.951,0,1.736-0.358,2.355-1.074
		C137.838,223.75,138.154,222.855,138.154,221.781z"/>
	<path d="M154.695,222.354h-8.52c0.072,0.977,0.391,1.754,0.951,2.331c0.562,0.57,1.281,0.855,2.16,0.855
		c0.684,0,1.25-0.163,1.697-0.488c0.439-0.326,0.939-0.928,1.502-1.807l2.318,1.293c-0.357,0.611-0.736,1.134-1.135,1.569
		c-0.398,0.435-0.826,0.793-1.281,1.074c-0.457,0.28-0.949,0.485-1.477,0.616c-0.529,0.13-1.104,0.195-1.723,0.195
		c-1.773,0-3.197-0.569-4.271-1.709c-1.074-1.147-1.611-2.669-1.611-4.565c0-1.88,0.52-3.401,1.562-4.565
		c1.049-1.147,2.441-1.721,4.174-1.721c1.75,0,3.133,0.557,4.15,1.672c1.01,1.107,1.514,2.641,1.514,4.602L154.695,222.354z
		 M151.875,220.108c-0.383-1.465-1.305-2.197-2.77-2.197c-0.334,0-0.648,0.051-0.941,0.152c-0.293,0.103-0.559,0.249-0.799,0.439
		c-0.24,0.191-0.445,0.421-0.617,0.69c-0.17,0.268-0.301,0.573-0.391,0.915H151.875z"/>
	<path d="M157.697,215.763h2.748v1.062c0.504-0.528,0.951-0.891,1.342-1.086c0.398-0.203,0.871-0.305,1.416-0.305
		c0.725,0,1.48,0.236,2.271,0.707l-1.258,2.516c-0.521-0.375-1.029-0.562-1.525-0.562c-1.498,0-2.246,1.132-2.246,3.395v6.164
		h-2.748V215.763z"/>
</g>
</svg>
