<?xml version="1.0" encoding="utf-8"?>
<!-- Generator: Adobe Illustrator 16.0.0, SVG Export Plug-In . SVG Version: 6.00 Build 0)  -->
<!DOCTYPE svg PUBLIC "-//W3C//DTD SVG 1.1//EN" "http://www.w3.org/Graphics/SVG/1.1/DTD/svg11.dtd">
<svg version="1.1" id="Layer_1" xmlns="http://www.w3.org/2000/svg" xmlns:xlink="http://www.w3.org/1999/xlink" x="0px" y="0px"
	 width="180px" height="260px" viewBox="0 0 180 260" enable-background="new 0 0 180 260" xml:space="preserve">
<rect fill="#F7A56E" width="180" height="260"/>
<g>
	<ellipse opacity="0.2" fill="#231F20" cx="89.539" cy="285.752" rx="54.384" ry="2.358"/>
	<g>
		<path fill="#1F3046" d="M95.193,134.151v-0.685c0-3.144-2.558-5.702-5.702-5.702c-3.146,0-5.704,2.558-5.704,5.702v0.685h-2.962
			v-0.685c0-4.777,3.887-8.665,8.666-8.665c4.778,0,8.665,3.887,8.665,8.665v0.685H95.193z"/>
		<path fill="#2A3E56" d="M89.491,124.802c-4.757,0-8.612,3.855-8.612,8.612h1.723c0-3.805,3.084-6.89,6.89-6.89
			c3.804,0,6.888,3.085,6.888,6.89h1.723C98.102,128.658,94.247,124.802,89.491,124.802z"/>
	</g>
	<path fill="#2A3E56" d="M43,153v48.567v50.126v25.125c0,4.843,3.977,9.182,8.819,9.182h75.253c4.842,0,8.928-4.339,8.928-9.182
		v-25.125v-50.126V153H43z"/>
	<path fill="#231F20" d="M135.841,148.361C135.841,148.361,135.841,148.361,135.841,148.361c-2.159-1.465-5.777-11.65-5.777-11.65
		v-0.129c0-3.328-3.438-6.029-7.676-6.029H56.504c-4.24,0-7.677,2.701-7.677,6.029v0.643c-0.766,2.086-3.722,9.869-5.589,11.137l0,0
		c-2.753,1.57-4.387,3.343-4.403,5.327c-0.108,14.166,17.206,40.802,35.224,40.802h30.961c18.017,0,35.332-26.636,35.223-40.802
		C140.227,151.704,138.594,149.932,135.841,148.361z M130.191,145.896c-0.044-0.015-0.085-0.028-0.128-0.044v-0.016
		C130.106,145.856,130.147,145.877,130.191,145.896z"/>
	<path fill="#1F3046" d="M135.843,146.674c-0.002-0.001-0.034-0.001-0.036-0.002c-2.158-1.466-5.807-11.65-5.807-11.65v-0.129
		c0-3.33-3.374-5.893-7.612-5.893H56.504c-4.24,0-6.504,2.562-6.504,5.893v0.645c-2,2.082-4.308,9.867-6.175,11.135
		c-0.003,0.002-0.297,0.003-0.3,0.005c-2.749,1.568-4.527,3.44-4.543,5.422C38.873,166.265,56.041,193,74.059,193h30.961
		c18.017,0,35.332-26.735,35.223-40.901C140.228,150.115,138.594,148.243,135.843,146.674z M130.193,144.208
		c-0.044-0.015-0.087-0.029-0.13-0.044v-0.017C130.107,144.168,130.149,144.188,130.193,144.208z"/>
	<path fill="#231F20" d="M120.915,217h-2.6H62.733h-2.601C56.39,217,53,219.889,53,223.633v3.899v36.087v3.898
		c0,3.743,3.39,7.482,7.133,7.482h2.601h55.582h2.6c3.744,0,7.085-3.739,7.085-7.482v-3.898v-36.087v-3.899
		C128,219.889,124.659,217,120.915,217z"/>
	<path fill="#1F3046" d="M126.395,266.217c0,3.745-3.036,6.779-6.779,6.779H61.434c-3.745,0-6.78-3.034-6.78-6.779v-39.984
		c0-3.744,3.035-6.78,6.78-6.78h58.182c3.743,0,6.779,3.036,6.779,6.78V266.217z"/>
	<path fill="#231F20" d="M128.105,222.171c0-0.801-0.211-1.563-0.604-2.304L124.406,213h-1.299H93.65h-2.6h-0.709h-2.6H58.285h-1.3
		l-3.095,6.867c-0.394,0.74-0.605,1.51-0.605,2.31c0,1.703,0.954,2.959,2.609,4.327c2.758,3.414,9.583,5.496,17.574,5.496h15.573
		h3.309h15.573c7.99,0,14.815-2.086,17.572-5.5C127.151,225.133,128.105,223.873,128.105,222.171z"/>
	<path fill="#122336" d="M126.201,219.74l-1.795-6.74H92.351h-3.309H56.985l-1.795,6.74c-0.394,0.738-0.604,1.39-0.604,2.188
		c0,5.079,8.455,9.071,18.883,9.071h15.573h3.309h15.573c10.429,0,18.881-3.992,18.881-9.071
		C126.805,221.13,126.595,220.479,126.201,219.74z"/>
	<g>
		<rect x="65.343" y="128.864" opacity="0.2" fill="#222221" width="6.498" height="144.685"/>
		<rect x="67.941" y="128.864" opacity="0.2" fill="#222221" width="6.499" height="144.685"/>
		<rect x="66.643" y="128.084" fill="#BC774F" width="6.499" height="145.465"/>
		<rect x="66.562" y="182.937" opacity="0.1" fill="#222221" width="6.616" height="1.093"/>
		<rect x="66.562" y="180.202" opacity="0.1" fill="#222221" width="6.616" height="1.094"/>
		<rect x="66.562" y="148.611" opacity="0.1" fill="#222221" width="6.616" height="1.094"/>
		<rect x="66.562" y="145.877" opacity="0.1" fill="#222221" width="6.616" height="1.093"/>
		<path fill="#BC774F" d="M77.542,148.747c0,0.249-0.625,0.449-1.396,0.449h-12.52c-0.771,0-1.396-0.2-1.396-0.449v-1.836
			c0-0.248,0.625-0.448,1.396-0.448h12.52c0.771,0,1.396,0.2,1.396,0.448V148.747z"/>
		<rect x="66.562" y="222.259" opacity="0.1" fill="#222221" width="6.616" height="1.094"/>
		<rect x="66.562" y="219.523" opacity="0.1" fill="#222221" width="6.616" height="1.096"/>
		<path fill="#BC774F" d="M77.542,222.396c0,0.248-0.625,0.449-1.396,0.449h-12.52c-0.771,0-1.396-0.201-1.396-0.449v-1.836
			c0-0.248,0.625-0.449,1.396-0.449h12.52c0.771,0,1.396,0.201,1.396,0.449V222.396z"/>
		<polygon opacity="0.1" fill="#222221" points="69.893,234.474 66.643,227.909 66.643,208.346 69.893,208.346 73.142,208.346 
			73.142,227.909 		"/>
		<polygon fill="#BC774F" points="69.893,233.174 66.643,226.609 66.643,207.046 69.893,207.046 73.142,207.046 73.142,226.609 		
			"/>
		<polygon opacity="0.1" fill="#222221" points="69.893,273.268 66.643,266.703 66.643,247.14 69.893,247.14 73.142,247.14 
			73.142,266.703 		"/>
		<polygon fill="#BC774F" points="69.893,271.969 66.643,265.403 66.643,245.841 69.893,245.841 73.142,245.841 73.142,265.403 		
			"/>
		<path fill="#BC774F" d="M77.542,183.072c0,0.247-0.625,0.448-1.396,0.448h-12.52c-0.771,0-1.396-0.201-1.396-0.448v-1.836
			c0-0.248,0.625-0.449,1.396-0.449h12.52c0.771,0,1.396,0.201,1.396,0.449V183.072z"/>
		<rect x="73.142" y="220.11" opacity="0.1" fill="#222221" width="0.586" height="2.697"/>
		<rect x="65.977" y="220.11" opacity="0.1" fill="#222221" width="0.586" height="2.697"/>
		<g>
			<rect x="66.643" y="235.235" opacity="0.1" fill="#222221" width="6.499" height="0.585"/>
			<g>
				<path fill="#C7C5C5" d="M74.588,244.964c0,0.479-0.387,0.866-0.866,0.866h-7.767c-0.479,0-0.867-0.387-0.867-0.866v-8.35
					c0-0.478,0.388-0.865,0.867-0.865h7.767c0.479,0,0.866,0.388,0.866,0.865V244.964z"/>
				<path fill="#BC774F" d="M73.164,243.714c0,0.336-0.272,0.606-0.605,0.606H67.12c-0.335,0-0.606-0.271-0.606-0.606v-7.288
					c0-0.335,0.271-0.605,0.606-0.605h5.438c0.333,0,0.605,0.271,0.605,0.605V243.714z"/>
				<rect x="65.851" y="235.739" fill="#C7C5C5" width="7.977" height="1.762"/>
				<circle opacity="0.2" fill="#222221" cx="69.892" cy="238.905" r="0.752"/>
				<rect x="66.643" y="237.501" opacity="0.1" fill="#222221" width="6.499" height="0.586"/>
				<path opacity="0.1" fill="#222221" d="M69.47,238.645c-0.102,0-0.182-0.08-0.182-0.181v-1.621c0-0.101,0.08-0.181,0.182-0.181
					h0.739c0.1,0,0.18,0.08,0.18,0.181v1.621c0,0.101-0.08,0.181-0.18,0.181H69.47z"/>
				<path fill="#B7B7B8" d="M69.47,238.905c-0.102,0-0.182-0.082-0.182-0.182v-1.622c0-0.101,0.08-0.18,0.182-0.18h0.739
					c0.1,0,0.18,0.079,0.18,0.18v1.622c0,0.1-0.08,0.182-0.18,0.182H69.47z"/>
			</g>
			<circle opacity="0.2" fill="#222221" cx="69.892" cy="242.804" r="0.752"/>
			<circle opacity="0.2" fill="#222221" cx="69.892" cy="246.704" r="0.752"/>
			<circle opacity="0.2" fill="#222221" cx="69.892" cy="250.603" r="0.752"/>
			<rect x="66.643" y="243.714" opacity="0.1" fill="#222221" width="6.499" height="0.585"/>
			<rect x="66.643" y="245.841" opacity="0.1" fill="#222221" width="6.499" height="0.585"/>
		</g>
		<g>
			<rect x="66.643" y="194.49" opacity="0.1" fill="#222221" width="6.499" height="0.585"/>
			<g>
				<path fill="#C7C5C5" d="M74.588,204.219c0,0.478-0.387,0.865-0.866,0.865h-7.767c-0.479,0-0.867-0.388-0.867-0.865v-8.35
					c0-0.478,0.388-0.866,0.867-0.866h7.767c0.479,0,0.866,0.389,0.866,0.866V204.219z"/>
				<path fill="#BC774F" d="M73.164,202.968c0,0.336-0.272,0.605-0.605,0.605H67.12c-0.335,0-0.606-0.27-0.606-0.605v-7.287
					c0-0.334,0.271-0.605,0.606-0.605h5.438c0.333,0,0.605,0.271,0.605,0.605V202.968z"/>
				<rect x="65.851" y="194.993" fill="#C7C5C5" width="7.977" height="1.763"/>
				<circle opacity="0.2" fill="#222221" cx="69.892" cy="198.159" r="0.752"/>
				<rect x="66.643" y="196.756" opacity="0.1" fill="#222221" width="6.499" height="0.585"/>
				<path opacity="0.1" fill="#222221" d="M69.47,197.9c-0.102,0-0.182-0.082-0.182-0.182v-1.621c0-0.102,0.08-0.182,0.182-0.182
					h0.739c0.1,0,0.18,0.08,0.18,0.182v1.621c0,0.1-0.08,0.182-0.18,0.182H69.47z"/>
				<path fill="#B7B7B8" d="M69.47,198.159c-0.102,0-0.182-0.08-0.182-0.181v-1.622c0-0.1,0.08-0.18,0.182-0.18h0.739
					c0.1,0,0.18,0.08,0.18,0.18v1.622c0,0.101-0.08,0.181-0.18,0.181H69.47z"/>
			</g>
			<circle opacity="0.2" fill="#222221" cx="69.892" cy="202.059" r="0.752"/>
			<circle opacity="0.2" fill="#222221" cx="69.892" cy="205.958" r="0.752"/>
			<circle opacity="0.2" fill="#222221" cx="69.892" cy="209.856" r="0.752"/>
			<rect x="66.643" y="202.968" opacity="0.1" fill="#222221" width="6.499" height="0.586"/>
			<rect x="66.643" y="205.095" opacity="0.1" fill="#222221" width="6.499" height="0.585"/>
		</g>
	</g>
	<g>
		<rect x="104.433" y="128.864" opacity="0.2" fill="#222221" width="6.498" height="144.685"/>
		<rect x="107.032" y="128.864" opacity="0.2" fill="#222221" width="6.499" height="144.685"/>
		<rect x="105.732" y="128.084" fill="#BC774F" width="6.499" height="145.465"/>
		<rect x="105.652" y="182.937" opacity="0.1" fill="#222221" width="6.617" height="1.093"/>
		<rect x="105.652" y="180.202" opacity="0.1" fill="#222221" width="6.617" height="1.094"/>
		<rect x="105.652" y="148.611" opacity="0.1" fill="#222221" width="6.617" height="1.094"/>
		<rect x="105.652" y="145.877" opacity="0.1" fill="#222221" width="6.617" height="1.093"/>
		<path fill="#BC774F" d="M116.632,148.747c0,0.249-0.625,0.449-1.396,0.449h-12.52c-0.771,0-1.396-0.2-1.396-0.449v-1.836
			c0-0.248,0.625-0.448,1.396-0.448h12.52c0.771,0,1.396,0.2,1.396,0.448V148.747z"/>
		<rect x="105.652" y="222.259" opacity="0.1" fill="#222221" width="6.617" height="1.094"/>
		<rect x="105.652" y="219.523" opacity="0.1" fill="#222221" width="6.617" height="1.096"/>
		<path fill="#BC774F" d="M116.632,222.396c0,0.248-0.625,0.449-1.396,0.449h-12.52c-0.771,0-1.396-0.201-1.396-0.449v-1.836
			c0-0.248,0.625-0.449,1.396-0.449h12.52c0.771,0,1.396,0.201,1.396,0.449V222.396z"/>
		<polygon opacity="0.1" fill="#222221" points="108.982,234.474 105.732,227.909 105.732,208.346 108.982,208.346 112.231,208.346 
			112.231,227.909 		"/>
		<polygon fill="#BC774F" points="108.982,233.174 105.732,226.609 105.732,207.046 108.982,207.046 112.231,207.046 
			112.231,226.609 		"/>
		<polygon opacity="0.1" fill="#222221" points="108.982,273.268 105.732,266.703 105.732,247.14 108.982,247.14 112.231,247.14 
			112.231,266.703 		"/>
		<polygon fill="#BC774F" points="108.982,271.969 105.732,265.403 105.732,245.841 108.982,245.841 112.231,245.841 
			112.231,265.403 		"/>
		<path fill="#BC774F" d="M116.632,183.072c0,0.247-0.625,0.448-1.396,0.448h-12.52c-0.771,0-1.396-0.201-1.396-0.448v-1.836
			c0-0.248,0.625-0.449,1.396-0.449h12.52c0.771,0,1.396,0.201,1.396,0.449V183.072z"/>
		<rect x="112.231" y="220.11" opacity="0.1" fill="#222221" width="0.585" height="2.697"/>
		<rect x="105.066" y="220.11" opacity="0.1" fill="#222221" width="0.586" height="2.697"/>
		<g>
			<rect x="105.732" y="235.235" opacity="0.1" fill="#222221" width="6.499" height="0.585"/>
			<g>
				<path fill="#C7C5C5" d="M113.68,244.964c0,0.479-0.389,0.866-0.866,0.866h-7.769c-0.479,0-0.866-0.387-0.866-0.866v-8.35
					c0-0.478,0.388-0.865,0.866-0.865h7.769c0.478,0,0.866,0.388,0.866,0.865V244.964z"/>
				<path fill="#BC774F" d="M112.254,243.714c0,0.336-0.272,0.606-0.606,0.606h-5.438c-0.334,0-0.606-0.271-0.606-0.606v-7.288
					c0-0.335,0.272-0.605,0.606-0.605h5.438c0.334,0,0.606,0.271,0.606,0.605V243.714z"/>
				<rect x="104.94" y="235.739" fill="#C7C5C5" width="7.978" height="1.762"/>
				<circle opacity="0.2" fill="#222221" cx="108.982" cy="238.905" r="0.753"/>
				<rect x="105.732" y="237.501" opacity="0.1" fill="#222221" width="6.499" height="0.586"/>
				<path opacity="0.1" fill="#222221" d="M108.56,238.645c-0.101,0-0.182-0.08-0.182-0.181v-1.621c0-0.101,0.081-0.181,0.182-0.181
					h0.739c0.1,0,0.181,0.08,0.181,0.181v1.621c0,0.101-0.081,0.181-0.181,0.181H108.56z"/>
				<path fill="#B7B7B8" d="M108.56,238.905c-0.101,0-0.182-0.082-0.182-0.182v-1.622c0-0.101,0.081-0.18,0.182-0.18h0.739
					c0.1,0,0.181,0.079,0.181,0.18v1.622c0,0.1-0.081,0.182-0.181,0.182H108.56z"/>
			</g>
			<circle opacity="0.2" fill="#222221" cx="108.982" cy="242.804" r="0.753"/>
			<circle opacity="0.2" fill="#222221" cx="108.982" cy="246.704" r="0.753"/>
			<circle opacity="0.2" fill="#222221" cx="108.982" cy="250.603" r="0.753"/>
			<rect x="105.732" y="243.714" opacity="0.1" fill="#222221" width="6.499" height="0.585"/>
			<rect x="105.732" y="245.841" opacity="0.1" fill="#222221" width="6.499" height="0.585"/>
		</g>
		<g>
			<rect x="105.732" y="194.49" opacity="0.1" fill="#222221" width="6.499" height="0.585"/>
			<g>
				<path fill="#C7C5C5" d="M113.68,204.219c0,0.478-0.389,0.865-0.866,0.865h-7.769c-0.479,0-0.866-0.388-0.866-0.865v-8.35
					c0-0.478,0.388-0.866,0.866-0.866h7.769c0.478,0,0.866,0.389,0.866,0.866V204.219z"/>
				<path fill="#BC774F" d="M112.254,202.968c0,0.336-0.272,0.605-0.606,0.605h-5.438c-0.334,0-0.606-0.27-0.606-0.605v-7.287
					c0-0.334,0.272-0.605,0.606-0.605h5.438c0.334,0,0.606,0.271,0.606,0.605V202.968z"/>
				<rect x="104.94" y="194.993" fill="#C7C5C5" width="7.978" height="1.763"/>
				<circle opacity="0.2" fill="#222221" cx="108.982" cy="198.159" r="0.753"/>
				<rect x="105.732" y="196.756" opacity="0.1" fill="#222221" width="6.499" height="0.585"/>
				<path opacity="0.1" fill="#222221" d="M108.56,197.9c-0.101,0-0.182-0.082-0.182-0.182v-1.621c0-0.102,0.081-0.182,0.182-0.182
					h0.739c0.1,0,0.181,0.08,0.181,0.182v1.621c0,0.1-0.081,0.182-0.181,0.182H108.56z"/>
				<path fill="#B7B7B8" d="M108.56,198.159c-0.101,0-0.182-0.08-0.182-0.181v-1.622c0-0.1,0.081-0.18,0.182-0.18h0.739
					c0.1,0,0.181,0.08,0.181,0.18v1.622c0,0.101-0.081,0.181-0.181,0.181H108.56z"/>
			</g>
			<circle opacity="0.2" fill="#222221" cx="108.982" cy="202.059" r="0.753"/>
			<circle opacity="0.2" fill="#222221" cx="108.982" cy="205.958" r="0.753"/>
			<circle opacity="0.2" fill="#222221" cx="108.982" cy="209.856" r="0.753"/>
			<rect x="105.732" y="202.968" opacity="0.1" fill="#222221" width="6.499" height="0.586"/>
			<rect x="105.732" y="205.095" opacity="0.1" fill="#222221" width="6.499" height="0.585"/>
		</g>
	</g>
</g>
<g>
	<path fill="#FFFFFF" d="M29.701,16.719l-0.674,0.674h-0.674l-0.674-0.674H27.34l-0.337,0.337h-0.674l-0.337-0.337l-0.674,0.674
		l-1.686-0.337l-2.023,0.337H20.26l-0.653-0.674v-1.012h1.327l1.686,0.337l0.337-0.337l1.012,1.012l1.348-1.012h1.349l1.012,0.674
		l1.011-0.674L29.701,16.719z M22.895,54.247v0.337l-1.349,0.674h-0.674v-0.337l1.349-1.349L22.895,54.247z M23.864,22.956h0.421
		l1.686,0.421l1.265-0.421l0.843,1.686l-0.421,1.686l0.421,0.421l-0.843,0.843l1.264,1.265v0.843l-0.843,1.686l0.843,1.264
		c-0.281,1.405-0.843,2.107-1.686,2.107v0.843h0.843v2.107l0.421,0.421v0.421h-1.265l1.686,4.636c0,2.248-0.703,3.372-2.107,3.372
		v0.421H28.5v0.843l-0.421,0.421v0.422c-3.934,0-5.9-0.562-5.9-1.686l-0.422-2.107l1.686-5.057l0.843-0.843
		c-0.73,0-1.292-1.124-1.686-3.372v-0.421l0.421-0.421l-1.265-5.479l1.265-1.265L22.6,26.749l0.421-0.421h0.421l0.843,0.843v-0.843
		l-0.421-1.264L22.6,25.906l-0.421-0.421v-0.421L23.864,22.956z M23.442,43.184v0.843h1.264l-0.843-0.843H23.442z M45.146,54.584
		v0.674h-0.674l-1.012-0.674l-3.034,0.674c-0.674,0-1.011-0.225-1.011-0.674l-1.686,0.337h-1.686l-0.337-0.337
		c0,0.449-1.124,0.674-3.372,0.674h-0.337l-0.674-0.674l-4.72,0.674l-3.034-0.674l0.674-0.674h1.011l1.011,0.674V53.91h2.697
		l0.337,0.337l2.36-0.674v0.337l0.337,0.337l1.686-0.674l1.349,0.337h0.337l0.337-0.337l3.708,0.337l1.686-0.337l0.337,0.337
		l1.349-0.337C43.601,54.247,44.387,54.584,45.146,54.584z M25.128,30.12c0,0.562-0.421,0.843-1.264,0.843v1.686
		c0,0.421,0.562,0.843,1.686,1.265c0-1.025,0.421-2.149,1.264-3.372l-0.421-0.421H25.128z M24.285,37.284v0.421h0.843l0.421-1.264
		h-0.421L24.285,37.284z M24.707,40.234v1.264l0.843,2.529c0.562,0,0.983-0.843,1.264-2.529h-0.421
		c-0.562,0-0.843-0.421-0.843-1.264H24.707z M44.872,17.393h-0.674l-3.035-0.337h-0.337l-0.337,0.337h-0.337l-0.337-0.337
		l-2.023,0.337h-0.337l-0.337-0.337l-2.023,0.337h-1.011l-0.674-0.674l-1.686,0.337h-1.348v-0.337l0.337-0.337l0.337,0.337
		l1.686-1.012h1.686l1.012,0.674h0.337l1.011-0.674h0.337l0.674,0.674l5.057-0.674v0.337l0.337,0.337l1.012-0.674h1.053
		l-0.042,1.602C45.11,17.365,44.999,17.393,44.872,17.393z M32.714,22.956h3.371c0.562,0,1.124,1.124,1.686,3.372l2.107,0.421
		v-0.843h0.843v1.264c-0.843,0-1.264,0.421-1.264,1.264h1.264l1.265-0.843l0.421,0.421v2.95l-1.265,1.264l-0.843-0.843v-0.421
		l0.421-0.421V30.12h-0.843c-0.562,0-0.983,0.843-1.264,2.528h0.421l2.107,0.843l0.843-0.843l0.843,1.265l-1.265,0.421l0.843,3.371
		l-0.421,0.421l0.421,2.107c-0.211,2.81-0.773,4.214-1.686,4.214l0.421,0.421v0.421l-0.843,0.843l-0.843-0.843
		c0,1.405-0.421,2.107-1.264,2.107h-0.421v-0.843H37.35c-0.646,0-1.068,0.703-1.265,2.107h-1.686l-0.843-0.843l1.264-0.421v-0.421
		h-1.686c0,0.843-0.281,1.264-0.843,1.264l-0.843-1.264v-0.421l0.421-0.421l-0.421-0.421V44.87c0-0.464,0.843-1.025,2.529-1.686
		l0.421-0.421c0-0.562,0.562-0.843,1.686-0.843v-1.686h1.265c0,1.405,0.281,2.107,0.843,2.107h0.421v-0.843
		c-1.686-2.219-2.529-4.046-2.529-5.479l0.843-1.686c0-2.824-0.983-4.509-2.95-5.057c0-1.124-0.703-1.686-2.107-1.686l-0.421-0.421
		v-0.843l0.421-0.421l-0.421-0.421v-0.421C31.814,23.658,32.236,22.956,32.714,22.956z M35.242,28.434l0.843,0.843h0.421v-0.843
		H35.242z M36.506,43.606v0.421l1.265,1.264v-0.843l-0.843-0.843H36.506z M37.35,36.863v0.421c0.281,0.843,1.124,1.264,2.528,1.264
		v-1.264L37.35,36.863z"/>
	<path fill="#FFFFFF" d="M49.739,54.5v0.674h-0.674L48.391,54.5l-1.349,1.012h-1.686l-0.674-0.674V54.5l4.046-0.674
		C49.402,53.825,49.739,54.05,49.739,54.5z M55.513,16.634l-0.379-0.253h-0.337l-1.011,0.674h-0.337l-0.337-0.337l-0.674,0.674
		l-1.011-0.674l-0.674,0.674l-1.012-0.337l-1.011,0.337h-0.337l-0.337-0.337l-0.337,0.337l-1.011-0.674h-0.337l-0.674,0.674
		l-0.674-0.674v-0.337l0.674-0.674h1.348l1.349,0.337l1.349-0.337h3.372l1.686,0.337l0.337-0.337l0.379,0.084V16.634z
		 M49.486,22.471l0.421,0.421l0.421-0.421h1.265c1.404,0.716,2.107,1.84,2.107,3.371v0.843c0,0.843-0.843,1.264-2.528,1.264v0.421
		h1.686v0.421l-0.421,0.421v0.421c0.562,0,0.983,0.843,1.264,2.529l-0.421,1.264l0.421,1.264l-0.421,0.421h-0.421l0.843,2.95
		l-0.843,1.686l0.421,0.421h0.421l-0.421,2.95v2.107l0.421,2.95L53.279,48.6h-0.421l-0.421-0.421h-0.421L49.486,48.6h-0.421
		c-0.73,0-1.292-1.124-1.686-3.372c0.562,0,0.843-0.702,0.843-2.107h1.264V42.7l-0.421-0.421v-0.421l-0.421,0.421h-0.421
		l-0.421-0.421h-0.421l0.421-2.107l-0.421-1.686c0-2.529,0.983-3.793,2.95-3.793v-1.264l-3.371,1.264V33.85l0.843-1.264v-0.421
		l-0.421-0.421v-0.421l0.421-0.422h-0.421l1.264-1.686l0.421,0.421h0.421l0.421-0.421l0.421,0.421v-0.843h-0.843V27.95l2.107-2.529
		v-0.843l-3.372,1.264l0.421,0.422v0.421l-1.264,1.686l-0.421-2.107l0.843-0.843L47.379,25v-0.843L49.486,22.471z M49.065,35.535
		V36.8h1.264l0.422-2.107L49.065,35.535z M51.172,37.221l-0.421,1.264h1.264l-0.421-0.421v-0.421l0.421-0.421H51.172z
		 M55.513,55.364l-0.379,0.147l-3.372-0.674l-0.337,0.337h-0.674V54.5l0.674-0.674h2.36l0.337,0.337l0.337-0.337h0.674l0.337,0.337
		v-0.337h0.042V55.364z"/>
	<path fill="#FFFFFF" d="M59.306,17.393l-4.045-0.674v-0.337l0.674-0.674h1.686l1.349,1.012l0.674-0.674h0.674v0.674
		C60.317,17.168,59.98,17.393,59.306,17.393z M65.711,55.511l-0.337-0.337l-1.686,0.337h-3.371l-1.349-0.337l-1.349,0.337h-1.349
		l-0.674-0.674V54.5l0.674-0.674l0.674,0.674h0.337l1.011-0.674l0.337,0.337l0.337-0.337h0.337l1.012,0.337l1.011-0.337l0.674,0.674
		l1.012-0.674l0.674,0.674l0.337-0.337h0.337l1.012,0.674h0.337l1.012-0.674l0.674,0.674v0.337L65.711,55.511z M62.53,22.45h2.254
		c0,0.59,0.604,0.885,1.812,0.885l0.463,0.442v0.885c-0.604,0.688-0.906,1.728-0.906,3.119h-0.906l-1.812-2.655H62.53v0.885
		l2.254,3.097l-1.348,1.349l0.442,0.442v0.885l-0.906,0.885l0.906,3.119l-0.906,0.885l1.812,0.885l-0.906,2.234l0.463,0.442v2.676
		l-0.463,0.443v0.442c2.121,0,3.182,0.295,3.182,0.885c-0.604,2.964-1.363,4.446-2.276,4.446h-0.906l-0.442-0.442l-0.464,0.442
		h-0.906c-2.922-2.093-4.433-3.427-4.531-4.003c1.208-0.998,1.812-1.889,1.812-2.676h-0.443l-0.463,0.463H58v-0.463l0.442-2.655
		l-0.906-3.119c0-3.259,1.208-4.889,3.625-4.889v-0.885l-0.906-0.885l-1.349,1.328l-1.37-4.889l1.37-0.442l-0.463-0.443v-0.906
		C58.442,24.129,59.804,23.391,62.53,22.45z M59.643,39.392v0.843l1.264,0.421l-0.421,1.264l0.421,0.421h0.421
		c0.843-0.281,1.264-1.124,1.264-2.528L61.75,38.97L59.643,39.392z M80.44,17.33l-0.906-0.611l-0.674,0.674h-2.023
		c-0.45,0-0.674-0.337-0.674-1.012h-1.012c0,0.674-0.337,1.012-1.011,1.012l-1.011-0.674l-2.023,0.674l-0.674-0.674l-1.012,0.674
		h-0.337l-0.337-0.337l-1.011,0.337l-0.337-0.337H67.06l-1.011,0.337v-0.337l-0.337,0.337h-0.674L64.7,17.056l-0.337,0.337h-2.36
		l-0.674-0.674v-0.674h0.674l0.337,0.337l3.371-0.674l2.697,1.012c0-0.674,0.225-1.012,0.674-1.012h2.023l0.674,0.674l1.349-0.674
		l1.011,0.337l1.686-0.337l0.337,0.337l1.686-0.337h1.012l0.674,0.674l0.337-0.337h0.569V17.33z M61.75,29.699v1.264h0.421
		l0.843-0.843L61.75,29.699z M61.75,44.87v1.264h0.843l0.422-1.686L61.75,44.87z M80.44,55.279l-0.232,0.232h-1.686l-0.337-0.337
		l-0.337,0.337h-0.337L76.5,54.837l-1.686,0.674l-2.697-0.337l-3.034,0.337L68.409,54.5l0.674-0.674c0.759,0,1.545,0.337,2.36,1.012
		c0-0.45,0.337-0.674,1.012-0.674l1.011,0.337v-0.674l1.349,0.337l5.626-0.316V55.279z M70.579,33.281h0.843
		c2.262,0,3.393,0.661,3.393,1.98h1.264c0-0.997,0.281-1.172,0.843-0.526c0.843,0.337,1.265,1.327,1.265,2.971v0.506l-1.265,1.475
		l0.421,2.465l-0.421,0.506l0.421,0.484v0.506l-1.264,1.98l0.421,0.485v0.506l-2.95,2.465h-2.107l-1.686-1.981v-2.465h1.264v-0.506
		h-0.843v-1.475c0.295-0.66,1.004-0.829,2.128-0.506c0.168-1.489,0.035-2.395-0.4-2.718c-0.548,0.113-1.342,0.113-2.381,0
		l-0.632-2.697C68.894,34.966,69.455,33.815,70.579,33.281z M72.286,22.534c2.529,0.632,3.793,1.447,3.793,2.444
		c0,1.391,0.562,2.086,1.686,2.086v1.033l-0.422,0.358v0.337l0.843,0.695v0.358l-0.843,0.695H76.5l-2.107-1.749v0.695l0.421,0.358
		v0.337l-0.421,0.358h-1.264c0-0.492-1.265-1.882-3.793-4.172l-0.421-1.749L72.286,22.534z M71,35.746l-0.421,1.98h0.843v-1.98H71z
		 M71.443,45.123v1.496h0.843l0.421-1.496H71.443z"/>
	<path fill="#FFFFFF" d="M85.076,54.5v0.674h-0.674L83.728,54.5l-1.349,1.012h-1.686l-0.674-0.674V54.5l4.046-0.674
		C84.739,53.825,85.076,54.05,85.076,54.5z M90.85,16.634l-0.379-0.253h-0.337l-1.011,0.674h-0.337l-0.337-0.337l-0.674,0.674
		l-1.011-0.674l-0.674,0.674l-1.012-0.337l-1.011,0.337h-0.337l-0.337-0.337l-0.337,0.337l-1.011-0.674h-0.337l-0.674,0.674
		l-0.674-0.674v-0.337l0.674-0.674h1.348l1.349,0.337l1.349-0.337h3.372l1.686,0.337l0.337-0.337l0.379,0.084V16.634z
		 M84.823,22.471l0.421,0.421l0.421-0.421h1.265c1.404,0.716,2.107,1.84,2.107,3.371v0.843c0,0.843-0.843,1.264-2.528,1.264v0.421
		h1.686v0.421l-0.421,0.421v0.421c0.562,0,0.983,0.843,1.264,2.529l-0.421,1.264l0.421,1.264l-0.421,0.421h-0.421l0.843,2.95
		l-0.843,1.686l0.421,0.421h0.421l-0.421,2.95v2.107l0.421,2.95L88.616,48.6h-0.421l-0.421-0.421h-0.421L84.823,48.6h-0.421
		c-0.73,0-1.292-1.124-1.686-3.372c0.562,0,0.843-0.702,0.843-2.107h1.264V42.7l-0.421-0.421v-0.421l-0.421,0.421h-0.421
		l-0.421-0.421h-0.421l0.421-2.107l-0.421-1.686c0-2.529,0.983-3.793,2.95-3.793v-1.264l-3.371,1.264V33.85l0.843-1.264v-0.421
		l-0.421-0.421v-0.421l0.421-0.422h-0.421l1.264-1.686l0.421,0.421h0.421l0.421-0.421l0.421,0.421v-0.843h-0.843V27.95l2.107-2.529
		v-0.843l-3.372,1.264l0.421,0.422v0.421l-1.264,1.686l-0.421-2.107l0.843-0.843L82.716,25v-0.843L84.823,22.471z M84.402,35.535
		V36.8h1.264l0.422-2.107L84.402,35.535z M86.509,37.221l-0.421,1.264h1.264l-0.421-0.421v-0.421l0.421-0.421H86.509z M90.85,55.364
		l-0.379,0.147l-3.372-0.674l-0.337,0.337h-0.674V54.5l0.674-0.674h2.36l0.337,0.337l0.337-0.337h0.674l0.337,0.337v-0.337h0.042
		V55.364z"/>
	<path fill="#FFFFFF" d="M101.217,17.751l-0.337-0.337v-0.337l-0.337,0.337h-0.675l-2.697-0.674c0,0.674-0.225,1.011-0.674,1.011
		L96.16,16.74l-1.012,0.674l-0.337-0.337l-0.337,0.337h-0.338l-1.349-0.337l-1.349,0.337l-0.674-0.674v-0.337h0.337l0.337,0.337
		h0.338l1.349-0.674l0.337,0.337H93.8l2.023-0.337v0.337l1.011-0.337c2.248,0.099,3.372,0.323,3.372,0.674l0.337-0.337h1.307
		l0.568,1.307C102.039,17.737,101.639,17.751,101.217,17.751z M93.126,54.142h0.337l0.337,0.337l0.337-0.337h1.687l1.348,0.674
		v0.337l-0.674,0.674H96.16l-1.349-0.337l-1.349,0.337h-0.675l-0.674-0.674l-0.337,0.337h-0.338l-0.674-0.674v-0.337L93.126,54.142z
		 M95.401,22.872l0.422,1.686h0.421c0-0.843,0.281-1.264,0.843-1.264h0.843v0.421l9.271-0.843l0.422,0.421l0.421-0.421l0.843,0.843
		l2.107-0.421l1.265,1.686c-0.562,2.81-1.124,4.214-1.687,4.214l-2.106-1.264l-0.843,0.843c-0.562,0-0.843-0.421-0.843-1.264
		l-1.687,1.264h-1.264l-1.265-0.843h-0.421v1.264l-5.9-0.843l-0.421,0.421v0.421c-1.335,0-2.318-1.124-2.95-3.372
		C93.027,23.855,93.87,22.872,95.401,22.872z M100.88,32.143h3.371c1.124,0.45,1.687,1.433,1.687,2.95v0.843l-1.265,1.265
		l1.265,4.636c-0.281,1.124-0.844,1.686-1.687,1.686v0.421c0.843,1.025,1.265,2.009,1.265,2.95v0.421l-0.843,0.843h-0.422
		l-0.421-0.421l-0.422,0.421h-2.528c-1.124-0.562-1.686-1.405-1.686-2.529l1.264-4.214c-0.66,0-1.081-0.983-1.264-2.95l0.843-0.843
		l-0.422-1.686h0.422l-0.422-0.421v-0.421l0.422-0.421V34.25l-0.422-1.264L100.88,32.143z M99.615,24.979v1.686h0.422l1.686-0.421
		l1.265,0.421l0.421-0.421V25.4c-1.124,0-1.686-0.281-1.686-0.843L99.615,24.979z M100.88,42.679V43.1h1.686v-0.843L100.88,42.679z
		 M102.145,37.2l-0.422,1.686h0.422l0.843-0.843L102.145,37.2z M114.028,55.49l-1.349,0.337h-0.674l-0.675-0.674l-3.034,0.674
		l-2.697-0.674l-0.674,0.674l-0.737-0.253l0.231-1.138l1.518-0.295l0.337,0.337h0.337l1.012-0.337l0.674,0.674l0.675-0.674
		l1.349,0.337l1.349-0.337v0.337l0.337-0.337h1.349c0.449,0,0.674,0.337,0.674,1.011h0.337c0-0.534,0.134-0.857,0.4-0.969
		l-0.084,1.454L114.028,55.49z M106.78,27.086h0.421l0.843-0.843h-0.421L106.78,27.086z M114.365,17.414l-0.337-0.337l-3.666,0.611
		l-0.358-1.454l0.99,0.168l0.337-0.337h0.338l1.686,0.337l1.454-0.126l-0.105,1.138H114.365z"/>
	<path fill="#FFFFFF" d="M113.396,53.72l0.864,0.168l1.875-0.337l0.948,0.674v0.337l-0.948,0.674c-0.632,0-0.948-0.337-0.948-1.012
		h-0.927v1.012c-0.295-0.028-0.583-0.063-0.864-0.105V53.72z M114.008,15.939l1.054,0.189l2.275-0.337l0.759,0.674v0.674h-1.518
		l-1.138-0.674h-0.379l-1.054,0.463V15.939z M119.044,34.566l0.548,0.611l0.421,0.421l0.422-0.421h1.264
		c0.618,0,1.181,1.124,1.687,3.371l-1.265,0.422l0.422,1.264l0.421-0.421h1.265l0.801,1.264l-0.442,2.992
		c-0.479-0.253-1.42-0.379-2.824-0.379c0,0.843-0.421,1.545-1.264,2.107c-0.043,2.191-0.485,3.287-1.328,3.287h-0.421l-2.107-0.421
		l-0.422,0.421l-1.264-1.686l0.843-1.264c-0.843,0-1.265-0.281-1.265-0.843c1.124-2.318,1.686-4.425,1.686-6.321l0.843-0.843
		l0.296-1.875L119.044,34.566z M119.106,53.551l1.012,0.674h1.349l1.012-0.674h4.383l1.012,1.349l-0.338,0.337l-3.371-0.337h-1.349
		l-0.337-0.337h-0.337l-0.675,0.674h-2.022l-0.338-0.337l-0.337,0.337h-0.674l-0.675-0.674l0.338-0.337l-0.338-0.337l0.338-0.337
		H119.106z M117.484,40.656l0.422,1.264l-0.422,1.264h0.422l1.264,0.422V41.92l-0.421-0.421v-0.421l1.264-1.264V38.97
		L117.484,40.656z M120.793,15.792l0.337,0.337l2.36-0.337h4.383v0.674l-1.012,1.011h-0.337l-2.697-0.674l-0.337,0.337v0.337
		l-1.687-0.337l-2.359,0.337l-0.338-0.337v-1.012h0.338l0.337,0.337h0.337L120.793,15.792z M124.228,22.534
		c2.81,0.408,4.214,0.969,4.214,1.686c0,1.405-0.421,2.107-1.264,2.107v1.264h0.421l1.265-0.421l2.528,7.586l-0.422,0.421h-0.421
		l3.793,9.693l0.421,0.421l-0.843,1.264l-0.421-0.421h-0.843c0,0.562,0.421,0.843,1.264,0.843v0.421
		c-0.281,0.843-1.124,1.265-2.528,1.265h-0.843l-0.422-0.422l-0.421-1.264c-1.405,0-2.107-0.702-2.107-2.107l-1.265-5.057
		l1.687-0.843v-0.843c-0.759,0-1.462-0.702-2.107-2.107l0.421-1.686c-1.124,0-1.686-0.421-1.686-1.265l-1.264-3.371l0.421-0.421
		h0.422c0-0.843-0.422-1.265-1.265-1.265l0.422-2.107l-0.843-0.843v-1.264L124.228,22.534z M124.648,28.856v1.686h0.422l0.843-0.843
		L124.648,28.856z M127.599,30.963v1.264l1.265-0.421v-2.107L127.599,30.963z M130.569,15.792l1.012,0.674l0.675-0.674h0.337
		l1.686,0.337v0.674l-0.674,0.674l-1.012-0.674l-1.349,0.674c-1.799-0.267-2.697-0.716-2.697-1.349l0.337-0.337H130.569z
		 M129.221,53.551h0.675l1.012,1.012l-0.675,0.674l-1.686-0.674v-0.337L129.221,53.551z M129.284,34.756l-0.421,0.421v0.421h1.264
		L129.284,34.756z M128.863,41.92v0.843c0.548,1.279,1.109,1.981,1.686,2.107l0.421-0.421v-0.843c-0.843,0-1.264-0.422-1.264-1.265
		l-0.422-0.421H128.863z M136.217,54.773l-2.823-0.21l-1.729,0.337l-0.421-0.337v-0.337l0.864-0.674h2.57l1.538,0.295V54.773z"/>
	<path fill="#FFFFFF" d="M135.816,53.804l1.686,0.337l1.349-0.337l1.349,0.337c0,0.435-0.675,0.885-2.023,1.349l-2.022-0.337h-1.012
		v-0.674L135.816,53.804z M139.524,15.771l2.023,0.337l1.686-0.337l0.337,0.337h0.337l1.349-0.337l0.337,0.337v0.337l0.338-0.337
		h0.674l0.675,0.674l-1.012,0.674h-0.337l-1.012-0.674l-0.337,0.337v0.337l-2.697-0.674l-0.675,0.674h-1.349l-1.349-0.337
		l-1.011,0.337l-0.337-1.011h-0.338c0,0.674-0.225,1.011-0.674,1.011h-0.337l-0.653-0.674v-0.674L139.524,15.771z M141.484,22.471
		c0.126,0.576,0.828,1.138,2.107,1.686l-0.422,1.264l0.422,3.793l-0.422,0.421h-0.422l0.422,0.421v3.793l-0.422,2.529l0.422,2.107
		l-0.422,0.421l0.422,2.107V42.7l-0.422,1.686l0.844,2.529c0,1.053-1.265,1.756-3.793,2.107c-1.687-0.576-2.529-1.138-2.529-1.686
		v-1.264l0.843-1.265v-0.421l-0.843-1.264l0.422-2.107l-0.422-2.107l0.422-0.421h0.421l0.422,0.421v-1.264
		c-0.843,0-1.265-0.421-1.265-1.264l0.843-1.265l-0.421-0.421V33.85h0.421l0.422,0.421h0.422v-1.686l-0.422,0.421h-0.422
		l-0.843-3.793l0.422-0.421h1.265l-0.422,0.421v0.421h0.843v0.421l1.265-0.421v-1.264l-1.265,0.421
		c-1.404-0.562-2.107-1.404-2.107-2.528C137.27,23.735,138.675,22.471,141.484,22.471z M138.956,39.75l0.843,0.843h0.421
		l-0.843-0.843H138.956z M141.885,54.142l-1.012,1.011l-0.674-0.674L141.885,54.142z M140.642,25.421l0.421,0.421v0.422
		l-0.843,0.843v0.843h1.265v-2.529H140.642z M140.22,30.478v1.265l2.107-0.421l-0.843-0.843H140.22z M140.22,39.328v0.421h2.107
		v-0.421H140.22z M140.642,46.071l-0.422,1.264h1.686l-0.421-1.264H140.642z M141.484,32.585l-0.422,1.686h1.265v-1.686H141.484z
		 M144.919,53.804h0.674l1.012,0.674l1.349-0.337l0.337,0.337h0.337l1.349-0.337l1.012,0.674l1.012-1.012h3.708l0.338,0.337
		l0.337-0.337h0.337l0.675,0.674c-0.141,0.674-1.04,1.012-2.697,1.012v-0.337l-0.338,0.337h-1.348l-0.675-0.674l0.337-0.337h-0.337
		l-1.349,1.012h-0.674v-0.337l-3.372,0.337l-2.697-0.337l-2.022,0.337v-0.674l0.674-0.674h0.338l1.011,0.337L144.919,53.804z
		 M154.549,42.278c1.686,0,2.528,0.983,2.528,2.95l-0.422,0.421v0.422l0.422,1.686l-0.843,0.843
		c-2.895-0.196-4.72-0.758-5.479-1.686h-0.422c0,1.124-0.281,1.686-0.843,1.686h-0.843l-2.107-1.686v-2.529l1.265-1.264l0.422,0.421
		h0.421l0.843-0.843h0.422c0.562,0,0.843,0.562,0.843,1.686h0.421L154.549,42.278z M159.374,17.182l-0.295-0.063l-0.338,0.337
		l-2.022-0.337l-7.08,0.337l-1.349-1.011l0.675-0.674h0.674l1.349,1.011h1.012l-0.337-0.337v-0.337l0.337-0.337h0.674
		c1.124,0.056,1.686,0.281,1.686,0.674l0.338-0.337h3.371l1.307-0.253V17.182z M159.374,55.153h-0.97l-0.337-1.011l0.337-0.337
		h0.675l0.295,0.063V55.153z"/>
	<path fill="#FFFFFF" d="M19.734,69.178l-0.337-0.337l0.337-1.011h1.348l0.337,0.337l0.674-0.674h1.011l1.686,0.337l0.337-0.337
		l1.686,0.337l1.012-0.337l1.349,0.674l0.674-0.674h2.022c0.45,0,0.674,0.337,0.674,1.012l2.697-1.012l3.372,0.674l0.337-0.337
		h0.674v0.674l-0.674,0.674h-2.36l-0.337-0.337l-0.337,0.337h-0.674l-0.337-0.337v0.337l-1.012-0.337h-0.337l-0.337,0.337
		l-1.011-0.337l-0.337,0.337h-0.337l-1.011-0.674l-0.674,0.674l-2.023-0.674l-1.012,0.674c-0.674,0-1.011-0.337-1.011-1.012h-1.011
		c0,0.674-0.225,1.012-0.674,1.012h-2.023l-0.674-0.674l-1.011,0.674H19.734z M19.734,107.296l-0.337-0.337l0.674-1.349l6.069,0.337
		l1.348-0.337v0.675l1.012-0.338c0.674,0,1.011,0.225,1.011,0.675c0.814-0.675,1.602-1.012,2.36-1.012l0.674,0.675l-0.674,1.011
		l-3.034-0.337l-2.697,0.337l-1.686-0.674l-1.011,0.674h-0.337l-0.337-0.337l-0.337,0.337h-1.686l-0.337-0.337l-0.337,0.337H19.734z
		 M22.937,90.271l0.421,0.422h0.421l1.264-0.422l3.372,1.686v0.422c-0.562,0.73-0.843,1.994-0.843,3.793h-0.421l0.843,1.686
		c-0.281,1.686-0.703,2.528-1.264,2.528l-0.843-0.843l-2.529,0.843c0-0.562-0.421-0.843-1.264-0.843l-0.421-0.422v-1.264
		l1.264-3.372c-0.562,0-0.983-0.982-1.264-2.949L22.937,90.271z M23.779,74.256c0.562,0,0.843,0.562,0.843,1.686h0.843v-1.264h0.843
		c2.205,2.402,4.312,5.352,6.321,8.85v0.421h-0.843v0.843l0.421,0.421v0.421h-1.686c0.281,1.686,0.702,2.528,1.264,2.528h0.421
		l-0.421-2.107l2.528-0.843c2.529,3.189,3.793,5.296,3.793,6.322l-0.421,0.421l2.107,1.686v1.265l-0.421,0.422l0.421,1.264
		l1.265-0.843h0.421v2.95c0,0.478-1.124,1.18-3.372,2.107l-2.528-3.372l0.421-5.479h-2.529v0.422h0.843v0.843
		c-1.405,0-3.512-1.967-6.321-5.9l-0.843-0.843l0.421-1.264h-0.421l-0.843-0.843l0.421-0.421v-0.421
		c-3.091-2.542-4.636-5.071-4.636-7.586L23.779,74.256z M25.043,78.892v0.843l0.422-0.421c0.843,0,1.264,0.843,1.264,2.528
		l2.528-1.264v-0.421l-2.528-1.686h-0.421L25.043,78.892z M27.994,82.685v0.422h0.843v0.421l2.107-0.843v-0.421h-0.843
		L27.994,82.685z M44.661,107.296h-1.328l-1.348-0.337l-1.349,0.337h-3.372l-1.686-0.337l-0.337,0.337l-1.686-0.337v-0.337
		l0.674-0.675l1.011,0.675h0.337l1.011-0.675h0.337l0.337,0.338l0.674-0.675l1.011,0.675l0.674-0.675l1.012,0.337l1.011-0.337h0.337
		l0.337,0.337l0.337-0.337l1.012,0.675h0.337l0.653-0.653V107.296z M34.736,89.006v1.265h0.422l0.421-1.265H34.736z M39.793,74.256
		c1.475,0,2.318,1.405,2.529,4.214v1.686l-0.421,0.421l0.421,0.421v1.686l-1.264,1.265l-2.107-2.107h-0.843
		c0,0.843,0.562,1.265,1.686,1.265v1.264c-1.573,0-2.837-1.264-3.792-3.793v-0.421l0.421-0.421l-0.421-0.421v-1.264
		c0-1.728,0.154-2.845,0.463-3.351L39.793,74.256z M37.265,78.892v2.107h0.421l0.843-2.107H37.265z M38.951,76.785v1.265h1.265
		v-1.265H38.951z M40.637,78.471l-0.843,0.843v0.421h0.422l1.264-0.421L40.637,78.471z M41.058,94.063l0.421,0.421v0.422
		l-0.421,0.422h-0.421l-0.421-0.422v-0.422l0.421-0.421H41.058z M44.661,68.672l-3.013,0.506c-0.674,0-1.011-0.225-1.011-0.674
		V67.83h0.674l0.674,0.674l1.348-1.012h1.328V68.672z"/>
	<path fill="#FFFFFF" d="M45.356,105.421l2.36,1.012c0-0.506,1.236-0.843,3.708-1.012l2.36,0.337v1.012l-1.011,0.337l-4.72-0.337
		l-2.36,0.337c0-0.449-0.45-0.674-1.349-0.674v-0.675L45.356,105.421z M45.02,67.556l0.674,0.674l1.011-0.674l0.337,1.011
		l1.686-1.011l2.697,0.337v0.674l-4.046,0.674v-0.337l-0.337,0.337H45.02l-0.653-0.674V68.23L45.02,67.556z M50.814,74.657
		c1.405,0.365,2.107,1.067,2.107,2.107h0.843c0-0.843,0.281-1.264,0.843-1.264l1.264,1.264v1.686
		c-1.967,2.122-2.95,3.807-2.95,5.058l-0.843,0.843l0.421,0.421v0.843l-0.421-0.421h-0.422v1.264h1.265v0.421
		c0,0.562-0.421,0.843-1.265,0.843l1.686,2.107l-0.421,0.421v2.529c1.053,2.528,2.037,3.793,2.95,3.793
		c0,2.81-1.545,4.214-4.636,4.214v-0.422c0-0.702,0.562-1.123,1.686-1.264v-0.843l-2.107-2.95l-0.421,0.421v0.422l1.264,1.686v0.422
		c0,0.562-0.421,0.843-1.264,0.843l-3.371-3.372l0.421-1.264L46.6,93.621c0.562,0,0.983-0.843,1.265-2.528l-0.421-0.422h-0.421
		l0.421-2.107v-5.479l0.843-1.264l-1.264-1.264c0.814-3.09,1.798-4.636,2.95-4.636L50.814,74.657z M48.286,86.878v0.843h0.421
		l0.843-0.843H48.286z M48.286,90.249l0.843,0.844l0.421-0.422v-1.686L48.286,90.249z M49.55,81.821l-0.421,1.264v0.422h0.421
		l0.843-0.843v-0.843H49.55z M49.55,78.871l0.421,1.264h0.843c0-0.843,0.421-1.264,1.265-1.264v-0.843h-0.422L49.55,78.871z
		 M49.971,84.35h1.264v-1.265L49.971,84.35z M52.774,67.556c2.472,0.168,3.708,0.505,3.708,1.011l-1.349,0.674l-1.012-0.337
		l-1.686,0.337L52.1,68.904v-0.337L52.774,67.556z M59.854,105.421l1.012,0.337l3.034-0.337h0.337l0.674,0.674l-0.674,0.675
		l-0.337-0.337h-0.337l-3.035,0.674l-1.011-0.674l-1.686,0.674l-1.349-0.337l-0.337,0.337l-0.337-0.337v-1.012h3.034l0.337,0.337
		h0.337l0.337-0.337V105.421z M56.819,67.893h0.674l0.337,0.337l0.337-0.337h1.012v0.674l-0.674,0.674h-0.674l-1.012-1.011V67.893z
		 M62.614,74.657l0.421,1.264l0.421-0.421c1.686,0.661,2.528,1.222,2.528,1.686l-0.421,0.421v0.421c0.843,0,1.405,2.529,1.686,7.586
		l-0.421,0.421h-0.422l0.843,2.528l-0.421,0.422v0.421l0.421,1.265c-0.646,0-1.068,0.702-1.265,2.107l0.843,0.843v3.793
		c0,0.562-0.703,0.843-2.107,0.843c0,0.829-0.562,1.531-1.686,2.106h-0.843l-1.686-0.421l-1.264,0.421l-0.421-0.421
		c0.196-1.967,0.478-2.95,0.843-2.95l-0.421-0.421v-0.422l0.843-0.843l0.843,0.843l0.421-0.422v-0.421l-0.421-0.422v-0.421
		l0.843-3.371l-0.421-3.793v-1.264c0-1.404,0.562-2.107,1.686-2.107v-1.265h-0.421l-1.265,0.421l-2.528-6.743
		C60.099,75.247,61.364,74.685,62.614,74.657z M60.865,67.556c2.767,0.225,4.341,0.562,4.72,1.011v-0.674h0.674l0.337,0.337h0.337
		l0.674-0.674l1.012,1.011v0.337l-4.72,0.337l-2.36-0.337l-1.012,0.337l-0.337-0.337v-0.337L60.865,67.556z M60.507,78.449
		c0.562,0,0.843,0.422,0.843,1.265h0.843v-0.421l-0.843-1.686L60.507,78.449z M62.193,91.936l0.421,1.264l-0.421,1.265l0.421,0.421
		h0.843v-0.421l-0.421-0.422v-0.421l1.264-1.686H62.193z M62.193,96.149v0.422l0.421,1.264h0.843v-1.264L62.193,96.149z
		 M63.878,80.978l0.421,1.686h0.843l0.843-0.843l-1.264-1.264v-0.421L63.878,80.978z M64.3,94.885v0.422l0.843-0.843v-0.422
		L64.3,94.885z M67.271,105.421l2.36,0.337v0.675l-4.046,0.674l-0.337-0.337v-1.012L67.271,105.421z"/>
	<path fill="#FFFFFF" d="M69.357,106.833l-0.337-0.338v-0.337l0.337-0.337h0.337l0.337,0.337v0.337l-0.337,0.338H69.357z
		 M76.1,69.536c-4.496,0-6.743-0.337-6.743-1.011l0.337-0.337h1.012v0.674h0.337c0.885-0.674,2.458-1.011,4.72-1.011l1.686,0.674
		v0.674L76.1,69.536z M75.088,107.17h-0.674l-1.349-0.337l-1.011,0.337c0-0.45-0.337-0.675-1.012-0.675l-0.337-0.337v-0.337
		l0.337-0.337h1.012c2.472,0,3.708,0.337,3.708,1.011L75.088,107.17z M75.573,89.849c1.686,0,2.529,1.687,2.529,5.058v1.686
		l-0.843,1.265v0.421l0.843,1.265l-3.372,0.843h-0.843c-0.506,0-1.349-0.983-2.529-2.95c0.618,0,1.04-1.264,1.265-3.793
		c-0.843,0-1.265-0.28-1.265-0.843v-0.421l2.107-2.107c0.843,0,1.264,0.702,1.264,2.107l1.264-1.265H74.73v-0.421L75.573,89.849z
		 M75.994,74.256c1.405,0,2.95,1.967,4.636,5.9c0.843,0,1.265,0.281,1.265,0.843l-0.843,2.529l0.421-0.421h0.843l0.421,0.421h0.421
		c-0.352,2.81-0.914,4.214-1.686,4.214l-1.264-0.422l-0.421,0.422v0.421c-1.686-0.659-2.528-1.643-2.528-2.95l1.686-0.843v-0.421
		h-0.843v-0.421l-0.421,0.421h-0.843l-1.265-1.265l1.265-0.843l-0.422-1.264h-0.843c0,0.843-0.281,1.264-0.843,1.264l-2.528-3.371
		v-0.421C72.202,76.645,73.466,75.38,75.994,74.256z M73.887,93.642v0.843h0.421l0.843-0.843H73.887z M75.573,94.484l-0.421,1.265
		h0.421l1.265-1.265H75.573z M82.168,107.17h-1.686l-1.011-0.675l-0.674,0.675h-1.686l-0.674-0.675v-0.674h1.686l1.349,0.337
		l3.708-0.674l0.337,0.337v0.674L82.168,107.17z M79.134,69.199h-0.337l-0.337-1.012l0.337-0.337h0.337l0.674,0.674L79.134,69.199z
		 M94.348,69.368l-1.053,0.168l-2.023-0.337l-1.349,0.337l-0.337-1.011h-0.674c0,0.674-0.787,1.011-2.36,1.011l-0.337-0.337h-0.337
		l-1.349,0.337l-0.337-1.011h-0.337c0,0.674-0.225,1.011-0.674,1.011h-1.349l-0.674-0.674v-0.337h0.337l1.011,0.337v-0.337
		l0.337-0.337v-0.337l2.023,0.337l4.046-0.337l1.011,0.337l0.337-0.337h0.337l0.337,0.337h0.337l1.686-0.337l0.338,0.337v0.337
		l1.053-0.211V69.368z M90.934,107.17H90.26l-0.674-0.675l-1.012,0.338l-1.011-0.338l-0.674,0.675h-3.034v-0.337l0.337-0.338v-0.337
		l-0.337-0.337h0.674l1.011,0.674l0.337-1.011l0.337,0.337h0.337l3.034-0.337l1.011,1.011h0.337V107.17z M87.373,74.256h0.843
		l0.421,0.421l1.264-0.421c1.405,0,2.106,2.248,2.106,6.743l-0.842,1.686l0.842,0.843l-0.42,4.635l0.42,2.529
		c-1.109,0-1.952,1.124-2.528,3.371l2.108-0.843l0.42,0.421l-0.42,0.422v1.686h0.842v0.843c-1.039,2.81-2.584,4.215-4.635,4.215
		l-0.843-0.844c0.463,0,1.025-0.843,1.686-2.528h-1.264c0,0.843-0.281,1.265-0.843,1.265l-0.843-0.843l0.843-5.058v-1.264
		l-0.843-2.529l0.421-1.264l-0.421-2.529c1.686,0,2.529-0.281,2.529-0.843l-0.421-0.421h-0.421l-0.421,0.421H86.53
		c0-0.646-0.562-1.489-1.686-2.529v-1.264c0-0.562,0.562-0.843,1.686-0.843v-0.421c-0.843,0-1.264-0.281-1.264-0.843
		s0.421-0.843,1.264-0.843v-2.528L87.373,74.256z M86.952,80.156v0.421l0.843,1.264l-0.843,0.843v0.422h1.264v-2.95H86.952z
		 M86.952,87.742v1.264h0.421l0.421-1.264H86.952z M88.216,85.635l-0.421,0.421v1.264h0.421l1.264-1.264L88.216,85.635z
		 M89.059,76.785v0.843l0.843,1.265l-0.421,1.264h0.843v-0.843h0.421C90.168,77.627,89.606,76.785,89.059,76.785z M89.901,86.899
		l-0.843,1.264v0.422l0.421,2.107l1.686-2.95L89.901,86.899z M94.348,106.959l-1.053,0.211l-0.338-0.337v-0.675
		c0-0.449,0.338-0.674,1.012-0.674l0.379,0.126V106.959z"/>
	<path fill="#FFFFFF" d="M93.463,105.505l0.864,0.169l1.875-0.337l0.948,0.674v0.337l-0.948,0.675c-0.632,0-0.948-0.337-0.948-1.012
		h-0.927v1.012c-0.295-0.028-0.583-0.063-0.864-0.105V105.505z M94.074,67.724l1.054,0.189l2.275-0.337l0.759,0.674v0.674h-1.518
		l-1.138-0.674h-0.379l-1.054,0.463V67.724z M99.11,86.351l0.548,0.611l0.421,0.421l0.422-0.421h1.264
		c0.618,0,1.181,1.124,1.687,3.372l-1.265,0.421l0.422,1.265l0.421-0.422h1.265l0.801,1.265l-0.442,2.992
		c-0.479-0.253-1.42-0.379-2.824-0.379c0,0.843-0.421,1.545-1.264,2.106c-0.043,2.191-0.485,3.287-1.328,3.287h-0.421l-2.107-0.421
		l-0.422,0.421l-1.264-1.686l0.843-1.264c-0.843,0-1.265-0.281-1.265-0.844c1.124-2.317,1.686-4.425,1.686-6.321l0.843-0.843
		l0.296-1.875L99.11,86.351z M99.173,105.337l1.012,0.674h1.349l1.012-0.674h4.383l1.012,1.349l-0.338,0.337l-3.371-0.337h-1.349
		l-0.337-0.338h-0.337l-0.675,0.675h-2.022l-0.338-0.337l-0.337,0.337h-0.674l-0.675-0.675l0.338-0.337l-0.338-0.337l0.338-0.337
		H99.173z M97.551,92.44l0.422,1.265l-0.422,1.265h0.422l1.264,0.421v-1.686l-0.421-0.421v-0.422l1.264-1.265v-0.843L97.551,92.44z
		 M100.859,67.577l0.337,0.337l2.36-0.337h4.383v0.674l-1.012,1.011h-0.337l-2.697-0.674l-0.337,0.337v0.337l-1.687-0.337
		l-2.359,0.337l-0.338-0.337v-1.012h0.338l0.337,0.337h0.337L100.859,67.577z M104.294,74.319c2.81,0.408,4.214,0.969,4.214,1.686
		c0,1.405-0.421,2.107-1.264,2.107v1.264h0.421l1.265-0.421l2.528,7.586l-0.422,0.421h-0.421l3.793,9.693l0.421,0.421l-0.843,1.265
		l-0.421-0.421h-0.843c0,0.562,0.421,0.843,1.264,0.843v0.421c-0.281,0.843-1.124,1.265-2.528,1.265h-0.843l-0.422-0.422
		l-0.421-1.264c-1.405,0-2.107-0.703-2.107-2.107l-1.265-5.058l1.687-0.843v-0.843c-0.759,0-1.462-0.702-2.107-2.107l0.421-1.685
		c-1.124,0-1.686-0.421-1.686-1.265l-1.264-3.371l0.421-0.421h0.422c0-0.843-0.422-1.265-1.265-1.265l0.422-2.107l-0.843-0.843
		v-1.264L104.294,74.319z M104.715,80.641v1.686h0.422l0.843-0.843L104.715,80.641z M107.665,82.748v1.264l1.265-0.421v-2.107
		L107.665,82.748z M110.636,67.577l1.012,0.674l0.675-0.674h0.337l1.686,0.337v0.674l-0.674,0.674l-1.012-0.674l-1.349,0.674
		c-1.799-0.267-2.697-0.716-2.697-1.349l0.337-0.337H110.636z M109.287,105.337h0.675l1.012,1.011l-0.675,0.675l-1.686-0.675v-0.337
		L109.287,105.337z M109.351,86.541l-0.421,0.421v0.421h1.264L109.351,86.541z M108.93,93.705v0.843
		c0.548,1.278,1.109,1.98,1.686,2.107l0.421-0.422v-0.843c-0.843,0-1.264-0.421-1.264-1.264l-0.422-0.422H108.93z M116.283,106.559
		l-2.823-0.211l-1.729,0.338l-0.421-0.338v-0.337l0.864-0.674h2.57l1.538,0.295V106.559z"/>
	<path fill="#FFFFFF" d="M125.364,68.504l-0.674,0.674h-0.675l-0.674-0.674h-0.337l-0.338,0.337h-0.674l-0.337-0.337l-0.675,0.674
		l-1.686-0.337l-2.022,0.337h-1.349l-0.653-0.674v-1.012h1.327l1.686,0.337l0.338-0.337l1.011,1.012l1.349-1.012h1.349l1.012,0.674
		l1.012-0.674L125.364,68.504z M118.559,106.032v0.337l-1.349,0.674h-0.675v-0.337l1.349-1.349L118.559,106.032z M119.527,74.741
		h0.422l1.686,0.421l1.265-0.421l0.843,1.686l-0.422,1.686l0.422,0.421l-0.843,0.843l1.264,1.265v0.843l-0.843,1.686l0.843,1.264
		c-0.281,1.405-0.843,2.107-1.686,2.107v0.843h0.843v2.107l0.422,0.421v0.422h-1.265l1.686,4.636c0,2.247-0.702,3.371-2.106,3.371
		v0.422h2.106v0.843l-0.421,0.421v0.422c-3.934,0-5.9-0.562-5.9-1.686l-0.421-2.107l1.686-5.058l0.843-0.843
		c-0.73,0-1.293-1.123-1.686-3.371v-0.421l0.421-0.421l-1.264-5.479l1.264-1.265l-0.421-1.264l0.421-0.421h0.422l0.843,0.843v-0.843
		l-0.422-1.264l-1.264,0.843l-0.422-0.421v-0.421L119.527,74.741z M119.106,94.97v0.843h1.265l-0.844-0.843H119.106z
		 M140.81,106.369v0.674h-0.674l-1.012-0.674l-3.034,0.674c-0.674,0-1.012-0.225-1.012-0.674l-1.686,0.337h-1.686l-0.337-0.337
		c0,0.449-1.124,0.674-3.372,0.674h-0.337l-0.674-0.674l-4.721,0.674l-3.034-0.674l0.675-0.675h1.012l1.011,0.675v-0.675h2.697
		l0.337,0.338l2.36-0.675v0.337l0.337,0.338l1.686-0.675l1.349,0.337h0.338l0.337-0.337l3.708,0.337l1.687-0.337l0.337,0.337
		l1.349-0.337C139.265,106.032,140.052,106.369,140.81,106.369z M120.792,81.905c0,0.562-0.421,0.843-1.265,0.843v1.686
		c0,0.421,0.562,0.843,1.687,1.265c0-1.025,0.421-2.149,1.264-3.372l-0.421-0.421H120.792z M119.949,89.069v0.422h0.843l0.422-1.265
		h-0.422L119.949,89.069z M120.371,92.02v1.265l0.843,2.528c0.562,0,0.982-0.843,1.264-2.528h-0.421
		c-0.562,0-0.843-0.422-0.843-1.265H120.371z M140.536,69.178h-0.675l-3.034-0.337h-0.337l-0.337,0.337h-0.337l-0.338-0.337
		l-2.022,0.337h-0.337l-0.338-0.337l-2.022,0.337h-1.012l-0.674-0.674l-1.686,0.337h-1.349v-0.337l0.337-0.337l0.337,0.337
		l1.686-1.012h1.687l1.011,0.674h0.338l1.011-0.674h0.337l0.675,0.674l5.057-0.674v0.337l0.338,0.337l1.011-0.674h1.054
		l-0.042,1.602C140.774,69.15,140.662,69.178,140.536,69.178z M128.378,74.741h3.371c0.562,0,1.124,1.124,1.686,3.372l2.107,0.421
		v-0.843h0.843v1.264c-0.843,0-1.265,0.421-1.265,1.264h1.265l1.265-0.843l0.421,0.421v2.95l-1.264,1.264l-0.843-0.843v-0.421
		l0.421-0.421v-0.421h-0.843c-0.562,0-0.983,0.843-1.265,2.528h0.422l2.107,0.843l0.843-0.843l0.843,1.265l-1.265,0.421l0.843,3.372
		l-0.421,0.421l0.421,2.107c-0.21,2.81-0.772,4.214-1.686,4.214l0.422,0.422v0.421l-0.843,0.844l-0.844-0.844
		c0,1.405-0.421,2.107-1.264,2.107h-0.422v-0.843h-0.421c-0.646,0-1.068,0.703-1.265,2.107h-1.686l-0.843-0.843l1.265-0.422v-0.421
		h-1.687c0,0.843-0.281,1.264-0.843,1.264l-0.843-1.264v-0.422l0.422-0.421l-0.422-0.422v-0.843c0-0.464,0.843-1.025,2.528-1.686
		l0.422-0.422c0-0.562,0.562-0.843,1.686-0.843V92.02h1.265c0,1.405,0.28,2.107,0.843,2.107h0.421v-0.843
		c-1.686-2.22-2.528-4.046-2.528-5.479l0.843-1.685c0-2.824-0.983-4.509-2.95-5.057c0-1.124-0.702-1.686-2.106-1.686l-0.422-0.421
		v-0.843l0.422-0.421l-0.422-0.421v-0.421C127.479,75.443,127.9,74.741,128.378,74.741z M130.906,80.219l0.843,0.843h0.422v-0.843
		H130.906z M132.171,95.391v0.422l1.264,1.264v-0.843l-0.843-0.843H132.171z M133.014,88.648v0.421
		c0.28,0.843,1.123,1.265,2.528,1.265v-1.265L133.014,88.648z"/>
	<path fill="#FFFFFF" d="M140.705,69.262l-0.337-0.337v-0.337c0-0.674,0.449-1.011,1.349-1.011l0.337,0.337h0.337l1.012-0.337
		l1.011,0.337l2.023-0.337h0.674l0.675,0.674l-0.675,0.674h-0.674l-0.337-0.337l-0.338,0.337h-1.349l-0.337-0.337L140.705,69.262z
		 M146.437,107.022h-0.675l-2.022-0.675l-1.012,0.338l-0.337-0.338v-0.337l0.675-0.674h2.022l2.022,1.011L146.437,107.022z
		 M148.438,75.078l2.106,2.107l-0.843,3.372l-0.421-0.421c-1.967,0-3.231,0.703-3.793,2.107l2.107,0.421l-0.422-0.421v-0.421
		l0.422-0.421h1.686l2.106,3.372l-0.421,0.421h0.843c0-0.843,0.281-1.264,0.843-1.264c4.215,2.121,6.321,3.948,6.321,5.478
		l0.422-0.421h0.421c0.464,0,1.025,0.983,1.687,2.95h0.421l-0.421,2.106l0.421,1.265c-0.449,2.248-1.012,3.371-1.686,3.371
		l-0.422-0.421h-0.421c0,1.124-0.422,1.686-1.265,1.686h-1.264l-0.422-0.422h-0.422l-0.421,0.422l-1.686-2.528l2.106-3.372
		l-0.421-0.421v-0.422l0.421-1.686c-0.421-1.124-0.843-1.686-1.264-1.686l-0.422,1.265l0.422,0.421h-0.422
		c-1.278-0.548-1.98-1.109-2.106-1.686l-0.422,0.421h-0.843c-3.681-3.371-5.929-5.057-6.743-5.057l-1.686-2.95l0.843-2.528
		l-0.421-1.265C145.601,76.202,147.427,75.078,148.438,75.078z M145.066,91.936h1.687c0.632,0,1.193,1.404,1.686,4.214h0.421v-0.843
		l-0.421-0.422l0.421-0.421h0.422l0.421,0.421v0.422l-0.421,0.421c1.123,0.141,1.686,0.562,1.686,1.265v1.686l-1.686,1.686h-0.843
		l-0.843-0.843l-1.265,0.422c-0.66-0.099-1.644-0.941-2.95-2.528v-1.265l0.422-0.422v-0.421l-0.843-0.843v-0.843L145.066,91.936z
		 M147.11,106.348v-0.337l0.675-0.674l0.337,0.337v0.337l-0.337,0.337H147.11z M153.854,69.262h-2.022l-1.349-0.337l-1.349,0.337
		l-0.675-0.674c0-0.449,0.338-0.674,1.012-0.674l3.371,0.337l1.349-0.337l0.337,0.337v0.337L153.854,69.262z M148.797,107.022
		v-0.337l0.337-1.012c1.166,0,1.84,0.337,2.022,1.012l-0.337,0.337H148.797z M155.202,107.022l-1.012-0.675l-0.674,0.675h-0.337
		l-1.687-0.337v-0.675l0.675-0.674l1.012,0.674l1.348-0.674c1.799,0.267,2.697,0.716,2.697,1.349l-0.337,0.337H155.202z
		 M152.231,87.299v0.421h1.264v-1.264h-0.421L152.231,87.299z M157.71,74.657l1.686,2.107c1.404,0,2.107,0.281,2.107,0.843v1.686
		l-0.422,0.421l0.422,0.421v0.843c-0.984,1.686-2.248,2.529-3.793,2.529h-0.422c0-1.84-0.983-3.245-2.95-4.214l-0.843-0.843
		c0.337-2.247,0.899-3.371,1.686-3.371h0.843l0.422,0.421h0.422L157.71,74.657z M153.495,88.143l0.422,1.264h1.264l-0.421-1.264
		H153.495z M156.551,69.262h-0.675l-1.011-1.011l0.674-0.674l1.686,0.674v0.337L156.551,69.262z M155.603,88.143l2.95,5.899h0.843
		l0.421-2.106v-0.422h-0.421v0.843h-0.422c-0.562,0-1.264-1.404-2.106-4.214H155.603z M164.221,68.651l-0.927,0.611h-4.383
		l-1.012-1.349l0.337-0.337l3.371,0.337h1.349l0.338,0.337h0.337l0.59-0.59V68.651z M164.221,106.728l-1.938,0.295h-4.383v-0.675
		l1.012-1.011h0.337l2.697,0.674l0.337-0.337v-0.337l1.686,0.337l0.253-0.042V106.728z M158.553,94.464l1.264,1.686v-0.843
		l-0.843-0.843H158.553z"/>
</g>
<g>
	<path fill="#FFFFFF" d="M126.871,116.82l-1.515-1.915l-0.4,0.469v1.446h-0.794v-4.529h0.794v2.152l1.772-2.152h0.984l-1.84,2.133
		l1.982,2.396H126.871z"/>
	<path fill="#FFFFFF" d="M127.955,115.177c0-0.95,0.692-1.718,1.664-1.718c0.984,0,1.609,0.747,1.609,1.779v0.177h-2.526
		c0.055,0.488,0.421,0.902,1.039,0.902c0.326,0,0.699-0.129,0.937-0.366l0.326,0.469c-0.333,0.312-0.814,0.481-1.331,0.481
		C128.682,116.901,127.955,116.216,127.955,115.177z M129.612,114.043c-0.604,0-0.89,0.469-0.917,0.862h1.847
		C130.521,114.519,130.257,114.043,129.612,114.043z"/>
	<path fill="#FFFFFF" d="M134.151,116.82v-2.051c0-0.516-0.265-0.679-0.665-0.679c-0.359,0-0.672,0.217-0.842,0.435v2.295h-0.713
		v-3.279h0.713v0.441c0.217-0.259,0.645-0.523,1.161-0.523c0.706,0,1.06,0.381,1.06,1.053v2.309H134.151z"/>
	<path fill="#FFFFFF" d="M138.006,116.82v-2.051c0-0.516-0.265-0.679-0.665-0.679c-0.359,0-0.672,0.217-0.842,0.435v2.295h-0.713
		v-3.279h0.713v0.441c0.217-0.259,0.645-0.523,1.161-0.523c0.706,0,1.06,0.381,1.06,1.053v2.309H138.006z"/>
	<path fill="#FFFFFF" d="M139.606,117.466c0.075,0.033,0.19,0.054,0.271,0.054c0.231,0,0.381-0.067,0.476-0.285l0.163-0.373
		l-1.352-3.32h0.768l0.957,2.458l0.958-2.458h0.76l-1.582,3.87c-0.224,0.557-0.611,0.733-1.12,0.74c-0.102,0-0.306-0.021-0.4-0.048
		L139.606,117.466z"/>
	<path fill="#FFFFFF" d="M144.628,114.56c0-1.427,1.06-2.343,2.377-2.343c0.883,0,1.46,0.421,1.819,0.937l-0.645,0.374
		c-0.245-0.34-0.673-0.604-1.175-0.604c-0.896,0-1.562,0.679-1.562,1.637c0,0.943,0.666,1.636,1.562,1.636
		c0.461,0,0.869-0.21,1.072-0.407v-0.699h-1.357v-0.699h2.146v1.69c-0.441,0.496-1.08,0.828-1.86,0.828
		C145.688,116.908,144.628,115.979,144.628,114.56z"/>
	<path fill="#FFFFFF" d="M151.681,116.82v-0.36c-0.244,0.286-0.632,0.441-1.066,0.441c-0.529,0-1.134-0.366-1.134-1.086
		c0-0.761,0.598-1.073,1.134-1.073c0.448,0,0.822,0.143,1.066,0.421v-0.488c0-0.381-0.319-0.611-0.768-0.611
		c-0.366,0-0.692,0.136-0.971,0.421l-0.299-0.495c0.38-0.367,0.855-0.53,1.378-0.53c0.733,0,1.372,0.306,1.372,1.182v2.18H151.681z
		 M151.681,116.073v-0.502c-0.17-0.225-0.476-0.34-0.781-0.34c-0.4,0-0.706,0.237-0.706,0.591c0,0.359,0.306,0.591,0.706,0.591
		C151.205,116.413,151.511,116.298,151.681,116.073z"/>
	<path fill="#FFFFFF" d="M153.314,116.82v-3.279h0.713v0.475c0.251-0.312,0.645-0.557,1.066-0.557v0.706
		c-0.062-0.014-0.13-0.021-0.218-0.021c-0.306,0-0.706,0.204-0.849,0.441v2.234H153.314z"/>
	<path fill="#FFFFFF" d="M155.473,115.177c0-0.991,0.699-1.718,1.69-1.718c0.646,0,1.025,0.271,1.257,0.584l-0.469,0.428
		c-0.184-0.258-0.435-0.38-0.754-0.38c-0.591,0-0.991,0.448-0.991,1.086c0,0.639,0.4,1.094,0.991,1.094
		c0.319,0,0.57-0.136,0.754-0.394l0.469,0.44c-0.231,0.306-0.611,0.584-1.257,0.584
		C156.172,116.901,155.473,116.168,155.473,115.177z"/>
	<path fill="#FFFFFF" d="M158.967,112.698c0-0.244,0.197-0.44,0.441-0.44c0.245,0,0.441,0.196,0.441,0.44
		c0,0.245-0.196,0.441-0.441,0.441C159.164,113.14,158.967,112.943,158.967,112.698z M159.049,116.82v-3.279h0.713v3.279H159.049z"
		/>
	<path fill="#FFFFFF" d="M162.694,116.82v-0.36c-0.244,0.286-0.632,0.441-1.066,0.441c-0.529,0-1.134-0.366-1.134-1.086
		c0-0.761,0.598-1.073,1.134-1.073c0.448,0,0.822,0.143,1.066,0.421v-0.488c0-0.381-0.319-0.611-0.768-0.611
		c-0.366,0-0.692,0.136-0.971,0.421l-0.299-0.495c0.38-0.367,0.855-0.53,1.378-0.53c0.733,0,1.372,0.306,1.372,1.182v2.18H162.694z
		 M162.694,116.073v-0.502c-0.17-0.225-0.476-0.34-0.781-0.34c-0.4,0-0.706,0.237-0.706,0.591c0,0.359,0.306,0.591,0.706,0.591
		C162.219,116.413,162.524,116.298,162.694,116.073z"/>
</g>
</svg>
