<?xml version="1.0" encoding="utf-8"?>
<!-- Generator: Adobe Illustrator 16.0.0, SVG Export Plug-In . SVG Version: 6.00 Build 0)  -->
<!DOCTYPE svg PUBLIC "-//W3C//DTD SVG 1.1//EN" "http://www.w3.org/Graphics/SVG/1.1/DTD/svg11.dtd">
<svg version="1.1" id="Layer_1" xmlns="http://www.w3.org/2000/svg" xmlns:xlink="http://www.w3.org/1999/xlink" x="0px" y="0px"
	 width="180px" height="260px" viewBox="0 0 180 260" enable-background="new 0 0 180 260" xml:space="preserve">
<rect fill="#A6A1A5" width="180" height="260"/>
<polyline fill="#C2BEC0" points="180,103 180,8.5 0,260 "/>
<polygon fill="#657584" points="0,116.5 180,0 0,0 "/>
<path fill="#C2BEC0" d="M180,258"/>
<g>
	<g>
		<g enable-background="new    ">
			<g>
				<polygon fill="#5C5155" points="154.631,178.752 131.838,166.354 165.873,183.732 188.667,196.131 				"/>
			</g>
			<g>
				<polygon fill="#817278" points="154.631,178.752 188.667,196.131 165.729,235.615 134.906,248.514 108.893,185.182 				"/>
			</g>
			<g>
				<polygon fill="#4A4245" points="134.906,248.514 112.111,236.113 86.099,172.781 108.893,185.182 				"/>
			</g>
			<g>
				<polygon fill="#695D61" points="108.893,185.182 86.099,172.781 131.838,166.354 154.631,178.752 				"/>
			</g>
		</g>
	</g>
</g>
<g>
	<g>
		<g enable-background="new    ">
			<g>
				<polygon fill="#586673" points="114.168,212.475 121.214,252.3 86.551,232.684 				"/>
			</g>
			<g>
				<polygon fill="#333B42" points="121.214,252.3 98.42,239.9 63.757,220.284 86.551,232.684 				"/>
			</g>
			<g>
				<polygon fill="#454F5A" points="86.551,232.684 63.757,220.284 91.375,200.075 114.168,212.475 				"/>
			</g>
		</g>
	</g>
</g>
<g enable-background="new    ">
	<path fill="#F8F8F8" d="M16.013,16.876h-2.401v-1.69h6.587v1.69h-2.4v13.605h-1.786V16.876z"/>
	<path fill="#F8F8F8" d="M22.253,15.186h1.709v5.714c0.281-0.225,0.598-0.408,0.95-0.553c0.352-0.144,0.701-0.216,1.047-0.216
		c1.024,0,1.795,0.321,2.314,0.965s0.778,1.57,0.778,2.78v6.605h-1.709v-6.587c0-0.659-0.133-1.162-0.398-1.507
		c-0.266-0.346-0.658-0.519-1.176-0.519c-0.307,0-0.619,0.075-0.936,0.226s-0.606,0.386-0.869,0.705v7.682h-1.709V15.186z"/>
	<path fill="#F8F8F8" d="M35.225,30.664c-0.55,0-1.058-0.12-1.522-0.36c-0.464-0.24-0.867-0.589-1.209-1.047
		c-0.343-0.457-0.61-1.018-0.802-1.68c-0.192-0.663-0.288-1.416-0.288-2.262c0-0.864,0.099-1.622,0.297-2.275
		c0.199-0.652,0.466-1.197,0.802-1.632c0.336-0.436,0.724-0.762,1.162-0.979c0.438-0.218,0.895-0.326,1.368-0.326
		c0.55,0,1.034,0.142,1.45,0.427s0.746,0.689,0.989,1.215c0.243,0.524,0.394,1.157,0.451,1.896s0.006,1.563-0.154,2.472
		l-4.589-0.009c0.051,0.55,0.152,1.013,0.302,1.387c0.15,0.375,0.33,0.677,0.538,0.907s0.434,0.396,0.677,0.495
		c0.243,0.099,0.486,0.148,0.729,0.148c0.147,0,0.296-0.016,0.446-0.048s0.294-0.073,0.432-0.125
		c0.138-0.051,0.264-0.108,0.379-0.173c0.115-0.063,0.211-0.125,0.288-0.183l0.653,1.46c-0.141,0.09-0.304,0.176-0.49,0.259
		c-0.186,0.084-0.382,0.157-0.59,0.222c-0.208,0.063-0.426,0.114-0.653,0.153C35.665,30.645,35.443,30.664,35.225,30.664z
		 M36.195,24.5c0.032-0.538,0.021-0.981-0.034-1.33c-0.054-0.349-0.138-0.627-0.25-0.836c-0.112-0.207-0.248-0.352-0.408-0.432
		c-0.16-0.08-0.33-0.12-0.509-0.12c-0.461,0-0.856,0.229-1.186,0.687c-0.33,0.458-0.536,1.135-0.62,2.031H36.195z"/>
	<path fill="#F8F8F8" d="M43.829,14.994c1.095-0.045,2.048,0.051,2.861,0.288c0.813,0.236,1.485,0.59,2.016,1.061
		s0.928,1.042,1.191,1.714c0.262,0.673,0.394,1.418,0.394,2.237c0,0.954-0.173,1.802-0.519,2.545
		c-0.346,0.742-0.877,1.348-1.594,1.814l2.66,5.828h-2.017l-2.189-5.156c-0.32,0.09-0.66,0.157-1.018,0.202v4.954h-1.786V14.994z
		 M45.614,23.712c0.41-0.038,0.788-0.134,1.133-0.288c0.346-0.153,0.643-0.372,0.893-0.657c0.25-0.285,0.445-0.632,0.585-1.042
		c0.141-0.409,0.211-0.887,0.211-1.431s-0.071-1.021-0.211-1.431c-0.141-0.409-0.336-0.757-0.585-1.042
		c-0.25-0.284-0.547-0.504-0.893-0.657s-0.724-0.25-1.133-0.288V23.712z"/>
	<path fill="#F8F8F8" d="M55.734,30.664c-0.48,0-0.941-0.109-1.382-0.326c-0.442-0.218-0.834-0.548-1.176-0.989
		c-0.343-0.441-0.616-0.992-0.821-1.651c-0.205-0.659-0.307-1.431-0.307-2.314c0-0.883,0.103-1.654,0.307-2.313
		c0.205-0.659,0.479-1.21,0.821-1.652c0.342-0.441,0.734-0.771,1.176-0.988c0.441-0.218,0.902-0.326,1.382-0.326
		s0.941,0.108,1.383,0.326c0.441,0.218,0.833,0.547,1.176,0.988c0.342,0.442,0.616,0.993,0.821,1.652
		c0.205,0.659,0.307,1.431,0.307,2.313c0,0.884-0.103,1.655-0.307,2.314c-0.205,0.659-0.479,1.21-0.821,1.651
		c-0.343,0.441-0.735,0.771-1.176,0.989C56.675,30.555,56.214,30.664,55.734,30.664z M55.734,28.983c0.23,0,0.458-0.062,0.682-0.188
		c0.224-0.124,0.427-0.327,0.61-0.609c0.183-0.281,0.33-0.652,0.442-1.113c0.112-0.461,0.168-1.024,0.168-1.69
		c0-0.665-0.056-1.228-0.168-1.685c-0.112-0.458-0.259-0.829-0.442-1.114c-0.183-0.284-0.386-0.489-0.61-0.614
		s-0.451-0.188-0.682-0.188s-0.458,0.062-0.682,0.188s-0.427,0.33-0.61,0.614c-0.182,0.285-0.33,0.656-0.441,1.114
		c-0.112,0.457-0.168,1.02-0.168,1.685c0,0.666,0.056,1.229,0.168,1.69c0.112,0.461,0.259,0.832,0.441,1.113
		c0.183,0.282,0.386,0.485,0.61,0.609C55.277,28.921,55.504,28.983,55.734,28.983z"/>
	<path fill="#F8F8F8" d="M64.846,30.664c-0.531,0-1.024-0.109-1.479-0.326c-0.455-0.218-0.85-0.548-1.186-0.989
		c-0.336-0.441-0.599-0.992-0.787-1.651c-0.189-0.659-0.283-1.431-0.283-2.314c0-0.883,0.094-1.654,0.283-2.313
		c0.188-0.659,0.451-1.21,0.787-1.652c0.336-0.441,0.731-0.771,1.186-0.988s0.947-0.326,1.479-0.326
		c0.391,0,0.767,0.061,1.128,0.182c0.361,0.122,0.683,0.266,0.965,0.433l-0.72,1.488c-0.186-0.109-0.398-0.207-0.639-0.293
		c-0.24-0.087-0.485-0.13-0.734-0.13s-0.493,0.064-0.729,0.192s-0.45,0.336-0.639,0.624s-0.339,0.661-0.451,1.118
		c-0.112,0.458-0.168,1.014-0.168,1.666c0,0.653,0.056,1.208,0.168,1.666c0.112,0.458,0.262,0.831,0.451,1.118
		c0.189,0.288,0.402,0.497,0.639,0.625s0.48,0.191,0.729,0.191s0.495-0.043,0.734-0.13c0.24-0.086,0.453-0.184,0.639-0.292
		l0.72,1.488c-0.282,0.166-0.604,0.311-0.965,0.432C65.613,30.603,65.237,30.664,64.846,30.664z"/>
	<path fill="#F8F8F8" d="M68.956,15.186h1.709v9.813h0.009l2.833-4.715h1.824l-3.024,4.965l3.534,5.232h-2.113l-3.062-4.628v4.628
		h-1.709V15.186z"/>
	<path fill="#F8F8F8" d="M81.39,15.186h5.146v1.69h-3.361v5.876h2.881v1.69h-2.881v4.35h3.361v1.689H81.39V15.186z"/>
	<path fill="#F8F8F8" d="M89.071,20.103l1.44,1.027c0.141-0.142,0.301-0.272,0.48-0.395c0.179-0.121,0.367-0.227,0.566-0.316
		c0.198-0.09,0.399-0.16,0.604-0.211c0.205-0.052,0.409-0.077,0.614-0.077c1.024,0,1.796,0.321,2.314,0.965s0.777,1.57,0.777,2.78
		v6.605H94.16v-6.587c0-0.659-0.133-1.162-0.398-1.507c-0.266-0.346-0.658-0.519-1.176-0.519c-0.308,0-0.619,0.075-0.937,0.226
		s-0.606,0.386-0.868,0.705v7.682h-1.71V20.103z"/>
	<path fill="#F8F8F8" d="M99.787,18.537c-0.186,0-0.355-0.032-0.51-0.096c-0.152-0.064-0.284-0.15-0.393-0.26
		c-0.109-0.108-0.192-0.235-0.25-0.379c-0.058-0.145-0.086-0.296-0.086-0.456s0.028-0.312,0.086-0.456
		c0.058-0.145,0.141-0.271,0.25-0.38c0.108-0.108,0.24-0.195,0.393-0.259c0.154-0.064,0.324-0.096,0.51-0.096
		s0.355,0.031,0.509,0.096c0.153,0.063,0.284,0.15,0.394,0.259c0.109,0.109,0.191,0.235,0.25,0.38
		c0.057,0.144,0.086,0.296,0.086,0.456s-0.029,0.312-0.086,0.456c-0.059,0.144-0.141,0.271-0.25,0.379
		c-0.109,0.109-0.24,0.195-0.394,0.26C100.143,18.505,99.973,18.537,99.787,18.537z M98.875,20.284h1.709v10.197h-1.709V20.284z"/>
	<path fill="#F8F8F8" d="M105.424,32.594c0.422-0.173,0.788-0.354,1.099-0.542c0.311-0.189,0.575-0.39,0.792-0.601
		c0.218-0.211,0.393-0.436,0.523-0.672c0.131-0.237,0.229-0.49,0.293-0.759c-0.365,0.18-0.784,0.269-1.258,0.269
		s-0.927-0.099-1.359-0.297c-0.432-0.199-0.812-0.506-1.143-0.922c-0.329-0.416-0.594-0.946-0.791-1.59
		c-0.199-0.643-0.299-1.409-0.299-2.299s0.1-1.656,0.299-2.3c0.197-0.644,0.462-1.173,0.791-1.589
		c0.33-0.416,0.711-0.724,1.143-0.922c0.433-0.198,0.886-0.298,1.359-0.298c0.711,0,1.315,0.211,1.814,0.634l1.268-0.614v8.823
		c0,0.576-0.068,1.112-0.207,1.608c-0.137,0.496-0.354,0.956-0.652,1.378c-0.297,0.423-0.68,0.807-1.147,1.152
		s-1.03,0.653-1.69,0.922L105.424,32.594z M107.055,28.677c0.225,0,0.438-0.037,0.639-0.111c0.202-0.073,0.387-0.177,0.553-0.312
		v-6.136c-0.346-0.288-0.742-0.432-1.191-0.432c-0.262,0-0.515,0.055-0.758,0.163s-0.459,0.298-0.648,0.566
		c-0.188,0.269-0.34,0.628-0.455,1.075c-0.115,0.448-0.174,1.012-0.174,1.69s0.059,1.241,0.174,1.689s0.267,0.807,0.455,1.075
		c0.189,0.27,0.405,0.458,0.648,0.566C106.54,28.622,106.793,28.677,107.055,28.677z"/>
	<path fill="#F8F8F8" d="M112.739,20.103l1.401,0.998c0.141-0.135,0.299-0.261,0.471-0.379c0.174-0.119,0.355-0.221,0.548-0.308
		c0.192-0.086,0.389-0.155,0.591-0.206c0.201-0.052,0.401-0.077,0.6-0.077c0.589,0,1.093,0.107,1.512,0.321
		c0.42,0.215,0.758,0.53,1.014,0.946c0.135-0.173,0.296-0.336,0.484-0.49c0.189-0.153,0.393-0.288,0.609-0.403
		c0.219-0.115,0.445-0.206,0.683-0.273c0.236-0.067,0.47-0.101,0.7-0.101c1.024,0,1.796,0.321,2.314,0.965s0.777,1.57,0.777,2.78
		v6.605h-1.709v-6.587c0-0.659-0.133-1.162-0.398-1.507c-0.266-0.346-0.657-0.519-1.176-0.519c-0.288,0-0.584,0.066-0.889,0.201
		c-0.304,0.135-0.58,0.346-0.83,0.634v7.777h-1.709v-6.587c0-0.659-0.133-1.162-0.398-1.507c-0.266-0.346-0.658-0.519-1.176-0.519
		c-0.289,0-0.583,0.066-0.884,0.201c-0.302,0.135-0.576,0.343-0.825,0.624v7.787h-1.71V20.103z"/>
	<path fill="#F8F8F8" d="M126.825,27.294c0-1.037,0.366-1.854,1.1-2.448c0.733-0.596,1.813-0.929,3.24-0.999v-0.201
		c0-0.602-0.143-1.072-0.427-1.412c-0.285-0.339-0.674-0.509-1.167-0.509c-0.256,0-0.521,0.047-0.792,0.14
		c-0.272,0.093-0.543,0.216-0.812,0.369l-0.653-1.536c0.404-0.205,0.826-0.355,1.268-0.451s0.842-0.144,1.201-0.144
		c0.461,0,0.879,0.08,1.258,0.239c0.377,0.16,0.7,0.39,0.969,0.687c0.27,0.298,0.477,0.661,0.625,1.09
		c0.146,0.429,0.221,0.916,0.221,1.46v7.086l-1.258-0.614c-0.244,0.191-0.514,0.342-0.812,0.451
		c-0.298,0.108-0.62,0.163-0.966,0.163c-0.435,0-0.836-0.088-1.205-0.265c-0.367-0.176-0.684-0.414-0.949-0.715
		s-0.473-0.656-0.62-1.065C126.898,28.209,126.825,27.768,126.825,27.294z M128.562,27.322c0,0.237,0.035,0.456,0.106,0.658
		c0.07,0.201,0.169,0.378,0.298,0.528c0.127,0.15,0.281,0.267,0.461,0.35c0.179,0.084,0.377,0.125,0.595,0.125
		c0.224,0,0.438-0.041,0.644-0.125c0.205-0.083,0.371-0.188,0.499-0.316v-3.159c-0.409-0.006-0.774,0.034-1.095,0.12
		c-0.32,0.087-0.592,0.215-0.816,0.384c-0.224,0.17-0.395,0.375-0.514,0.615C128.622,26.741,128.562,27.016,128.562,27.322z"/>
</g>
<g enable-background="new    ">
	<path fill="#3B4751" d="M15.272,36.055h0.684l0.523,2.725l0.133,0.875l0.308-0.875l0.383-1.046l0.383,1.046l0.304,0.875
		l0.137-0.875l0.523-2.725h0.684l-1.172,5.613l-0.588-1.597l-0.27-0.763l-0.27,0.763l-0.588,1.597L15.272,36.055z"/>
	<path fill="#3B4751" d="M19.784,40.365c0-0.369,0.13-0.66,0.392-0.871c0.261-0.213,0.645-0.331,1.153-0.355v-0.072
		c0-0.214-0.051-0.382-0.152-0.502c-0.101-0.121-0.24-0.182-0.415-0.182c-0.091,0-0.185,0.017-0.282,0.05
		c-0.097,0.033-0.193,0.077-0.289,0.132l-0.232-0.547c0.144-0.073,0.294-0.127,0.451-0.161s0.3-0.052,0.427-0.052
		c0.164,0,0.313,0.029,0.448,0.086s0.25,0.139,0.345,0.244c0.096,0.106,0.17,0.235,0.222,0.389c0.052,0.152,0.079,0.325,0.079,0.52
		v2.521l-0.448-0.219c-0.086,0.068-0.183,0.122-0.289,0.161c-0.106,0.039-0.221,0.058-0.344,0.058c-0.155,0-0.298-0.031-0.429-0.094
		c-0.131-0.062-0.244-0.147-0.339-0.254c-0.094-0.107-0.168-0.234-0.22-0.38S19.784,40.534,19.784,40.365z M20.403,40.375
		c0,0.085,0.013,0.163,0.038,0.234c0.025,0.072,0.061,0.135,0.106,0.188s0.1,0.095,0.164,0.124c0.064,0.03,0.134,0.045,0.212,0.045
		c0.08,0,0.156-0.015,0.229-0.045c0.073-0.029,0.132-0.066,0.178-0.112v-1.124c-0.146-0.003-0.276,0.012-0.39,0.042
		c-0.114,0.031-0.211,0.076-0.291,0.137s-0.141,0.134-0.183,0.219C20.424,40.169,20.403,40.266,20.403,40.375z"/>
	<path fill="#3B4751" d="M22.929,36.055h0.608V41.5h-0.608V36.055z"/>
	<path fill="#3B4751" d="M24.641,38.444h-0.27V37.87h0.27v-1.21h0.608v1.21h0.581v0.574H25.25v1.62c0,0.137,0.011,0.256,0.033,0.359
		c0.021,0.102,0.057,0.189,0.107,0.261c0.05,0.072,0.115,0.13,0.195,0.173s0.178,0.075,0.294,0.096v0.608
		c-0.415-0.019-0.725-0.149-0.93-0.395s-0.308-0.615-0.308-1.109V38.444z"/>
	<path fill="#3B4751" d="M27.868,41.564c-0.196,0-0.376-0.042-0.542-0.128c-0.165-0.085-0.309-0.209-0.431-0.372
		c-0.122-0.163-0.217-0.362-0.285-0.599c-0.068-0.235-0.103-0.504-0.103-0.805c0-0.308,0.035-0.577,0.106-0.81
		s0.166-0.427,0.286-0.582c0.119-0.154,0.257-0.271,0.413-0.348c0.156-0.078,0.319-0.117,0.487-0.117
		c0.196,0,0.368,0.051,0.516,0.152s0.266,0.246,0.352,0.433s0.14,0.412,0.161,0.675c0.021,0.264,0.002,0.557-0.055,0.881
		l-1.634-0.004c0.018,0.196,0.054,0.36,0.108,0.494c0.053,0.133,0.117,0.24,0.191,0.322c0.074,0.082,0.154,0.142,0.241,0.177
		s0.173,0.053,0.26,0.053c0.052,0,0.105-0.006,0.159-0.017c0.054-0.012,0.105-0.026,0.154-0.045
		c0.049-0.019,0.094-0.039,0.135-0.062s0.075-0.044,0.103-0.065l0.232,0.52c-0.05,0.032-0.108,0.063-0.174,0.093
		s-0.136,0.056-0.21,0.079c-0.074,0.022-0.151,0.041-0.232,0.055C28.024,41.559,27.945,41.564,27.868,41.564z M28.213,39.371
		c0.011-0.191,0.007-0.35-0.012-0.474c-0.019-0.124-0.049-0.224-0.089-0.298c-0.04-0.074-0.088-0.125-0.145-0.153
		s-0.117-0.043-0.181-0.043c-0.164,0-0.305,0.081-0.422,0.244c-0.118,0.163-0.191,0.404-0.221,0.724H28.213z"/>
	<path fill="#3B4751" d="M29.642,37.805l0.516,0.359c0.141-0.109,0.293-0.195,0.455-0.258s0.329-0.094,0.502-0.094v0.635
		c-0.182,0-0.344,0.02-0.483,0.059c-0.141,0.039-0.262,0.113-0.364,0.223V41.5h-0.625V37.805z"/>
	<path fill="#3B4751" d="M34.663,38.943h0.636v2.618c-0.339,0.014-0.66-0.038-0.962-0.155c-0.302-0.117-0.565-0.298-0.791-0.54
		c-0.226-0.243-0.404-0.548-0.537-0.915c-0.132-0.366-0.198-0.791-0.198-1.274c0-0.429,0.051-0.809,0.154-1.142
		s0.24-0.613,0.412-0.843c0.172-0.229,0.371-0.402,0.596-0.521c0.226-0.119,0.461-0.178,0.708-0.178
		c0.107,0,0.212,0.011,0.316,0.033c0.104,0.023,0.213,0.059,0.33,0.106l-0.287,0.55c-0.045-0.018-0.102-0.032-0.169-0.042
		c-0.067-0.011-0.125-0.016-0.176-0.016c-0.15,0-0.298,0.044-0.444,0.134c-0.146,0.088-0.276,0.22-0.392,0.393
		c-0.115,0.173-0.208,0.388-0.28,0.645c-0.071,0.256-0.107,0.552-0.107,0.887c0,0.299,0.03,0.568,0.089,0.809
		s0.141,0.45,0.246,0.629s0.23,0.326,0.376,0.442s0.307,0.199,0.482,0.249V38.943z"/>
	<path fill="#3B4751" d="M36.249,41.107c0-0.062,0.011-0.12,0.034-0.175s0.055-0.104,0.096-0.146s0.091-0.075,0.148-0.101
		c0.059-0.025,0.124-0.038,0.197-0.038c0.071,0,0.136,0.013,0.195,0.038s0.109,0.059,0.15,0.101s0.073,0.091,0.096,0.146
		s0.034,0.112,0.034,0.175c0,0.061-0.011,0.119-0.034,0.174s-0.055,0.103-0.096,0.144s-0.091,0.074-0.15,0.099
		c-0.059,0.025-0.124,0.038-0.195,0.038c-0.073,0-0.138-0.013-0.197-0.038c-0.058-0.024-0.107-0.058-0.148-0.099
		s-0.073-0.089-0.096-0.144S36.249,41.168,36.249,41.107z"/>
	<path fill="#3B4751" d="M39.496,36.055h0.636v3.021h1.2v-3.021h0.636V41.5h-0.636v-1.822h-1.2V41.5h-0.636V36.055z"/>
	<path fill="#3B4751" d="M42.903,40.365c0-0.369,0.13-0.66,0.392-0.871c0.261-0.213,0.645-0.331,1.153-0.355v-0.072
		c0-0.214-0.051-0.382-0.152-0.502c-0.101-0.121-0.24-0.182-0.415-0.182c-0.091,0-0.185,0.017-0.282,0.05
		c-0.097,0.033-0.193,0.077-0.289,0.132l-0.232-0.547c0.144-0.073,0.294-0.127,0.451-0.161s0.3-0.052,0.427-0.052
		c0.164,0,0.313,0.029,0.448,0.086s0.25,0.139,0.345,0.244c0.096,0.106,0.17,0.235,0.222,0.389c0.052,0.152,0.079,0.325,0.079,0.52
		v2.521l-0.448-0.219c-0.086,0.068-0.183,0.122-0.289,0.161c-0.106,0.039-0.221,0.058-0.344,0.058c-0.155,0-0.298-0.031-0.429-0.094
		c-0.131-0.062-0.244-0.147-0.339-0.254c-0.094-0.107-0.168-0.234-0.22-0.38S42.903,40.534,42.903,40.365z M43.522,40.375
		c0,0.085,0.013,0.163,0.038,0.234c0.025,0.072,0.061,0.135,0.106,0.188s0.1,0.095,0.164,0.124c0.064,0.03,0.134,0.045,0.212,0.045
		c0.08,0,0.156-0.015,0.229-0.045c0.073-0.029,0.132-0.066,0.178-0.112v-1.124c-0.146-0.003-0.276,0.012-0.39,0.042
		c-0.114,0.031-0.211,0.076-0.291,0.137s-0.141,0.134-0.183,0.219C43.543,40.169,43.522,40.266,43.522,40.375z"/>
	<path fill="#3B4751" d="M46.048,37.805l0.499,0.355c0.05-0.047,0.106-0.093,0.167-0.135s0.126-0.078,0.195-0.109
		c0.068-0.03,0.138-0.055,0.21-0.073c0.071-0.019,0.143-0.027,0.213-0.027c0.209,0,0.389,0.038,0.539,0.114
		c0.149,0.076,0.269,0.188,0.36,0.337c0.048-0.062,0.105-0.12,0.173-0.175c0.067-0.055,0.139-0.102,0.217-0.143
		s0.158-0.074,0.243-0.098c0.084-0.024,0.167-0.036,0.25-0.036c0.365,0,0.639,0.114,0.824,0.344
		c0.185,0.229,0.277,0.559,0.277,0.989V41.5h-0.608v-2.345c0-0.234-0.047-0.413-0.142-0.536c-0.095-0.123-0.234-0.186-0.419-0.186
		c-0.103,0-0.208,0.024-0.316,0.072c-0.108,0.048-0.207,0.123-0.295,0.226V41.5h-0.608v-2.345c0-0.234-0.047-0.413-0.142-0.536
		c-0.094-0.123-0.234-0.186-0.418-0.186c-0.103,0-0.208,0.024-0.314,0.072s-0.205,0.122-0.294,0.223V41.5h-0.608V37.805z"/>
	<path fill="#3B4751" d="M51.609,37.248c-0.066,0-0.126-0.012-0.181-0.034s-0.102-0.054-0.14-0.093
		c-0.039-0.038-0.068-0.083-0.089-0.135c-0.021-0.051-0.031-0.105-0.031-0.162s0.01-0.111,0.031-0.162
		c0.021-0.052,0.05-0.097,0.089-0.135c0.039-0.039,0.085-0.07,0.14-0.093s0.115-0.034,0.181-0.034s0.126,0.012,0.181,0.034
		s0.102,0.054,0.14,0.093c0.039,0.038,0.068,0.083,0.089,0.135c0.021,0.051,0.031,0.105,0.031,0.162s-0.01,0.111-0.031,0.162
		c-0.021,0.052-0.05,0.097-0.089,0.135c-0.039,0.039-0.085,0.07-0.14,0.093S51.675,37.248,51.609,37.248z M51.284,37.87h0.608v3.63
		h-0.608V37.87z"/>
	<path fill="#3B4751" d="M53.007,36.055h0.608V41.5h-0.608V36.055z"/>
	<path fill="#3B4751" d="M54.719,38.444h-0.27V37.87h0.27v-1.21h0.608v1.21h0.581v0.574h-0.581v1.62
		c0,0.137,0.011,0.256,0.033,0.359c0.021,0.102,0.057,0.189,0.107,0.261c0.05,0.072,0.115,0.13,0.195,0.173s0.178,0.075,0.294,0.096
		v0.608c-0.415-0.019-0.725-0.149-0.93-0.395s-0.308-0.615-0.308-1.109V38.444z"/>
	<path fill="#3B4751" d="M57.884,41.564c-0.171,0-0.335-0.038-0.492-0.115c-0.157-0.078-0.297-0.195-0.419-0.353
		c-0.122-0.157-0.219-0.354-0.292-0.588S56.572,40,56.572,39.686s0.037-0.59,0.109-0.824s0.17-0.431,0.292-0.588
		c0.122-0.157,0.262-0.274,0.419-0.352c0.157-0.078,0.321-0.117,0.492-0.117s0.335,0.039,0.492,0.117
		c0.157,0.077,0.297,0.194,0.419,0.352c0.122,0.157,0.219,0.354,0.292,0.588s0.109,0.51,0.109,0.824s-0.037,0.589-0.109,0.823
		s-0.17,0.431-0.292,0.588c-0.122,0.157-0.262,0.274-0.419,0.353C58.219,41.526,58.055,41.564,57.884,41.564z M57.884,40.967
		c0.082,0,0.163-0.022,0.243-0.066c0.08-0.045,0.152-0.117,0.217-0.217c0.064-0.101,0.117-0.232,0.157-0.396
		c0.04-0.164,0.06-0.365,0.06-0.602c0-0.237-0.02-0.438-0.06-0.601c-0.04-0.163-0.093-0.295-0.157-0.396
		c-0.065-0.102-0.138-0.174-0.217-0.219c-0.08-0.044-0.161-0.066-0.243-0.066s-0.163,0.022-0.243,0.066
		c-0.08,0.045-0.152,0.117-0.217,0.219c-0.064,0.102-0.117,0.233-0.157,0.396c-0.04,0.163-0.06,0.363-0.06,0.601
		c0,0.236,0.02,0.438,0.06,0.602c0.04,0.164,0.093,0.296,0.157,0.396c0.065,0.1,0.138,0.172,0.217,0.217
		C57.721,40.944,57.802,40.967,57.884,40.967z"/>
	<path fill="#3B4751" d="M59.986,37.805l0.513,0.366c0.05-0.05,0.107-0.097,0.171-0.14c0.064-0.044,0.131-0.081,0.202-0.113
		s0.143-0.057,0.215-0.075s0.146-0.027,0.219-0.027c0.365,0,0.639,0.114,0.824,0.344c0.185,0.229,0.277,0.559,0.277,0.989V41.5
		h-0.608v-2.345c0-0.234-0.047-0.413-0.142-0.536c-0.094-0.123-0.234-0.186-0.418-0.186c-0.109,0-0.22,0.027-0.333,0.081
		c-0.112,0.054-0.216,0.137-0.309,0.251V41.5h-0.608V37.805z"/>
</g>
</svg>
