<?xml version="1.0" encoding="utf-8"?>
<!-- Generator: Adobe Illustrator 16.0.0, SVG Export Plug-In . SVG Version: 6.00 Build 0)  -->
<!DOCTYPE svg PUBLIC "-//W3C//DTD SVG 1.1//EN" "http://www.w3.org/Graphics/SVG/1.1/DTD/svg11.dtd">
<svg version="1.1" id="Layer_1" xmlns="http://www.w3.org/2000/svg" xmlns:xlink="http://www.w3.org/1999/xlink" x="0px" y="0px"
	 width="20px" height="260px" viewBox="0 0 20 260" enable-background="new 0 0 20 260" xml:space="preserve">
<rect fill="#EBE6E5" width="20" height="260"/>
<path fill="#010101" d="M10.829,180.852l-4.008,2.91v-1.735l3.85-2.686v-0.257h-3.85v-1.418h9.404v1.662
	c0,1.242-0.233,2.141-0.7,2.693c-0.52,0.608-1.206,0.913-2.059,0.913c-0.666,0-1.238-0.191-1.718-0.572
	C11.271,181.979,10.963,181.476,10.829,180.852z M11.907,179.084v0.451c0,1.344,0.514,2.016,1.541,2.016
	c0.963,0,1.443-0.654,1.443-1.961v-0.506H11.907z"/>
<g>
	<path fill="#010101" d="M7.924,186.227l4.83-2.668v1.59l-3.41,1.815l3.41,1.693v1.548l-9.16-4.727v-1.566L7.924,186.227z"/>
	<path fill="#010101" d="M12.753,195.297v1.376H6.821v-1.376h0.621c-0.528-0.564-0.792-1.172-0.792-1.822
		c0-0.82,0.297-1.498,0.89-2.033c0.604-0.532,1.36-0.799,2.266-0.799c0.889,0,1.63,0.267,2.223,0.799
		c0.594,0.531,0.889,1.197,0.889,1.998c0,0.689-0.283,1.309-0.853,1.857H12.753L12.753,195.297z M9.806,192.043
		c-0.568,0-1.031,0.152-1.389,0.458c-0.362,0.312-0.542,0.706-0.542,1.182c0,0.507,0.174,0.917,0.524,1.229
		c0.361,0.313,0.819,0.469,1.376,0.469s1.016-0.155,1.377-0.469c0.353-0.312,0.53-0.717,0.53-1.217c0-0.472-0.179-0.865-0.536-1.182
		C10.784,192.2,10.338,192.043,9.806,192.043z"/>
	<path fill="#010101" d="M12.753,198.402v1.377h-0.547c0.475,0.479,0.712,1.02,0.712,1.62c0,0.69-0.218,1.229-0.652,1.614
		c-0.369,0.332-0.973,0.499-1.809,0.499H6.821v-1.376h3.31c0.584,0,0.987-0.082,1.21-0.244c0.228-0.158,0.341-0.446,0.341-0.865
		c0-0.455-0.15-0.777-0.449-0.968c-0.297-0.187-0.814-0.28-1.552-0.28H6.822v-1.377H12.753z"/>
	<path fill="#010101" d="M15.723,216.304h-1.678c0.687-0.821,1.029-1.67,1.029-2.546c0-0.967-0.348-1.781-1.042-2.443
		c-0.69-0.665-1.534-0.998-2.533-0.998c-0.987,0-1.819,0.333-2.498,0.998c-0.678,0.666-1.016,1.482-1.016,2.448
		c0,0.5,0.08,0.924,0.243,1.273c0.08,0.195,0.19,0.397,0.328,0.606s0.305,0.429,0.5,0.66H7.342
		c-0.462-0.812-0.692-1.665-0.692-2.558c0-1.344,0.469-2.492,1.407-3.441c0.946-0.946,2.087-1.419,3.423-1.419
		c1.197,0,2.266,0.396,3.204,1.188c1.149,0.975,1.724,2.235,1.724,3.782C16.409,214.699,16.18,215.515,15.723,216.304z"/>
	<path fill="#010101" d="M9.83,217.552c0.857,0,1.586,0.306,2.187,0.92c0.602,0.613,0.901,1.36,0.901,2.241
		c0,0.885-0.302,1.637-0.907,2.253c-0.604,0.61-1.348,0.915-2.229,0.915c-0.89,0-1.635-0.307-2.235-0.921
		c-0.597-0.617-0.896-1.375-0.896-2.271c0-0.89,0.305-1.635,0.913-2.235C8.165,217.852,8.921,217.552,9.83,217.552z M9.806,218.952
		c-0.593,0-1.062,0.159-1.406,0.476c-0.351,0.324-0.524,0.753-0.524,1.285c0,0.536,0.172,0.964,0.518,1.284
		c0.345,0.321,0.806,0.481,1.383,0.481s1.038-0.16,1.383-0.481c0.349-0.324,0.523-0.753,0.523-1.284
		c0-0.524-0.175-0.948-0.523-1.274C10.809,219.115,10.357,218.952,9.806,218.952z"/>
	<path fill="#010101" d="M9.83,225.05c0.857,0,1.586,0.306,2.187,0.92c0.602,0.613,0.901,1.359,0.901,2.241
		c0,0.885-0.302,1.637-0.907,2.253c-0.604,0.609-1.348,0.915-2.229,0.915c-0.89,0-1.635-0.308-2.235-0.92
		c-0.597-0.618-0.896-1.376-0.896-2.272c0-0.89,0.305-1.635,0.913-2.235C8.165,225.35,8.921,225.05,9.83,225.05z M9.806,226.45
		c-0.593,0-1.062,0.159-1.406,0.476c-0.351,0.324-0.524,0.753-0.524,1.285c0,0.536,0.172,0.964,0.518,1.285
		c0.345,0.32,0.806,0.481,1.383,0.481s1.038-0.161,1.383-0.481c0.349-0.325,0.523-0.754,0.523-1.285
		c0-0.524-0.175-0.948-0.523-1.273C10.809,226.613,10.357,226.45,9.806,226.45z"/>
	<path fill="#010101" d="M3.593,234.198v-1.371h9.16v1.371h-0.645c0.54,0.54,0.81,1.153,0.81,1.84c0,0.816-0.301,1.487-0.902,2.016
		c-0.596,0.536-1.349,0.804-2.259,0.804c-0.889,0-1.631-0.266-2.223-0.798c-0.589-0.528-0.884-1.193-0.884-1.998
		c0-0.694,0.278-1.315,0.834-1.863H3.593z M9.751,237.456c0.569,0,1.031-0.153,1.389-0.463c0.361-0.312,0.542-0.706,0.542-1.181
		c0-0.504-0.175-0.912-0.523-1.224c-0.35-0.313-0.808-0.47-1.377-0.47c-0.557,0-1.015,0.156-1.376,0.47
		c-0.354,0.308-0.53,0.714-0.53,1.218c0,0.475,0.178,0.866,0.536,1.175C8.769,237.299,9.215,237.456,9.751,237.456z"/>
	<path fill="#010101" d="M9.465,245.71v-4.252c-0.487,0.036-0.875,0.195-1.163,0.475c-0.284,0.28-0.427,0.64-0.427,1.078
		c0,0.342,0.082,0.624,0.244,0.847c0.162,0.219,0.463,0.469,0.901,0.749l-0.646,1.157c-0.305-0.179-0.565-0.368-0.783-0.566
		c-0.217-0.199-0.396-0.412-0.535-0.64s-0.242-0.474-0.308-0.736c-0.064-0.265-0.098-0.551-0.098-0.859
		c0-0.885,0.284-1.596,0.854-2.132c0.572-0.536,1.332-0.804,2.277-0.804c0.938,0,1.697,0.26,2.278,0.779
		c0.572,0.523,0.858,1.219,0.858,2.083c0,0.873-0.278,1.562-0.834,2.07c-0.553,0.504-1.318,0.756-2.297,0.756L9.465,245.71z
		 M10.586,244.303c0.73-0.191,1.096-0.651,1.096-1.382c0-0.167-0.025-0.324-0.075-0.47c-0.052-0.146-0.125-0.279-0.22-0.398
		c-0.096-0.12-0.21-0.223-0.344-0.309c-0.134-0.085-0.286-0.149-0.457-0.194V244.303L10.586,244.303z"/>
	<path fill="#010101" d="M12.753,247.208v1.371h-0.529c0.264,0.251,0.445,0.475,0.542,0.669c0.102,0.199,0.152,0.435,0.152,0.707
		c0,0.361-0.118,0.738-0.353,1.133l-1.256-0.628c0.188-0.26,0.28-0.513,0.28-0.761c0-0.747-0.564-1.12-1.694-1.12H6.82v-1.371
		H12.753z"/>
</g>
<path fill="#939598" d="M12.031,15.596H8.005l-1.048,2.285H5.428l4.654-9.997l4.49,9.997h-1.554L12.031,15.596z M11.452,14.262
	l-1.395-3.198l-1.462,3.198H11.452z"/>
<path fill="#939598" d="M9.692,23.854l2.912,4.008h-1.735l-2.687-3.85H7.926v3.85H6.507v-9.406H8.17
	c1.242,0,2.141,0.233,2.693,0.701c0.608,0.52,0.913,1.206,0.913,2.059c0,0.666-0.19,1.239-0.572,1.718
	C10.821,23.413,10.317,23.72,9.692,23.854z M7.926,22.775h0.45c1.345,0,2.017-0.514,2.017-1.541c0-0.963-0.653-1.444-1.961-1.444
	H7.926V22.775z"/>
<path fill="#939598" d="M13.458,28.94v1.678c-0.821-0.686-1.67-1.03-2.548-1.03c-0.966,0-1.78,0.348-2.442,1.042
	c-0.666,0.69-0.999,1.535-0.999,2.534c0,0.987,0.333,1.819,0.999,2.498c0.666,0.678,1.482,1.017,2.449,1.017
	c0.5,0,0.924-0.081,1.273-0.243c0.195-0.082,0.396-0.191,0.605-0.329c0.21-0.138,0.43-0.304,0.661-0.5v1.715
	c-0.812,0.461-1.665,0.692-2.559,0.692c-1.345,0-2.492-0.469-3.442-1.408c-0.946-0.946-1.419-2.087-1.419-3.423
	c0-1.198,0.396-2.267,1.188-3.205c0.974-1.149,2.235-1.724,3.782-1.724C11.854,28.255,12.669,28.483,13.458,28.94z"/>
<path fill="#939598" d="M7.926,42.099h4.058v-3.68h1.42v9.406h-1.42v-4.393H7.926v4.393H6.507v-9.406h1.419V42.099z"/>
<path fill="#939598" d="M7.926,48.4v9.406H6.507V48.4H7.926z"/>
<path fill="#939598" d="M9.102,59.716v8.072h-1.42v-8.072H5.52v-1.334h5.738v1.334H9.102z"/>
<path fill="#939598" d="M11.697,69.697H7.926v2.26h3.661v1.334H7.926v3.144h3.771v1.334h-5.19v-9.406h5.19V69.697z"/>
<path fill="#939598" d="M13.458,78.847v1.678c-0.821-0.686-1.67-1.03-2.548-1.03c-0.966,0-1.78,0.348-2.442,1.042
	c-0.666,0.69-0.999,1.535-0.999,2.534c0,0.987,0.333,1.82,0.999,2.499c0.666,0.678,1.482,1.017,2.449,1.017
	c0.5,0,0.924-0.081,1.273-0.243c0.195-0.081,0.396-0.191,0.605-0.329c0.21-0.138,0.43-0.305,0.661-0.5v1.715
	c-0.812,0.462-1.665,0.692-2.559,0.692c-1.345,0-2.492-0.469-3.442-1.408c-0.946-0.946-1.419-2.087-1.419-3.423
	c0-1.198,0.396-2.266,1.188-3.205c0.974-1.149,2.235-1.723,3.782-1.723C11.854,78.161,12.669,78.39,13.458,78.847z"/>
<path fill="#939598" d="M9.102,89.66v8.072h-1.42V89.66H5.52v-1.334h5.738v1.334H9.102z"/>
<path fill="#939598" d="M7.926,98.307v5.661c0,0.808,0.132,1.399,0.396,1.772c0.395,0.54,0.949,0.809,1.664,0.809
	c0.719,0,1.275-0.269,1.669-0.809c0.265-0.361,0.396-0.952,0.396-1.772v-5.661h1.42v6.056c0,0.99-0.31,1.807-0.926,2.448
	c-0.694,0.716-1.548,1.072-2.559,1.072c-1.012,0-1.862-0.357-2.553-1.072c-0.618-0.641-0.926-1.458-0.926-2.448v-6.056H7.926z"/>
<path fill="#010101" d="M9.692,113.686l2.912,4.009h-1.735l-2.687-3.851H7.926v3.851H6.507v-9.406H8.17
	c1.242,0,2.141,0.233,2.693,0.7c0.608,0.52,0.913,1.206,0.913,2.059c0,0.667-0.19,1.238-0.572,1.718
	C10.821,113.245,10.317,113.552,9.692,113.686z M7.926,112.607h0.45c1.345,0,2.017-0.514,2.017-1.541
	c0-0.963-0.653-1.443-1.961-1.443H7.926V112.607z"/>
<path fill="#939598" d="M11.697,119.604H7.926v2.26h3.661v1.334H7.926v3.144h3.771v1.334h-5.19v-9.406h5.19V119.604z"/>
</svg>
