<?xml version="1.0" encoding="utf-8"?>
<!-- Generator: Adobe Illustrator 16.0.0, SVG Export Plug-In . SVG Version: 6.00 Build 0)  -->
<!DOCTYPE svg PUBLIC "-//W3C//DTD SVG 1.1//EN" "http://www.w3.org/Graphics/SVG/1.1/DTD/svg11.dtd">
<svg version="1.1" id="Layer_1" xmlns="http://www.w3.org/2000/svg" xmlns:xlink="http://www.w3.org/1999/xlink" x="0px" y="0px"
	 width="20px" height="260px" viewBox="0 0 20 260" enable-background="new 0 0 20 260" xml:space="preserve">
<rect fill="#4DBB97" width="20" height="260"/>
<g>
	<path fill="#027B52" d="M13.02,11.121l0.492-0.187V9.767L13.02,9.58V9.072l2.545,1v0.557l-2.545,1V11.121z M15.117,10.351
		l-1.213-0.458v0.915L15.117,10.351z"/>
	<path fill="#027B52" d="M13.02,13.866l1.819-1.328H13.02v-0.446h2.545v0.457l-1.762,1.301h1.762v0.446H13.02V13.866z"/>
	<path fill="#027B52" d="M13.02,16.202h2.545v0.446H13.02V16.202z"/>
	<path fill="#027B52" d="M13.02,19.154l1.819-1.328H13.02v-0.446h2.545v0.458l-1.762,1.3h1.762v0.446H13.02V19.154z"/>
	<path fill="#027B52" d="M13.02,20.923h2.151v-0.771h0.394v1.987h-0.394v-0.77H13.02V20.923z"/>
	<path fill="#027B52" d="M13.02,24.16l0.95-0.561v-0.446h-0.95v-0.447h2.545v1.118c0,0.503-0.324,0.836-0.798,0.836
		c-0.45,0-0.697-0.298-0.748-0.607l-0.999,0.625V24.16L13.02,24.16z M14.77,24.202c0.244,0,0.401-0.183,0.401-0.435v-0.614h-0.809
		v0.614C14.362,24.019,14.522,24.202,14.77,24.202z"/>
	<path fill="#027B52" d="M14.29,25.185c0.758,0,1.316,0.538,1.316,1.301c0,0.759-0.559,1.301-1.316,1.301
		c-0.759,0-1.317-0.542-1.317-1.301C12.973,25.722,13.531,25.185,14.29,25.185z M14.29,27.329c0.525,0,0.918-0.332,0.918-0.843
		c0-0.515-0.393-0.843-0.918-0.843c-0.523,0-0.92,0.329-0.92,0.843C13.37,26.997,13.767,27.329,14.29,27.329z"/>
	<path fill="#027B52" d="M13.02,28.403h2.545v0.946c0,0.797-0.527,1.332-1.271,1.332c-0.752,0-1.274-0.534-1.274-1.328V28.403
		L13.02,28.403z M14.293,30.222c0.488,0,0.878-0.305,0.878-0.87V28.85h-1.76v0.499C13.411,29.902,13.81,30.222,14.293,30.222z"/>
	<path fill="#027B52" d="M14.026,31.3h1.537v0.454h-1.525c-0.404,0-0.668,0.225-0.668,0.649c0,0.423,0.264,0.648,0.668,0.648h1.525
		v0.454h-1.537c-0.63,0-1.054-0.362-1.054-1.102C12.973,31.667,13.396,31.3,14.026,31.3z"/>
	<path fill="#027B52" d="M14.29,34.125c0.786,0,1.316,0.584,1.316,1.335c0,0.511-0.264,0.831-0.569,1.019l-0.198-0.378
		c0.214-0.122,0.369-0.371,0.369-0.641c0-0.503-0.381-0.877-0.918-0.877c-0.53,0-0.92,0.374-0.92,0.877
		c0,0.27,0.161,0.519,0.37,0.641l-0.191,0.382c-0.305-0.194-0.576-0.511-0.576-1.022C12.973,34.709,13.508,34.125,14.29,34.125z"/>
	<path fill="#027B52" d="M13.02,37.633h2.151v-0.771h0.394v1.988h-0.394v-0.772H13.02V37.633z"/>
	<path fill="#027B52" d="M13.02,39.417h2.545v0.446H13.02V39.417z"/>
	<path fill="#027B52" d="M14.29,40.485c0.758,0,1.316,0.538,1.316,1.299c0,0.76-0.559,1.302-1.316,1.302
		c-0.759,0-1.317-0.542-1.317-1.302C12.973,41.022,13.531,40.485,14.29,40.485z M14.29,42.628c0.525,0,0.918-0.333,0.918-0.844
		c0-0.515-0.393-0.842-0.918-0.842c-0.523,0-0.92,0.327-0.92,0.842C13.37,42.296,13.767,42.628,14.29,42.628z"/>
	<path fill="#027B52" d="M13.02,45.477l1.819-1.328H13.02v-0.446h2.545v0.458l-1.762,1.301h1.762v0.446H13.02V45.477z"/>
	<path fill="#027B52" d="M13.02,48.418h2.151v-0.771h0.394v1.987h-0.394v-0.77H13.02V48.418z"/>
	<path fill="#027B52" d="M14.29,49.997c0.758,0,1.316,0.538,1.316,1.3c0,0.76-0.559,1.302-1.316,1.302
		c-0.759,0-1.317-0.542-1.317-1.302C12.973,50.534,13.531,49.997,14.29,49.997z M14.29,52.141c0.525,0,0.918-0.332,0.918-0.844
		c0-0.515-0.393-0.842-0.918-0.842c-0.523,0-0.92,0.327-0.92,0.842C13.37,51.809,13.767,52.141,14.29,52.141z"/>
</g>
<g>
	<path fill="#F1F6F4" d="M4.473,13.827l4.459-3.26H4.473V9.112h6.837v1.497l-4.294,3.167h4.294v1.455H4.473V13.827z"/>
	<path fill="#F1F6F4" d="M6.954,16.233c1.436,0,2.593,1.066,2.593,2.563c0,1.486-1.106,2.48-2.716,2.48H6.523v-3.68
		c-0.605,0.092-1.107,0.584-1.107,1.425c0,0.42,0.175,0.994,0.481,1.312l-0.86,0.584c-0.451-0.492-0.687-1.271-0.687-2.041
		C4.351,17.372,5.365,16.233,6.954,16.233z M8.482,18.796c0-0.81-0.564-1.159-1.056-1.209v2.439
		C7.897,19.985,8.482,19.657,8.482,18.796z"/>
	<path fill="#F1F6F4" d="M4.473,25.559h0.626c-0.37-0.338-0.749-0.932-0.749-1.742c0-1.086,0.595-1.599,1.559-1.599h3.515v1.301
		H6.421c-0.687,0-0.913,0.358-0.913,0.912c0,0.502,0.277,0.902,0.564,1.127h3.351v1.302H4.473V25.559L4.473,25.559z"/>
	<path fill="#F1F6F4" d="M4.473,28.151h4.951v1.302H8.757c0.431,0.358,0.79,0.963,0.79,1.578H8.276
		c0.021-0.092,0.03-0.205,0.03-0.359c0-0.431-0.245-1.004-0.563-1.219H4.473V28.151L4.473,28.151z"/>
	<path fill="#F1F6F4" d="M4.473,34.812h0.523C4.586,34.475,4.35,33.89,4.35,33.244c0-0.789,0.533-1.711,1.64-1.711
		c1.169,0,1.6,0.922,1.6,1.711c0,0.667-0.216,1.24-0.605,1.568H7.61c0.502,0,0.831-0.431,0.831-1.087
		c0-0.522-0.205-1.015-0.584-1.425l0.912-0.512c0.543,0.604,0.779,1.384,0.779,2.163c0,1.138-0.451,2.172-1.876,2.172H4.475v-1.312
		H4.473z M5.663,34.812h0.615c0.287-0.215,0.44-0.625,0.44-1.046c0-0.513-0.277-0.933-0.749-0.933s-0.738,0.42-0.738,0.933
		C5.232,34.187,5.376,34.597,5.663,34.812z"/>
	<path fill="#F1F6F4" d="M4.473,37.403h6.837v1.302H4.473V37.403z"/>
	<path fill="#F1F6F4" d="M5.437,42.189l1.138,0.799c-0.502,0.481-0.933,1.231-0.933,2.173c0,0.81,0.359,1.19,0.758,1.19
		c1.189,0,0.359-3.937,2.932-3.937c1.137,0,2.081,0.984,2.081,2.594c0,1.086-0.328,1.988-0.954,2.664l-1.086-0.809
		c0.513-0.554,0.748-1.292,0.748-1.989c0-0.615-0.267-0.962-0.676-0.962c-1.077,0-0.349,3.924-2.901,3.924
		c-1.25,0-2.192-0.902-2.192-2.736C4.351,43.777,4.792,42.834,5.437,42.189z"/>
	<path fill="#F1F6F4" d="M6.954,48.461c1.517,0,2.593,1.106,2.593,2.623c0,1.015-0.44,1.63-0.892,1.958l-0.8-0.851
		c0.349-0.236,0.534-0.595,0.534-1.045c0-0.79-0.575-1.344-1.436-1.344c-0.86,0-1.445,0.554-1.445,1.344
		c0,0.451,0.205,0.809,0.543,1.045l-0.799,0.851c-0.451-0.328-0.902-0.942-0.902-1.958C4.351,49.567,5.427,48.461,6.954,48.461z"/>
	<path fill="#F1F6F4" d="M10.736,53.768c0.43,0,0.77,0.348,0.77,0.769c0,0.431-0.34,0.778-0.77,0.778
		c-0.43,0-0.778-0.348-0.778-0.778C9.957,54.116,10.306,53.768,10.736,53.768z M4.473,53.891h4.951v1.302H4.473V53.891z"/>
	<path fill="#F1F6F4" d="M6.954,56.166c1.436,0,2.593,1.065,2.593,2.562c0,1.487-1.106,2.481-2.716,2.481H6.523v-3.68
		c-0.605,0.092-1.107,0.584-1.107,1.425c0,0.42,0.175,0.995,0.481,1.312l-0.86,0.583c-0.451-0.492-0.687-1.271-0.687-2.039
		C4.351,57.303,5.365,56.166,6.954,56.166z M8.482,58.728c0-0.81-0.564-1.158-1.056-1.209v2.439
		C7.897,59.917,8.482,59.589,8.482,58.728z"/>
	<path fill="#F1F6F4" d="M4.473,65.491h2.994c0.687,0,0.923-0.358,0.923-0.913c0-0.512-0.288-0.902-0.575-1.127H4.473v-1.302h4.951
		v1.302H8.788c0.369,0.318,0.759,0.933,0.759,1.732c0,1.096-0.615,1.62-1.58,1.62H4.473V65.491L4.473,65.491z"/>
	<path fill="#F1F6F4" d="M6.954,67.766c1.517,0,2.593,1.107,2.593,2.623c0,1.016-0.44,1.63-0.892,1.958l-0.8-0.851
		C8.205,71.26,8.39,70.901,8.39,70.45c0-0.789-0.575-1.342-1.436-1.342c-0.86,0-1.445,0.553-1.445,1.342
		c0,0.451,0.205,0.81,0.543,1.046l-0.799,0.851c-0.451-0.328-0.902-0.942-0.902-1.958C4.351,68.873,5.427,67.766,6.954,67.766z"/>
	<path fill="#F1F6F4" d="M6.954,72.878c1.436,0,2.593,1.066,2.593,2.563c0,1.486-1.106,2.48-2.716,2.48H6.523v-3.68
		c-0.605,0.092-1.107,0.584-1.107,1.426c0,0.419,0.175,0.994,0.481,1.311l-0.86,0.584c-0.451-0.493-0.687-1.271-0.687-2.04
		C4.351,74.016,5.365,72.878,6.954,72.878z M8.482,75.441c0-0.81-0.564-1.159-1.056-1.21v2.44
		C7.897,76.629,8.482,76.301,8.482,75.441z"/>
</g>
<g>
	<path fill="#F7F8F8" d="M9.045,209.965l0.363,0.264c-0.195,0.181-0.371,0.473-0.371,0.843c0,0.385,0.188,0.532,0.366,0.532
		c0.561,0,0.213-1.551,1.191-1.551c0.444,0,0.784,0.384,0.784,0.972c0,0.412-0.137,0.751-0.375,0.996l-0.348-0.264
		c0.212-0.212,0.308-0.496,0.308-0.775c0-0.271-0.136-0.447-0.332-0.447c-0.5,0-0.19,1.551-1.185,1.551
		c-0.442,0-0.826-0.316-0.826-1.032C8.622,210.561,8.797,210.205,9.045,209.965z"/>
	<path fill="#F7F8F8" d="M11.096,212.652c0.145,0,0.262,0.116,0.262,0.261c0,0.144-0.117,0.26-0.262,0.26
		c-0.143,0-0.259-0.116-0.259-0.26C10.836,212.769,10.953,212.652,11.096,212.652z M8.669,212.701h1.932v0.419H8.669V212.701z"/>
	<path fill="#F7F8F8" d="M8.669,216.234h1.26c0.207,0,0.348-0.092,0.348-0.319c0-0.188-0.127-0.364-0.256-0.448H8.669v-0.42h1.26
		c0.207,0,0.348-0.088,0.348-0.316c0-0.188-0.131-0.358-0.256-0.448H8.669v-0.419h1.932v0.419H10.34
		c0.116,0.084,0.308,0.337,0.308,0.633c0,0.288-0.144,0.464-0.352,0.527c0.172,0.108,0.352,0.364,0.352,0.656
		c0,0.353-0.19,0.556-0.582,0.556H8.669V216.234z"/>
	<path fill="#F7F8F8" d="M9.637,217.285c0.556,0,1.011,0.376,1.011,0.991c0,0.616-0.455,0.991-1.011,0.991
		c-0.552,0-1.016-0.375-1.016-0.991C8.622,217.661,9.085,217.285,9.637,217.285z M9.637,218.832c0.341,0,0.64-0.196,0.64-0.557
		c0-0.355-0.299-0.556-0.64-0.556c-0.344,0-0.644,0.2-0.644,0.556C8.994,218.636,9.293,218.832,9.637,218.832z"/>
	<path fill="#F7F8F8" d="M8.669,221.204h1.207c0.304,0,0.4-0.156,0.4-0.393c0-0.212-0.129-0.396-0.256-0.496H8.668v-0.419h1.931
		v0.419h-0.26c0.152,0.128,0.309,0.38,0.309,0.685c0,0.416-0.225,0.624-0.619,0.624H8.669V221.204z"/>
	<path fill="#F7F8F8" d="M8.669,225.483l0.516-0.195v-1.224l-0.516-0.195v-0.532l2.667,1.047v0.584l-2.667,1.047V225.483z
		 M10.869,224.676l-1.271-0.479v0.959L10.869,224.676z"/>
	<path fill="#F7F8F8" d="M8.669,226.493h2.667v0.419h-1.003c0.208,0.156,0.315,0.38,0.315,0.619c0,0.5-0.389,0.861-1.012,0.861
		c-0.64,0-1.016-0.365-1.016-0.861c0-0.247,0.119-0.471,0.312-0.619H8.668L8.669,226.493L8.669,226.493z M8.994,227.412
		c0,0.332,0.268,0.543,0.644,0.543c0.371,0,0.64-0.212,0.64-0.543c0-0.2-0.115-0.404-0.26-0.5H9.25
		C9.105,227.008,8.994,227.212,8.994,227.412z"/>
	<path fill="#F7F8F8" d="M8.669,229.018h1.932v0.418h-0.279c0.184,0.148,0.326,0.381,0.326,0.629h-0.414
		c0.008-0.037,0.012-0.076,0.012-0.129c0-0.18-0.12-0.416-0.26-0.5H8.67L8.669,229.018L8.669,229.018z"/>
	<path fill="#F7F8F8" d="M8.669,231.788h0.212c-0.168-0.144-0.26-0.372-0.26-0.627c0-0.312,0.216-0.668,0.64-0.668
		c0.447,0,0.633,0.352,0.633,0.668c0,0.264-0.084,0.483-0.248,0.627h0.287c0.225,0,0.359-0.188,0.359-0.452
		c0-0.216-0.08-0.408-0.248-0.572l0.292-0.176c0.216,0.225,0.312,0.504,0.312,0.812c0,0.432-0.18,0.808-0.694,0.808H8.67
		L8.669,231.788L8.669,231.788z M9.109,231.788h0.295c0.133-0.101,0.201-0.28,0.201-0.459c0-0.236-0.141-0.416-0.349-0.416
		c-0.212,0-0.349,0.18-0.349,0.416C8.91,231.508,8.978,231.689,9.109,231.788z"/>
	<path fill="#F7F8F8" d="M8.669,235.322h1.26c0.207,0,0.348-0.092,0.348-0.319c0-0.188-0.127-0.364-0.256-0.448H8.669v-0.42h1.26
		c0.207,0,0.348-0.088,0.348-0.316c0-0.188-0.131-0.358-0.256-0.447H8.669v-0.419h1.932v0.419H10.34
		c0.116,0.084,0.308,0.336,0.308,0.632c0,0.288-0.144,0.464-0.352,0.528c0.172,0.107,0.352,0.363,0.352,0.656
		c0,0.352-0.19,0.556-0.582,0.556H8.669V235.322z"/>
	<path fill="#F7F8F8" d="M9.637,236.373c0.556,0,1.011,0.376,1.011,0.992c0,0.615-0.455,0.99-1.011,0.99
		c-0.552,0-1.016-0.375-1.016-0.99C8.622,236.749,9.085,236.373,9.637,236.373z M9.637,237.92c0.341,0,0.64-0.195,0.64-0.557
		c0-0.355-0.299-0.555-0.64-0.555c-0.344,0-0.644,0.199-0.644,0.555C8.994,237.725,9.293,237.92,9.637,237.92z"/>
	<path fill="#F7F8F8" d="M8.669,239.493l1.932-0.788v0.451l-1.447,0.563l1.447,0.564v0.448l-1.932-0.789V239.493z"/>
	<path fill="#F7F8F8" d="M11.096,241.148c0.145,0,0.262,0.117,0.262,0.261s-0.117,0.26-0.262,0.26c-0.143,0-0.259-0.116-0.259-0.26
		S10.953,241.148,11.096,241.148z M8.669,241.197h1.932v0.418H8.669V241.197z"/>
	<path fill="#F7F8F8" d="M9.637,242.245c0.583,0,1.011,0.411,1.011,0.995c0,0.381-0.158,0.604-0.344,0.74l-0.252-0.275
		c0.152-0.107,0.225-0.256,0.225-0.444c0-0.348-0.264-0.583-0.64-0.583s-0.644,0.236-0.644,0.583c0,0.188,0.078,0.337,0.23,0.444
		l-0.26,0.275c-0.18-0.136-0.344-0.359-0.344-0.74C8.622,242.656,9.053,242.245,9.637,242.245z"/>
	<path fill="#F7F8F8" d="M8.669,245.859h1.215c0.305,0,0.393-0.151,0.393-0.387c0-0.217-0.127-0.4-0.256-0.496H8.669v-0.42h2.667
		v0.42H10.34c0.152,0.127,0.308,0.375,0.308,0.678c0,0.416-0.215,0.625-0.61,0.625H8.67L8.669,245.859L8.669,245.859z"/>
</g>
</svg>
