<?xml version="1.0" encoding="utf-8"?>
<!-- Generator: Adobe Illustrator 16.0.0, SVG Export Plug-In . SVG Version: 6.00 Build 0)  -->
<!DOCTYPE svg PUBLIC "-//W3C//DTD SVG 1.1//EN" "http://www.w3.org/Graphics/SVG/1.1/DTD/svg11.dtd">
<svg version="1.1" id="Layer_1" xmlns="http://www.w3.org/2000/svg" xmlns:xlink="http://www.w3.org/1999/xlink" x="0px" y="0px"
	 width="20px" height="260px" viewBox="120 -120 20 260" enable-background="new 120 -120 20 260" xml:space="preserve">
<rect x="120" y="-120" fill="#EBC989" width="20" height="260"/>
<g>
	<g>
		<path fill="#010101" d="M129.195-93.954c0,0.041-0.02,0.062-0.081,0.062c-0.33,0.021-0.72,0.103-1.171,0.39
			c-0.492,0.308-0.738,0.841-0.738,1.355c0,0.554,0.35,1.333,1.201,1.333c0.943,0,1.252-0.431,1.663-1.519
			c0.123-0.329,0.411-1.006,0.863-1.499c0.327-0.349,0.84-0.514,1.467-0.514c0.574,0,1.047,0.227,1.438,0.719
			c0.35,0.41,0.493,0.862,0.493,1.458c0,0.678-0.164,1.088-0.246,1.293c-0.042,0.103-0.021,0.164,0.03,0.216l0.134,0.133
			c0.041,0.041,0.062,0.082,0.062,0.144s-0.062,0.083-0.164,0.083c-0.164,0-1.602,0.164-1.705,0.164
			c-0.041,0-0.062-0.02-0.072-0.061l-0.051-0.165c-0.01-0.041,0-0.082,0.062-0.103c0.287-0.101,0.698-0.265,1.087-0.635
			c0.288-0.267,0.431-0.595,0.431-1.067c0-0.822-0.656-1.15-1.037-1.15c-0.348,0-0.656,0.041-0.922,0.288
			c-0.269,0.267-0.515,0.841-0.638,1.252c-0.184,0.595-0.389,1.088-0.8,1.478c-0.349,0.329-0.78,0.514-1.468,0.514
			c-1.253,0-2.278-0.821-2.278-2.176c0-0.842,0.186-1.335,0.493-1.746c0.082-0.124,0.123-0.185,0.123-0.247
			s-0.083-0.103-0.187-0.164c-0.102-0.062-0.123-0.103-0.123-0.185c0-0.083,0.062-0.124,0.164-0.124
			c0.123,0.021,1.787,0.164,1.91,0.185c0.061,0.01,0.083,0.02,0.083,0.061L129.195-93.954z"/>
		<path fill="#010101" d="M130.624-88.853c0-0.083,0.041-0.143,0.144-0.143c0.082,0,0.145,0.061,0.194,0.194
			c0.103,0.287,0.862,1.181,1.293,1.406c0.082,0.042,0.103,0.103,0.103,0.165c0,0.082-0.062,0.123-0.144,0.123l-1.017-0.041v1.355
			c0,0.061-0.041,0.083-0.082,0.072l-0.432-0.103c-0.041-0.01-0.062-0.041-0.062-0.103v-1.242c-0.43-0.019-0.922-0.03-1.372-0.03
			h-0.925c-0.8,0-0.964,0.339-0.964,0.544c0,0.226,0.051,0.451,0.123,0.596c0.029,0.07,0.029,0.102-0.021,0.122l-0.124,0.062
			c-0.062,0.021-0.103,0-0.144-0.042c-0.104-0.143-0.41-0.574-0.41-1.293c0-0.616,0.49-1.078,0.924-1.078
			c0.369,0,1.189,0.03,1.581,0.03h1.334V-88.853L130.624-88.853z"/>
		<path fill="#010101" d="M129.545-84.778c0.472,0,0.636-0.082,0.801-0.39l0.103-0.185c0.019-0.062,0.041-0.083,0.082-0.083h0.061
			c0.041,0,0.062,0.021,0.092,0.083l0.586,1.241c0.021,0.062,0.041,0.103,0.041,0.165s-0.062,0.082-0.123,0.093l-0.759,0.092v0.042
			c0.574,0.349,0.923,0.78,0.923,1.232c0,0.328-0.226,0.534-0.513,0.534s-0.554-0.288-0.554-0.555c0-0.144,0.041-0.267,0.082-0.349
			c0.062-0.082,0.083-0.185,0.083-0.287c0-0.124-0.083-0.309-0.298-0.432c-0.144-0.082-0.37-0.124-0.503-0.124h-1.961
			c-0.328,0-0.433,0.083-0.433,0.288v0.451c0,0.062-0.019,0.083-0.069,0.083h-0.236c-0.051,0-0.072-0.021-0.072-0.072
			c0-0.072,0.03-0.523,0.03-1.272c0-0.718-0.03-1.119-0.03-1.201c0-0.052,0.021-0.072,0.072-0.072h0.227
			c0.062,0,0.08,0.02,0.08,0.092v0.359c0,0.164,0.084,0.267,0.278,0.267H129.545L129.545-84.778z"/>
		<path fill="#010101" d="M127.482-78.271v-0.061c-0.371-0.226-0.698-0.821-0.698-1.355c0-0.37,0-0.698,0.452-1.058
			c0.481-0.369,0.861-0.38,1.438-0.38c0.491,0,0.851,0.011,1.067,0.011c0.246,0,0.616,0,0.739-0.021
			c0.256-0.031,0.349-0.174,0.37-0.359c0.021-0.164,0.021-0.226,0.082-0.226h0.185c0.062,0,0.082,0.021,0.082,0.123v1.232
			c0,0.062,0.011,0.114,0.021,0.154c0.01,0.042,0.021,0.082,0.021,0.113c0,0.062-0.062,0.103-0.123,0.103
			c-0.104,0-0.575-0.041-1.284-0.041h-0.646c-0.412,0-1.109-0.071-1.541,0.206c-0.308,0.205-0.287,0.431-0.287,0.657
			c0,0.246,0.166,0.554,0.391,0.719c0.062,0.041,0.206,0.113,0.329,0.113h2.421c0.268,0,0.328-0.195,0.35-0.441
			c0.021-0.186,0.041-0.206,0.082-0.206h0.185c0.071,0,0.082,0.031,0.082,0.124v1.273c0,0.072,0.011,0.124,0.021,0.174
			c0.01,0.052,0.021,0.092,0.021,0.133c0,0.062-0.061,0.083-0.104,0.083c-0.103,0-0.369-0.062-1.386-0.062h-0.75
			c-0.491,0-0.985,0-1.19,0.021c-0.308,0.041-0.349,0.143-0.349,0.225c0,0.062,0,0.205,0.021,0.329c0.011,0.083,0,0.113-0.041,0.123
			l-0.164,0.031c-0.062,0.01-0.082-0.011-0.092-0.052l-0.36-1.273c-0.021-0.062-0.041-0.123-0.041-0.205s0.041-0.133,0.123-0.143
			L127.482-78.271z"/>
		<path fill="#010101" d="M127.697-72.256c-0.029,0.032-0.071,0.042-0.122,0c-0.318-0.256-0.791-0.975-0.791-1.734
			c0-0.698,0.185-1.252,0.678-1.643c0.493-0.391,0.903-0.493,1.417-0.493c0.646,0,1.365,0.247,1.837,0.759
			c0.39,0.431,0.597,0.924,0.597,1.499c0,1.191-0.617,1.458-0.924,1.458c-0.247,0-0.452-0.165-0.452-0.452
			c0-0.349,0.246-0.513,0.514-0.616c0.349-0.144,0.42-0.37,0.42-0.637c0-0.411-0.461-0.924-1.19-0.924
			c-0.616,0-1.038,0.02-1.663,0.4c-0.453,0.277-0.555,0.729-0.555,1.057c0,0.513,0.174,0.832,0.391,1.109
			c0.021,0.021,0.021,0.062-0.012,0.092L127.697-72.256z"/>
		<path fill="#010101" d="M130.624-71.856c0-0.082,0.041-0.144,0.144-0.144c0.082,0,0.145,0.062,0.194,0.196
			c0.103,0.287,0.862,1.18,1.293,1.406c0.082,0.042,0.103,0.104,0.103,0.165c0,0.082-0.062,0.124-0.144,0.124l-1.017-0.042v1.355
			c0,0.062-0.041,0.082-0.082,0.072l-0.432-0.104c-0.041-0.011-0.062-0.042-0.062-0.103v-1.243c-0.432-0.02-0.924-0.03-1.375-0.03
			h-0.925c-0.801,0-0.965,0.339-0.965,0.544c0,0.225,0.052,0.451,0.123,0.595c0.03,0.072,0.03,0.103-0.021,0.123l-0.124,0.061
			c-0.062,0.021-0.104,0-0.143-0.04c-0.104-0.144-0.411-0.575-0.411-1.294c0-0.616,0.491-1.077,0.924-1.077
			c0.369,0,1.188,0.03,1.581,0.03h1.337V-71.856L130.624-71.856z"/>
		<path fill="#010101" d="M127.482-65.133v-0.062c-0.371-0.226-0.698-0.821-0.698-1.355c0-0.369,0-0.698,0.452-1.058
			c0.481-0.369,0.861-0.379,1.438-0.379c0.491,0,0.851,0.01,1.067,0.01c0.246,0,0.616,0,0.739-0.02
			c0.256-0.031,0.349-0.175,0.37-0.359c0.021-0.165,0.021-0.227,0.082-0.227h0.185c0.062,0,0.082,0.021,0.082,0.124v1.232
			c0,0.062,0.011,0.113,0.021,0.154c0.01,0.042,0.021,0.083,0.021,0.113c0,0.062-0.062,0.102-0.123,0.102
			c-0.104,0-0.575-0.041-1.284-0.041h-0.646c-0.412,0-1.109-0.073-1.541,0.206c-0.308,0.205-0.287,0.431-0.287,0.656
			c0,0.247,0.166,0.555,0.391,0.719c0.062,0.041,0.206,0.112,0.329,0.112h2.421c0.268,0,0.328-0.194,0.35-0.441
			c0.021-0.184,0.041-0.205,0.082-0.205h0.185c0.071,0,0.082,0.031,0.082,0.124v1.272c0,0.072,0.011,0.123,0.021,0.175
			c0.01,0.05,0.021,0.092,0.021,0.133c0,0.062-0.061,0.082-0.104,0.082c-0.103,0-0.369-0.061-1.386-0.061h-0.75
			c-0.491,0-0.985,0-1.19,0.021c-0.308,0.041-0.349,0.144-0.349,0.225c0,0.062,0,0.206,0.021,0.329c0.011,0.082,0,0.113-0.041,0.123
			l-0.164,0.03c-0.062,0.011-0.082-0.01-0.092-0.051l-0.36-1.273c-0.021-0.062-0.041-0.123-0.041-0.205
			c0-0.083,0.041-0.133,0.123-0.144L127.482-65.133z"/>
		<path fill="#010101" d="M129.545-62.382c0.472,0,0.636-0.083,0.801-0.391l0.103-0.185c0.019-0.061,0.041-0.082,0.082-0.082h0.061
			c0.041,0,0.062,0.021,0.092,0.083l0.586,1.242c0.021,0.061,0.041,0.103,0.041,0.164c0,0.062-0.062,0.083-0.123,0.093l-0.759,0.092
			v0.042c0.574,0.349,0.923,0.78,0.923,1.231c0,0.329-0.226,0.534-0.513,0.534s-0.554-0.288-0.554-0.555
			c0-0.144,0.041-0.267,0.082-0.349c0.062-0.082,0.083-0.184,0.083-0.287c0-0.124-0.083-0.308-0.298-0.431
			c-0.144-0.083-0.37-0.124-0.503-0.124h-1.961c-0.328,0-0.433,0.082-0.433,0.288v0.451c0,0.062-0.019,0.083-0.069,0.083h-0.236
			c-0.051,0-0.072-0.021-0.072-0.072c0-0.072,0.03-0.523,0.03-1.273c0-0.719-0.03-1.119-0.03-1.201c0-0.052,0.021-0.072,0.072-0.072
			h0.227c0.062,0,0.08,0.02,0.08,0.092v0.36c0,0.164,0.084,0.267,0.278,0.267H129.545L129.545-62.382z"/>
		<path fill="#010101" d="M129.186-58.349c-1.047,0-1.662,0.749-1.662,1.334c0,0.636,0.266,1.026,0.596,1.243
			c0.07,0.04,0.07,0.081,0.051,0.122l-0.093,0.154c-0.03,0.052-0.071,0.072-0.205,0c-0.39-0.214-1.088-0.738-1.088-1.868
			c0-0.657,0.144-1.119,0.555-1.478c0.544-0.472,1.058-0.576,1.692-0.576c0.565,0,0.946,0.062,1.521,0.503
			c0.554,0.431,0.761,0.893,0.761,1.786c0,1.17-1.224,1.55-1.645,1.55c-0.153,0-0.163-0.103-0.163-0.288v-2.484h-0.319V-58.349z
			 M129.875-57.076c0,0.216,0.062,0.339,0.144,0.339c0.308,0,0.915-0.103,0.915-0.637c0-0.503-0.371-0.812-1.059-0.944V-57.076
			L129.875-57.076z"/>
	</g>
	<g>
		<path fill="#010101" d="M127.527-50.06c-0.233-0.216-0.4-0.472-0.53-0.855c-0.069-0.228-0.069-0.432-0.069-0.629
			c0-0.363,0.297-0.677,0.848-0.677c0.449,0,0.896,0.194,1.209,0.903c0.295,0.61,0.453,0.983,0.609,1.199h0.51
			c0.196-0.018,0.432-0.039,0.55-0.157c0.107-0.1,0.147-0.275,0.147-0.491c0-0.178-0.06-0.413-0.179-0.571
			c-0.098-0.137-0.244-0.039-0.48-0.039c-0.354,0-0.57-0.176-0.57-0.589c0-0.178,0.117-0.335,0.333-0.335
			c0.276,0,0.589,0.157,0.807,0.453c0.314,0.412,0.551,0.944,0.551,1.592c0,0.549-0.119,0.727-0.275,0.904
			c-0.197,0.216-0.471,0.234-0.736,0.234l-1.555,0.021h-0.471c-0.531,0-0.688,0.079-0.688,0.254c0,0.139,0.078,0.276,0.155,0.316
			c0.061,0.039,0.061,0.058,0.041,0.098l-0.077,0.119c-0.021,0.038-0.062,0.059-0.158,0.019c-0.176-0.099-0.572-0.333-0.572-0.904
			c0-0.375,0.181-0.689,0.601-0.825V-50.06L127.527-50.06z M129.229-50.12c-0.273-0.432-0.44-1.082-1.158-1.082
			c-0.403,0-0.6,0.215-0.6,0.454c0.021,0.274,0.295,0.628,0.471,0.628H129.229z"/>
		<path fill="#010101" d="M131.186-46.798c0.037,0.08,0.078,0.139,0.078,0.198c0,0.058-0.041,0.097-0.117,0.117l-0.512,0.079v0.059
			c0.137,0.117,0.295,0.296,0.395,0.491c0.136,0.235,0.234,0.493,0.234,0.787c0,0.333-0.059,0.648-0.234,0.865
			c-0.315,0.431-0.609,0.54-1.013,0.54H128.6c-0.312,0-0.746-0.009-0.94-0.009c-0.218,0-0.275,0.119-0.275,0.235v0.274
			c0,0.089-0.02,0.119-0.069,0.119h-0.226c-0.05,0-0.069-0.018-0.069-0.078c0-0.079,0.029-0.374,0.029-1.062
			c0-0.589-0.029-0.904-0.029-0.963c0-0.06,0.039-0.078,0.117-0.078h0.168c0.059,0,0.079,0.019,0.079,0.117v0.196
			c0,0.08,0.06,0.156,0.234,0.177c0.256,0.03,0.53,0.039,0.924,0.039h1.13c0.393,0,0.649-0.019,0.846-0.253
			c0.178-0.198,0.178-0.375,0.178-0.591c0-0.156-0.039-0.394-0.256-0.628c-0.156-0.157-0.433-0.206-0.698-0.206h-2.024
			c-0.218,0-0.333,0.049-0.333,0.186v0.176c0,0.079-0.021,0.098-0.089,0.098h-0.176c-0.061,0-0.102-0.019-0.102-0.077
			c0-0.061,0.03-0.335,0.03-0.924c0-0.61-0.03-0.925-0.03-0.984c0-0.038,0.041-0.059,0.102-0.059h0.186
			c0.059,0,0.079,0.021,0.079,0.099v0.196c0,0.119,0.039,0.254,0.195,0.254h2.211c0.295,0,0.452-0.176,0.571-0.411l0.038-0.08
			c0.021-0.059,0.059-0.078,0.099-0.078h0.077c0.04,0,0.079,0.04,0.099,0.099L131.186-46.798z"/>
		<path fill="#010101" d="M128.659-38.502c-0.373,0-0.767,0.02-0.866,0.098c-0.117,0.098-0.157,0.275-0.176,0.413
			c0,0.137-0.02,0.177-0.059,0.196l-0.117,0.019c-0.06,0.02-0.1,0-0.117-0.058l-0.377-1.317c-0.021-0.059,0.021-0.118,0.101-0.137
			l0.45-0.137c-0.333-0.315-0.57-0.924-0.57-1.375c0-0.384,0.12-0.815,0.483-1.18c0.401-0.413,0.813-0.61,1.444-0.61
			c0.679,0,1.229,0.178,1.779,0.688c0.413,0.394,0.629,0.864,0.629,1.455c0,0.374-0.06,0.688-0.14,0.925l1.909-0.032
			c0.333-0.01,0.471-0.087,0.568-0.618c0.021-0.061,0.041-0.08,0.08-0.08h0.178c0.039,0,0.059,0.019,0.076,0.08
			c0.061,0.491,0.119,1.14,0.179,1.396c0.02,0.117,0.038,0.176,0.038,0.255c0,0.039-0.059,0.078-0.176,0.059
			c-0.492-0.04-1.908-0.04-3.174-0.04H128.659L128.659-38.502z M129.947-39.524c0.157,0,0.335-0.02,0.472-0.1
			c0.245-0.137,0.462-0.452,0.462-0.865c0-0.235-0.061-0.491-0.294-0.678c-0.365-0.304-0.777-0.392-1.181-0.392
			c-1.12,0-1.926,0.6-1.926,1.209c0,0.394,0.194,0.648,0.353,0.746c0.119,0.061,0.235,0.081,0.392,0.081L129.947-39.524
			L129.947-39.524z"/>
	</g>
	<g>
		<path fill="#010101" d="M129.002-34.439c0,0.042-0.021,0.062-0.082,0.062c-0.327,0.021-0.717,0.103-1.17,0.39
			c-0.493,0.308-0.739,0.842-0.739,1.355c0,0.554,0.349,1.335,1.2,1.335c0.943,0,1.252-0.432,1.664-1.52
			c0.123-0.328,0.41-1.006,0.861-1.499c0.33-0.349,0.842-0.513,1.467-0.513c0.576,0,1.047,0.226,1.438,0.718
			c0.35,0.411,0.492,0.863,0.492,1.458c0,0.678-0.164,1.088-0.247,1.294c-0.04,0.103-0.02,0.164,0.03,0.215l0.134,0.133
			c0.041,0.042,0.062,0.083,0.062,0.145s-0.062,0.082-0.164,0.082c-0.165,0-1.602,0.164-1.704,0.164
			c-0.041,0-0.062-0.02-0.071-0.062l-0.052-0.164c-0.011-0.042,0-0.082,0.062-0.103c0.287-0.103,0.697-0.267,1.088-0.636
			c0.287-0.267,0.432-0.595,0.432-1.068c0-0.821-0.658-1.149-1.038-1.149c-0.351,0-0.656,0.041-0.922,0.287
			c-0.269,0.268-0.515,0.842-0.636,1.252c-0.186,0.595-0.391,1.088-0.801,1.479c-0.35,0.328-0.781,0.513-1.467,0.513
			c-1.253,0-2.278-0.821-2.278-2.177c0-0.841,0.184-1.334,0.491-1.745c0.082-0.123,0.124-0.184,0.124-0.247
			c0-0.062-0.082-0.102-0.188-0.164c-0.102-0.062-0.121-0.103-0.121-0.185s0.062-0.123,0.164-0.123
			c0.123,0.021,1.785,0.164,1.908,0.185c0.062,0.01,0.082,0.02,0.082,0.062L129.002-34.439z"/>
		<path fill="#010101" d="M124.907-27.727c-0.597,0.01-0.64,0.082-0.64,0.287v0.37c0,0.062-0.028,0.082-0.08,0.082h-0.215
			c-0.062,0-0.084-0.021-0.084-0.103c0-0.083,0.03-0.39,0.03-1.191c0-0.678-0.03-1.047-0.03-1.129c0-0.062,0.021-0.082,0.084-0.082
			h0.226c0.041,0,0.069,0.02,0.069,0.061v0.37c0,0.143,0.104,0.205,0.27,0.226c0.227,0.02,0.637,0.02,1.415,0.02h3.541
			c0.309,0,0.453-0.041,0.619-0.349l0.121-0.225c0.042-0.062,0.062-0.083,0.103-0.083h0.102c0.042,0,0.062,0.021,0.083,0.083
			l0.515,1.17c0.051,0.124,0.081,0.206,0.081,0.288c0,0.05-0.061,0.081-0.135,0.091l-0.501,0.073v0.021
			c0.328,0.267,0.636,0.8,0.636,1.396c0,0.493-0.184,0.863-0.514,1.191c-0.432,0.411-0.819,0.555-1.469,0.555
			c-1.477,0-2.546-0.985-2.546-2.238c0-0.226,0.042-0.596,0.187-0.903L124.907-27.727z M127.801-27.748
			c-0.226,0-0.453,0.062-0.574,0.267c-0.164,0.206-0.235,0.472-0.235,0.8c0,0.493,0.411,0.996,1.487,1.017
			c0.955,0,2.043-0.329,2.043-1.201c0-0.329-0.166-0.678-0.452-0.883H127.801L127.801-27.748z"/>
		<path fill="#010101" d="M127.215-21.569c-0.244-0.225-0.42-0.492-0.553-0.893c-0.073-0.236-0.073-0.452-0.073-0.656
			c0-0.38,0.31-0.709,0.884-0.709c0.473,0,0.935,0.206,1.262,0.944c0.308,0.637,0.473,1.026,0.638,1.252h0.534
			c0.206-0.02,0.451-0.041,0.574-0.164c0.114-0.103,0.156-0.287,0.156-0.513c0-0.186-0.063-0.432-0.187-0.596
			c-0.103-0.144-0.257-0.041-0.503-0.041c-0.369,0-0.596-0.185-0.596-0.616c0-0.185,0.123-0.349,0.35-0.349
			c0.289,0,0.617,0.165,0.842,0.472c0.329,0.432,0.576,0.986,0.576,1.663c0,0.575-0.125,0.759-0.289,0.944
			c-0.205,0.227-0.492,0.247-0.77,0.247l-1.621,0.021h-0.492c-0.555,0-0.719,0.083-0.719,0.267c0,0.145,0.082,0.287,0.164,0.329
			c0.062,0.041,0.062,0.062,0.041,0.102l-0.084,0.123c-0.02,0.042-0.059,0.062-0.162,0.021c-0.187-0.103-0.597-0.35-0.597-0.945
			c0-0.39,0.187-0.718,0.626-0.862V-21.569L127.215-21.569z M128.991-21.63c-0.286-0.451-0.46-1.128-1.212-1.128
			c-0.422,0-0.627,0.225-0.627,0.471c0.021,0.288,0.312,0.657,0.494,0.657H128.991L128.991-21.63z"/>
		<path fill="#010101" d="M127.503-15.585c-0.03,0.031-0.071,0.042-0.122,0c-0.318-0.256-0.792-0.975-0.792-1.735
			c0-0.697,0.187-1.252,0.681-1.642c0.488-0.391,0.9-0.492,1.414-0.492c0.647,0,1.365,0.246,1.838,0.759
			c0.39,0.431,0.596,0.924,0.596,1.499c0,1.191-0.616,1.458-0.924,1.458c-0.247,0-0.451-0.164-0.451-0.452
			c0-0.349,0.246-0.513,0.513-0.616c0.349-0.143,0.42-0.37,0.42-0.637c0-0.409-0.462-0.923-1.19-0.923
			c-0.614,0-1.036,0.021-1.664,0.4c-0.45,0.277-0.551,0.729-0.551,1.058c0,0.512,0.174,0.831,0.39,1.108
			c0.018,0.021,0.018,0.062-0.013,0.093L127.503-15.585z"/>
		<path fill="#010101" d="M128.991-14.096c-1.046,0-1.663,0.749-1.663,1.334c0,0.637,0.268,1.027,0.596,1.243
			c0.071,0.041,0.071,0.082,0.051,0.123l-0.092,0.154c-0.031,0.052-0.072,0.072-0.207,0c-0.39-0.215-1.087-0.739-1.087-1.867
			c0-0.657,0.146-1.12,0.556-1.479c0.543-0.472,1.056-0.575,1.693-0.575c0.562,0,0.944,0.062,1.518,0.503
			c0.555,0.431,0.76,0.894,0.76,1.787c0,1.17-1.223,1.55-1.644,1.55c-0.154,0-0.162-0.103-0.162-0.288v-2.483h-0.319V-14.096z
			 M129.679-12.823c0,0.216,0.061,0.338,0.144,0.338c0.308,0,0.915-0.102,0.915-0.636c0-0.503-0.371-0.811-1.059-0.944V-12.823
			L129.679-12.823z"/>
	</g>
</g>
<g>
	<path fill="#010101" d="M128.236,89.42c-0.024,0.023-0.049,0.033-0.082,0.018c-0.701-0.49-1.372-1.275-1.372-2.437
		c0-1.046,0.311-1.634,0.768-2.142c0.54-0.605,1.488-0.883,2.207-0.883c0.802,0,1.569,0.262,2.191,0.834
		c0.474,0.44,0.866,1.145,0.866,2.125c0,0.752-0.229,1.356-0.393,1.65c-0.064,0.114-0.064,0.146,0,0.164l0.213,0.064
		c0.049,0.018,0.049,0.033,0.049,0.131c0,0.1-0.017,0.115-0.131,0.115c-0.146,0-1.455,0.164-1.699,0.195
		c-0.049,0.008-0.074,0-0.082-0.031l-0.049-0.156c-0.017-0.041,0.017-0.064,0.082-0.09c0.295-0.099,0.702-0.295,1.062-0.638
		c0.344-0.36,0.605-0.784,0.605-1.422c0-1.31-1.178-1.849-2.354-1.849c-0.507,0-1.473,0.147-2.126,0.753
		c-0.572,0.54-0.64,1.014-0.64,1.405c0,0.899,0.451,1.609,0.949,1.955c0.057,0.039,0.082,0.072,0.057,0.098L128.236,89.42z"/>
	<path fill="#010101" d="M127.307,91.843c-0.197-0.18-0.336-0.393-0.441-0.711c-0.057-0.188-0.057-0.358-0.057-0.522
		c0-0.303,0.243-0.563,0.702-0.563c0.375,0,0.742,0.163,1.005,0.752c0.245,0.507,0.375,0.817,0.508,0.997h0.424
		c0.164-0.018,0.359-0.031,0.458-0.131c0.09-0.082,0.123-0.229,0.123-0.409c0-0.147-0.048-0.343-0.147-0.474
		c-0.082-0.115-0.205-0.033-0.4-0.033c-0.295,0-0.474-0.146-0.474-0.491c0-0.146,0.099-0.278,0.278-0.278
		c0.229,0,0.491,0.133,0.67,0.377c0.261,0.345,0.458,0.785,0.458,1.324c0,0.459-0.1,0.605-0.229,0.752
		c-0.164,0.18-0.393,0.196-0.613,0.196l-1.292,0.017h-0.394c-0.44,0-0.571,0.065-0.571,0.213c0,0.115,0.064,0.229,0.131,0.263
		c0.049,0.032,0.049,0.049,0.033,0.082l-0.066,0.098c-0.016,0.033-0.049,0.05-0.13,0.017c-0.147-0.082-0.474-0.276-0.474-0.752
		c0-0.312,0.146-0.571,0.498-0.687V91.843L127.307,91.843z M128.719,91.794c-0.228-0.36-0.367-0.899-0.964-0.899
		c-0.335,0-0.499,0.181-0.499,0.377c0.018,0.229,0.245,0.523,0.393,0.523L128.719,91.794L128.719,91.794z"/>
	<path fill="#010101" d="M129.005,94.052c0.377,0,0.507-0.065,0.638-0.311l0.083-0.147c0.016-0.049,0.032-0.066,0.065-0.066h0.049
		c0.032,0,0.049,0.019,0.073,0.066l0.466,0.989c0.016,0.048,0.034,0.081,0.034,0.131s-0.049,0.065-0.1,0.073l-0.604,0.072v0.033
		c0.458,0.278,0.736,0.621,0.736,0.98c0,0.262-0.18,0.425-0.409,0.425s-0.441-0.229-0.441-0.44c0-0.113,0.033-0.213,0.065-0.277
		c0.049-0.064,0.066-0.146,0.066-0.229c0-0.099-0.066-0.246-0.238-0.344c-0.114-0.066-0.295-0.098-0.4-0.098h-1.562
		c-0.26,0-0.342,0.064-0.342,0.229v0.359c0,0.05-0.017,0.064-0.058,0.064h-0.188c-0.041,0-0.059-0.016-0.059-0.058
		c0-0.058,0.025-0.416,0.025-1.013c0-0.572-0.025-0.893-0.025-0.956c0-0.041,0.018-0.058,0.059-0.058h0.181
		c0.049,0,0.065,0.017,0.065,0.073v0.286c0,0.13,0.064,0.212,0.219,0.212L129.005,94.052L129.005,94.052z"/>
	<path fill="#010101" d="M129.929,99.497c-0.384,0.384-0.81,0.563-1.292,0.563c-0.457,0-0.898-0.195-1.242-0.508
		c-0.375-0.335-0.588-0.824-0.588-1.371c0-0.517,0.147-0.957,0.588-1.326c0.426-0.358,0.77-0.439,1.268-0.439
		c0.393,0,0.965,0.195,1.357,0.686c0.326,0.4,0.393,0.825,0.393,1.162C130.411,98.811,130.198,99.219,129.929,99.497z
		 M128.661,99.062c0.899,0,1.423-0.474,1.423-0.851c0-0.212-0.065-0.375-0.221-0.515c-0.286-0.254-0.628-0.352-1.226-0.352
		c-0.475,0-0.783,0.032-1.137,0.254c-0.221,0.139-0.352,0.317-0.352,0.646C127.148,98.785,127.828,99.062,128.661,99.062z"/>
	<path fill="#010101" d="M130.035,101.003c0.572,0,1.275-0.017,1.488-0.032c0.276-0.017,0.408-0.154,0.49-0.416l0.049-0.164
		c0.016-0.049,0.033-0.049,0.065-0.049h0.099c0.017,0,0.049,0.016,0.065,0.064c0.099,0.326,0.312,0.965,0.476,1.227
		c0.032,0.1,0.047,0.146,0.047,0.18c0,0.049-0.032,0.082-0.146,0.082c-0.441-0.017-2.141-0.033-2.591-0.033H128.9
		c-0.379,0-1.211,0-1.457,0.018c-0.147,0.018-0.262,0.033-0.262,0.213v0.311c0,0.082-0.016,0.099-0.072,0.099h-0.147
		c-0.049,0-0.081-0.017-0.081-0.049c0-0.065,0.023-0.425,0.023-0.997c0-0.621-0.023-0.948-0.023-1.014
		c0-0.049,0.032-0.064,0.081-0.064h0.156c0.049,0,0.065,0.016,0.065,0.114v0.312c0,0.081,0.064,0.203,0.293,0.203h2.24
		L130.035,101.003L130.035,101.003z"/>
	<path fill="#010101" d="M132.096,104.609c0.228-0.082,0.293-0.213,0.293-0.344v-0.229c0-0.032,0.024-0.05,0.059-0.05h0.212
		c0.041,0,0.058,0.025,0.058,0.065c0,0.065-0.025,0.312-0.025,1.046c0,0.59,0.025,0.934,0.025,1.014c0,0.05-0.017,0.066-0.058,0.066
		h-0.204c-0.042,0-0.064-0.017-0.064-0.072v-0.156c0-0.163-0.115-0.254-0.287-0.195l-3.776,1.2l-0.009,0.017
		c0.173,0.066,3.18,1.152,3.49,1.17c0.147,0,0.327-0.065,0.434-0.147c0.099-0.065,0.146-0.181,0.146-0.277v-0.172
		c0-0.032,0.016-0.058,0.059-0.058h0.203c0.041,0,0.066,0.017,0.066,0.064c0,0.066-0.025,0.36-0.025,1.063
		c0,0.687,0.025,0.997,0.025,1.069c0,0.049-0.025,0.059-0.074,0.059h-0.188c-0.041,0-0.064-0.018-0.064-0.059v-0.285
		c0-0.164-0.181-0.221-0.318-0.18l-3.776,1.176v0.033c0.72,0.245,3.416,1.178,3.866,1.178c0.113,0,0.229-0.082,0.229-0.277v-0.221
		c0-0.049,0.025-0.058,0.065-0.058h0.196c0.041,0,0.064,0.017,0.064,0.065c0,0.081-0.023,0.359-0.023,0.865
		c0,0.459,0.023,0.703,0.023,0.769c0,0.033-0.016,0.049-0.042,0.049h-0.221c-0.041,0-0.065-0.008-0.065-0.057v-0.173
		c0-0.129-0.08-0.277-0.27-0.358c-0.18-0.082-4.756-1.748-5.165-1.913c-0.081-0.033-0.213-0.099-0.213-0.212
		c0-0.114,0.083-0.172,0.181-0.204l4.301-1.48v-0.031c-0.229-0.073-4.234-1.52-4.324-1.553c-0.082-0.033-0.156-0.115-0.156-0.213
		c0-0.08,0.049-0.139,0.132-0.164L132.096,104.609z"/>
	<path fill="#010101" d="M129.234,113.654c0.246,0,0.409-0.049,0.507-0.424c0.016-0.074,0.041-0.084,0.073-0.084h0.09
		c0.032,0,0.048,0.017,0.065,0.059c0.049,0.113,0.335,0.923,0.393,1.062c0.033,0.082,0.049,0.146,0.049,0.195
		c0,0.051-0.032,0.073-0.099,0.064c-0.13-0.016-0.653-0.016-1.333-0.016h-0.883c-0.311,0-0.604,0-0.701,0.016
		c-0.147,0.017-0.213,0.05-0.213,0.131v0.328c0,0.064-0.018,0.08-0.058,0.08h-0.164c-0.048,0-0.081-0.016-0.081-0.065
		c0-0.065,0.023-0.438,0.023-0.987c0-0.475-0.023-0.783-0.023-0.884c0-0.042,0.016-0.065,0.081-0.065h0.155
		c0.049,0,0.066,0.033,0.066,0.082v0.359c0,0.081,0.032,0.123,0.161,0.131c0.246,0.008,0.509,0.016,0.736,0.016L129.234,113.654
		L129.234,113.654z M131.236,113.934c0-0.264,0.205-0.523,0.49-0.523c0.246,0,0.506,0.236,0.506,0.572
		c0,0.343-0.276,0.506-0.474,0.506C131.514,114.486,131.236,114.316,131.236,113.934z"/>
	<path fill="#010101" d="M130.345,116.395c0.033,0.064,0.067,0.113,0.067,0.162s-0.034,0.082-0.1,0.1l-0.424,0.066v0.047
		c0.115,0.1,0.245,0.246,0.327,0.408c0.115,0.197,0.196,0.409,0.196,0.655c0,0.276-0.049,0.539-0.196,0.719
		c-0.262,0.359-0.507,0.45-0.842,0.45h-1.178c-0.262,0-0.62-0.009-0.784-0.009c-0.181,0-0.229,0.099-0.229,0.196v0.229
		c0,0.072-0.016,0.1-0.057,0.1h-0.188c-0.043,0-0.059-0.017-0.059-0.066c0-0.065,0.023-0.311,0.023-0.883
		c0-0.49-0.023-0.752-0.023-0.801s0.032-0.065,0.1-0.065h0.139c0.049,0,0.064,0.016,0.064,0.099v0.163
		c0,0.065,0.049,0.13,0.195,0.146c0.212,0.025,0.441,0.033,0.77,0.033h0.939c0.326,0,0.54-0.016,0.703-0.213
		c0.147-0.162,0.147-0.311,0.147-0.49c0-0.129-0.033-0.326-0.212-0.522c-0.13-0.131-0.359-0.172-0.582-0.172h-1.684
		c-0.18,0-0.277,0.041-0.277,0.155v0.146c0,0.064-0.016,0.083-0.072,0.083h-0.147c-0.049,0-0.081-0.019-0.081-0.065
		c0-0.049,0.023-0.278,0.023-0.771c0-0.506-0.023-0.769-0.023-0.817c0-0.031,0.032-0.047,0.081-0.047h0.156
		c0.049,0,0.065,0.016,0.065,0.081v0.163c0,0.098,0.031,0.212,0.162,0.212h1.838c0.246,0,0.377-0.146,0.476-0.343l0.033-0.066
		c0.016-0.047,0.049-0.063,0.082-0.063h0.066c0.032,0,0.065,0.032,0.082,0.081L130.345,116.395z"/>
	<path fill="#010101" d="M129.863,119.877c0-0.064,0.034-0.113,0.115-0.113c0.065,0,0.114,0.049,0.156,0.155
		c0.082,0.228,0.687,0.938,1.03,1.12c0.064,0.031,0.081,0.081,0.081,0.13c0,0.065-0.048,0.101-0.114,0.101l-0.81-0.033v1.078
		c0,0.049-0.033,0.065-0.066,0.057l-0.343-0.081c-0.033-0.009-0.049-0.032-0.049-0.081v-0.988c-0.343-0.017-0.734-0.025-1.095-0.025
		h-0.734c-0.639,0-0.77,0.271-0.77,0.435c0,0.181,0.043,0.359,0.101,0.474c0.022,0.059,0.022,0.082-0.019,0.1l-0.098,0.049
		c-0.049,0.018-0.082,0-0.114-0.033c-0.083-0.113-0.327-0.457-0.327-1.029c0-0.489,0.394-0.858,0.736-0.858
		c0.293,0,0.947,0.024,1.258,0.024h1.063v-0.476h-0.001V119.877z"/>
	<path fill="#010101" d="M128.719,123.451c-0.833,0-1.322,0.598-1.322,1.062c0,0.506,0.213,0.817,0.474,0.989
		c0.058,0.032,0.058,0.065,0.042,0.097l-0.074,0.125c-0.023,0.041-0.057,0.058-0.164,0c-0.309-0.173-0.865-0.59-0.865-1.488
		c0-0.522,0.114-0.893,0.44-1.178c0.435-0.375,0.842-0.457,1.349-0.457c0.45,0,0.754,0.049,1.209,0.4
		c0.441,0.342,0.606,0.711,0.606,1.421c0,0.933-0.974,1.234-1.31,1.234c-0.123,0-0.131-0.081-0.131-0.229v-1.979h-0.254V123.451z
		 M129.268,124.465c0,0.172,0.049,0.27,0.114,0.27c0.245,0,0.727-0.08,0.727-0.506c0-0.399-0.294-0.646-0.841-0.752V124.465
		L129.268,124.465z"/>
	<path fill="#010101" d="M129.005,126.633c0.377,0,0.507-0.066,0.638-0.312l0.083-0.146c0.016-0.05,0.032-0.065,0.065-0.065h0.049
		c0.032,0,0.049,0.017,0.073,0.065l0.466,0.988c0.016,0.049,0.034,0.082,0.034,0.131s-0.049,0.065-0.1,0.073l-0.604,0.072v0.033
		c0.458,0.277,0.736,0.621,0.736,0.979c0,0.263-0.18,0.425-0.409,0.425s-0.441-0.229-0.441-0.439c0-0.114,0.033-0.213,0.065-0.277
		c0.049-0.064,0.066-0.148,0.066-0.229c0-0.101-0.066-0.246-0.238-0.345c-0.114-0.065-0.295-0.101-0.4-0.101h-1.562
		c-0.26,0-0.342,0.066-0.342,0.229v0.36c0,0.048-0.017,0.064-0.058,0.064h-0.188c-0.041,0-0.059-0.017-0.059-0.058
		c0-0.058,0.025-0.417,0.025-1.015c0-0.571-0.025-0.891-0.025-0.955c0-0.041,0.018-0.057,0.059-0.057h0.181
		c0.049,0,0.065,0.016,0.065,0.072v0.286c0,0.13,0.064,0.212,0.219,0.212h1.603V126.633z"/>
</g>
<circle fill="none" stroke="#231F20" stroke-miterlimit="10" cx="130.553" cy="-109.469" r="5.416"/>
<g>
	<path fill="#010101" d="M131.755-106.582c-0.098-0.284-0.166-0.586-0.194-0.88c-0.361,0.519-0.744,0.88-1.417,0.88
		c-0.95,0-1.437-0.773-1.437-1.643c0-0.987,0.556-1.837,1.554-1.837c0.42,0,0.899,0.166,1.26,0.343
		c0.029-1.311-0.203-1.858-1.056-1.858c-0.449,0-0.83,0.156-1.241,0.342l-0.107-0.42c0.45-0.177,0.89-0.312,1.378-0.312
		c0.948,0,1.516,0.664,1.485,1.817l-0.058,2.114c-0.011,0.498,0.117,0.968,0.252,1.397L131.755-106.582z M131.492-109.359
		c-0.323-0.167-0.713-0.312-1.124-0.312c-0.86,0-1.204,0.723-1.203,1.485c0,0.577,0.323,1.212,0.979,1.212
		c0.644,0,1.036-0.519,1.349-1.044L131.492-109.359z"/>
</g>
</svg>
