<?xml version="1.0" encoding="utf-8"?>
<!-- Generator: Adobe Illustrator 16.0.0, SVG Export Plug-In . SVG Version: 6.00 Build 0)  -->
<!DOCTYPE svg PUBLIC "-//W3C//DTD SVG 1.1//EN" "http://www.w3.org/Graphics/SVG/1.1/DTD/svg11.dtd">
<svg version="1.1" id="Layer_1" xmlns="http://www.w3.org/2000/svg" xmlns:xlink="http://www.w3.org/1999/xlink" x="0px" y="0px"
	 width="20px" height="260px" viewBox="0 0 20 260" enable-background="new 0 0 20 260" xml:space="preserve">
<rect fill="#A6A1A5" width="20" height="260"/>
<g enable-background="new    ">
	<path fill="#F7F8F8" d="M14.62,9.512V7.999h1.066v4.152H14.62v-1.513H6.043V9.512H14.62z"/>
	<path fill="#F7F8F8" d="M15.687,13.446v1.078h-3.603c0.142,0.177,0.257,0.377,0.349,0.599c0.09,0.222,0.136,0.442,0.136,0.66
		c0,0.646-0.202,1.132-0.608,1.458c-0.405,0.328-0.989,0.491-1.753,0.491H6.043v-1.078h4.152c0.416,0,0.733-0.084,0.95-0.251
		c0.218-0.167,0.327-0.414,0.327-0.741c0-0.193-0.048-0.39-0.143-0.59s-0.243-0.383-0.444-0.548H6.043v-1.078H15.687z"/>
	<path fill="#F7F8F8" d="M5.928,21.624c0-0.347,0.076-0.667,0.228-0.96c0.151-0.292,0.371-0.546,0.66-0.762
		c0.288-0.217,0.642-0.385,1.059-0.506c0.418-0.121,0.893-0.182,1.426-0.182c0.545,0,1.022,0.062,1.435,0.188
		c0.411,0.126,0.755,0.294,1.028,0.506c0.275,0.212,0.48,0.456,0.618,0.732c0.137,0.276,0.205,0.563,0.205,0.862
		c0,0.348-0.089,0.651-0.269,0.914c-0.18,0.262-0.435,0.47-0.766,0.624c-0.331,0.152-0.729,0.247-1.196,0.284
		c-0.466,0.036-0.985,0.004-1.558-0.098l0.005-2.894c-0.346,0.032-0.638,0.097-0.874,0.191s-0.427,0.208-0.571,0.339
		c-0.146,0.132-0.25,0.273-0.312,0.427s-0.094,0.307-0.094,0.46c0,0.093,0.01,0.187,0.03,0.281s0.046,0.187,0.079,0.272
		c0.031,0.087,0.068,0.167,0.108,0.239s0.079,0.134,0.115,0.182l-0.92,0.411c-0.057-0.089-0.111-0.191-0.163-0.309
		c-0.054-0.116-0.1-0.24-0.14-0.372c-0.04-0.131-0.072-0.269-0.097-0.411C5.94,21.901,5.928,21.762,5.928,21.624z M9.814,22.235
		c0.339,0.02,0.618,0.013,0.838-0.021s0.396-0.087,0.527-0.157c0.13-0.07,0.222-0.156,0.271-0.257
		c0.051-0.101,0.076-0.208,0.076-0.321c0-0.291-0.145-0.539-0.433-0.748c-0.289-0.208-0.716-0.337-1.28-0.39V22.235z"/>
	<path fill="#F7F8F8" d="M15.807,27.048c0.028,0.69-0.032,1.291-0.182,1.804c-0.148,0.513-0.372,0.937-0.669,1.271
		c-0.296,0.334-0.656,0.585-1.08,0.75c-0.424,0.166-0.894,0.249-1.41,0.249c-0.602,0-1.136-0.11-1.604-0.328
		c-0.468-0.218-0.85-0.553-1.144-1.005l-3.675,1.678v-1.271l3.251-1.38c-0.057-0.202-0.1-0.416-0.128-0.642H6.043v-1.126H15.807z
		 M10.311,28.174c0.024,0.258,0.085,0.496,0.182,0.715c0.097,0.218,0.234,0.404,0.415,0.562c0.18,0.157,0.397,0.28,0.656,0.369
		c0.258,0.089,0.56,0.133,0.902,0.133s0.644-0.044,0.901-0.133s0.478-0.212,0.657-0.369c0.179-0.158,0.317-0.345,0.414-0.562
		c0.097-0.219,0.158-0.457,0.182-0.715H10.311z"/>
	<path fill="#F7F8F8" d="M5.928,34.554c0-0.304,0.069-0.594,0.206-0.872c0.138-0.278,0.346-0.525,0.624-0.741
		s0.625-0.389,1.041-0.518c0.415-0.129,0.901-0.194,1.459-0.194c0.557,0,1.043,0.065,1.458,0.194
		c0.416,0.129,0.763,0.302,1.042,0.518c0.278,0.216,0.485,0.463,0.623,0.741c0.137,0.278,0.205,0.568,0.205,0.872
		c0,0.303-0.068,0.593-0.205,0.871c-0.138,0.278-0.345,0.526-0.623,0.741c-0.279,0.217-0.626,0.389-1.042,0.519
		c-0.415,0.128-0.901,0.193-1.458,0.193c-0.558,0-1.044-0.065-1.459-0.193c-0.416-0.13-0.763-0.302-1.041-0.519
		c-0.278-0.215-0.486-0.463-0.624-0.741C5.997,35.146,5.928,34.856,5.928,34.554z M6.987,34.554c0,0.145,0.04,0.288,0.118,0.43
		s0.207,0.27,0.385,0.384c0.177,0.116,0.411,0.208,0.701,0.279c0.291,0.07,0.646,0.105,1.066,0.105c0.419,0,0.773-0.035,1.062-0.105
		c0.289-0.071,0.522-0.163,0.702-0.279c0.18-0.114,0.309-0.242,0.388-0.384s0.118-0.285,0.118-0.43c0-0.146-0.039-0.288-0.118-0.43
		s-0.208-0.271-0.388-0.385c-0.18-0.115-0.413-0.208-0.702-0.278c-0.288-0.071-0.643-0.105-1.062-0.105
		c-0.42,0-0.775,0.034-1.066,0.105c-0.29,0.07-0.524,0.163-0.701,0.278c-0.178,0.114-0.307,0.243-0.385,0.385
		S6.987,34.408,6.987,34.554z"/>
	<path fill="#F7F8F8" d="M5.928,40.297c0-0.334,0.069-0.645,0.206-0.932c0.138-0.286,0.346-0.535,0.624-0.747
		s0.625-0.378,1.041-0.496c0.415-0.12,0.901-0.179,1.459-0.179c0.557,0,1.043,0.059,1.458,0.179
		c0.416,0.118,0.763,0.284,1.042,0.496c0.278,0.212,0.485,0.461,0.623,0.747c0.137,0.287,0.205,0.598,0.205,0.932
		c0,0.247-0.038,0.484-0.114,0.712c-0.077,0.228-0.167,0.431-0.272,0.608l-0.938-0.454c0.069-0.117,0.131-0.251,0.185-0.402
		c0.055-0.151,0.082-0.306,0.082-0.464c0-0.156-0.041-0.31-0.121-0.459c-0.081-0.149-0.212-0.283-0.394-0.402
		s-0.417-0.215-0.705-0.284c-0.288-0.072-0.639-0.106-1.05-0.106c-0.412,0-0.762,0.034-1.051,0.106
		c-0.288,0.069-0.523,0.165-0.705,0.284s-0.313,0.253-0.394,0.402c-0.081,0.149-0.121,0.303-0.121,0.459
		c0,0.158,0.027,0.312,0.082,0.464s0.116,0.285,0.185,0.402l-0.938,0.454c-0.104-0.178-0.196-0.381-0.272-0.608
		S5.928,40.544,5.928,40.297z"/>
	<path fill="#F7F8F8" d="M15.687,42.889v1.078H9.499v0.005l2.973,1.786v1.15l-3.13-1.907l-3.299,2.228v-1.331l2.918-1.931H6.043
		v-1.078H15.687z"/>
	<path fill="#F7F8F8" d="M15.687,50.728v3.244H14.62v-2.119h-3.704v1.816H9.851v-1.816H7.108v2.119H6.043v-3.244H15.687z"/>
	<path fill="#F7F8F8" d="M12.586,55.569l-0.647,0.908c0.09,0.089,0.172,0.189,0.249,0.303c0.076,0.113,0.143,0.231,0.199,0.357
		c0.057,0.125,0.101,0.252,0.133,0.381c0.033,0.13,0.049,0.258,0.049,0.388c0,0.646-0.202,1.132-0.608,1.459
		c-0.405,0.327-0.989,0.49-1.753,0.49H6.043v-1.078h4.152c0.416,0,0.733-0.083,0.95-0.251c0.218-0.167,0.327-0.415,0.327-0.741
		c0-0.193-0.048-0.391-0.143-0.59c-0.095-0.2-0.243-0.383-0.444-0.548H6.043v-1.078H12.586z"/>
	<path fill="#F7F8F8" d="M13.573,62.325c0-0.117,0.021-0.225,0.061-0.321s0.095-0.18,0.163-0.248s0.148-0.121,0.239-0.157
		s0.187-0.055,0.287-0.055c0.102,0,0.197,0.019,0.288,0.055s0.17,0.089,0.239,0.157c0.068,0.068,0.123,0.151,0.163,0.248
		c0.041,0.097,0.061,0.204,0.061,0.321s-0.02,0.224-0.061,0.32c-0.04,0.097-0.095,0.18-0.163,0.248
		c-0.069,0.069-0.148,0.121-0.239,0.158c-0.091,0.035-0.187,0.054-0.288,0.054c-0.101,0-0.196-0.019-0.287-0.054
		c-0.091-0.037-0.171-0.089-0.239-0.158c-0.068-0.068-0.123-0.151-0.163-0.248S13.573,62.442,13.573,62.325z M12.472,61.75v1.077
		H6.043V61.75H12.472z"/>
	<path fill="#F7F8F8" d="M4.712,65.879c0.108,0.266,0.223,0.496,0.342,0.692c0.119,0.195,0.245,0.362,0.378,0.499
		c0.133,0.138,0.274,0.248,0.424,0.33s0.309,0.145,0.479,0.185c-0.113-0.23-0.17-0.494-0.17-0.793s0.062-0.584,0.188-0.856
		c0.126-0.272,0.319-0.513,0.581-0.721c0.263-0.207,0.597-0.374,1.003-0.499c0.404-0.125,0.888-0.188,1.449-0.188
		c0.561,0,1.044,0.063,1.449,0.188c0.406,0.125,0.739,0.292,1.002,0.499c0.262,0.208,0.456,0.448,0.581,0.721
		s0.188,0.558,0.188,0.856c0,0.448-0.133,0.829-0.399,1.144l0.388,0.8H7.03c-0.363,0-0.701-0.043-1.014-0.131
		c-0.313-0.086-0.604-0.224-0.869-0.411c-0.267-0.188-0.509-0.429-0.727-0.724S4.009,66.82,3.84,66.404L4.712,65.879z M7.181,66.906
		c0,0.142,0.023,0.276,0.07,0.403c0.046,0.127,0.111,0.243,0.196,0.349h3.868c0.182-0.219,0.272-0.469,0.272-0.752
		c0-0.165-0.034-0.324-0.103-0.478s-0.188-0.289-0.357-0.408s-0.396-0.215-0.678-0.287c-0.283-0.073-0.638-0.109-1.065-0.109
		c-0.429,0-0.783,0.036-1.065,0.109c-0.282,0.072-0.509,0.168-0.678,0.287c-0.17,0.119-0.289,0.255-0.357,0.408
		S7.181,66.741,7.181,66.906z"/>
	<path fill="#F7F8F8" d="M12.586,70.49l-0.629,0.884c0.085,0.089,0.164,0.188,0.239,0.297c0.075,0.109,0.139,0.224,0.193,0.345
		s0.098,0.245,0.13,0.373c0.033,0.127,0.049,0.253,0.049,0.378c0,0.371-0.067,0.688-0.202,0.953
		c-0.136,0.265-0.335,0.478-0.597,0.639c0.108,0.085,0.212,0.187,0.309,0.306s0.182,0.247,0.255,0.384
		c0.072,0.138,0.13,0.28,0.172,0.431c0.043,0.148,0.063,0.296,0.063,0.441c0,0.646-0.202,1.132-0.608,1.459
		c-0.405,0.327-0.989,0.49-1.753,0.49H6.043v-1.078h4.152c0.416,0,0.733-0.083,0.95-0.251c0.218-0.167,0.327-0.414,0.327-0.741
		c0-0.182-0.042-0.368-0.127-0.561c-0.085-0.191-0.218-0.365-0.399-0.522H6.043v-1.078h4.152c0.416,0,0.733-0.083,0.95-0.251
		c0.218-0.167,0.327-0.415,0.327-0.741c0-0.182-0.042-0.367-0.127-0.557c-0.085-0.19-0.216-0.363-0.394-0.521H6.043V70.49H12.586z"
		/>
	<path fill="#F7F8F8" d="M8.053,79.37c0.653,0,1.168,0.231,1.543,0.693c0.376,0.462,0.586,1.144,0.63,2.043h0.127
		c0.38,0,0.676-0.09,0.891-0.27c0.214-0.18,0.32-0.425,0.32-0.735c0-0.161-0.029-0.328-0.088-0.499
		c-0.059-0.172-0.136-0.343-0.232-0.512l0.968-0.412c0.13,0.255,0.225,0.521,0.285,0.799c0.06,0.278,0.09,0.531,0.09,0.758
		c0,0.29-0.05,0.554-0.15,0.793c-0.101,0.237-0.246,0.441-0.433,0.61c-0.188,0.17-0.417,0.301-0.688,0.395
		c-0.271,0.092-0.577,0.139-0.92,0.139H5.928l0.388-0.793c-0.121-0.154-0.216-0.324-0.284-0.512s-0.104-0.391-0.104-0.608
		c0-0.274,0.056-0.527,0.167-0.76c0.111-0.231,0.262-0.432,0.451-0.599s0.413-0.298,0.671-0.391
		C7.476,79.416,7.754,79.37,8.053,79.37z M8.035,80.466c-0.15,0-0.288,0.021-0.415,0.066s-0.238,0.106-0.333,0.188
		c-0.095,0.08-0.168,0.177-0.221,0.29s-0.079,0.238-0.079,0.375c0,0.142,0.026,0.276,0.079,0.406
		c0.053,0.129,0.119,0.233,0.199,0.314h1.992c0.003-0.258-0.021-0.488-0.076-0.69s-0.136-0.373-0.242-0.515
		c-0.106-0.141-0.236-0.249-0.388-0.324C8.401,80.503,8.229,80.466,8.035,80.466z"/>
</g>
<g enable-background="new    ">
	<path fill="#3B4751" d="M13.457,200.47v0.684l-2.725,0.522l-0.875,0.134l0.875,0.308l1.046,0.383l-1.046,0.383l-0.875,0.305
		l0.875,0.137l2.725,0.522v0.684l-5.613-1.173l1.597-0.588l0.763-0.27l-0.763-0.27l-1.597-0.588L13.457,200.47z"/>
	<path fill="#3B4751" d="M9.146,204.981c0.369,0,0.66,0.13,0.871,0.392c0.213,0.261,0.331,0.645,0.355,1.153h0.072
		c0.214,0,0.382-0.051,0.502-0.152c0.121-0.101,0.182-0.239,0.182-0.415c0-0.092-0.017-0.186-0.05-0.282s-0.077-0.192-0.132-0.288
		l0.547-0.232c0.073,0.143,0.127,0.293,0.161,0.451c0.034,0.156,0.052,0.299,0.052,0.427c0,0.164-0.029,0.313-0.086,0.448
		c-0.057,0.134-0.139,0.249-0.244,0.345c-0.106,0.096-0.235,0.17-0.389,0.222c-0.152,0.053-0.325,0.079-0.52,0.079H7.947
		l0.219-0.448c-0.068-0.086-0.122-0.183-0.161-0.288c-0.039-0.106-0.058-0.221-0.058-0.344c0-0.155,0.031-0.298,0.094-0.429
		s0.147-0.244,0.254-0.339c0.107-0.095,0.234-0.168,0.38-0.22C8.82,205.008,8.978,204.981,9.146,204.981z M9.137,205.6
		c-0.085,0-0.163,0.014-0.234,0.038c-0.072,0.024-0.135,0.061-0.188,0.106c-0.054,0.045-0.095,0.1-0.124,0.164
		c-0.03,0.063-0.045,0.134-0.045,0.211c0,0.08,0.015,0.156,0.045,0.229c0.029,0.073,0.066,0.132,0.112,0.178h1.124
		c0.003-0.146-0.012-0.276-0.042-0.39c-0.031-0.113-0.076-0.211-0.137-0.291c-0.061-0.079-0.134-0.141-0.219-0.183
		C9.343,205.621,9.246,205.6,9.137,205.6z"/>
	<path fill="#3B4751" d="M13.457,208.126v0.608H8.012v-0.608H13.457z"/>
	<path fill="#3B4751" d="M11.067,209.838v-0.27h0.574v0.27h1.21v0.609h-1.21v0.58h-0.574v-0.58h-1.62
		c-0.137,0-0.256,0.01-0.359,0.032c-0.102,0.021-0.189,0.058-0.261,0.107c-0.072,0.05-0.13,0.115-0.173,0.194
		c-0.043,0.08-0.075,0.178-0.096,0.295H7.95c0.019-0.415,0.149-0.725,0.395-0.93s0.615-0.309,1.109-0.309H11.067z"/>
	<path fill="#3B4751" d="M7.947,213.064c0-0.195,0.042-0.376,0.128-0.541c0.085-0.166,0.209-0.309,0.372-0.432
		c0.163-0.121,0.362-0.217,0.599-0.285c0.235-0.068,0.504-0.102,0.805-0.102c0.308,0,0.577,0.035,0.81,0.105
		s0.427,0.166,0.582,0.285c0.154,0.119,0.271,0.258,0.348,0.414c0.078,0.156,0.117,0.318,0.117,0.486
		c0,0.196-0.051,0.369-0.152,0.517s-0.246,0.266-0.433,0.353c-0.187,0.086-0.412,0.14-0.675,0.16
		c-0.264,0.021-0.557,0.002-0.881-0.055l0.004-1.634c-0.196,0.019-0.36,0.054-0.494,0.108c-0.133,0.053-0.24,0.117-0.322,0.191
		c-0.082,0.073-0.142,0.154-0.177,0.24s-0.053,0.174-0.053,0.26c0,0.053,0.006,0.105,0.017,0.158
		c0.012,0.055,0.026,0.105,0.045,0.154s0.039,0.094,0.062,0.135s0.044,0.076,0.065,0.104l-0.52,0.232
		c-0.032-0.051-0.063-0.109-0.093-0.175s-0.056-0.136-0.079-0.21c-0.022-0.074-0.041-0.152-0.055-0.232
		C7.953,213.222,7.947,213.143,7.947,213.064z M10.141,213.41c0.191,0.012,0.35,0.008,0.474-0.012s0.224-0.049,0.298-0.09
		c0.074-0.039,0.125-0.088,0.153-0.145s0.043-0.117,0.043-0.182c0-0.164-0.081-0.305-0.244-0.422s-0.404-0.19-0.724-0.221V213.41z"
		/>
	<path fill="#3B4751" d="M11.707,214.839l-0.359,0.517c0.109,0.141,0.195,0.293,0.258,0.454s0.094,0.329,0.094,0.503h-0.635
		c0-0.183-0.02-0.344-0.059-0.484s-0.113-0.262-0.223-0.363H8.012v-0.626H11.707z"/>
	<path fill="#3B4751" d="M10.568,219.859v0.637H7.95c-0.014-0.34,0.038-0.66,0.155-0.963c0.117-0.302,0.298-0.565,0.54-0.791
		c0.243-0.226,0.548-0.404,0.915-0.537c0.366-0.132,0.791-0.197,1.274-0.197c0.429,0,0.809,0.051,1.142,0.153
		s0.613,0.239,0.843,0.412c0.229,0.172,0.402,0.37,0.521,0.597c0.119,0.225,0.178,0.461,0.178,0.707
		c0,0.107-0.011,0.213-0.033,0.316c-0.023,0.104-0.059,0.213-0.106,0.33l-0.55-0.287c0.018-0.046,0.032-0.103,0.042-0.17
		c0.011-0.066,0.016-0.125,0.016-0.176c0-0.15-0.044-0.299-0.134-0.444c-0.088-0.146-0.22-0.276-0.393-0.392
		s-0.388-0.208-0.645-0.28c-0.256-0.071-0.552-0.107-0.887-0.107c-0.299,0-0.568,0.03-0.809,0.089s-0.45,0.141-0.629,0.246
		s-0.326,0.23-0.442,0.376s-0.199,0.307-0.249,0.481H10.568z"/>
	<path fill="#3B4751" d="M8.404,221.445c0.062,0,0.12,0.012,0.175,0.035c0.055,0.022,0.104,0.055,0.146,0.096
		s0.075,0.09,0.101,0.148s0.038,0.123,0.038,0.196c0,0.071-0.013,0.136-0.038,0.194c-0.025,0.06-0.059,0.109-0.101,0.15
		s-0.091,0.073-0.146,0.096c-0.055,0.023-0.112,0.035-0.175,0.035c-0.061,0-0.119-0.012-0.174-0.035
		c-0.055-0.022-0.103-0.055-0.144-0.096s-0.074-0.091-0.099-0.15c-0.025-0.059-0.038-0.123-0.038-0.194
		c0-0.073,0.013-0.138,0.038-0.196c0.024-0.059,0.058-0.107,0.099-0.148s0.089-0.073,0.144-0.096
		C8.285,221.457,8.344,221.445,8.404,221.445z"/>
	<path fill="#3B4751" d="M13.457,224.693v0.635h-3.021v1.2h3.021v0.636H8.012v-0.636h1.822v-1.2H8.012v-0.635H13.457z"/>
	<path fill="#3B4751" d="M9.146,228.101c0.369,0,0.66,0.13,0.871,0.392c0.213,0.261,0.331,0.645,0.355,1.153h0.072
		c0.214,0,0.382-0.051,0.502-0.152c0.121-0.101,0.182-0.239,0.182-0.415c0-0.092-0.017-0.186-0.05-0.282s-0.077-0.192-0.132-0.288
		l0.547-0.232c0.073,0.143,0.127,0.293,0.161,0.451c0.034,0.156,0.052,0.299,0.052,0.427c0,0.164-0.029,0.313-0.086,0.448
		c-0.057,0.134-0.139,0.249-0.244,0.345c-0.106,0.096-0.235,0.17-0.389,0.222c-0.152,0.053-0.325,0.079-0.52,0.079H7.947
		l0.219-0.448c-0.068-0.086-0.122-0.183-0.161-0.288c-0.039-0.106-0.058-0.221-0.058-0.344c0-0.155,0.031-0.298,0.094-0.429
		s0.147-0.244,0.254-0.339c0.107-0.095,0.234-0.168,0.38-0.22C8.82,228.127,8.978,228.101,9.146,228.101z M9.137,228.719
		c-0.085,0-0.163,0.014-0.234,0.038c-0.072,0.024-0.135,0.061-0.188,0.106c-0.054,0.045-0.095,0.1-0.124,0.164
		c-0.03,0.063-0.045,0.134-0.045,0.211c0,0.08,0.015,0.156,0.045,0.229c0.029,0.073,0.066,0.132,0.112,0.178h1.124
		c0.003-0.146-0.012-0.276-0.042-0.39c-0.031-0.113-0.076-0.211-0.137-0.291c-0.061-0.079-0.134-0.141-0.219-0.183
		C9.343,228.74,9.246,228.719,9.137,228.719z"/>
	<path fill="#3B4751" d="M11.707,231.245l-0.355,0.499c0.047,0.051,0.093,0.105,0.135,0.168c0.042,0.061,0.078,0.126,0.109,0.194
		c0.03,0.068,0.055,0.138,0.073,0.21s0.027,0.143,0.027,0.214c0,0.21-0.038,0.39-0.114,0.538c-0.076,0.149-0.188,0.27-0.337,0.361
		c0.062,0.047,0.12,0.105,0.175,0.172c0.055,0.067,0.102,0.14,0.143,0.217c0.041,0.078,0.074,0.158,0.098,0.243
		c0.024,0.085,0.036,0.167,0.036,0.249c0,0.365-0.114,0.64-0.344,0.824c-0.229,0.185-0.559,0.277-0.989,0.277H8.012v-0.609h2.345
		c0.234,0,0.413-0.047,0.536-0.141c0.123-0.096,0.186-0.234,0.186-0.42c0-0.102-0.024-0.207-0.072-0.316
		c-0.048-0.107-0.123-0.206-0.226-0.295H8.012v-0.608h2.345c0.234,0,0.413-0.048,0.536-0.142c0.123-0.095,0.186-0.234,0.186-0.419
		c0-0.103-0.024-0.208-0.072-0.314s-0.122-0.205-0.223-0.294H8.012v-0.608H11.707z"/>
	<path fill="#3B4751" d="M12.264,236.807c0-0.066,0.012-0.127,0.034-0.182s0.054-0.102,0.093-0.141
		c0.038-0.038,0.083-0.068,0.135-0.088c0.051-0.021,0.105-0.031,0.162-0.031s0.111,0.01,0.162,0.031
		c0.052,0.02,0.097,0.05,0.135,0.088c0.039,0.039,0.07,0.086,0.093,0.141s0.034,0.115,0.034,0.182c0,0.065-0.012,0.126-0.034,0.181
		s-0.054,0.102-0.093,0.14c-0.038,0.039-0.083,0.068-0.135,0.09c-0.051,0.02-0.105,0.03-0.162,0.03s-0.111-0.011-0.162-0.03
		c-0.052-0.021-0.097-0.051-0.135-0.09c-0.039-0.038-0.07-0.085-0.093-0.14S12.264,236.872,12.264,236.807z M11.642,236.481v0.608
		h-3.63v-0.608H11.642z"/>
	<path fill="#3B4751" d="M13.457,238.204v0.608H8.012v-0.608H13.457z"/>
	<path fill="#3B4751" d="M11.067,239.916v-0.27h0.574v0.27h1.21v0.609h-1.21v0.58h-0.574v-0.58h-1.62
		c-0.137,0-0.256,0.01-0.359,0.032c-0.102,0.021-0.189,0.058-0.261,0.107c-0.072,0.05-0.13,0.115-0.173,0.194
		c-0.043,0.08-0.075,0.178-0.096,0.295H7.95c0.019-0.415,0.149-0.725,0.395-0.93s0.615-0.309,1.109-0.309H11.067z"/>
	<path fill="#3B4751" d="M7.947,243.082c0-0.172,0.038-0.336,0.115-0.492c0.078-0.158,0.195-0.297,0.353-0.42
		c0.157-0.121,0.354-0.219,0.588-0.291c0.234-0.073,0.509-0.109,0.823-0.109s0.59,0.036,0.824,0.109
		c0.234,0.072,0.431,0.17,0.588,0.291c0.157,0.123,0.274,0.262,0.352,0.42c0.078,0.156,0.117,0.32,0.117,0.492
		c0,0.17-0.039,0.334-0.117,0.492c-0.077,0.156-0.194,0.297-0.352,0.418c-0.157,0.122-0.354,0.22-0.588,0.293
		c-0.234,0.072-0.51,0.109-0.824,0.109s-0.589-0.037-0.823-0.109c-0.234-0.073-0.431-0.171-0.588-0.293
		c-0.157-0.121-0.274-0.262-0.353-0.418C7.985,243.416,7.947,243.252,7.947,243.082z M8.545,243.082
		c0,0.082,0.022,0.162,0.066,0.242c0.045,0.08,0.117,0.152,0.217,0.217c0.101,0.064,0.232,0.117,0.396,0.158
		c0.164,0.039,0.365,0.059,0.602,0.059c0.237,0,0.438-0.02,0.601-0.059c0.163-0.041,0.295-0.094,0.396-0.158
		s0.174-0.137,0.219-0.217c0.044-0.08,0.066-0.16,0.066-0.242s-0.022-0.164-0.066-0.243c-0.045-0.079-0.117-0.151-0.219-0.218
		c-0.102-0.064-0.233-0.117-0.396-0.156c-0.163-0.04-0.363-0.061-0.601-0.061c-0.236,0-0.438,0.021-0.602,0.061
		c-0.164,0.039-0.296,0.092-0.396,0.156c-0.1,0.066-0.172,0.139-0.217,0.218C8.567,242.918,8.545,243,8.545,243.082z"/>
	<path fill="#3B4751" d="M11.707,245.184l-0.366,0.513c0.05,0.05,0.097,0.106,0.14,0.171c0.044,0.064,0.081,0.131,0.113,0.201
		c0.032,0.071,0.057,0.143,0.075,0.216s0.027,0.146,0.027,0.219c0,0.364-0.114,0.64-0.344,0.823
		c-0.229,0.186-0.559,0.277-0.989,0.277H8.012v-0.608h2.345c0.234,0,0.413-0.048,0.536-0.142c0.123-0.095,0.186-0.234,0.186-0.419
		c0-0.109-0.027-0.22-0.081-0.333s-0.137-0.217-0.251-0.31H8.012v-0.608H11.707z"/>
</g>
</svg>
