<?xml version="1.0" encoding="utf-8"?>
<!-- Generator: Adobe Illustrator 16.0.0, SVG Export Plug-In . SVG Version: 6.00 Build 0)  -->
<!DOCTYPE svg PUBLIC "-//W3C//DTD SVG 1.1//EN" "http://www.w3.org/Graphics/SVG/1.1/DTD/svg11.dtd">
<svg version="1.1" id="Layer_1" xmlns="http://www.w3.org/2000/svg" xmlns:xlink="http://www.w3.org/1999/xlink" x="0px" y="0px"
	 width="20px" height="260px" viewBox="120 -120 20 260" enable-background="new 120 -120 20 260" xml:space="preserve">
<rect x="120" y="-120" fill="#F6A7A6" width="20" height="260"/>
<g>
	<path fill="#D05C61" d="M135-114.364v1.708h-8.079v4.08h-1.519v-5.788H135z"/>
	<path fill="#D05C61" d="M134.119-107.381c0.262,0,0.49,0.095,0.686,0.29c0.193,0.195,0.291,0.442,0.291,0.739
		c0,0.299-0.092,0.549-0.277,0.753c-0.187,0.203-0.418,0.305-0.698,0.305c-0.281,0-0.513-0.102-0.698-0.305
		c-0.186-0.204-0.277-0.454-0.277-0.753c0-0.297,0.096-0.544,0.291-0.739C133.628-107.286,133.857-107.381,134.119-107.381z
		 M131.911-107.151v1.626h-6.507v-1.626H131.911z"/>
	<path fill="#D05C61" d="M130.607-102.95v-1.233h1.304v1.233h0.961c0.388,0,0.761,0.043,1.119,0.128
		c0.356,0.086,0.671,0.23,0.942,0.435c0.271,0.203,0.484,0.472,0.645,0.806c0.158,0.334,0.236,0.755,0.236,1.26
		c0,0.182-0.006,0.332-0.02,0.455c-0.013,0.122-0.039,0.246-0.074,0.373l-1.384-0.109c0.027-0.09,0.05-0.188,0.067-0.291
		c0.018-0.104,0.027-0.215,0.027-0.332c0-0.235-0.046-0.425-0.136-0.569c-0.091-0.145-0.208-0.255-0.353-0.332
		c-0.144-0.078-0.303-0.129-0.475-0.156c-0.171-0.026-0.339-0.04-0.501-0.04h-1.057v1.503h-1.302v-1.503h-5.205v-1.628H130.607z"/>
	<path fill="#D05C61" d="M128.574-92.268c-0.072,0-0.145,0-0.217,0s-0.146-0.005-0.217-0.014v-4.948
		c-0.236,0.018-0.451,0.079-0.646,0.183c-0.194,0.105-0.362,0.243-0.501,0.415c-0.143,0.172-0.251,0.366-0.333,0.583
		c-0.081,0.218-0.122,0.443-0.122,0.679c0,0.406,0.075,0.75,0.225,1.03c0.148,0.281,0.354,0.511,0.616,0.691l-0.866,1.085
		c-0.869-0.642-1.303-1.572-1.303-2.793c0-0.505,0.08-0.971,0.238-1.396c0.156-0.425,0.382-0.793,0.671-1.105
		c0.289-0.311,0.644-0.555,1.063-0.73c0.42-0.177,0.896-0.265,1.431-0.265c0.522,0,1,0.087,1.43,0.265
		c0.428,0.176,0.794,0.418,1.099,0.724c0.301,0.308,0.537,0.671,0.705,1.091c0.166,0.419,0.25,0.875,0.25,1.362
		c0,0.451-0.074,0.87-0.224,1.253c-0.149,0.385-0.371,0.717-0.665,0.996c-0.293,0.281-0.66,0.499-1.098,0.657
		C129.674-92.347,129.162-92.268,128.574-92.268z M129.307-93.896c0.209,0,0.408-0.028,0.598-0.087
		c0.188-0.059,0.355-0.151,0.501-0.278c0.144-0.126,0.258-0.287,0.345-0.481c0.087-0.196,0.128-0.423,0.128-0.685
		c0-0.487-0.146-0.901-0.44-1.24c-0.293-0.34-0.671-0.526-1.132-0.562V-93.896z"/>
	<path fill="#D05C61" d="M128.684-87.01c0.517,0,0.982,0.092,1.403,0.279c0.419,0.185,0.779,0.436,1.078,0.752
		c0.298,0.317,0.528,0.691,0.69,1.125c0.162,0.435,0.244,0.896,0.244,1.384c0,0.487-0.082,0.949-0.244,1.382
		c-0.162,0.435-0.393,0.809-0.69,1.125c-0.299,0.316-0.657,0.566-1.078,0.752c-0.42,0.185-0.887,0.277-1.403,0.277
		s-0.984-0.092-1.41-0.277c-0.424-0.185-0.787-0.437-1.092-0.752c-0.303-0.317-0.539-0.691-0.711-1.125
		c-0.172-0.433-0.258-0.894-0.258-1.382c0-0.488,0.086-0.949,0.258-1.383s0.408-0.809,0.711-1.125
		c0.305-0.316,0.668-0.567,1.092-0.752C127.699-86.915,128.169-87.01,128.684-87.01z M128.684-85.355
		c-0.252,0-0.507,0.039-0.76,0.115c-0.252,0.078-0.479,0.193-0.678,0.347c-0.199,0.153-0.361,0.348-0.487,0.583
		s-0.19,0.516-0.19,0.84c0,0.325,0.064,0.606,0.19,0.842c0.126,0.233,0.288,0.428,0.487,0.582c0.199,0.155,0.424,0.269,0.678,0.346
		c0.254,0.077,0.508,0.116,0.76,0.116s0.504-0.039,0.752-0.116c0.25-0.077,0.474-0.191,0.672-0.346
		c0.197-0.153,0.358-0.349,0.481-0.582c0.121-0.235,0.183-0.517,0.183-0.842c0-0.325-0.06-0.605-0.183-0.84
		c-0.122-0.235-0.284-0.43-0.481-0.583c-0.2-0.154-0.423-0.269-0.672-0.347C129.188-85.317,128.938-85.355,128.684-85.355z"/>
	<path fill="#D05C61" d="M130.607-77.764v-1.234h1.304v1.234h0.961c0.388,0,0.761,0.043,1.119,0.128
		c0.356,0.085,0.671,0.23,0.942,0.434s0.484,0.473,0.645,0.807c0.158,0.334,0.236,0.754,0.236,1.261c0,0.18-0.006,0.333-0.02,0.453
		c-0.014,0.122-0.039,0.246-0.074,0.373l-1.384-0.108c0.027-0.091,0.05-0.188,0.067-0.292c0.018-0.103,0.027-0.214,0.027-0.332
		c0-0.235-0.046-0.424-0.136-0.569c-0.091-0.145-0.208-0.255-0.353-0.333c-0.144-0.076-0.303-0.128-0.475-0.155
		c-0.171-0.027-0.339-0.041-0.501-0.041h-1.057v1.505h-1.302v-1.505h-5.205v-1.626H130.607z"/>
	<path fill="#D05C61" d="M126.229-65.198v-0.042c-0.287-0.162-0.525-0.424-0.711-0.786c-0.186-0.36-0.277-0.772-0.277-1.233
		c0-0.262,0.033-0.535,0.102-0.82c0.068-0.284,0.182-0.547,0.34-0.785c0.157-0.24,0.365-0.439,0.623-0.596
		c0.258-0.159,0.575-0.238,0.954-0.238c0.488,0,0.877,0.138,1.167,0.414c0.289,0.276,0.51,0.63,0.663,1.064
		c0.153,0.434,0.255,0.916,0.306,1.444c0.051,0.528,0.076,1.046,0.076,1.552h0.16c0.408,0,0.708-0.147,0.902-0.44
		c0.193-0.293,0.292-0.645,0.292-1.05c0-0.344-0.072-0.674-0.218-0.99s-0.32-0.58-0.528-0.786l0.989-0.84
		c0.345,0.372,0.601,0.797,0.771,1.281c0.172,0.484,0.258,0.975,0.258,1.472c0,0.579-0.082,1.054-0.244,1.43
		c-0.162,0.375-0.375,0.671-0.638,0.887c-0.262,0.218-0.555,0.368-0.881,0.455c-0.326,0.084-0.651,0.128-0.978,0.128H125.4v-1.519
		L126.229-65.198L126.229-65.198z M128.373-65.226v-0.366c0-0.262-0.014-0.538-0.035-0.827s-0.072-0.555-0.148-0.8
		c-0.078-0.244-0.186-0.447-0.325-0.609c-0.142-0.163-0.332-0.245-0.576-0.245c-0.153,0-0.283,0.034-0.388,0.102
		c-0.104,0.068-0.187,0.155-0.25,0.264c-0.062,0.109-0.107,0.23-0.135,0.366c-0.026,0.136-0.041,0.271-0.041,0.407
		c0,0.561,0.149,0.985,0.447,1.274c0.299,0.289,0.704,0.434,1.221,0.434H128.373z"/>
	<path fill="#D05C61" d="M131.911-58.637v1.762l-4.665,1.355v0.028l4.665,1.396v1.735l-4.665,1.411v0.026l4.665,1.383v1.694
		l-6.507-2.251v-1.654l4.555-1.478v-0.027l-4.555-1.463v-1.655L131.911-58.637z"/>
	<path fill="#D05C61" d="M128.684-46.857c0.517,0,0.982,0.092,1.403,0.277c0.419,0.185,0.779,0.436,1.078,0.752
		c0.298,0.317,0.528,0.692,0.69,1.125s0.244,0.894,0.244,1.384c0,0.49-0.082,0.95-0.244,1.382c-0.162,0.435-0.393,0.809-0.69,1.125
		c-0.299,0.317-0.657,0.567-1.078,0.752c-0.42,0.185-0.887,0.278-1.403,0.278s-0.984-0.092-1.41-0.278
		c-0.424-0.185-0.787-0.436-1.092-0.752c-0.303-0.316-0.539-0.691-0.711-1.125c-0.172-0.433-0.258-0.893-0.258-1.382
		c0-0.489,0.086-0.95,0.258-1.383c0.172-0.433,0.408-0.809,0.711-1.125c0.305-0.316,0.668-0.566,1.092-0.752
		C127.698-46.766,128.169-46.857,128.684-46.857z M128.684-45.205c-0.252,0-0.507,0.039-0.76,0.116
		c-0.252,0.077-0.479,0.192-0.678,0.347c-0.199,0.154-0.361,0.348-0.487,0.583c-0.126,0.234-0.19,0.516-0.19,0.84
		c0,0.325,0.064,0.605,0.19,0.84s0.288,0.429,0.487,0.583c0.199,0.155,0.424,0.27,0.678,0.346c0.254,0.077,0.508,0.116,0.76,0.116
		s0.504-0.039,0.752-0.116c0.25-0.077,0.474-0.191,0.672-0.346c0.197-0.153,0.358-0.348,0.481-0.583
		c0.121-0.235,0.183-0.515,0.183-0.84c0-0.325-0.06-0.606-0.183-0.84c-0.122-0.235-0.284-0.429-0.481-0.583
		c-0.2-0.154-0.423-0.27-0.672-0.347C129.188-45.166,128.938-45.205,128.684-45.205z"/>
	<path fill="#D05C61" d="M131.911-37.871v1.558h-1.085v0.028c0.379,0.18,0.686,0.433,0.921,0.758
		c0.235,0.325,0.353,0.706,0.353,1.139c0,0.063-0.002,0.131-0.008,0.204c-0.005,0.072-0.016,0.136-0.033,0.189h-1.49
		c0.027-0.11,0.046-0.201,0.054-0.279c0.009-0.077,0.014-0.151,0.014-0.223c0-0.371-0.067-0.669-0.203-0.895
		c-0.136-0.226-0.299-0.402-0.488-0.528c-0.189-0.127-0.385-0.212-0.583-0.257c-0.197-0.045-0.355-0.067-0.475-0.067h-3.482v-1.627
		H131.911z"/>
	<path fill="#D05C61" d="M132.1-24.83c0,0.424-0.074,0.788-0.224,1.09c-0.149,0.303-0.347,0.552-0.589,0.746
		c-0.245,0.194-0.523,0.337-0.84,0.426c-0.317,0.091-0.643,0.137-0.976,0.137h-4.066v-1.627h3.604c0.19,0,0.388-0.014,0.598-0.04
		c0.206-0.027,0.394-0.085,0.561-0.176c0.167-0.091,0.306-0.215,0.414-0.373c0.109-0.158,0.163-0.368,0.163-0.63
		c0-0.253-0.054-0.47-0.163-0.651c-0.108-0.181-0.248-0.33-0.419-0.448s-0.365-0.204-0.576-0.258
		c-0.213-0.054-0.422-0.082-0.631-0.082h-3.552v-1.625h3.931c0.407,0,0.744-0.097,1.011-0.292c0.265-0.194,0.399-0.498,0.399-0.915
		c0-0.245-0.052-0.457-0.155-0.637c-0.105-0.182-0.238-0.328-0.4-0.44c-0.162-0.114-0.351-0.199-0.562-0.258
		c-0.213-0.059-0.428-0.087-0.646-0.087h-3.578v-1.627h6.507v1.545h-1.045v0.027c0.163,0.072,0.317,0.169,0.461,0.291
		c0.144,0.121,0.276,0.266,0.394,0.434c0.117,0.166,0.211,0.358,0.277,0.575c0.068,0.218,0.102,0.456,0.102,0.72
		c0,0.506-0.113,0.925-0.339,1.26c-0.227,0.333-0.524,0.591-0.895,0.772c0.397,0.218,0.702,0.506,0.916,0.868
		C131.993-25.743,132.1-25.318,132.1-24.83z"/>
</g>
<g>
	<path fill="#010101" d="M133.243,80.75v1.286l-4.847,1.276v0.019l4.847,1.455v1.212l-4.847,1.426v0.02l4.847,1.306v1.248
		l-6.599-1.929v-1.137l4.949-1.549v-0.02l-4.949-1.547V82.68L133.243,80.75z"/>
	<path fill="#010101" d="M132.637,90.816c0.182,0,0.338,0.065,0.471,0.201c0.134,0.133,0.201,0.305,0.201,0.508
		c0,0.205-0.063,0.377-0.191,0.518s-0.288,0.21-0.48,0.21c-0.191,0-0.352-0.069-0.479-0.21c-0.129-0.141-0.192-0.312-0.192-0.518
		c0-0.207,0.066-0.375,0.2-0.508C132.299,90.883,132.456,90.816,132.637,90.816z M131.117,90.977v1.119h-4.475v-1.119H131.117z"/>
	<path fill="#010101" d="M133.691,93.707v1.119h-7.047v-1.119H133.691z"/>
	<path fill="#010101" d="M133.691,96.438v1.119h-7.047v-1.119H133.691z"/>
	<path fill="#010101" d="M133.243,101.77v4.26h-1.026v-3.084h-1.808v2.908h-0.988v-2.908h-2.776v-1.176H133.243L133.243,101.77z"/>
	<path fill="#010101" d="M133.691,107.309v1.117h-7.047v-1.117H133.691z"/>
	<path fill="#010101" d="M128.898,109.759c0.354,0,0.676,0.064,0.964,0.191c0.289,0.127,0.537,0.299,0.741,0.518
		c0.205,0.218,0.364,0.476,0.477,0.773c0.111,0.297,0.168,0.614,0.168,0.95c0,0.334-0.057,0.651-0.168,0.951
		c-0.112,0.299-0.271,0.557-0.477,0.772c-0.204,0.218-0.452,0.392-0.741,0.519c-0.289,0.127-0.611,0.191-0.964,0.191
		s-0.676-0.064-0.972-0.191c-0.29-0.127-0.541-0.301-0.747-0.519c-0.209-0.217-0.373-0.476-0.49-0.772
		c-0.117-0.3-0.178-0.617-0.178-0.951c0-0.336,0.061-0.652,0.178-0.95c0.117-0.3,0.281-0.558,0.49-0.773
		c0.209-0.219,0.457-0.391,0.747-0.518C128.223,109.823,128.546,109.759,128.898,109.759z M128.898,110.896
		c-0.176,0-0.349,0.026-0.522,0.08c-0.174,0.053-0.328,0.131-0.465,0.236c-0.138,0.105-0.249,0.239-0.334,0.4
		c-0.088,0.162-0.134,0.354-0.134,0.578c0,0.225,0.046,0.416,0.134,0.576c0.085,0.164,0.196,0.297,0.334,0.401
		c0.137,0.106,0.292,0.185,0.465,0.239c0.175,0.051,0.349,0.08,0.522,0.08c0.175,0,0.346-0.027,0.518-0.08
		c0.171-0.055,0.325-0.133,0.462-0.239c0.137-0.104,0.247-0.239,0.331-0.401c0.083-0.16,0.125-0.353,0.125-0.576
		s-0.042-0.416-0.125-0.578c-0.083-0.161-0.194-0.295-0.331-0.4c-0.138-0.105-0.292-0.184-0.462-0.236
		C129.244,110.924,129.074,110.896,128.898,110.896z"/>
	<path fill="#010101" d="M131.117,115.939v1.074h-0.747v0.016c0.262,0.127,0.472,0.301,0.634,0.522
		c0.162,0.226,0.242,0.486,0.242,0.784c0,0.043-0.002,0.09-0.005,0.141c-0.003,0.049-0.011,0.092-0.022,0.131h-1.026
		c0.019-0.075,0.03-0.141,0.037-0.192c0.005-0.054,0.009-0.104,0.009-0.153c0-0.255-0.046-0.46-0.141-0.613
		c-0.094-0.156-0.206-0.277-0.335-0.364c-0.131-0.086-0.264-0.146-0.402-0.177c-0.137-0.031-0.246-0.047-0.325-0.047h-2.396v-1.119
		L131.117,115.939L131.117,115.939z"/>
	<path fill="#010101" d="M128.825,123.668c-0.052,0-0.103,0-0.148,0c-0.052,0-0.101-0.002-0.149-0.01v-3.402
		c-0.161,0.012-0.309,0.055-0.442,0.126c-0.133,0.071-0.249,0.165-0.344,0.282c-0.097,0.12-0.173,0.253-0.229,0.4
		c-0.055,0.149-0.085,0.306-0.085,0.467c0,0.279,0.052,0.517,0.153,0.71c0.104,0.19,0.245,0.351,0.426,0.475l-0.597,0.747
		c-0.597-0.443-0.896-1.083-0.896-1.922c0-0.35,0.057-0.668,0.163-0.96c0.108-0.292,0.263-0.545,0.462-0.761
		c0.199-0.215,0.442-0.381,0.731-0.504c0.289-0.121,0.616-0.182,0.983-0.182c0.36,0,0.688,0.061,0.983,0.182
		c0.294,0.123,0.547,0.287,0.755,0.5c0.208,0.211,0.37,0.461,0.484,0.75c0.115,0.289,0.173,0.602,0.173,0.937
		c0,0.312-0.051,0.599-0.153,0.863c-0.103,0.264-0.256,0.491-0.457,0.685c-0.203,0.192-0.455,0.344-0.755,0.451
		C129.58,123.613,129.229,123.668,128.825,123.668z M129.328,122.55c0.143,0,0.279-0.021,0.41-0.06
		c0.13-0.042,0.245-0.104,0.344-0.192c0.1-0.087,0.18-0.196,0.238-0.33c0.059-0.135,0.089-0.291,0.089-0.472
		c0-0.336-0.102-0.619-0.304-0.854c-0.201-0.232-0.461-0.361-0.779-0.388v2.294L129.328,122.55L129.328,122.55z"/>
	<path fill="#010101" d="M129.924,127.436c0.131-0.101,0.245-0.237,0.341-0.41c0.097-0.176,0.144-0.365,0.144-0.568
		c0-0.182-0.036-0.346-0.11-0.495c-0.075-0.147-0.2-0.224-0.374-0.224c-0.174,0-0.297,0.082-0.369,0.248
		c-0.07,0.162-0.144,0.404-0.219,0.722c-0.038,0.167-0.087,0.338-0.147,0.508c-0.062,0.171-0.146,0.326-0.25,0.468
		c-0.103,0.139-0.229,0.252-0.381,0.34c-0.151,0.086-0.338,0.129-0.556,0.129c-0.272,0-0.505-0.051-0.694-0.151
		c-0.189-0.103-0.345-0.239-0.461-0.411c-0.119-0.172-0.205-0.369-0.258-0.596c-0.053-0.229-0.08-0.463-0.08-0.705
		c0-0.348,0.064-0.688,0.192-1.018c0.127-0.328,0.308-0.603,0.545-0.819l0.688,0.735c-0.16,0.125-0.295,0.287-0.399,0.485
		c-0.104,0.199-0.158,0.42-0.158,0.663c0,0.079,0.011,0.161,0.028,0.247c0.018,0.083,0.048,0.161,0.088,0.231
		c0.042,0.071,0.095,0.129,0.163,0.172c0.067,0.045,0.151,0.065,0.253,0.065c0.188,0,0.318-0.086,0.4-0.258
		c0.08-0.171,0.162-0.426,0.24-0.769c0.038-0.168,0.086-0.332,0.145-0.488c0.06-0.16,0.138-0.301,0.234-0.426
		c0.096-0.123,0.215-0.223,0.358-0.297c0.142-0.076,0.319-0.112,0.531-0.112c0.249,0,0.462,0.052,0.643,0.153
		s0.328,0.238,0.442,0.405c0.115,0.169,0.199,0.356,0.257,0.568c0.057,0.211,0.084,0.429,0.084,0.651
		c0,0.323-0.056,0.64-0.168,0.946c-0.112,0.308-0.283,0.552-0.513,0.731L129.924,127.436z"/>
</g>
</svg>
