<?xml version="1.0" encoding="utf-8"?>
<!-- Generator: Adobe Illustrator 16.0.0, SVG Export Plug-In . SVG Version: 6.00 Build 0)  -->
<!DOCTYPE svg PUBLIC "-//W3C//DTD SVG 1.1//EN" "http://www.w3.org/Graphics/SVG/1.1/DTD/svg11.dtd">
<svg version="1.1" id="Layer_1" xmlns="http://www.w3.org/2000/svg" xmlns:xlink="http://www.w3.org/1999/xlink" x="0px" y="0px"
	 width="20px" height="260px" viewBox="0 0 20 260" enable-background="new 0 0 20 260" xml:space="preserve">
<rect fill="#A1CAE4" width="20" height="260"/>
<g>
	<path fill="#EE5E73" d="M13.705,5.207h0.363v4.588h-0.363V9.59c0-0.343-0.031-0.605-0.094-0.789
		c-0.061-0.183-0.174-0.312-0.34-0.386c-0.164-0.075-0.398-0.112-0.703-0.112H6.107c-0.251,0-0.445,0.043-0.584,0.128
		C5.384,8.517,5.282,8.673,5.215,8.896C5.15,9.121,5.117,9.438,5.117,9.848c0,0.348,0.029,0.666,0.086,0.957
		c0.058,0.291,0.158,0.578,0.304,0.864c0.146,0.287,0.352,0.581,0.621,0.885c0.268,0.305,0.603,0.609,1.003,0.917v0.607
		l-2.377-0.877V5.207h0.363v0.086c0,0.396,0.037,0.688,0.109,0.878s0.187,0.317,0.343,0.386C5.725,6.626,5.944,6.66,6.225,6.66
		h6.246c0.33,0,0.578-0.03,0.746-0.09c0.166-0.059,0.289-0.193,0.369-0.402S13.705,5.639,13.705,5.207z M12.689,6.871h-6.76
		c-0.216,0-0.383-0.039-0.502-0.115C5.309,6.679,5.206,6.561,5.117,6.402c0,0.018-0.004,0.056-0.013,0.112
		C5.095,6.572,5.091,6.609,5.091,6.627c0,0.444,0.321,0.667,0.964,0.667h6.335c0.445,0,0.775-0.034,0.99-0.103
		c0.217-0.068,0.324-0.265,0.324-0.591V6.402c-0.105,0.181-0.221,0.304-0.344,0.37S13.014,6.871,12.689,6.871z M5.117,11.347v1.207
		l1.301,0.567c-0.3-0.25-0.554-0.517-0.763-0.801C5.445,12.036,5.266,11.712,5.117,11.347z"/>
	<path fill="#EE5E73" d="M10.635,16.864H5.863c-0.202,0-0.355,0.021-0.458,0.063C5.3,16.97,5.229,17.048,5.19,17.164
		c-0.04,0.117-0.064,0.296-0.072,0.538H4.754v-3.081h0.363c0.009,0.272,0.063,0.462,0.165,0.57s0.281,0.162,0.541,0.162h3.03
		c0.188,0,0.365-0.064,0.527-0.191c0.163-0.128,0.284-0.308,0.363-0.541h0.211l0.68,1.974V16.864z M8.833,15.571H5.698
		c-0.255,0-0.449-0.09-0.581-0.271c0,0.242,0.056,0.419,0.165,0.531C5.392,15.944,5.573,16,5.824,16h3.096
		c0.281,0,0.498-0.068,0.65-0.204s0.228-0.314,0.228-0.535c0-0.102-0.005-0.183-0.013-0.244C9.59,15.386,9.274,15.571,8.833,15.571z
		 M13.85,16.053c0,0.167-0.041,0.323-0.121,0.469c-0.082,0.145-0.193,0.259-0.334,0.343c-0.141,0.083-0.295,0.125-0.463,0.125
		c-0.166,0-0.322-0.042-0.465-0.125c-0.143-0.084-0.256-0.198-0.34-0.343c-0.084-0.146-0.125-0.303-0.125-0.469
		c0-0.25,0.092-0.467,0.277-0.647c0.184-0.181,0.402-0.27,0.652-0.27c0.164,0,0.316,0.041,0.459,0.122s0.256,0.193,0.338,0.336
		C13.809,15.736,13.85,15.89,13.85,16.053z M13.639,16.165c0-0.26-0.062-0.46-0.186-0.601s-0.293-0.211-0.508-0.211
		c-0.207,0-0.377,0.068-0.512,0.205s-0.207,0.339-0.221,0.607c0.127-0.141,0.24-0.244,0.34-0.311c0.1-0.065,0.227-0.098,0.379-0.098
		C13.219,15.756,13.453,15.892,13.639,16.165z"/>
	<path fill="#EE5E73" d="M5.698,18.95h4.37v-0.937h0.456v0.937h0.898c0.576,0,1.076,0.103,1.502,0.307
		c0.424,0.205,0.75,0.498,0.98,0.882c0.229,0.382,0.342,0.829,0.342,1.34c0,0.304-0.045,0.566-0.139,0.789
		c-0.092,0.223-0.213,0.387-0.365,0.494c-0.152,0.108-0.318,0.163-0.498,0.163c-0.203,0-0.385-0.072-0.545-0.215
		c-0.16-0.144-0.242-0.32-0.242-0.531c0-0.198,0.076-0.362,0.229-0.492s0.316-0.194,0.492-0.194c0.043,0.004,0.082,0.008,0.115,0.01
		c0.033,0.003,0.08,0.004,0.143,0.004c0.135,0,0.244-0.042,0.324-0.126c0.078-0.084,0.117-0.187,0.117-0.311
		c0-0.188-0.092-0.338-0.273-0.445c-0.184-0.107-0.445-0.162-0.789-0.162h-2.291v1.228h-0.456v-1.228H5.797
		c-0.176,0-0.313,0.024-0.413,0.072c-0.099,0.049-0.168,0.135-0.208,0.261c-0.04,0.127-0.06,0.294-0.06,0.506v0.218H4.753v-3.446
		h0.363c0.009,0.291,0.054,0.509,0.136,0.656C5.333,18.876,5.482,18.95,5.698,18.95z M11.422,19.161H5.745
		c-0.291,0-0.518-0.116-0.681-0.35c0,0.524,0.227,0.785,0.681,0.785h5.664c0.518,0,0.957,0.056,1.316,0.169
		c0.359,0.111,0.707,0.284,1.047,0.518c-0.26-0.374-0.578-0.655-0.957-0.842S11.971,19.161,11.422,19.161z M13.85,21.519
		c-0.131,0.114-0.27,0.176-0.416,0.185c-0.082,0.009-0.172,0.018-0.266,0.026c-0.096,0.01-0.178,0.026-0.248,0.053
		c-0.07,0.027-0.127,0.071-0.168,0.136c-0.043,0.063-0.062,0.151-0.062,0.26c0,0.22,0.115,0.388,0.35,0.502
		c-0.035-0.105-0.053-0.178-0.053-0.218c0-0.163,0.086-0.288,0.258-0.376c0.254-0.123,0.41-0.207,0.465-0.25
		C13.764,21.791,13.811,21.686,13.85,21.519z"/>
	<path fill="#EE5E73" d="M6.391,27.36l-0.205,0.265c-0.37-0.199-0.674-0.434-0.911-0.707c-0.237-0.272-0.414-0.572-0.528-0.9
		c-0.114-0.327-0.172-0.671-0.172-1.026c0-0.484,0.117-0.936,0.35-1.351c0.233-0.415,0.57-0.745,1.01-0.986
		c0.44-0.242,0.94-0.363,1.499-0.363c0.439,0,0.854,0.073,1.24,0.221c0.388,0.148,0.729,0.352,1.023,0.613
		c0.294,0.263,0.525,0.566,0.689,0.911c0.164,0.347,0.247,0.714,0.247,1.106c0,0.396-0.082,0.773-0.247,1.132
		s-0.393,0.644-0.683,0.854c-0.211,0.153-0.429,0.265-0.65,0.333c-0.223,0.069-0.49,0.122-0.803,0.162v-3.986
		c-0.457,0.017-0.845,0.095-1.162,0.233c-0.316,0.139-0.572,0.318-0.765,0.541c-0.194,0.222-0.332,0.459-0.416,0.71
		c-0.084,0.25-0.126,0.491-0.126,0.72C5.784,26.397,5.986,26.902,6.391,27.36z M9.975,23.736c-0.651-0.822-1.505-1.234-2.561-1.234
		c-0.767,0-1.392,0.245-1.879,0.736c-0.486,0.491-0.729,1.057-0.729,1.699c0,0.375,0.075,0.749,0.228,1.125
		c0.151,0.377,0.377,0.694,0.677,0.954c-0.172-0.269-0.312-0.542-0.42-0.821c-0.107-0.28-0.161-0.613-0.161-1.001
		c0-0.655,0.229-1.202,0.687-1.64c0.458-0.438,1.054-0.657,1.789-0.657c0.467,0,0.885,0.072,1.255,0.218
		C9.23,23.261,9.601,23.468,9.975,23.736z M8.674,23.677v2.304h0.218c0.256,0,0.483-0.046,0.684-0.139s0.354-0.219,0.462-0.38
		c0.108-0.16,0.162-0.344,0.162-0.551c0-0.335-0.149-0.618-0.446-0.851C9.458,23.826,9.097,23.698,8.674,23.677z M8.674,26.192
		v0.461c0.493-0.013,0.857-0.114,1.093-0.304c0.235-0.188,0.393-0.506,0.473-0.95c-0.128,0.282-0.294,0.484-0.499,0.608
		c-0.205,0.122-0.516,0.185-0.935,0.185H8.674z"/>
	<path fill="#EE5E73" d="M7.675,31.827v0.364L5.95,31.562c-0.064-0.023-0.13-0.046-0.195-0.069c-0.067-0.022-0.133-0.042-0.198-0.06
		s-0.128-0.032-0.188-0.042c-0.06-0.011-0.115-0.017-0.166-0.017c-0.113,0-0.204,0.029-0.271,0.091
		c-0.067,0.06-0.101,0.153-0.101,0.279c0,0.11,0.023,0.218,0.071,0.32c0.047,0.102,0.119,0.204,0.216,0.306
		c0.096,0.101,0.217,0.202,0.362,0.305c0.146,0.103,0.315,0.208,0.51,0.318l0.227,0.128l-0.047,0.066l-0.227-0.128
		c-0.212-0.12-0.396-0.234-0.551-0.344s-0.283-0.22-0.385-0.328c-0.102-0.109-0.177-0.222-0.226-0.334
		c-0.05-0.114-0.074-0.234-0.074-0.363c0-0.101,0.015-0.188,0.046-0.265c0.03-0.077,0.073-0.141,0.129-0.192
		c0.057-0.052,0.124-0.091,0.202-0.117s0.167-0.039,0.264-0.039c0.085,0,0.179,0.011,0.281,0.03c0.103,0.021,0.209,0.051,0.32,0.091
		L7.675,31.827z M8.323,32.024c0.058,0,0.106,0.021,0.147,0.061c0.042,0.04,0.062,0.089,0.062,0.146s-0.021,0.105-0.061,0.147
		c-0.04,0.039-0.089,0.06-0.147,0.06c-0.027,0-0.055-0.006-0.08-0.016c-0.025-0.011-0.047-0.025-0.065-0.044
		c-0.018-0.02-0.032-0.042-0.043-0.066c-0.012-0.025-0.017-0.054-0.017-0.083c0-0.058,0.02-0.105,0.058-0.146
		C8.216,32.045,8.264,32.024,8.323,32.024z"/>
	<path fill="#EE5E73" d="M7.675,33.652v0.364l-1.06-0.387c0.188,0.109,0.351,0.216,0.489,0.317c0.139,0.103,0.254,0.204,0.346,0.305
		c0.091,0.102,0.159,0.203,0.204,0.307s0.067,0.213,0.067,0.328c0,0.104-0.017,0.194-0.05,0.271
		c-0.035,0.078-0.081,0.143-0.139,0.195c-0.059,0.053-0.126,0.092-0.203,0.118c-0.078,0.026-0.159,0.039-0.244,0.039
		c-0.094,0-0.196-0.014-0.306-0.041c-0.11-0.026-0.224-0.061-0.341-0.103c-0.116-0.04-0.234-0.085-0.354-0.132
		c-0.12-0.049-0.234-0.093-0.345-0.134c-0.109-0.041-0.213-0.075-0.309-0.103c-0.097-0.027-0.181-0.04-0.253-0.04
		c-0.101,0-0.185,0.03-0.251,0.092c-0.066,0.062-0.1,0.159-0.1,0.291c0,0.104,0.024,0.208,0.072,0.31
		c0.049,0.101,0.121,0.202,0.218,0.303c0.096,0.102,0.217,0.203,0.362,0.306c0.146,0.104,0.313,0.209,0.507,0.317l0.227,0.129
		l-0.047,0.066l-0.227-0.129c-0.207-0.118-0.389-0.231-0.544-0.34s-0.284-0.217-0.386-0.325c-0.103-0.108-0.179-0.22-0.229-0.332
		c-0.052-0.112-0.076-0.232-0.076-0.358c0-0.104,0.016-0.195,0.046-0.272c0.032-0.079,0.074-0.144,0.129-0.197
		c0.055-0.053,0.117-0.092,0.188-0.118c0.072-0.026,0.147-0.039,0.229-0.039c0.085,0,0.181,0.014,0.287,0.04
		c0.105,0.028,0.217,0.062,0.333,0.104c0.116,0.041,0.233,0.085,0.353,0.132c0.119,0.049,0.234,0.093,0.348,0.134
		s0.22,0.075,0.32,0.103c0.102,0.027,0.191,0.04,0.27,0.04c0.057,0,0.108-0.007,0.156-0.021c0.048-0.016,0.088-0.038,0.123-0.07
		S7.549,35.048,7.569,35c0.021-0.05,0.03-0.107,0.03-0.175c0-0.104-0.025-0.205-0.075-0.304c-0.051-0.099-0.126-0.198-0.226-0.297
		c-0.101-0.1-0.226-0.2-0.376-0.304c-0.151-0.103-0.326-0.21-0.526-0.324l-0.227-0.128L4.753,32.95v-0.364L7.675,33.652z"/>
</g>
<g>
	<path fill="#EE5E73" d="M14.055,39.553v8.39l-2.18,0.475v-0.475c0.568-0.34,0.984-0.693,1.248-1.063
		c0.264-0.369,0.422-0.719,0.475-1.047c0.053-0.327,0.084-0.755,0.094-1.283H6.186c-0.291,0-0.512,0.046-0.664,0.139
		c-0.151,0.093-0.256,0.244-0.313,0.455s-0.093,0.506-0.105,0.885H4.74V41.4h0.363c0.009,0.382,0.038,0.677,0.089,0.881
		s0.156,0.358,0.316,0.462c0.161,0.104,0.412,0.155,0.756,0.155h7.427c-0.006-0.476-0.053-0.889-0.143-1.241
		s-0.213-0.647-0.367-0.885s-0.318-0.435-0.49-0.591c-0.176-0.156-0.447-0.386-0.816-0.689V39.09L14.055,39.553z M13.691,40.78
		v-1.07l-1.123-0.256c0.295,0.225,0.514,0.419,0.658,0.587C13.369,40.208,13.523,40.454,13.691,40.78z M6.417,43.539h6.49
		c0.254,0,0.445-0.029,0.574-0.09c0.127-0.059,0.197-0.169,0.211-0.333H6.185c-0.272,0-0.491-0.032-0.653-0.099
		s-0.306-0.189-0.429-0.37v0.146c0,0.32,0.101,0.525,0.303,0.614C5.609,43.494,5.946,43.539,6.417,43.539z M12.635,47.672
		l1.057-0.298v-1.24c-0.105,0.334-0.242,0.613-0.41,0.838C13.115,47.196,12.898,47.43,12.635,47.672z"/>
	<path fill="#EE5E73" d="M10.622,51.421H9.605c0.383,0.339,0.648,0.598,0.795,0.778c0.147,0.181,0.221,0.398,0.221,0.654
		c0,0.22-0.078,0.406-0.233,0.558c-0.156,0.151-0.354,0.228-0.591,0.228c-0.247,0-0.452-0.068-0.617-0.204
		c-0.165-0.137-0.248-0.309-0.248-0.516c0-0.092,0.018-0.192,0.053-0.304c0.035-0.109,0.082-0.202,0.139-0.276
		c0.035-0.045,0.072-0.091,0.112-0.139s0.07-0.092,0.093-0.128c0.021-0.039,0.033-0.079,0.033-0.123
		c0-0.083-0.032-0.166-0.096-0.248c-0.063-0.081-0.153-0.175-0.268-0.28H5.809c-0.229,0-0.392,0.032-0.488,0.096
		c-0.098,0.063-0.157,0.163-0.182,0.297s-0.036,0.368-0.036,0.703H4.74v-3.545h0.363v0.179c0,0.511,0.202,0.765,0.607,0.765h2.964
		c0.506,0,0.854-0.314,1.043-0.943h0.225l0.679,2.126L10.622,51.421L10.622,51.421z M8.674,50.134H5.67
		c-0.149,0-0.261-0.023-0.333-0.072c-0.072-0.048-0.151-0.118-0.234-0.211c0.022,0.251,0.089,0.432,0.201,0.541
		c0.112,0.11,0.307,0.166,0.584,0.166h2.785c0.379,0,0.654-0.067,0.825-0.199c0.171-0.131,0.258-0.341,0.258-0.627
		c0-0.021-0.005-0.069-0.014-0.145S9.73,49.461,9.73,49.435C9.528,49.9,9.176,50.134,8.674,50.134z M9.605,51.863
		c0,0.119-0.039,0.237-0.118,0.356c-0.216,0.273-0.324,0.502-0.324,0.687c0,0.229,0.147,0.396,0.442,0.502
		c-0.062-0.124-0.093-0.214-0.093-0.271c0-0.132,0.044-0.265,0.132-0.396c0.137-0.167,0.205-0.306,0.205-0.416
		C9.849,52.22,9.767,52.065,9.605,51.863z"/>
	<path fill="#EE5E73" d="M9.849,55.665c-0.018,0-0.082,0.028-0.191,0.086s-0.213,0.086-0.31,0.086c-0.189,0-0.357-0.078-0.506-0.233
		c-0.147-0.157-0.221-0.351-0.221-0.585c0-0.225,0.059-0.403,0.175-0.534c0.117-0.132,0.252-0.198,0.406-0.198
		c0.229,0,0.453,0.111,0.674,0.333c0.22,0.223,0.399,0.528,0.538,0.917c0.139,0.39,0.207,0.82,0.207,1.291
		c0,0.344-0.059,0.663-0.178,0.96c-0.118,0.298-0.299,0.534-0.54,0.71c-0.243,0.176-0.535,0.265-0.879,0.265H5.671
		c-0.268,0-0.402,0.077-0.402,0.231c0,0.092,0.072,0.204,0.218,0.336l-0.283,0.245c-0.216-0.216-0.379-0.415-0.488-0.598
		c-0.11-0.183-0.165-0.398-0.165-0.65c0-0.291,0.064-0.517,0.194-0.68c0.13-0.162,0.331-0.277,0.604-0.344
		c-0.523-0.606-0.785-1.207-0.785-1.802c0-0.422,0.11-0.758,0.33-1.007c0.221-0.248,0.5-0.373,0.839-0.373
		c0.304,0,0.562,0.076,0.775,0.229c0.214,0.151,0.403,0.352,0.567,0.601c0.165,0.249,0.375,0.615,0.628,1.099s0.47,0.882,0.65,1.195
		h0.996c0.3,0,0.526-0.069,0.68-0.205c0.154-0.136,0.231-0.341,0.231-0.614c0-0.236-0.043-0.423-0.129-0.558
		C10.044,55.732,9.951,55.665,9.849,55.665z M4.872,56.081c0-0.4,0.082-0.721,0.245-0.96c0.163-0.24,0.397-0.359,0.706-0.359
		c0.225,0,0.437,0.058,0.637,0.175c0.2,0.116,0.423,0.291,0.67,0.524c-0.207-0.356-0.418-0.633-0.634-0.829
		c-0.215-0.196-0.471-0.293-0.765-0.293c-0.27,0-0.492,0.118-0.671,0.353c-0.178,0.235-0.268,0.492-0.268,0.77
		C4.792,55.729,4.82,55.936,4.872,56.081z M9.038,55.461c-0.014-0.158,0.018-0.279,0.093-0.363c0.074-0.084,0.162-0.126,0.264-0.126
		c0.136,0,0.259,0.037,0.366,0.112s0.263,0.205,0.465,0.39c-0.158-0.312-0.316-0.552-0.475-0.72c-0.158-0.167-0.337-0.25-0.535-0.25
		c-0.088,0-0.171,0.045-0.247,0.135c-0.078,0.091-0.116,0.197-0.116,0.32C8.853,55.17,8.914,55.337,9.038,55.461z M5.783,57.243
		h2.119c-0.317-0.563-0.604-0.956-0.858-1.179S6.48,55.731,6.12,55.731c-0.242,0-0.43,0.065-0.562,0.198
		c-0.131,0.132-0.197,0.286-0.197,0.462C5.361,56.669,5.501,56.952,5.783,57.243z M8.918,57.461H6.311
		c-0.515,0-0.898,0.055-1.151,0.165c-0.254,0.11-0.38,0.325-0.38,0.647c0,0.145,0.017,0.261,0.053,0.35
		c0.039-0.265,0.146-0.451,0.316-0.562c0.172-0.109,0.44-0.164,0.806-0.164h3.029c0.457,0,0.773-0.066,0.947-0.195
		c0.174-0.13,0.278-0.354,0.313-0.67c-0.088,0.172-0.215,0.285-0.383,0.343C9.695,57.433,9.38,57.461,8.918,57.461z"/>
	<path fill="#EE5E73" d="M10.622,62.465H9.744c0.286,0.37,0.504,0.712,0.654,1.026c0.149,0.313,0.224,0.689,0.224,1.125
		c0,1.245-0.618,1.868-1.854,1.868h-3.01c-0.286,0-0.466,0.067-0.541,0.205c-0.075,0.136-0.112,0.342-0.112,0.619H4.74v-3.182h0.363
		c0,0.282,0.045,0.488,0.135,0.618c0.09,0.129,0.28,0.195,0.571,0.195h3.188c0.233,0,0.431-0.037,0.591-0.109
		c0.16-0.073,0.283-0.18,0.366-0.32c0.084-0.141,0.126-0.312,0.126-0.515c0-0.251-0.065-0.496-0.194-0.736
		c-0.13-0.24-0.327-0.505-0.591-0.795H5.81c-0.198,0-0.351,0.032-0.455,0.099c-0.105,0.066-0.173,0.155-0.199,0.268
		s-0.044,0.273-0.053,0.485H4.74v-3.188h0.363c0,0.27,0.036,0.476,0.108,0.621c0.073,0.145,0.239,0.218,0.498,0.218h2.925
		c0.29,0,0.524-0.066,0.703-0.198c0.178-0.133,0.313-0.347,0.405-0.641H9.96l0.66,2.086L10.622,62.465L10.622,62.465z M8.853,61.184
		h-3.03c-0.197,0-0.341-0.014-0.429-0.043c-0.088-0.028-0.185-0.092-0.29-0.188C5.143,61.385,5.383,61.6,5.823,61.6h3.149
		c0.22,0,0.407-0.078,0.563-0.233c0.156-0.157,0.234-0.338,0.234-0.545c0-0.022-0.004-0.062-0.013-0.119
		c-0.009-0.058-0.014-0.095-0.014-0.112C9.563,60.985,9.266,61.184,8.853,61.184z M9.064,65.157H5.81
		c-0.137,0-0.237-0.003-0.301-0.01c-0.064-0.007-0.126-0.024-0.185-0.053c-0.06-0.029-0.134-0.085-0.222-0.168v0.125
		c0,0.229,0.084,0.381,0.255,0.455c0.168,0.075,0.423,0.111,0.762,0.111h2.918c0.378,0,0.667-0.082,0.864-0.25
		c0.198-0.167,0.307-0.461,0.323-0.885c-0.097,0.237-0.236,0.409-0.419,0.515S9.376,65.157,9.064,65.157z"/>
	<path fill="#EE5E73" d="M5.063,67.971h1.729v0.355c-0.594,0.335-1.041,0.685-1.343,1.051c-0.302,0.364-0.452,0.721-0.452,1.068
		c0,0.225,0.072,0.425,0.218,0.601c0.146,0.175,0.31,0.264,0.494,0.264c0.243,0,0.409-0.065,0.502-0.198
		c0.33-0.497,0.583-0.975,0.76-1.433c0.448-1.21,1.089-1.814,1.92-1.814c0.493,0,0.904,0.188,1.235,0.567
		c0.329,0.38,0.494,0.889,0.494,1.531c0,0.325-0.034,0.629-0.102,0.911c-0.068,0.281-0.166,0.595-0.294,0.937l-1.564,0.067v-0.323
		c0.528-0.357,0.927-0.711,1.195-1.061c0.268-0.35,0.402-0.694,0.402-1.033c0-0.211-0.07-0.386-0.208-0.525
		c-0.139-0.138-0.292-0.208-0.459-0.208c-0.216,0-0.386,0.087-0.512,0.258c-0.126,0.172-0.312,0.532-0.558,1.083
		c-0.247,0.55-0.484,1.032-0.713,1.445c-0.137,0.26-0.328,0.467-0.574,0.62c-0.246,0.154-0.515,0.231-0.806,0.231
		c-0.339,0-0.651-0.098-0.938-0.294s-0.512-0.466-0.68-0.812c-0.167-0.346-0.25-0.733-0.25-1.165
		C4.562,69.483,4.729,68.774,5.063,67.971z M5.375,71.448c0.109,0.119,0.21,0.207,0.3,0.265c0.091,0.058,0.212,0.085,0.366,0.085
		c0.472,0,0.846-0.342,1.123-1.029c0.255-0.616,0.479-1.103,0.677-1.459c0.195-0.356,0.397-0.613,0.606-0.772
		c0.21-0.158,0.47-0.238,0.782-0.238c0.189,0,0.4,0.054,0.634,0.159c-0.141-0.115-0.28-0.206-0.419-0.273
		c-0.139-0.068-0.31-0.103-0.512-0.103c-0.418,0-0.757,0.149-1.017,0.448c-0.261,0.3-0.522,0.744-0.789,1.334
		s-0.484,1.014-0.654,1.274c-0.169,0.26-0.403,0.39-0.703,0.39C5.66,71.528,5.527,71.502,5.375,71.448z M6.212,68.214H5.387
		C5.29,68.434,5.173,68.8,5.037,69.31c0.189-0.272,0.359-0.476,0.508-0.607C5.695,68.57,5.917,68.407,6.212,68.214z M9.242,71.396
		L10,71.336c0.119-0.29,0.201-0.517,0.244-0.68c0.045-0.163,0.066-0.4,0.066-0.713c-0.114,0.33-0.247,0.594-0.398,0.789
		C9.76,70.928,9.537,71.149,9.242,71.396z"/>
	<path fill="#EE5E73" d="M10.622,75.244H5.849c-0.202,0-0.355,0.021-0.459,0.062c-0.104,0.042-0.175,0.121-0.215,0.237
		c-0.039,0.117-0.063,0.296-0.072,0.539H4.74V73h0.363c0.009,0.272,0.063,0.463,0.165,0.571c0.102,0.107,0.281,0.162,0.541,0.162
		h3.03c0.188,0,0.365-0.064,0.527-0.192C9.53,73.413,9.651,73.233,9.73,73h0.211l0.68,1.974L10.622,75.244L10.622,75.244z
		 M8.82,73.95H5.684c-0.256,0-0.449-0.09-0.581-0.271c0,0.242,0.056,0.42,0.165,0.531c0.11,0.112,0.29,0.169,0.541,0.169h3.096
		c0.281,0,0.498-0.068,0.65-0.205c0.152-0.136,0.228-0.314,0.228-0.534c0-0.102-0.004-0.183-0.013-0.245
		C9.577,73.766,9.259,73.95,8.82,73.95z M13.836,74.433c0,0.167-0.041,0.323-0.121,0.468c-0.082,0.146-0.193,0.261-0.334,0.343
		c-0.141,0.084-0.295,0.126-0.463,0.126c-0.166,0-0.322-0.041-0.465-0.126c-0.143-0.082-0.256-0.197-0.34-0.343
		c-0.084-0.145-0.125-0.301-0.125-0.468c0-0.251,0.092-0.467,0.277-0.647c0.184-0.181,0.402-0.271,0.652-0.271
		c0.164,0,0.316,0.04,0.459,0.122s0.256,0.194,0.338,0.337C13.795,74.117,13.836,74.27,13.836,74.433z M13.625,74.544
		c0-0.26-0.062-0.459-0.186-0.6s-0.293-0.211-0.508-0.211c-0.207,0-0.377,0.067-0.512,0.203c-0.135,0.138-0.207,0.34-0.221,0.607
		c0.127-0.14,0.24-0.243,0.34-0.31s0.225-0.1,0.379-0.1C13.205,74.135,13.439,74.271,13.625,74.544z"/>
	<path fill="#EE5E73" d="M6.337,77.329h3.756v-0.706h0.337c0.291,0.387,0.514,0.678,0.669,0.871
		c0.156,0.194,0.332,0.378,0.525,0.551c0.193,0.174,0.396,0.322,0.607,0.446v0.35H10.51v1.637h-0.416v-1.637H6.146
		c-0.29,0-0.507,0.035-0.65,0.106c-0.143,0.07-0.214,0.189-0.214,0.356c0,0.158,0.044,0.305,0.132,0.438s0.224,0.299,0.409,0.492
		l-0.258,0.245c-0.339-0.331-0.59-0.634-0.756-0.908c-0.165-0.274-0.247-0.591-0.247-0.947c0-0.339,0.075-0.603,0.225-0.792
		s0.353-0.32,0.61-0.393C5.654,77.366,5.968,77.329,6.337,77.329z M11.215,77.977l-0.362-0.435H6.469
		c-0.585,0-1.011,0.075-1.276,0.227c-0.267,0.152-0.4,0.424-0.4,0.815c0,0.207,0.034,0.414,0.1,0.62
		c-0.013-0.4,0.08-0.705,0.28-0.914c0.201-0.209,0.534-0.313,1-0.313H11.215L11.215,77.977z"/>
</g>
<g>
	<path fill="#010101" d="M10.605,206.117c0.035,0.014,0.086,0.031,0.151,0.052c0.064,0.021,0.135,0.039,0.212,0.059
		c0.077,0.019,0.157,0.034,0.241,0.048s0.16,0.021,0.234,0.021c0.047,0,0.092-0.005,0.135-0.012
		c0.041-0.007,0.078-0.021,0.107-0.038s0.055-0.04,0.072-0.069c0.018-0.028,0.025-0.063,0.025-0.105c0-0.07-0.023-0.146-0.068-0.224
		c-0.047-0.078-0.117-0.159-0.213-0.241c-0.094-0.082-0.215-0.167-0.361-0.251c-0.148-0.085-0.32-0.169-0.519-0.251l0.044-0.066
		c0.22,0.089,0.407,0.18,0.559,0.271c0.154,0.091,0.279,0.184,0.375,0.275c0.098,0.094,0.168,0.187,0.209,0.279
		c0.045,0.093,0.066,0.186,0.066,0.278c0,0.088-0.016,0.162-0.051,0.222c-0.033,0.059-0.08,0.105-0.139,0.139
		c-0.059,0.035-0.129,0.058-0.207,0.072c-0.078,0.014-0.162,0.021-0.25,0.021c-0.047,0-0.1-0.003-0.156-0.01
		c-0.059-0.007-0.117-0.017-0.178-0.029c0.161,0.094,0.301,0.183,0.424,0.269c0.123,0.085,0.225,0.169,0.309,0.253
		c0.082,0.084,0.145,0.169,0.186,0.257c0.041,0.086,0.064,0.179,0.064,0.276c0,0.091-0.016,0.174-0.045,0.255
		c-0.029,0.08-0.072,0.149-0.127,0.209c-0.057,0.06-0.127,0.107-0.211,0.143c-0.082,0.034-0.18,0.052-0.287,0.052
		c-0.055,0-0.105-0.004-0.156-0.012c-0.049-0.008-0.1-0.021-0.152-0.037c0.16,0.095,0.3,0.184,0.423,0.269
		c0.121,0.085,0.223,0.169,0.305,0.253c0.082,0.083,0.145,0.168,0.186,0.255c0.041,0.086,0.064,0.179,0.064,0.277
		c0,0.088-0.016,0.17-0.045,0.249c-0.029,0.077-0.072,0.146-0.127,0.206c-0.057,0.059-0.127,0.105-0.211,0.14
		c-0.082,0.035-0.18,0.053-0.287,0.053c-0.125,0-0.261-0.022-0.41-0.066c-0.147-0.045-0.303-0.1-0.465-0.167
		c-0.162-0.065-0.329-0.138-0.499-0.215c-0.169-0.076-0.339-0.147-0.507-0.214s-0.332-0.122-0.493-0.166
		c-0.161-0.045-0.312-0.067-0.454-0.067c-0.115,0-0.207,0.026-0.277,0.078c-0.068,0.052-0.104,0.135-0.104,0.249
		c0,0.107,0.025,0.21,0.076,0.309c0.05,0.099,0.125,0.196,0.225,0.294c0.099,0.097,0.222,0.195,0.371,0.296
		c0.149,0.102,0.321,0.207,0.52,0.319l0.223,0.126l-0.046,0.065l-0.224-0.126c-0.215-0.121-0.401-0.235-0.561-0.344
		c-0.157-0.108-0.289-0.216-0.394-0.321c-0.104-0.106-0.181-0.214-0.232-0.324c-0.051-0.11-0.076-0.228-0.076-0.354
		c0-0.113,0.014-0.209,0.041-0.288c0.028-0.079,0.066-0.144,0.117-0.194c0.051-0.05,0.112-0.086,0.185-0.108
		s0.151-0.034,0.241-0.034c0.111,0,0.229,0.013,0.354,0.039c0.125,0.024,0.253,0.06,0.386,0.103s0.267,0.092,0.404,0.146
		c0.136,0.054,0.271,0.11,0.406,0.167c0.134,0.058,0.265,0.113,0.393,0.168c0.127,0.054,0.248,0.102,0.362,0.145
		c0.115,0.043,0.222,0.077,0.319,0.104c0.098,0.025,0.186,0.039,0.262,0.039c0.137,0,0.238-0.033,0.307-0.099
		c0.066-0.066,0.1-0.151,0.1-0.258c0-0.091-0.025-0.179-0.078-0.264c-0.051-0.085-0.129-0.171-0.229-0.258s-0.225-0.178-0.373-0.273
		c-0.148-0.094-0.318-0.195-0.509-0.303l-0.083-0.047l-2.509-0.909v-0.358l2.017,0.729c0.138,0.05,0.271,0.099,0.402,0.146
		s0.255,0.091,0.371,0.127c0.116,0.037,0.224,0.067,0.323,0.091c0.098,0.024,0.186,0.035,0.262,0.035
		c0.137,0,0.244-0.035,0.32-0.105s0.113-0.161,0.113-0.272c0-0.092-0.027-0.179-0.082-0.264c-0.055-0.084-0.135-0.17-0.238-0.258
		c-0.104-0.087-0.229-0.177-0.379-0.271c-0.15-0.093-0.319-0.193-0.508-0.301l-2.601-0.948v-0.358L10.605,206.117z"/>
	<path fill="#010101" d="M9.391,210.687c0.174,0.059,0.333,0.128,0.477,0.209c0.143,0.081,0.27,0.168,0.382,0.263
		c0.111,0.095,0.208,0.194,0.288,0.298c0.082,0.104,0.148,0.209,0.2,0.312c0.053,0.104,0.092,0.207,0.118,0.309
		c0.025,0.102,0.038,0.196,0.038,0.284c0,0.094-0.014,0.17-0.042,0.231c-0.029,0.062-0.068,0.111-0.119,0.149
		c-0.051,0.037-0.112,0.064-0.185,0.081c-0.071,0.017-0.151,0.024-0.238,0.024l0.538,0.196v0.358l-1.697-0.618
		c-0.062-0.021-0.127-0.045-0.193-0.068c-0.064-0.021-0.129-0.041-0.193-0.059c-0.063-0.016-0.126-0.031-0.185-0.04
		c-0.059-0.012-0.113-0.017-0.163-0.017c-0.112,0-0.201,0.029-0.267,0.089c-0.066,0.059-0.101,0.151-0.101,0.275
		c0,0.107,0.023,0.214,0.069,0.314c0.046,0.102,0.117,0.201,0.211,0.302c0.095,0.1,0.213,0.199,0.356,0.299
		c0.144,0.102,0.312,0.204,0.503,0.311l0.223,0.124l-0.046,0.065l-0.223-0.126c-0.211-0.119-0.392-0.231-0.545-0.339
		c-0.151-0.107-0.278-0.214-0.378-0.321c-0.1-0.105-0.173-0.216-0.222-0.327c-0.047-0.111-0.071-0.23-0.071-0.356
		c0-0.099,0.015-0.186,0.045-0.26c0.03-0.076,0.072-0.139,0.128-0.19c0.056-0.05,0.121-0.089,0.199-0.114
		c0.077-0.026,0.163-0.039,0.259-0.039c0.062,0,0.131,0.006,0.204,0.017c0.074,0.012,0.151,0.028,0.229,0.051
		c-0.355-0.211-0.621-0.421-0.799-0.627c-0.178-0.207-0.266-0.418-0.266-0.631c0-0.101,0.018-0.186,0.055-0.256
		c0.036-0.07,0.087-0.128,0.152-0.173c0.065-0.046,0.143-0.079,0.23-0.1c0.088-0.021,0.185-0.031,0.289-0.031
		c0.114,0,0.232,0.011,0.358,0.034C9.138,210.612,9.264,210.645,9.391,210.687z M8.049,211.203c0,0.087,0.023,0.176,0.069,0.267
		s0.109,0.181,0.189,0.271s0.174,0.177,0.281,0.26c0.107,0.084,0.223,0.164,0.345,0.239c0.121,0.074,0.247,0.144,0.377,0.207
		c0.129,0.062,0.256,0.117,0.382,0.163c0.125,0.046,0.245,0.082,0.358,0.107c0.113,0.024,0.216,0.037,0.308,0.037
		c0.081,0,0.151-0.01,0.207-0.031c0.056-0.019,0.101-0.047,0.135-0.08c0.035-0.033,0.059-0.071,0.074-0.113
		c0.016-0.043,0.021-0.087,0.021-0.132c0-0.091-0.027-0.191-0.083-0.302c-0.056-0.111-0.14-0.224-0.254-0.339
		s-0.258-0.229-0.432-0.339c-0.175-0.11-0.379-0.211-0.613-0.304c-0.195-0.076-0.376-0.134-0.543-0.171
		c-0.166-0.038-0.305-0.058-0.417-0.058c-0.126,0-0.225,0.025-0.297,0.076C8.086,211.013,8.049,211.095,8.049,211.203z"/>
	<path fill="#010101" d="M10.675,216.124c0.026,0,0.053-0.016,0.079-0.049c0.027-0.033,0.04-0.082,0.04-0.145
		c0-0.065-0.02-0.135-0.059-0.211c-0.04-0.076-0.11-0.162-0.211-0.26c-0.1-0.097-0.236-0.206-0.408-0.325
		c-0.174-0.121-0.394-0.258-0.662-0.409l-0.214-0.121l-1.266-0.458v-0.362l2.873,1.048v0.358l-1.164-0.424
		c0.229,0.132,0.419,0.253,0.573,0.363s0.278,0.211,0.373,0.305s0.162,0.183,0.203,0.266c0.04,0.082,0.06,0.163,0.06,0.242
		c0,0.106-0.031,0.19-0.094,0.251c-0.063,0.061-0.146,0.091-0.247,0.091c-0.043,0-0.083-0.006-0.12-0.016
		c-0.039-0.011-0.071-0.025-0.099-0.046s-0.05-0.045-0.066-0.074c-0.015-0.029-0.023-0.062-0.023-0.098
		c0-0.025,0.004-0.051,0.012-0.076s0.021-0.047,0.037-0.066c0.018-0.02,0.037-0.035,0.062-0.047
		c0.024-0.012,0.052-0.019,0.084-0.019c0.026,0,0.053,0.005,0.079,0.013c0.026,0.009,0.051,0.021,0.07,0.038
		c0.02,0.016,0.037,0.034,0.05,0.059c0.013,0.022,0.02,0.047,0.02,0.074c0,0.018-0.002,0.035-0.005,0.052
		c-0.003,0.004-0.006,0.008-0.01,0.013c-0.002,0.006-0.003,0.011-0.003,0.014C10.641,216.119,10.653,216.124,10.675,216.124z"/>
	<path fill="#010101" d="M10.848,217.095v0.359l-1.697-0.619c-0.062-0.022-0.127-0.045-0.193-0.067
		c-0.064-0.022-0.129-0.043-0.193-0.06c-0.063-0.017-0.126-0.03-0.185-0.041c-0.059-0.01-0.113-0.016-0.163-0.016
		c-0.112,0-0.201,0.029-0.267,0.088c-0.066,0.059-0.101,0.151-0.101,0.276c0,0.107,0.024,0.212,0.07,0.313
		c0.048,0.102,0.118,0.201,0.213,0.301s0.213,0.198,0.356,0.3c0.143,0.1,0.31,0.203,0.501,0.312l0.223,0.126l-0.046,0.065
		l-0.224-0.126c-0.208-0.118-0.389-0.23-0.541-0.339c-0.152-0.107-0.279-0.215-0.379-0.322S8.049,217.43,8,217.317
		c-0.048-0.11-0.072-0.229-0.072-0.355c0-0.1,0.015-0.186,0.045-0.261s0.073-0.139,0.128-0.189s0.121-0.089,0.198-0.115
		s0.164-0.039,0.26-0.039c0.084,0,0.176,0.011,0.276,0.031c0.1,0.021,0.204,0.05,0.315,0.088L10.848,217.095z M11.482,217.289
		c0.057,0,0.105,0.021,0.146,0.059c0.039,0.039,0.061,0.088,0.061,0.145s-0.02,0.105-0.061,0.145
		c-0.039,0.039-0.086,0.06-0.145,0.06c-0.027,0-0.053-0.006-0.078-0.017c-0.025-0.01-0.047-0.024-0.064-0.043
		s-0.031-0.04-0.041-0.065s-0.018-0.052-0.018-0.081c0-0.058,0.02-0.104,0.059-0.144C11.379,217.308,11.426,217.289,11.482,217.289z
		"/>
	<path fill="#010101" d="M10.848,218.889v0.358l-1.043-0.381c0.185,0.108,0.345,0.213,0.482,0.313c0.136,0.1,0.248,0.2,0.338,0.3
		s0.157,0.199,0.201,0.301c0.045,0.103,0.066,0.21,0.066,0.323c0,0.102-0.017,0.19-0.05,0.267c-0.032,0.076-0.078,0.14-0.135,0.191
		c-0.058,0.052-0.125,0.09-0.2,0.116c-0.076,0.025-0.156,0.039-0.241,0.039c-0.092,0-0.191-0.014-0.3-0.04
		c-0.108-0.027-0.22-0.06-0.334-0.102c-0.115-0.039-0.231-0.083-0.349-0.129c-0.117-0.048-0.229-0.092-0.339-0.132
		c-0.107-0.04-0.209-0.073-0.304-0.101c-0.095-0.026-0.178-0.04-0.249-0.04c-0.099,0-0.18,0.03-0.245,0.091
		s-0.099,0.156-0.099,0.285c0,0.104,0.024,0.205,0.072,0.305c0.048,0.099,0.118,0.198,0.213,0.297
		c0.095,0.101,0.214,0.2,0.356,0.302c0.143,0.101,0.31,0.205,0.499,0.312l0.223,0.126l-0.046,0.065l-0.224-0.126
		c-0.203-0.117-0.382-0.228-0.534-0.335c-0.152-0.106-0.279-0.214-0.379-0.32c-0.101-0.105-0.176-0.215-0.226-0.325
		c-0.051-0.111-0.076-0.229-0.076-0.354c0-0.102,0.016-0.19,0.047-0.268s0.073-0.142,0.126-0.193
		c0.054-0.052,0.115-0.09,0.186-0.116s0.146-0.039,0.224-0.039c0.084,0,0.179,0.014,0.283,0.04s0.214,0.061,0.326,0.101
		c0.114,0.041,0.23,0.084,0.348,0.131s0.231,0.091,0.342,0.131s0.216,0.074,0.314,0.102c0.101,0.025,0.188,0.039,0.267,0.039
		c0.055,0,0.105-0.008,0.152-0.021c0.047-0.015,0.087-0.038,0.121-0.069c0.034-0.032,0.061-0.071,0.08-0.118
		c0.02-0.049,0.029-0.105,0.029-0.172c0-0.102-0.024-0.201-0.073-0.298c-0.05-0.098-0.124-0.195-0.223-0.292
		c-0.099-0.099-0.223-0.197-0.369-0.299c-0.148-0.101-0.321-0.207-0.518-0.318l-0.224-0.126L7.976,218.2v-0.359L10.848,218.889z"/>
	<path fill="#010101" d="M9.391,221.88c0.174,0.059,0.333,0.128,0.477,0.209c0.143,0.08,0.27,0.168,0.382,0.263
		c0.111,0.095,0.208,0.194,0.288,0.298c0.082,0.104,0.148,0.209,0.2,0.313c0.053,0.104,0.092,0.206,0.118,0.309
		c0.025,0.101,0.038,0.195,0.038,0.283c0,0.094-0.014,0.17-0.042,0.231c-0.029,0.062-0.068,0.111-0.119,0.149
		c-0.051,0.037-0.112,0.064-0.185,0.081c-0.071,0.017-0.151,0.024-0.238,0.024l0.538,0.197v0.358l-1.697-0.618
		c-0.062-0.023-0.127-0.045-0.193-0.068c-0.064-0.022-0.129-0.042-0.193-0.06c-0.063-0.016-0.126-0.03-0.185-0.04
		c-0.059-0.011-0.113-0.017-0.163-0.017c-0.112,0-0.201,0.03-0.267,0.089c-0.066,0.059-0.101,0.151-0.101,0.275
		c0,0.107,0.023,0.214,0.069,0.315s0.117,0.201,0.211,0.302c0.095,0.1,0.213,0.198,0.356,0.299s0.312,0.204,0.503,0.311l0.223,0.124
		l-0.046,0.065l-0.223-0.126c-0.211-0.119-0.392-0.231-0.545-0.339c-0.151-0.107-0.278-0.215-0.378-0.321s-0.173-0.216-0.222-0.327
		c-0.047-0.111-0.071-0.23-0.071-0.356c0-0.099,0.015-0.186,0.045-0.261s0.072-0.138,0.128-0.188
		c0.056-0.052,0.121-0.09,0.199-0.116c0.077-0.025,0.163-0.038,0.259-0.038c0.062,0,0.131,0.006,0.204,0.017
		c0.074,0.012,0.151,0.028,0.229,0.052c-0.355-0.213-0.621-0.422-0.799-0.629c-0.177-0.206-0.266-0.417-0.266-0.63
		c0-0.101,0.018-0.186,0.055-0.256c0.036-0.07,0.087-0.128,0.152-0.174c0.065-0.045,0.143-0.078,0.23-0.099
		c0.088-0.021,0.185-0.033,0.289-0.033c0.114,0,0.232,0.012,0.358,0.035C9.138,221.806,9.264,221.838,9.391,221.88z M8.049,222.396
		c0,0.087,0.023,0.176,0.069,0.267s0.109,0.181,0.189,0.271c0.08,0.089,0.174,0.177,0.281,0.261s0.223,0.163,0.345,0.238
		c0.121,0.075,0.247,0.145,0.377,0.207c0.129,0.063,0.256,0.118,0.382,0.164c0.125,0.046,0.245,0.082,0.358,0.106
		c0.113,0.025,0.216,0.037,0.308,0.037c0.081,0,0.151-0.01,0.207-0.03c0.056-0.02,0.101-0.047,0.135-0.08
		c0.035-0.033,0.059-0.071,0.074-0.114c0.016-0.042,0.021-0.086,0.021-0.131c0-0.091-0.027-0.191-0.083-0.303
		c-0.056-0.109-0.14-0.223-0.254-0.338s-0.258-0.228-0.432-0.339c-0.175-0.11-0.379-0.212-0.613-0.305
		c-0.195-0.075-0.376-0.133-0.543-0.171c-0.166-0.038-0.305-0.057-0.417-0.057c-0.126,0-0.225,0.025-0.297,0.076
		C8.086,222.208,8.049,222.288,8.049,222.396z"/>
	<path fill="#010101" d="M10.943,229.85c0.055,0.035,0.118,0.081,0.188,0.139c0.072,0.058,0.145,0.123,0.215,0.196
		c0.072,0.072,0.141,0.151,0.205,0.238c0.064,0.088,0.117,0.177,0.158,0.271c0.023-0.098,0.041-0.2,0.055-0.311
		c0.014-0.109,0.02-0.228,0.02-0.354c0-0.172-0.012-0.337-0.035-0.495c-0.025-0.158-0.061-0.306-0.111-0.441s-0.115-0.26-0.193-0.37
		s-0.174-0.205-0.283-0.284s-0.235-0.14-0.377-0.183c-0.143-0.044-0.302-0.064-0.478-0.064c-0.056,0-0.112,0.003-0.173,0.009
		c-0.06,0.005-0.118,0.018-0.175,0.037c-0.059,0.02-0.112,0.047-0.165,0.082c-0.051,0.035-0.096,0.083-0.132,0.144l-0.052-0.032
		c0.07-0.146,0.163-0.253,0.28-0.322s0.27-0.104,0.459-0.104c0.229,0,0.438,0.051,0.626,0.15c0.188,0.101,0.348,0.239,0.481,0.417
		s0.236,0.39,0.309,0.637c0.074,0.247,0.111,0.517,0.111,0.809c0,0.304-0.039,0.574-0.117,0.811s-0.191,0.437-0.336,0.599
		s-0.316,0.286-0.519,0.371c-0.202,0.085-0.427,0.127-0.674,0.127c-0.153,0-0.305-0.016-0.454-0.048
		c-0.148-0.033-0.292-0.078-0.429-0.135c-0.138-0.058-0.269-0.127-0.392-0.205c-0.124-0.081-0.237-0.169-0.341-0.264
		c-0.104-0.096-0.199-0.201-0.289-0.317s-0.168-0.245-0.235-0.385c-0.065-0.14-0.118-0.291-0.155-0.452
		c-0.038-0.162-0.057-0.336-0.057-0.521c0-0.113,0.006-0.221,0.019-0.322c0.013-0.103,0.029-0.197,0.05-0.285
		s0.042-0.169,0.065-0.24c0.023-0.072,0.046-0.134,0.066-0.188c-0.068-0.117-0.118-0.24-0.15-0.366
		c-0.032-0.128-0.049-0.262-0.049-0.404c0-0.101,0.008-0.182,0.021-0.245c0.014-0.063,0.033-0.112,0.056-0.147
		c0.024-0.036,0.051-0.061,0.08-0.074c0.028-0.015,0.059-0.021,0.087-0.021c0.058,0,0.104,0.019,0.138,0.057
		c0.034,0.038,0.061,0.086,0.079,0.145c0.02,0.059,0.031,0.122,0.036,0.19c0.006,0.068,0.009,0.134,0.009,0.195
		c0,0.132-0.009,0.256-0.025,0.369c-0.018,0.114-0.042,0.224-0.074,0.329c0.057,0.05,0.123,0.101,0.199,0.151
		c0.077,0.052,0.167,0.103,0.269,0.156c0.103,0.054,0.217,0.109,0.345,0.166c0.127,0.058,0.27,0.118,0.43,0.181
		c0.19,0.076,0.354,0.142,0.49,0.197c0.137,0.055,0.253,0.103,0.35,0.14c0.096,0.039,0.175,0.072,0.238,0.1
		c0.062,0.026,0.115,0.049,0.156,0.068s0.075,0.037,0.102,0.052C10.89,229.815,10.917,229.832,10.943,229.85z M7.967,227.809
		c0,0.121,0.012,0.23,0.032,0.33c0.022,0.099,0.067,0.192,0.133,0.284c0.01-0.033,0.023-0.078,0.04-0.137
		c0.018-0.058,0.033-0.121,0.049-0.19c0.015-0.069,0.028-0.139,0.039-0.21c0.012-0.072,0.017-0.141,0.017-0.203
		c0-0.082-0.011-0.15-0.035-0.201c-0.024-0.054-0.064-0.08-0.122-0.08c-0.021,0-0.04,0.006-0.059,0.016
		c-0.019,0.011-0.035,0.031-0.049,0.061s-0.024,0.071-0.032,0.124C7.971,227.654,7.967,227.722,7.967,227.809z M10.39,231.614
		c0.346,0,0.624-0.067,0.836-0.204s0.363-0.345,0.455-0.627c-0.023-0.044-0.049-0.086-0.078-0.128s-0.061-0.082-0.094-0.118
		c-0.035-0.038-0.07-0.072-0.107-0.104c-0.037-0.031-0.072-0.059-0.107-0.083c-0.027-0.02-0.059-0.038-0.092-0.057
		c-0.035-0.017-0.076-0.036-0.125-0.059c-0.049-0.021-0.107-0.046-0.175-0.072c-0.067-0.027-0.148-0.059-0.243-0.094
		s-0.205-0.076-0.331-0.124c-0.126-0.047-0.271-0.101-0.436-0.159c-0.413-0.152-0.756-0.312-1.028-0.479
		c-0.273-0.166-0.488-0.345-0.644-0.535c-0.022,0.061-0.047,0.128-0.074,0.2c-0.026,0.073-0.051,0.152-0.073,0.235
		c-0.022,0.084-0.042,0.174-0.057,0.266c-0.014,0.093-0.021,0.19-0.021,0.292c0,0.16,0.019,0.307,0.058,0.438
		c0.038,0.133,0.09,0.254,0.156,0.363c0.065,0.108,0.144,0.207,0.231,0.295c0.087,0.088,0.182,0.168,0.282,0.238
		c0.112,0.078,0.233,0.148,0.364,0.211c0.132,0.063,0.27,0.118,0.413,0.163c0.145,0.045,0.291,0.08,0.44,0.104
		C10.09,231.602,10.241,231.614,10.39,231.614z"/>
	<path fill="#010101" d="M9.383,232.58c0.217,0.057,0.416,0.139,0.602,0.248c0.184,0.108,0.343,0.234,0.479,0.376
		c0.135,0.141,0.24,0.294,0.316,0.46s0.113,0.333,0.113,0.501c0,0.136-0.022,0.25-0.068,0.343c-0.047,0.094-0.107,0.168-0.186,0.225
		s-0.168,0.096-0.27,0.121c-0.103,0.024-0.208,0.036-0.319,0.036c-0.121,0-0.242-0.012-0.363-0.035
		c-0.122-0.023-0.237-0.054-0.347-0.091c-0.069-0.022-0.137-0.049-0.2-0.077c-0.065-0.03-0.129-0.061-0.19-0.093
		c-0.054,0.022-0.097,0.057-0.129,0.1c-0.034,0.043-0.051,0.104-0.051,0.182c0,0.046,0.008,0.094,0.022,0.146
		s0.038,0.104,0.071,0.156c0.034,0.053,0.077,0.104,0.13,0.155c0.054,0.051,0.118,0.099,0.196,0.142l0.224,0.127l-0.047,0.065
		l-0.223-0.127c-0.108-0.062-0.194-0.124-0.255-0.188c-0.062-0.064-0.11-0.126-0.143-0.186c-0.032-0.061-0.054-0.116-0.062-0.169
		c-0.009-0.053-0.014-0.098-0.014-0.135c0-0.075,0.011-0.144,0.031-0.202c0.02-0.061,0.047-0.114,0.081-0.16
		c-0.13-0.082-0.247-0.171-0.352-0.269c-0.105-0.099-0.195-0.201-0.269-0.31c-0.075-0.108-0.132-0.22-0.173-0.336
		c-0.04-0.115-0.06-0.23-0.06-0.346s0.021-0.218,0.062-0.309s0.101-0.169,0.178-0.231c0.077-0.063,0.173-0.111,0.285-0.146
		c0.112-0.035,0.239-0.052,0.38-0.052c0.088,0,0.179,0.007,0.271,0.02C9.199,232.536,9.291,232.556,9.383,232.58z M8.049,233.277
		c0,0.095,0.021,0.188,0.064,0.285s0.104,0.19,0.184,0.284c0.078,0.093,0.175,0.183,0.287,0.269
		c0.112,0.087,0.237,0.166,0.374,0.239c0.037-0.02,0.076-0.034,0.115-0.042c0.04-0.01,0.081-0.014,0.123-0.014
		c0.047,0,0.093,0.007,0.139,0.02c0.047,0.013,0.089,0.033,0.129,0.059c0.039,0.027,0.075,0.061,0.107,0.102
		c0.032,0.042,0.059,0.091,0.077,0.146c0.091,0.023,0.186,0.043,0.283,0.06s0.194,0.024,0.289,0.024
		c0.079,0,0.152-0.007,0.223-0.021c0.07-0.014,0.132-0.039,0.184-0.074c0.051-0.035,0.093-0.082,0.123-0.14
		c0.031-0.06,0.046-0.133,0.046-0.221c0-0.126-0.033-0.251-0.101-0.374c-0.066-0.125-0.161-0.242-0.283-0.352
		c-0.122-0.111-0.268-0.211-0.438-0.303c-0.17-0.09-0.357-0.165-0.562-0.225c-0.138-0.04-0.275-0.072-0.413-0.093
		c-0.139-0.021-0.265-0.033-0.378-0.033C8.241,232.873,8.049,233.007,8.049,233.277z"/>
	<path fill="#010101" d="M9.805,236.098c0.215,0.126,0.395,0.241,0.541,0.347c0.145,0.104,0.262,0.206,0.349,0.304
		c0.087,0.099,0.15,0.196,0.187,0.293c0.037,0.098,0.056,0.202,0.056,0.315c0,0.184-0.043,0.324-0.128,0.423
		c-0.086,0.098-0.21,0.146-0.371,0.146c-0.136,0-0.26-0.034-0.371-0.101c-0.11-0.067-0.208-0.164-0.292-0.291
		c-0.024-0.04-0.049-0.084-0.072-0.131c-0.022-0.049-0.045-0.104-0.067-0.165c-0.023-0.061-0.046-0.13-0.069-0.207
		c-0.022-0.079-0.047-0.167-0.071-0.268h-0.01c-0.013,0.199-0.058,0.352-0.134,0.457c-0.075,0.105-0.172,0.158-0.289,0.158
		c-0.051,0-0.105-0.009-0.161-0.026c-0.055-0.018-0.112-0.037-0.171-0.059c-0.059-0.022-0.116-0.042-0.175-0.06
		s-0.117-0.026-0.174-0.026c-0.099,0-0.179,0.03-0.24,0.095c-0.062,0.062-0.092,0.155-0.092,0.278c0,0.099,0.021,0.195,0.067,0.293
		c0.045,0.097,0.114,0.195,0.208,0.293c0.093,0.099,0.21,0.199,0.354,0.303c0.144,0.102,0.313,0.209,0.511,0.32l0.223,0.127
		l-0.046,0.064l-0.224-0.126c-0.233-0.133-0.43-0.256-0.586-0.368c-0.155-0.113-0.28-0.225-0.372-0.334
		c-0.093-0.109-0.159-0.219-0.198-0.328c-0.039-0.11-0.059-0.229-0.059-0.354c0-0.074,0.008-0.146,0.021-0.214
		c0.013-0.067,0.036-0.127,0.068-0.179s0.076-0.093,0.131-0.123c0.055-0.031,0.123-0.046,0.206-0.046
		c0.064,0,0.13,0.008,0.197,0.024s0.133,0.035,0.197,0.057c0.063,0.02,0.125,0.038,0.186,0.056c0.059,0.017,0.114,0.025,0.167,0.025
		c0.1,0,0.185-0.041,0.251-0.121c0.068-0.081,0.105-0.206,0.109-0.376h0.013c0.046,0.17,0.104,0.322,0.174,0.456
		c0.07,0.135,0.146,0.249,0.229,0.341c0.163,0.18,0.354,0.27,0.574,0.27c0.262,0,0.393-0.122,0.393-0.364
		c0-0.096-0.022-0.188-0.066-0.28c-0.045-0.091-0.124-0.188-0.235-0.292c-0.113-0.104-0.264-0.217-0.455-0.341
		c-0.19-0.123-0.432-0.265-0.722-0.425l-1.393-0.51v-0.358l4.151,1.51v0.361L9.805,236.098z"/>
	<path fill="#010101" d="M9.383,238.898c0.217,0.056,0.416,0.139,0.602,0.247c0.184,0.109,0.343,0.234,0.479,0.376
		c0.135,0.142,0.24,0.295,0.316,0.461s0.113,0.332,0.113,0.5c0,0.137-0.022,0.25-0.068,0.344c-0.047,0.093-0.107,0.167-0.186,0.224
		c-0.078,0.058-0.168,0.098-0.27,0.122c-0.103,0.023-0.208,0.035-0.319,0.035c-0.121,0-0.242-0.012-0.363-0.034
		c-0.122-0.023-0.237-0.055-0.347-0.091c-0.069-0.022-0.137-0.049-0.2-0.078c-0.065-0.029-0.129-0.06-0.19-0.092
		c-0.054,0.022-0.097,0.056-0.129,0.1c-0.034,0.043-0.051,0.104-0.051,0.182c0,0.045,0.008,0.094,0.022,0.146
		s0.038,0.104,0.071,0.155c0.034,0.054,0.077,0.104,0.13,0.156c0.054,0.05,0.118,0.099,0.196,0.141l0.224,0.127l-0.047,0.065
		l-0.223-0.126c-0.108-0.062-0.194-0.125-0.255-0.188c-0.062-0.063-0.11-0.126-0.143-0.186s-0.054-0.115-0.062-0.168
		c-0.009-0.054-0.014-0.098-0.014-0.135c0-0.076,0.011-0.144,0.031-0.203c0.02-0.061,0.047-0.113,0.081-0.16
		c-0.13-0.081-0.247-0.17-0.352-0.269c-0.105-0.098-0.195-0.201-0.269-0.309c-0.075-0.108-0.132-0.221-0.173-0.336
		c-0.04-0.116-0.06-0.23-0.06-0.346s0.021-0.218,0.062-0.31c0.041-0.091,0.101-0.168,0.178-0.231
		c0.077-0.062,0.173-0.111,0.285-0.146s0.239-0.051,0.38-0.051c0.088,0,0.179,0.007,0.271,0.02
		C9.199,238.854,9.291,238.873,9.383,238.898z M8.049,239.596c0,0.094,0.021,0.189,0.064,0.285s0.104,0.191,0.184,0.283
		c0.078,0.094,0.175,0.183,0.287,0.27c0.112,0.086,0.237,0.165,0.374,0.239c0.037-0.021,0.076-0.034,0.115-0.043
		c0.04-0.009,0.081-0.014,0.123-0.014c0.047,0,0.093,0.007,0.139,0.021c0.047,0.012,0.089,0.032,0.129,0.059
		c0.039,0.026,0.075,0.061,0.107,0.103c0.032,0.041,0.059,0.088,0.077,0.144c0.091,0.024,0.186,0.045,0.283,0.061
		s0.194,0.024,0.289,0.024c0.079,0,0.152-0.008,0.223-0.021c0.07-0.015,0.132-0.039,0.184-0.075c0.051-0.034,0.093-0.081,0.123-0.14
		c0.031-0.059,0.046-0.132,0.046-0.22c0-0.126-0.033-0.251-0.101-0.375c-0.066-0.123-0.161-0.241-0.283-0.352
		s-0.268-0.211-0.438-0.302s-0.357-0.166-0.562-0.226c-0.138-0.04-0.275-0.071-0.413-0.093c-0.139-0.022-0.265-0.033-0.378-0.033
		C8.241,239.191,8.049,239.326,8.049,239.596z"/>
	<path fill="#010101" d="M9.151,242.178c-0.176-0.062-0.321-0.109-0.439-0.14c-0.117-0.029-0.216-0.044-0.295-0.044
		c-0.116,0-0.207,0.03-0.271,0.092c-0.063,0.061-0.096,0.15-0.096,0.269c0,0.109,0.028,0.223,0.086,0.337
		c0.058,0.115,0.137,0.227,0.238,0.335c0.103,0.108,0.223,0.209,0.36,0.303c0.139,0.094,0.287,0.176,0.447,0.245
		c0.151,0.065,0.306,0.114,0.465,0.149s0.323,0.053,0.493,0.053c0.123,0,0.222-0.008,0.295-0.023
		c0.073-0.015,0.132-0.032,0.175-0.053c0.044-0.019,0.077-0.036,0.102-0.052c0.023-0.016,0.046-0.022,0.069-0.022
		c0.028,0,0.055,0.013,0.077,0.037s0.034,0.054,0.034,0.086c0,0.035-0.014,0.065-0.044,0.091c-0.029,0.024-0.068,0.046-0.118,0.062
		c-0.051,0.017-0.109,0.028-0.177,0.036c-0.068,0.008-0.14,0.012-0.217,0.012c-0.109,0-0.219-0.008-0.326-0.022
		c-0.108-0.016-0.214-0.036-0.316-0.062c-0.102-0.024-0.199-0.054-0.293-0.088c-0.094-0.033-0.182-0.069-0.265-0.106
		c-0.175-0.081-0.338-0.174-0.485-0.278c-0.148-0.105-0.275-0.218-0.383-0.339c-0.106-0.121-0.189-0.245-0.248-0.374
		c-0.061-0.129-0.09-0.26-0.09-0.391c0-0.092,0.014-0.175,0.045-0.247c0.029-0.073,0.072-0.135,0.127-0.186s0.121-0.089,0.198-0.116
		c0.078-0.026,0.164-0.04,0.26-0.04c0.082,0,0.174,0.011,0.275,0.031c0.101,0.02,0.206,0.049,0.315,0.088l1.697,0.616v0.358
		L9.151,242.178z"/>
	<path fill="#010101" d="M9.391,244.626c0.174,0.059,0.333,0.128,0.477,0.209c0.143,0.081,0.27,0.168,0.382,0.263
		c0.111,0.095,0.208,0.194,0.288,0.299c0.082,0.104,0.148,0.208,0.2,0.312c0.053,0.104,0.092,0.207,0.118,0.308
		c0.025,0.102,0.038,0.196,0.038,0.285c0,0.093-0.014,0.17-0.042,0.23c-0.029,0.062-0.068,0.111-0.119,0.149
		c-0.051,0.037-0.112,0.064-0.185,0.081c-0.071,0.017-0.151,0.024-0.238,0.024l0.538,0.197v0.358l-1.697-0.618
		c-0.062-0.023-0.127-0.045-0.193-0.068c-0.064-0.022-0.129-0.042-0.193-0.059c-0.063-0.018-0.126-0.031-0.185-0.041
		c-0.059-0.011-0.113-0.017-0.163-0.017c-0.112,0-0.201,0.03-0.267,0.089c-0.066,0.059-0.101,0.151-0.101,0.275
		c0,0.107,0.023,0.213,0.069,0.315s0.117,0.202,0.211,0.302c0.095,0.1,0.213,0.199,0.356,0.299c0.144,0.101,0.312,0.204,0.503,0.311
		l0.223,0.124l-0.046,0.065l-0.223-0.127c-0.211-0.117-0.392-0.23-0.545-0.338c-0.151-0.107-0.278-0.215-0.378-0.321
		s-0.173-0.216-0.222-0.327c-0.047-0.111-0.071-0.23-0.071-0.356c0-0.099,0.015-0.186,0.045-0.261
		c0.03-0.074,0.072-0.139,0.128-0.188c0.056-0.052,0.121-0.09,0.199-0.116c0.077-0.025,0.163-0.038,0.259-0.038
		c0.062,0,0.131,0.006,0.204,0.018c0.074,0.011,0.151,0.027,0.229,0.051c-0.355-0.212-0.621-0.422-0.799-0.628
		c-0.177-0.207-0.266-0.417-0.266-0.631c0-0.101,0.018-0.186,0.055-0.256c0.036-0.07,0.087-0.128,0.152-0.174
		c0.065-0.045,0.143-0.078,0.23-0.099s0.185-0.032,0.289-0.032c0.114,0,0.232,0.012,0.358,0.034S9.264,244.585,9.391,244.626z
		 M8.049,245.143c0,0.087,0.023,0.176,0.069,0.267s0.109,0.181,0.189,0.271c0.08,0.089,0.174,0.177,0.281,0.261
		s0.223,0.164,0.345,0.239c0.121,0.074,0.247,0.144,0.377,0.207c0.129,0.062,0.256,0.117,0.382,0.163
		c0.125,0.047,0.245,0.083,0.358,0.106c0.113,0.025,0.216,0.038,0.308,0.038c0.081,0,0.151-0.011,0.207-0.03
		c0.056-0.021,0.101-0.048,0.135-0.081c0.035-0.033,0.059-0.071,0.074-0.114c0.016-0.042,0.021-0.086,0.021-0.131
		c0-0.091-0.027-0.192-0.083-0.302c-0.056-0.111-0.14-0.224-0.254-0.339s-0.258-0.228-0.432-0.338
		c-0.175-0.111-0.379-0.213-0.613-0.305c-0.195-0.076-0.376-0.133-0.543-0.172c-0.166-0.037-0.305-0.057-0.417-0.057
		c-0.126,0-0.225,0.025-0.297,0.077C8.086,244.953,8.049,245.034,8.049,245.143z"/>
</g>
</svg>
