<?xml version="1.0" encoding="utf-8"?>
<!-- Generator: Adobe Illustrator 16.0.0, SVG Export Plug-In . SVG Version: 6.00 Build 0)  -->
<!DOCTYPE svg PUBLIC "-//W3C//DTD SVG 1.1//EN" "http://www.w3.org/Graphics/SVG/1.1/DTD/svg11.dtd">
<svg version="1.1" id="Layer_1" xmlns="http://www.w3.org/2000/svg" xmlns:xlink="http://www.w3.org/1999/xlink" x="0px" y="0px"
	 width="20px" height="260px" viewBox="120 -120 20 260" enable-background="new 120 -120 20 260" xml:space="preserve">
<rect x="120" y="-120" fill="#189AD4" width="20" height="260"/>
<g enable-background="new    ">
	<path fill="#010101" d="M123.544-106.555l4.796,3.318l0.02-0.018c-0.086-0.183-0.146-0.405-0.184-0.666
		c-0.035-0.261-0.055-0.501-0.055-0.72c0-0.571,0.105-1.106,0.318-1.604c0.213-0.499,0.506-0.937,0.875-1.313
		c0.372-0.377,0.809-0.672,1.313-0.884c0.504-0.213,1.048-0.32,1.632-0.32c0.682,0,1.301,0.122,1.86,0.365s1.037,0.575,1.432,0.994
		c0.396,0.419,0.699,0.918,0.911,1.496c0.213,0.577,0.32,1.193,0.32,1.85c0,0.668-0.112,1.292-0.338,1.869
		c-0.225,0.577-0.538,1.079-0.938,1.504c-0.401,0.425-0.873,0.757-1.414,0.994s-1.122,0.356-1.741,0.356
		c-0.365,0-0.709-0.031-1.031-0.092c-0.322-0.061-0.633-0.148-0.929-0.264c-0.298-0.116-0.599-0.255-0.903-0.419
		c-0.305-0.165-0.62-0.35-0.948-0.556l-4.997-3.228L123.544-106.555L123.544-106.555z M132.407-101.559
		c0.34,0,0.663-0.058,0.966-0.173c0.304-0.116,0.574-0.282,0.812-0.502c0.236-0.218,0.424-0.48,0.564-0.784
		c0.141-0.304,0.21-0.644,0.21-1.021c0-0.742-0.239-1.34-0.72-1.796c-0.481-0.456-1.104-0.684-1.869-0.684
		c-0.365,0-0.702,0.058-1.012,0.173c-0.311,0.115-0.574,0.283-0.793,0.501c-0.219,0.219-0.393,0.477-0.521,0.775
		c-0.127,0.298-0.191,0.63-0.191,0.994c0,0.365,0.06,0.703,0.182,1.012c0.122,0.31,0.294,0.578,0.52,0.803
		c0.225,0.225,0.495,0.398,0.812,0.52C131.684-101.62,132.029-101.559,132.407-101.559z"/>
</g>
<g enable-background="new    ">
	<path fill="#FFFFFF" d="M136.455-96.618v2.297h-10.868v5.489h-2.043v-7.787L136.455-96.618L136.455-96.618z"/>
	<path fill="#FFFFFF" d="M136.455-87.299v2.297h-12.911v-2.297H136.455z"/>
	<path fill="#FFFFFF" d="M136.455-83.762v2.571l-9.938,3.556v0.073l9.938,3.592v2.48l-12.911-5.178v-1.988L136.455-83.762z"/>
	<path fill="#FFFFFF" d="M136.455-70.25v8.552h-2.005v-6.254h-3.283v5.926h-1.933v-5.926h-3.647v6.583h-2.043v-8.88L136.455-70.25
		L136.455-70.25z"/>
	<path fill="#FFFFFF" d="M133.756-52.544c0.316-0.244,0.58-0.586,0.793-1.031c0.212-0.443,0.319-0.891,0.319-1.34
		c0-0.268-0.034-0.535-0.101-0.802c-0.066-0.268-0.17-0.511-0.31-0.729c-0.14-0.22-0.322-0.399-0.547-0.539
		c-0.226-0.14-0.495-0.209-0.812-0.209c-0.293,0-0.541,0.06-0.748,0.182c-0.207,0.122-0.383,0.289-0.529,0.501
		c-0.146,0.212-0.273,0.471-0.383,0.775c-0.109,0.304-0.219,0.639-0.328,1.003c-0.135,0.414-0.286,0.842-0.457,1.286
		c-0.17,0.444-0.396,0.851-0.674,1.222c-0.28,0.371-0.632,0.675-1.058,0.912s-0.955,0.355-1.586,0.355
		c-0.693,0-1.299-0.127-1.814-0.383c-0.518-0.255-0.945-0.596-1.285-1.022c-0.342-0.425-0.596-0.923-0.766-1.495
		c-0.171-0.571-0.257-1.173-0.257-1.805c0-0.838,0.155-1.659,0.466-2.461c0.311-0.803,0.77-1.459,1.377-1.97l1.531,1.641
		c-0.438,0.316-0.783,0.739-1.04,1.267c-0.255,0.529-0.383,1.049-0.383,1.56c0,0.268,0.034,0.541,0.101,0.82
		c0.067,0.28,0.18,0.532,0.338,0.757c0.157,0.224,0.355,0.407,0.592,0.546c0.238,0.139,0.531,0.21,0.886,0.21
		c0.34,0,0.623-0.079,0.849-0.237c0.225-0.159,0.42-0.371,0.584-0.639c0.163-0.268,0.307-0.583,0.428-0.948
		c0.121-0.365,0.25-0.748,0.383-1.148c0.121-0.389,0.267-0.778,0.438-1.167c0.17-0.39,0.395-0.739,0.675-1.049
		c0.279-0.31,0.624-0.562,1.03-0.756c0.407-0.195,0.914-0.292,1.521-0.292c0.656,0,1.223,0.137,1.695,0.41
		c0.475,0.274,0.867,0.632,1.178,1.076c0.31,0.444,0.539,0.949,0.691,1.514s0.229,1.14,0.229,1.723c0,0.657-0.116,1.322-0.347,1.997
		c-0.23,0.674-0.578,1.261-1.039,1.759L133.756-52.544z"/>
</g>
<g enable-background="new    ">
	<path fill="#010101" d="M127.232,78.775v-0.789l5.086,2.205v0.646l-5.086,2.186v-0.806l1.25-0.518v-2.414L127.232,78.775z
		 M129.107,79.538v1.903l2.386-0.947L129.107,79.538z"/>
	<path fill="#010101" d="M130.639,84.252c-0.087,0.01-0.184,0.018-0.291,0.021c-0.108,0.004-0.198,0.008-0.27,0.008v0.021
		c0.091,0.044,0.176,0.103,0.255,0.177c0.079,0.073,0.148,0.157,0.208,0.254c0.061,0.097,0.105,0.201,0.141,0.315
		c0.033,0.115,0.051,0.235,0.051,0.359c0,0.221-0.037,0.409-0.111,0.567s-0.174,0.289-0.298,0.396
		c-0.125,0.104-0.271,0.185-0.438,0.233c-0.168,0.051-0.348,0.076-0.539,0.076h-2.111v-0.677h1.89c0.14,0,0.271-0.011,0.396-0.032
		c0.124-0.021,0.234-0.061,0.33-0.119c0.096-0.057,0.173-0.136,0.23-0.235c0.057-0.101,0.086-0.23,0.086-0.39
		c0-0.268-0.102-0.485-0.306-0.656c-0.203-0.17-0.476-0.256-0.815-0.256h-1.811v-0.676h2.673c0.091,0,0.208-0.002,0.353-0.007
		c0.144-0.005,0.271-0.012,0.381-0.021v0.641H130.639z"/>
	<path fill="#010101" d="M127.771,90.539c-0.205-0.129-0.363-0.307-0.472-0.527c-0.108-0.223-0.161-0.457-0.161-0.701
		c0-0.264,0.047-0.5,0.141-0.711s0.223-0.391,0.385-0.539s0.354-0.264,0.574-0.346c0.22-0.082,0.455-0.122,0.703-0.122
		c0.25,0,0.482,0.04,0.702,0.122c0.218,0.082,0.408,0.197,0.57,0.35c0.163,0.15,0.29,0.33,0.381,0.541
		c0.092,0.211,0.137,0.443,0.137,0.697c0,0.277-0.059,0.521-0.176,0.728c-0.117,0.204-0.26,0.368-0.428,0.487v0.015h2.537v0.676
		h-5.432v-0.653h0.539V90.539z M128.938,88.297c-0.156,0-0.31,0.023-0.457,0.072c-0.148,0.047-0.279,0.119-0.396,0.215
		c-0.112,0.096-0.205,0.213-0.274,0.354c-0.068,0.139-0.104,0.301-0.104,0.488c0,0.172,0.033,0.328,0.101,0.471
		c0.067,0.142,0.155,0.263,0.27,0.362c0.111,0.101,0.242,0.179,0.391,0.233c0.149,0.054,0.303,0.082,0.465,0.082
		s0.317-0.027,0.467-0.082c0.148-0.055,0.278-0.133,0.394-0.233s0.206-0.222,0.272-0.362c0.067-0.143,0.101-0.299,0.101-0.471
		c0-0.188-0.033-0.351-0.101-0.488c-0.066-0.141-0.157-0.258-0.272-0.354c-0.114-0.096-0.245-0.168-0.394-0.215
		C129.249,88.32,129.098,88.297,128.938,88.297z"/>
	<path fill="#010101" d="M130.258,92.378c0.144-0.005,0.271-0.012,0.381-0.021v0.64c-0.087,0.01-0.187,0.017-0.299,0.021
		c-0.112,0.004-0.204,0.008-0.276,0.008v0.021c0.201,0.096,0.363,0.235,0.485,0.42c0.122,0.184,0.184,0.393,0.184,0.621
		c0,0.105-0.01,0.194-0.028,0.266l-0.625-0.027c0.023-0.096,0.035-0.198,0.035-0.311c0-0.162-0.029-0.304-0.09-0.424
		c-0.06-0.119-0.14-0.219-0.24-0.298c-0.1-0.079-0.217-0.138-0.349-0.176c-0.133-0.038-0.271-0.058-0.414-0.058h-1.789v-0.677h2.674
		C129.996,92.385,130.113,92.383,130.258,92.378z"/>
	<path fill="#010101" d="M128.964,98.04c-0.038,0-0.075,0-0.114,0s-0.076-0.003-0.115-0.007v-2.709
		c-0.143,0.004-0.276,0.037-0.401,0.097c-0.127,0.06-0.235,0.14-0.328,0.241c-0.094,0.1-0.166,0.217-0.219,0.348
		c-0.054,0.133-0.078,0.271-0.078,0.422c0,0.229,0.051,0.428,0.149,0.596c0.103,0.168,0.224,0.3,0.367,0.396l-0.381,0.476
		c-0.242-0.183-0.42-0.396-0.533-0.644c-0.112-0.248-0.172-0.521-0.172-0.823c0-0.259,0.043-0.498,0.131-0.719
		c0.086-0.22,0.207-0.408,0.361-0.566c0.156-0.158,0.344-0.283,0.564-0.375c0.22-0.09,0.465-0.135,0.731-0.135
		c0.265,0,0.507,0.043,0.729,0.133c0.223,0.088,0.413,0.211,0.571,0.371c0.158,0.157,0.281,0.346,0.371,0.561
		c0.088,0.217,0.133,0.449,0.133,0.699s-0.041,0.477-0.123,0.68c-0.08,0.205-0.197,0.377-0.352,0.52
		c-0.153,0.142-0.339,0.25-0.558,0.328C129.482,98.002,129.236,98.04,128.964,98.04z M129.236,97.35
		c0.135-0.004,0.261-0.026,0.378-0.067c0.117-0.04,0.22-0.101,0.306-0.179c0.086-0.08,0.154-0.179,0.204-0.295
		c0.051-0.117,0.076-0.256,0.076-0.414c0-0.144-0.025-0.278-0.076-0.405c-0.05-0.128-0.118-0.236-0.204-0.33
		c-0.086-0.095-0.188-0.17-0.306-0.229c-0.117-0.061-0.243-0.095-0.378-0.104V97.35z"/>
	<path fill="#010101" d="M130.639,99.227l-2.602,0.769v0.015l2.602,0.812v0.712l-2.602,0.825v0.016l2.602,0.77v0.711l-3.406-1.129
		v-0.703l2.559-0.842v-0.014l-2.559-0.834V99.63l3.406-1.136V99.227z"/>
	<path fill="#010101" d="M132.318,106.361v0.711h-2.126v2.572h2.126v0.719h-5.086v-0.719h2.328v-2.572h-2.328v-0.711H132.318z"/>
	<path fill="#010101" d="M127.232,113.963c0.086-0.01,0.184-0.018,0.291-0.021c0.106-0.004,0.197-0.008,0.27-0.008v-0.014
		c-0.182-0.086-0.336-0.23-0.463-0.436c-0.127-0.203-0.191-0.43-0.191-0.678c0-0.222,0.037-0.412,0.109-0.572
		c0.07-0.16,0.17-0.293,0.297-0.396c0.127-0.104,0.275-0.18,0.443-0.229c0.166-0.051,0.346-0.075,0.537-0.075h2.113v0.675h-1.883
		c-0.139,0-0.271,0.012-0.398,0.033s-0.237,0.061-0.334,0.117c-0.096,0.058-0.172,0.138-0.229,0.238s-0.086,0.229-0.086,0.389
		c0,0.271,0.103,0.492,0.306,0.66c0.204,0.168,0.477,0.252,0.814,0.252h1.811v0.676h-2.674c-0.09,0-0.207,0.002-0.352,0.006
		c-0.143,0.006-0.271,0.013-0.381,0.021V113.963z"/>
	<path fill="#010101" d="M127.771,118.461c-0.205-0.129-0.363-0.307-0.472-0.527c-0.108-0.223-0.161-0.457-0.161-0.701
		c0-0.264,0.047-0.5,0.141-0.711s0.223-0.391,0.385-0.539s0.354-0.264,0.574-0.346c0.22-0.082,0.455-0.121,0.703-0.121
		c0.25,0,0.482,0.039,0.702,0.121c0.218,0.082,0.408,0.197,0.57,0.35c0.163,0.15,0.29,0.33,0.381,0.541
		c0.092,0.212,0.137,0.443,0.137,0.697c0,0.277-0.059,0.521-0.176,0.728c-0.117,0.205-0.26,0.368-0.428,0.487v0.015h2.537v0.676
		h-5.432v-0.653h0.539V118.461z M128.938,116.219c-0.156,0-0.31,0.023-0.457,0.072c-0.148,0.047-0.279,0.119-0.396,0.215
		c-0.112,0.096-0.205,0.213-0.274,0.354c-0.068,0.139-0.104,0.302-0.104,0.488c0,0.172,0.033,0.328,0.101,0.471
		c0.067,0.142,0.155,0.263,0.27,0.363c0.111,0.101,0.242,0.178,0.391,0.232c0.149,0.054,0.303,0.082,0.465,0.082
		s0.317-0.027,0.467-0.082c0.148-0.055,0.278-0.133,0.394-0.232c0.115-0.102,0.206-0.223,0.272-0.363
		c0.067-0.143,0.101-0.299,0.101-0.471c0-0.188-0.033-0.351-0.101-0.488c-0.066-0.141-0.157-0.258-0.272-0.354
		c-0.114-0.096-0.245-0.168-0.394-0.215C129.249,116.242,129.098,116.219,128.938,116.219z"/>
	<path fill="#010101" d="M129.776,122.146c0.124-0.076,0.226-0.186,0.305-0.323c0.079-0.14,0.119-0.294,0.119-0.468
		c0-0.076-0.009-0.152-0.025-0.229c-0.017-0.078-0.043-0.146-0.079-0.205c-0.036-0.062-0.081-0.108-0.137-0.146
		c-0.055-0.034-0.123-0.053-0.204-0.053c-0.145,0-0.251,0.064-0.319,0.193c-0.069,0.129-0.134,0.322-0.19,0.582
		c-0.038,0.162-0.084,0.312-0.138,0.453c-0.053,0.139-0.117,0.26-0.196,0.361c-0.079,0.103-0.175,0.184-0.283,0.242
		c-0.108,0.057-0.239,0.086-0.389,0.086c-0.201,0-0.371-0.039-0.511-0.115c-0.139-0.076-0.252-0.18-0.342-0.305
		c-0.088-0.128-0.152-0.273-0.188-0.437c-0.039-0.162-0.06-0.33-0.06-0.503c0-0.26,0.051-0.512,0.152-0.758
		c0.1-0.248,0.254-0.453,0.459-0.614l0.41,0.481c-0.135,0.09-0.248,0.215-0.338,0.377c-0.092,0.16-0.137,0.336-0.137,0.527
		c0,0.086,0.008,0.169,0.024,0.248c0.017,0.078,0.045,0.15,0.082,0.215c0.039,0.064,0.09,0.117,0.149,0.154
		c0.062,0.039,0.144,0.059,0.238,0.059c0.158,0,0.275-0.076,0.353-0.227c0.075-0.151,0.147-0.373,0.215-0.665
		c0.028-0.114,0.063-0.231,0.104-0.349c0.041-0.119,0.098-0.225,0.168-0.319c0.072-0.097,0.162-0.175,0.271-0.233
		c0.106-0.061,0.24-0.09,0.398-0.09c0.183,0,0.339,0.037,0.471,0.111c0.132,0.074,0.24,0.171,0.323,0.291
		c0.084,0.119,0.146,0.256,0.188,0.408c0.04,0.153,0.061,0.312,0.061,0.476c0,0.244-0.047,0.479-0.144,0.708
		c-0.096,0.227-0.234,0.402-0.417,0.527L129.776,122.146z"/>
	<path fill="#010101" d="M128.941,126.945c-0.262,0-0.504-0.047-0.726-0.141c-0.221-0.093-0.409-0.223-0.569-0.388
		c-0.16-0.166-0.285-0.36-0.375-0.586c-0.088-0.226-0.133-0.467-0.133-0.726c0-0.26,0.045-0.502,0.133-0.727
		c0.09-0.225,0.215-0.42,0.375-0.582c0.16-0.163,0.35-0.291,0.569-0.385s0.464-0.141,0.726-0.141c0.265,0,0.504,0.047,0.724,0.141
		c0.218,0.094,0.405,0.222,0.563,0.385c0.158,0.162,0.281,0.357,0.37,0.582c0.09,0.225,0.133,0.467,0.133,0.727
		c0,0.259-0.043,0.5-0.133,0.726c-0.089,0.226-0.212,0.42-0.37,0.586c-0.158,0.165-0.346,0.295-0.563,0.388
		C129.445,126.898,129.206,126.945,128.941,126.945z M128.938,126.242c0.164,0,0.318-0.025,0.467-0.076
		c0.147-0.051,0.278-0.123,0.391-0.221c0.113-0.096,0.202-0.215,0.269-0.355c0.067-0.143,0.101-0.305,0.101-0.486
		c0-0.184-0.033-0.346-0.101-0.486c-0.066-0.143-0.156-0.262-0.269-0.355c-0.113-0.096-0.242-0.171-0.391-0.222
		c-0.147-0.05-0.303-0.075-0.467-0.075c-0.162,0-0.316,0.025-0.463,0.075c-0.148,0.051-0.281,0.125-0.396,0.222
		c-0.115,0.096-0.205,0.215-0.272,0.355c-0.066,0.142-0.101,0.304-0.101,0.486s0.033,0.345,0.101,0.486
		c0.067,0.143,0.157,0.26,0.272,0.355c0.112,0.098,0.246,0.17,0.396,0.221C128.621,126.217,128.775,126.242,128.938,126.242z"/>
	<path fill="#010101" d="M130.639,128.491c-0.087,0.009-0.184,0.017-0.291,0.021c-0.108,0.006-0.198,0.008-0.27,0.008v0.021
		c0.091,0.043,0.176,0.103,0.255,0.176c0.079,0.074,0.148,0.16,0.208,0.257c0.061,0.096,0.105,0.2,0.141,0.315
		c0.033,0.114,0.051,0.233,0.051,0.358c0,0.221-0.037,0.41-0.111,0.566c-0.074,0.158-0.174,0.291-0.298,0.396
		c-0.125,0.104-0.271,0.183-0.438,0.231c-0.168,0.052-0.348,0.076-0.539,0.076h-2.111v-0.676h1.89c0.14,0,0.271-0.011,0.396-0.032
		c0.124-0.021,0.234-0.062,0.33-0.118c0.096-0.058,0.173-0.137,0.23-0.237c0.057-0.1,0.086-0.229,0.086-0.388
		c0-0.269-0.102-0.487-0.306-0.657c-0.203-0.17-0.476-0.256-0.815-0.256h-1.811v-0.675h2.673c0.091,0,0.208-0.003,0.353-0.008
		c0.144-0.005,0.271-0.013,0.381-0.021v0.642H130.639z"/>
</g>
</svg>
