<?xml version="1.0" encoding="utf-8"?>
<!-- Generator: Adobe Illustrator 16.0.0, SVG Export Plug-In . SVG Version: 6.00 Build 0)  -->
<!DOCTYPE svg PUBLIC "-//W3C//DTD SVG 1.1//EN" "http://www.w3.org/Graphics/SVG/1.1/DTD/svg11.dtd">
<svg version="1.1" id="Layer_1" xmlns="http://www.w3.org/2000/svg" xmlns:xlink="http://www.w3.org/1999/xlink" x="0px" y="0px"
	 width="20px" height="260px" viewBox="0 0 20 260" enable-background="new 0 0 20 260" xml:space="preserve">
<rect x="0.146" fill="#F7A56E" width="20" height="260"/>
<path fill="#FFFFFF" d="M16.732,7.97l-0.238-0.238V7.494l0.238-0.238v-0.12l-0.119-0.119V6.778l0.119-0.12l-0.238-0.238l0.119-0.596
	L16.494,5.11V4.633l0.238-0.23h0.357v0.469l-0.119,0.596l0.119,0.119l-0.357,0.358L17.09,6.42v0.477l-0.238,0.357l0.238,0.357
	L16.732,7.97z M3.468,5.564H3.35L3.111,5.087V4.85h0.118l0.478,0.477L3.468,5.564z M14.527,5.907v0.149l-0.148,0.596l0.148,0.447
	l-0.596,0.298l-0.596-0.148l-0.148,0.148L12.89,7.099l-0.447,0.447h-0.299l-0.595-0.298l-0.447,0.298
	c-0.496-0.099-0.745-0.298-0.745-0.596H10.06v0.298H9.313L9.166,7.396H9.017V6.949L7.378,7.545c-0.794,0-1.191-0.249-1.191-0.745
	H6.037v0.745H5.74L5.591,7.396H5.441c0-1.39,0.199-2.085,0.596-2.085l0.745-0.149l1.787,0.596l0.298,0.298
	c0-0.258,0.397-0.457,1.192-0.596h0.148l0.148,0.149l1.938-0.447l0.446,0.447l0.447-0.149l0.148,0.149v0.149l-0.298,0.298h0.298
	l0.447-0.149L13.484,5.46l0.149-0.148h0.149L14.527,5.907z M7.378,5.758H7.081v0.447l0.297-0.298V5.758z M3.35,13.429H3.111v-0.238
	l0.238-0.358L3.111,11.76c0-0.238,0.079-0.357,0.238-0.357l-0.12-0.596v-0.596l0.12-0.119c-0.159,0-0.238-0.397-0.238-1.192V8.781
	L3.35,8.543L3.111,6.875L3.35,5.803l0.237,0.238v0.357L3.35,6.755h0.237v0.953L3.468,7.828l0.239,0.834h-0.12L3.468,8.781
	l0.239,0.596l-0.12,0.477v0.12l0.12,0.119l-0.12,1.311l0.12,0.596l-0.12,0.119l0.12,0.477C3.468,12.883,3.35,13.16,3.35,13.429z
	 M11.995,6.354c-0.198,0-0.298-0.149-0.298-0.447h-0.596c-0.147,0-0.298,0.199-0.447,0.596c0.363,0,0.76,0.148,1.192,0.447
	l0.148-0.149V6.354L11.995,6.354z M9.464,6.056H9.314v0.298l0.447,0.148V6.354L9.464,6.056z M8.421,6.205H7.975L7.081,6.503
	c0,0.198,0.297,0.347,0.894,0.447V6.801c0-0.199,0.148-0.298,0.446-0.298V6.205z M16.493,13.332v-0.238l0.12-1.073v-0.119
	l-0.12-0.119v-0.119l0.12-0.119l-0.12-0.715V10.71l0.12-0.119l-0.119-0.715V9.519l0.238-0.238l-0.119-0.596V8.208h0.119l0.119,0.119
	l-0.119,0.119l0.357,0.596v0.596l-0.238,0.358v0.119l0.238,0.357v0.119l-0.238,0.238l0.238,1.788h-0.119l-0.119,0.12l0.238,0.357
	v0.372l-0.566-0.015C16.504,13.416,16.493,13.377,16.493,13.332z M14.527,9.035v1.191c0,0.198-0.396,0.397-1.191,0.596l-0.148,0.744
	h0.297v0.298h-0.446c0-0.298-0.148-0.447-0.447-0.447v0.447l0.299,0.447L12.74,12.46h-1.042l-0.446-0.447l0.297-0.298h0.149
	l0.148,0.149h0.148v-0.298c0-0.199-0.298-0.347-0.893-0.447v0.149l-0.299,0.745l0.299,0.298l-0.448,0.298l-0.147-0.447L9.314,12.46
	l-0.148-0.149L8.421,12.46c-0.993-0.075-1.488-0.273-1.488-0.596l-0.149,0.149H6.635l-0.299-0.298l0.299-0.298
	c-0.496,0-0.745-0.149-0.745-0.447v-0.148h0.299v-0.148c0-0.228-0.249-0.377-0.746-0.447V9.63l0.299-0.298L5.89,9.779h0.149V9.183
	c-0.298,0-0.447-0.099-0.447-0.298l0.447-0.298h0.148l0.148,0.149l0.148-0.149h0.298c0.164,0,0.362,0.298,0.596,0.894L7.527,9.63
	c0.198,0,0.298,0.199,0.298,0.596h0.596v0.448c-0.497,0-0.744,0.099-0.744,0.297v0.149h0.298c0.784-0.596,1.43-0.894,1.937-0.894
	l0.596,0.298c0.998,0,1.594-0.348,1.788-1.043c0.396,0,0.595-0.248,0.595-0.744l0.148-0.149h0.299l0.148,0.149l0.149-0.149h0.148
	C14.28,8.717,14.527,8.866,14.527,9.035z M12.592,9.928l-0.298,0.298v0.149h0.297L12.592,9.928z M7.229,10.375H7.081l-0.447,0.447
	h0.298l0.298-0.298V10.375L7.229,10.375z M9.612,10.673H9.464c-0.298,0.1-0.446,0.397-0.446,0.893h0.446L9.612,10.673z"/>
<path fill="#FFFFFF" d="M3.379,15.052H3.141v-0.238l0.238-0.238l-0.358-0.477v-0.597l0.239-0.238h0.119l0.238,1.43
	C3.617,14.933,3.538,15.052,3.379,15.052z M16.762,17.093l0.09-0.134V16.84l-0.238-0.357v-0.119l0.119-0.119l-0.238-0.238
	l0.238-0.357l-0.238-0.238l0.119-0.357l-0.119-0.357v-0.12l0.119-0.119l-0.119-0.12l0.238-0.357v-0.119l-0.238-0.238l0.238-0.238
	h0.119l0.238,0.238V14.1l-0.119,0.477l0.119,0.477v1.191l-0.119,0.596l0.119,0.119l-0.029,0.134L16.762,17.093L16.762,17.093z
	 M14.699,14.963l-0.148,0.148l0.148,0.149v0.447c-0.253,0.497-0.65,0.745-1.191,0.745H13.21c-0.298,0-0.447-0.298-0.447-0.894
	h-0.148v0.596h-0.149l-0.148-0.148h-0.148c0,0.198-0.298,0.347-0.894,0.447l-0.447-0.149l-0.446,0.149l-0.149-0.149v-0.149
	l-1.043,0.298l-0.595-0.298l-0.149,0.149v0.149l-1.043-0.149H6.657l-1.043,0.149l-0.149-0.149v-0.149l0.148-0.148v-0.149
	l-0.148-0.894v-0.149c0-0.258,0.397-0.456,1.191-0.595c0,0.199,0.248,0.298,0.744,0.298v0.447h0.148l0.149-0.149h0.149l-0.149-0.148
	v-0.149l0.149-0.148v-0.149l0.744,0.149l0.596-0.149c0.895,0,1.341,0.348,1.341,1.043h0.447l-0.447-1.191h0.148l0.447,0.298h0.148
	l0.149-0.149h0.148l0.148,0.149v-0.149l0.597,0.447l-0.148,0.148v0.149l0.148,0.149l-0.148,0.148h0.298v-0.298h0.298l0.894,0.745
	h0.298l-0.446-1.191l-0.149,0.148H13.21l-0.597-0.446l0.745-0.149l0.298,0.298l0.149-0.149h0.297L14.699,14.963z M10.082,14.813
	H9.635v0.447l0.745,0.149L10.082,14.813z M9.485,15.559L9.039,15.41v0.447l0.149-0.149h0.147l0.149,0.149V15.559L9.485,15.559z
	 M3.074,17.093l-0.053-0.134l0.238-1.192l-0.119-0.119V15.41h0.238l0.238,0.238v0.834l-0.119,0.119l0.119,0.12v0.238l-0.119,0.12
	h0.119v0.014L3.074,17.093L3.074,17.093z"/>
<path fill="#FFFFFF" d="M16.493,18.434l0.239-1.43h0.119l0.238,0.238v0.596l-0.358,0.477l0.238,0.238v0.238h-0.238
	C16.573,18.791,16.493,18.671,16.493,18.434z M3.021,20.697l0.119-0.119l-0.119-0.596v-1.191l0.119-0.477l-0.119-0.476V17.36
	l0.238-0.238h0.119l0.238,0.238l-0.238,0.238v0.12l0.238,0.357l-0.119,0.12l0.119,0.119v0.119L3.498,18.79l0.119,0.357l-0.238,0.238
	l0.238,0.357l-0.238,0.238l0.119,0.119v0.119L3.26,20.577v0.119l0.238,0.358L3.26,21.292H3.141L3.021,20.697z M14.707,19.573v0.797
	c-0.209,0-0.313,0.213-0.313,0.64l-0.155,0.164h-0.313c-0.243-0.214-0.611-0.32-1.103-0.32v-0.32l0.938-0.64v-0.32h-0.312
	l-1.095,0.797l-0.477-0.477l-0.157,0.156h-0.312l-0.313-0.32l-1.103,0.32l-0.312-0.32l-0.313,0.64l-0.789-0.32l-0.156,0.164H7.476
	l-0.157-0.164H7.162c0,0.75-0.104,1.125-0.312,1.125c-1.048-0.213-1.571-0.481-1.571-0.804v-0.32l0.156-0.156l-0.156-0.164v-0.32
	c0.739-1.033,1.211-1.567,1.415-1.602c0.353,0.427,0.668,0.641,0.945,0.641v-0.157l-0.163-0.164v-0.156h0.163l0.938,0.156
	l1.103-0.32c1.152,0,1.729,0.427,1.729,1.281h0.312l0.313-0.32l-0.47-0.477l1.728-0.484l0.157,0.484l0.157-0.164h0.319
	C14.113,18.128,14.374,18.609,14.707,19.573z M8.719,18.552H8.42l-0.148,0.447l-0.446-0.148l-0.148,0.148v0.149
	c0.099,0.298,0.397,0.447,0.893,0.447l0.299-0.297L8.719,18.552z M16.516,25.903l0.217-0.32l-0.239-0.239v-0.715
	c0-0.159,0.12-0.238,0.358-0.238v-0.358c-0.238,0-0.358-0.119-0.358-0.357l0.239-0.357l-0.239-0.715l0.239-0.238l-0.239-0.358
	v-0.119l0.12-0.119l-0.12-0.357l0.12-0.119v-0.12l-0.12-0.357h0.12l-0.12-0.119v-0.238l0.12-0.12l-0.12-0.119v-0.834l0.239-0.238
	h0.237v0.238l-0.118,0.119l0.238,1.191l-0.358,0.953c0.238,0,0.358,0.08,0.358,0.238v0.715l-0.238,0.238l0.238,0.477l-0.12,0.357
	l0.12,0.596l-0.12,0.119l0.12,0.596v0.357l-0.238,0.239l0.118,0.119v0.201H16.516z M12.145,19.297h-0.447v0.149l0.298,0.297
	L12.145,19.297z M6.782,19.297H6.336v0.298l0.596,0.149L6.782,19.297z M3.104,25.903l-0.083-0.082v-0.596l0.119-0.119l-0.119-0.119
	v-0.119L3.26,24.51l-0.238-0.596l0.119-0.953l-0.119-1.072l0.357-0.238l0.238,0.238c0,0.268-0.119,0.546-0.357,0.834
	c0.159,0,0.238,0.119,0.238,0.358l-0.119,0.357h0.237l-0.118,0.477l0.11,1.989L3.104,25.903L3.104,25.903z M10.878,22.418v0.298
	c0,0.799-0.233,1.199-0.699,1.199v0.447c0.352,0,0.414,0.099,0.186,0.297c-0.119,0.299-0.469,0.448-1.05,0.448H9.136l-0.521-0.448
	l-0.871,0.149l-0.179-0.149l-0.172,0.149H7.215l-0.7-0.447L6.343,24.51H6.164l-0.871-1.042v-0.745l0.7-0.596h0.871v0.447h0.18
	v-0.298h0.521c0.233,0.104,0.293,0.354,0.179,0.752c0.526,0.06,0.847,0.012,0.961-0.142c-0.04-0.194-0.04-0.474,0-0.842l0.954-0.223
	C10.283,21.822,10.689,22.021,10.878,22.418z M14.677,23.021c-0.223,0.894-0.511,1.341-0.863,1.341
	c-0.492,0-0.738,0.198-0.738,0.596h-0.364l-0.127-0.149h-0.119l-0.246,0.297h-0.126l-0.245-0.297V24.51l0.617-0.745H12.22
	l-0.126,0.149h-0.119l-0.127-0.149v-0.447c0.174,0,0.665-0.447,1.474-1.34l0.619-0.149L14.677,23.021z M10.007,22.566l-0.699-0.148
	v0.298h0.699V22.566z M6.693,22.723H6.164v0.298l0.529,0.149V22.723z"/>
<path fill="#FFFFFF" d="M3.379,27.542H3.141v-0.238l0.238-0.238l-0.358-0.477v-0.596l0.239-0.238h0.119l0.238,1.43
	C3.617,27.422,3.538,27.542,3.379,27.542z M16.762,29.582l0.09-0.134v-0.119l-0.238-0.357v-0.12l0.119-0.119l-0.238-0.238
	l0.238-0.357L16.494,27.9l0.119-0.358l-0.119-0.357v-0.119l0.119-0.119l-0.119-0.119l0.238-0.357v-0.119l-0.238-0.238l0.238-0.238
	h0.119l0.238,0.238v0.477l-0.119,0.477l0.119,0.477v1.192l-0.119,0.596l0.119,0.119l-0.029,0.134h-0.299V29.582z M14.699,27.452
	l-0.148,0.148l0.148,0.149v0.447c-0.253,0.496-0.65,0.745-1.191,0.745H13.21c-0.298,0-0.447-0.299-0.447-0.894h-0.148v0.596h-0.149
	l-0.148-0.149h-0.148c0,0.199-0.298,0.348-0.894,0.447l-0.447-0.149l-0.446,0.149l-0.149-0.149v-0.149l-1.043,0.298l-0.595-0.298
	l-0.149,0.149v0.149l-1.043-0.149H6.657l-1.043,0.149l-0.15-0.149v-0.148l0.149-0.149v-0.148l-0.149-0.895v-0.149
	c0-0.258,0.398-0.457,1.192-0.596c0,0.199,0.248,0.298,0.744,0.298v0.447h0.148l0.149-0.149h0.149l-0.149-0.149v-0.148l0.149-0.149
	v-0.148l0.744,0.148l0.596-0.148c0.895,0,1.341,0.348,1.341,1.042h0.447l-0.447-1.191h0.148l0.447,0.298h0.148l0.149-0.149h0.148
	l0.148,0.149v-0.149l0.597,0.447l-0.148,0.149v0.149l0.148,0.148l-0.148,0.149h0.298v-0.298h0.298l0.894,0.745h0.298l-0.446-1.192
	l-0.149,0.149H13.21l-0.597-0.447l0.745-0.148l0.298,0.298l0.149-0.149h0.297L14.699,27.452z M10.082,27.303H9.635v0.447
	l0.745,0.149L10.082,27.303z M9.485,28.048l-0.446-0.148v0.446l0.149-0.148h0.147l0.149,0.148V28.048L9.485,28.048z M3.074,29.582
	l-0.053-0.134l0.238-1.191l-0.119-0.12v-0.238h0.238l0.238,0.238v0.834l-0.119,0.119l0.119,0.119v0.239l-0.119,0.119h0.119v0.015
	H3.074L3.074,29.582z"/>
<path fill="#FFFFFF" d="M16.367,33.246l0.119-0.119h0.119l-0.119-0.119V32.77l0.238-0.953c-0.238,0-0.357-0.08-0.357-0.238
	l0.357-0.119l-0.238-0.357l0.119-0.12l-0.119-0.119v-0.12l0.119-0.477l-0.119-0.477l0.238-0.238h0.119v0.119l-0.119,0.119v0.12
	l0.238,0.477l-0.119,0.119v0.12l0.119,0.715h-0.119l0.119,0.357c-0.035,0.794-0.114,1.192-0.238,1.192l0.119,0.119v0.461
	l-0.462,0.201C16.372,33.537,16.367,33.395,16.367,33.246z M3.506,30.387v0.119l-0.12,0.119l0.12,0.119v0.597l-0.238,0.477H3.148
	L2.91,31.578v-0.119l0.118-0.477L2.91,30.505v-0.238l0.238-0.238l-0.12-0.119v-0.12l0.239-0.238h0.118L3.506,30.387z M14.557,31.19
	l-0.595,0.149v0.149c0.298,0,0.446,0.099,0.446,0.298v0.298H14.26l0.297,3.277l-0.148,0.149l0.148,0.148l-0.297,0.298l0.148,0.745
	l-0.596,0.447c-0.993-0.199-1.49-0.397-1.49-0.597l0.447-0.744l-0.297-0.297c0-0.199,0.147-0.298,0.446-0.298l-0.446-0.596v-0.447
	l0.297-0.447v-0.149h-0.447l0.299-2.085l-0.148-0.148h-0.149c0-0.472,0.397-0.82,1.191-1.043
	C14.21,30.352,14.557,30.65,14.557,31.19z M11.28,33.127v1.191c-0.159,0.397-0.506,0.596-1.043,0.596H9.939l-0.446-0.447
	l-1.639,0.447c-0.397-0.099-0.596-0.298-0.596-0.596H7.109c-0.361,0.298-0.709,0.447-1.042,0.447H5.919L5.62,34.468v-0.149
	l0.148-0.149L5.62,34.021v-0.893c0.198-0.397,0.497-0.596,0.894-0.596l1.489,0.447c0-0.233,0.348-0.382,1.043-0.447l0.298,0.298
	l0.596-0.149v0.149l0.149-0.149h0.148l0.149,0.149h0.149l0.447-0.149L11.28,33.127z M13.812,32.68h-0.596v0.149l0.148,0.596
	l-0.148,0.447l0.148,0.149h0.299c0-0.397,0.1-0.596,0.298-0.596L13.812,32.68z M7.557,33.127H7.408v0.596h0.298L7.557,33.127z
	 M9.493,33.574l-0.596-0.149v0.149l0.298,0.298L9.493,33.574z M3.028,37.774L2.91,37.297V37.06l0.238-0.239L2.91,35.748l0.238-0.953
	L2.91,34.557l0.089-0.26l0.402,0.082l0.104,0.537l-0.119,0.119v0.12l0.119,0.358l-0.238,0.238l0.238,0.239l-0.119,0.476l0.119,0.478
	H3.387l0.119,0.119v0.476c0,0.159-0.119,0.238-0.357,0.238v0.119c0.188,0,0.303,0.048,0.343,0.142l-0.515-0.03L3.028,37.774z
	 M13.067,35.212v0.149l0.299,0.298v-0.148L13.067,35.212z M16.486,37.894l0.119-0.12l-0.216-1.296l0.515-0.126l-0.06,0.351
	l0.118,0.119v0.12l-0.118,0.595l0.044,0.514l-0.402-0.037V37.894z"/>
<path fill="#FFFFFF" d="M3.654,37.551l-0.059,0.305l0.118,0.663l-0.238,0.335H3.357l-0.238-0.335c0-0.223,0.118-0.335,0.357-0.335
	v-0.328H3.119c0.01-0.104,0.022-0.206,0.037-0.305H3.654z M17.008,37.767l-0.066,0.373l0.119,0.804l-0.239,0.268h-0.238v-0.537
	l0.238-0.402v-0.134l-0.163-0.373H17.008L17.008,37.767z M10.425,39.547l-0.217,0.193L10.06,39.89l0.148,0.149v0.447
	c0,0.218-0.396,0.418-1.19,0.596l-0.149-0.447l-0.447,0.149l0.148,0.149v0.447l-0.446,0.283l-1.058-0.156
	c0.09-0.169,0.134-0.502,0.134-0.999c-0.298,0-0.546-0.148-0.744-0.446c-0.774-0.015-1.162-0.171-1.162-0.469v-0.149l0.148-0.745
	L5.293,38.55l0.596-0.447l0.447,0.298c0-0.298,0.099-0.447,0.298-0.447c0.819,0.397,1.563,0.596,2.234,0.596l0.298,0.297
	l0.662,0.105L10.425,39.547z M3.714,39.568l-0.238,0.358v0.477l0.238,0.357v1.549l-0.477,0.358l-0.119-0.119l0.119-1.191V40.88
	l0.119-0.12v-0.119l-0.238-0.239v-0.714l0.119-0.12l-0.119-0.12v-0.238l0.238-0.238l0.119,0.119l0.119-0.119l0.119,0.119V39.568
	L3.714,39.568z M8.271,38.996l-0.446,0.149l-0.447-0.149v0.149l-0.148,0.446h0.596l0.148-0.148h0.149l0.446,0.447h0.299
	L8.271,38.996z M17.06,40.165l-0.119,0.119l0.119,0.834v1.549h-0.238l-0.357-0.357v-0.12l0.238-0.953l-0.119-0.12h-0.119
	l0.119-0.596l-0.119-0.834l0.119-0.12h0.358v0.12l-0.12,0.12v0.119L17.06,40.165z M14.677,41.379
	c-0.145,0.993-0.343,1.489-0.596,1.489c-0.497,0-0.744-0.148-0.744-0.446H12.89v0.149l0.148,0.446l-2.681,0.894l-0.149-0.149v-0.149
	l-3.426,1.34l-0.148,0.149l-0.447-0.298l0.149-0.148v-0.298c-0.199,0-0.299,0.149-0.299,0.447H5.889
	c-0.298-0.1-0.447-0.397-0.447-0.894v-0.298l0.149-0.149l0.446-0.149c0-0.497,0.249-0.745,0.745-0.745l1.787-0.448l0.299,0.597
	h0.298c0-0.269,0.248-0.517,0.744-0.745l0.597,0.149c0-0.397,0.147-0.596,0.447-0.596l1.19-0.447l0.149,0.149v0.149
	c0.297,0,0.446-0.149,0.446-0.448l0.745,0.149l0.298-0.297h0.447L14.677,41.379z M12.442,41.528h-0.596v0.149l0.298,0.298
	L12.442,41.528z M11.697,42.571h-0.446l0.149,0.446h0.744L11.697,42.571z M17.06,43.62l-0.238,0.358l0.238,0.238v0.12l-0.119,0.596
	h-0.238l-0.238-0.238l0.238-0.357l-0.238-0.477c0.095-0.636,0.253-0.954,0.478-0.954l0.119,0.12L17.06,43.62L17.06,43.62z
	 M3.714,43.144v0.239L3.356,43.74l-0.238-0.239l0.238-0.596h0.119L3.714,43.144z M10.357,43.167l-0.149-0.149H10.06v0.447
	L10.357,43.167z M7.825,43.017H7.527c-0.452,0.194-0.7,0.392-0.745,0.596l0.148,0.149h0.299c0-0.298,0.148-0.447,0.447-0.447
	l0.148-0.149V43.017z M3.282,45.616l0.074-0.997l-0.119-0.611l0.119-0.149h0.119l0.238,0.305v0.908l-0.104,0.544H3.282L3.282,45.616
	z"/>
<path fill="#FFFFFF" d="M3.625,45.475L3.506,46.07l0.119,0.478l-0.119,0.477c-0.154,0-0.313-0.239-0.478-0.716l0.12-0.715v-0.357
	h0.237L3.625,45.475z M17.067,46.785l-0.12,0.715l0.12,0.595l-0.12,0.12v0.12l0.12,0.476l-0.12,0.12h-0.118l0.118,0.119v0.238
	l-0.237,0.238l-0.238-0.357V49.05l0.238-0.357l-0.119-0.12h-0.119l0.238-0.953l-0.238-0.238v-0.477l0.119-0.477l-0.119-0.357
	l0.357-0.119v-0.119c-0.238,0-0.357-0.08-0.357-0.239v-0.119l0.238-0.23h0.237L17.067,46.785z M14.699,47.478
	c-0.203,0.044-0.402,0.293-0.597,0.745l-0.446-0.149l-1.34,0.149l-0.149-0.149v-0.149l-0.148,0.149h-1.341l-0.895-0.149
	l-0.744,0.149l-0.148-0.149l-0.744,0.149H7.549l-0.596-0.149L6.06,48.223c-0.372,0-0.621-0.447-0.745-1.34
	c0.204-0.596,0.403-0.894,0.597-0.894h0.447l0.446,0.298h0.148L7.4,45.988l0.745,0.149l0.744-0.149l0.148,0.149v0.148l-0.148,0.15
	h0.446c0-0.298,0.148-0.448,0.447-0.448l0.447,0.298l0.148-0.148h0.298v0.148l-0.147,0.15v0.149h0.595l-0.148-0.149v-0.15
	l1.341-0.298l0.148,0.149v0.447l-0.148-0.149h-0.149v0.297h-0.148l0.148,0.447h0.447l-0.149-0.447
	c0.199-0.496,0.497-0.745,0.895-0.745C14.253,45.988,14.699,46.485,14.699,47.478z M8.592,46.585l-0.298,0.297v0.149l0.298-0.298
	V46.585z M3.506,47.62l-0.357-0.358l0.237-0.238L3.506,47.62z M13.656,47.181l-0.148,0.148h-0.149l-0.298-0.298h-0.298v0.447h0.894
	V47.181z M11.869,47.031h-0.447l0.149,0.745l0.297-0.298L11.869,47.031L11.869,47.031z M8.741,47.031H8.593v0.745h0.148V47.031z
	 M6.358,47.181l-0.447-0.149v0.596l0.447-0.149V47.181z M11.124,47.478l-0.595-0.149v0.447h0.595V47.478z M3.625,48.692v0.238
	l-0.238,0.357l0.119,0.477l-0.119,0.119v0.119l0.119,0.477l-0.238,0.357l0.357,0.358v1.31l-0.119,0.12l0.119,0.12v0.118
	l-0.238,0.239c-0.238-0.05-0.357-0.368-0.357-0.953h0.119l-0.119-0.12v-0.477l0.238-0.239l0.119,0.12v-0.12l-0.358-0.477v-0.238
	h0.12l-0.12-1.191l0.12-0.954l-0.12-0.714h0.239l0.238,0.238v0.119l-0.12,0.358L3.625,48.692z M7.698,52.096
	c0,0.596-0.348,0.894-1.042,0.894l-0.149-0.15H6.358l-0.596,0.15l-0.299-0.298c0.069-1.023,0.269-1.668,0.596-1.937v-0.149
	c-0.396,0-0.596-0.099-0.596-0.298v-0.298l0.596-0.744h0.895L7.4,49.712l-0.148,0.149v0.149l0.298,0.298v0.149
	c0,0.198-0.199,0.297-0.596,0.297v0.149L7.698,52.096z M16.568,53.801l0.022-0.104l-0.119-0.12l0.119-0.715l-0.119-2.502
	l0.357-0.477l0.238,0.238v0.238l-0.357,0.477v0.358l0.119-0.119h0.118l0.12,0.119v0.238c-0.021,0.397-0.1,0.596-0.238,0.596
	l0.118,0.119v1.191l0.091,0.463L16.568,53.801L16.568,53.801z M3.148,53.801v-0.343l0.357-0.119l0.118,0.119v0.239l-0.021,0.104
	H3.148z"/>
<path fill="#FFFFFF" d="M16.538,56.459l0.12-0.119l0.357,0.119v0.477l-0.119,0.119l0.237,0.238v0.357l-0.118,0.596l0.118,0.119
	l-0.118,0.596l0.118,0.357l-0.237,0.477l0.237,0.238v0.715c0,0.159-0.118,0.238-0.356,0.238l0.356,0.954l-0.237,1.191l0.119,0.119
	v0.238h-0.238l-0.239-0.238v-0.834l0.12-0.119l-0.12-0.119V61.94l0.12-0.119h-0.12l0.12-0.357v-0.119l-0.12-0.119l0.12-0.357
	l-0.12-0.119V60.63l0.239-0.357l-0.239-0.238l0.239-0.715l-0.239-0.357c0-0.238,0.12-0.357,0.358-0.357v-0.357
	c-0.238,0-0.358-0.08-0.358-0.238v-0.715l0.239-0.238l-0.239-0.357V56.459z M3.066,56.459l0.119-0.119l0.477,0.238l-0.119,2.146
	L3.662,59.2H3.424l0.119,0.358c0,0.238-0.079,0.357-0.238,0.357c0.238,0.288,0.357,0.566,0.357,0.834l-0.238,0.238l-0.357-0.238
	l0.119-1.072l-0.119-0.953l0.238-0.596L3.066,57.77v-0.119l0.119-0.119l-0.119-0.119v-0.596l0.119-0.119l-0.119-0.12V56.459
	L3.066,56.459z M9.083,57.591L8.935,57.74v0.148l0.148,0.447l-0.595,1.191H8.339C8.08,59.329,7.634,59.23,6.998,59.23v-0.149
	l-0.596,0.298c-0.596-0.1-0.894-0.249-0.894-0.447l0.298-0.298L5.509,57.74c0.199,0,0.298-0.149,0.298-0.446l0.149-0.149h0.446
	l1.192,0.447c0-0.199,0.347-0.347,1.042-0.447L9.083,57.591z M14.744,57.889c0,0.199-0.198,0.298-0.596,0.298v0.298h0.446v0.298
	c-0.849,0.78-1.891,1.524-3.128,2.234h-0.148v-0.298h-0.298l-0.149,0.149h-0.148v-0.596c-0.596,0.099-0.894,0.248-0.894,0.447v0.149
	l0.745-0.149l0.297,0.894c-1.126,0.894-1.871,1.34-2.234,1.34l-0.148-0.148l-0.595,0.744H7.445L7.296,63.4L6.85,63.548l0.298,0.447
	v0.149H6.105c-0.17,0-0.417-0.398-0.746-1.192l1.193-0.893l1.936,0.148v-0.894H8.34v0.298H8.041c0-0.497,0.695-1.242,2.086-2.234
	l0.298-0.298l0.446,0.149V59.08l0.299-0.298l0.148,0.148h0.148c0.898-1.092,1.792-1.638,2.682-1.638L14.744,57.889z M13.106,58.336
	h-0.299l0.148,0.149c0,0.298-0.298,0.447-0.893,0.447l0.446,0.894h0.148l0.596-0.894v-0.149L13.106,58.336z M11.766,59.379h-0.149
	v0.298h-0.149l0.299,0.745h0.147v-0.298L11.766,59.379z M3.066,65.27V64.8l0.119-0.477l-0.119-0.476v-1.192l0.119-0.595L3.066,61.94
	l0.119-0.596h0.119l0.238,0.238L3.305,61.94v0.119l0.238,0.357v0.119l-0.119,0.119l0.238,0.238L3.424,63.25l0.238,0.238
	l-0.119,0.357l0.119,0.358v0.119l-0.119,0.119l0.119,0.119l-0.238,0.358v0.119l0.23,0.231L3.066,65.27L3.066,65.27z M9.53,61.762
	H9.083v0.149L9.53,62.06V61.762z M14.744,63.549c0,0.521-0.497,0.82-1.489,0.894h-0.596l-0.149-0.149l-0.148,0.149h-0.596
	l-0.447-0.447l0.745-0.745v-0.298c-0.298,0-0.447,0.199-0.447,0.596h-0.447c0-0.556,0.447-1.003,1.341-1.34h0.148l0.148,0.148
	l0.149-0.148h0.446c0.611,0,1.006,0.054,1.186,0.163L14.744,63.549z M13.106,62.656H12.36v0.148l0.746,0.298V62.656z M13.85,63.251
	h-0.446v0.447h0.446V63.251z M13.254,63.847l-0.298-0.298h-0.148v0.149l0.148,0.447L13.254,63.847z M7.743,63.996l-0.148,0.149
	H7.445l-0.149-0.149v-0.149l0.149-0.149h0.149l0.148,0.149V63.996z M16.718,65.27l-0.18-1.065c0-0.238,0.08-0.357,0.239-0.357h0.238
	v0.238l-0.238,0.238l0.357,0.477v0.469H16.718z"/>
<path fill="#FFFFFF" d="M3.729,65.515l-0.358,0.834c0.18,0,0.299,0.437,0.358,1.311L3.61,68.494H3.253l-0.12-0.357l0.12-1.668
	l-0.12-0.834c0.159,0,0.238-0.159,0.238-0.477H3.61L3.729,65.515z M17.112,65.396l-0.238,0.238l0.238,0.357l-0.357,0.12l0.357,0.596
	l-0.119,0.953h-0.238l-0.238-1.43h0.119l-0.119-0.119v-0.715l0.238-0.23h0.119L17.112,65.396z M14.603,67.444
	c-0.129,0.497-0.377,0.745-0.745,0.745v0.298c0.298,0,0.446,0.1,0.446,0.298l-0.446,0.446h-0.596
	c-0.75-0.695-1.345-1.042-1.788-1.042l-0.298-0.298l-0.148,0.148h-0.298l0.149-0.148v-0.149h-0.447v0.447h-0.148
	c-0.199,0-0.299-0.149-0.299-0.447L9.24,68.337l-0.149-0.148H8.197c-0.894,0.373-1.341,0.72-1.341,1.042
	c-0.993,0-1.489-0.546-1.489-1.639h0.149c0.248,0,0.396,0.199,0.446,0.596h0.298l1.043-0.745l-0.148-0.149H7.006L6.41,67.742H6.261
	c-0.198,0-0.298-0.148-0.298-0.447l1.192-1.192l0.446,0.149l0.298-0.298c0,0.199,0.298,0.348,0.894,0.447l0.149-0.149v-0.148
	l0.744,0.148h1.938l0.446,0.298l0.447-0.446c1.092,0.288,1.638,0.635,1.638,1.042L14.603,67.444z M10.283,66.551H9.984V66.7
	l0.299,0.298V66.551z M9.091,66.551l-0.298,0.298l0.149,0.149h0.596L9.091,66.551z M12.07,66.998l-0.446-0.149h-0.149v0.149
	l0.298,0.298h0.298V66.998z M13.113,66.998l-0.446,0.148v0.298c0.297,0,0.446,0.148,0.446,0.447h0.298v-0.149L13.113,66.998z
	 M11.177,67.146v0.447h0.447L11.177,67.146z M17.112,68.137c-0.06,0.874-0.179,1.311-0.357,1.311l-0.238-0.477l0.119-0.357
	l-0.119-0.596l0.119-0.119h0.119L17.112,68.137z M3.729,70.639L3.61,70.997l0.119,1.072v0.119l-0.238,0.239l-0.238-0.239
	l0.118-0.119V71.95l-0.238-1.073l0.238-0.356l-0.238-0.596l0.12-0.477l-0.12-0.12l0.12-0.119H3.61v1.072l-0.119,0.119v0.119
	l0.119,0.12H3.729L3.729,70.639z M16.993,69.566v0.238l-0.119,0.12l0.119,0.119v0.358h-0.238l-0.238-0.238v-0.238l0.357-0.358
	H16.993z M14.603,71.614l-0.447,0.149l0.148,0.149c-0.233,0.596-0.432,0.894-0.595,0.894l-0.148-0.149h-0.149
	c0,0.298-0.894,0.497-2.681,0.596l-0.149-0.148v-0.149l-0.894,0.298l-0.149-0.148H9.39l-0.447,0.148
	c0-0.228-0.248-0.377-0.745-0.447l-0.298,0.298H6.56c-0.199,0-0.299-0.249-0.299-0.745c-0.292,0-0.541-0.199-0.744-0.596v-0.298
	l0.149-0.596l-0.149-0.447l0.149-0.148c0.695,0.069,1.042,0.169,1.042,0.298l0.149-0.149h0.149l0.297,0.298l-0.297,0.298
	l0.148,0.149h0.148l0.15-0.149h0.147l1.192,0.298l1.34-0.149h0.447c0.496,0,0.745,0.199,0.745,0.596h0.446v-0.148l-0.148-0.447
	l2.384-0.893C14.395,70.726,14.593,71.172,14.603,71.614z M17.112,70.997c-0.08,0.978-0.199,1.534-0.357,1.668h0.238v0.238
	l-0.119,0.119v0.12l0.238,0.238l-0.357,0.358h-0.119l-0.119-1.668l0.119-0.834l-0.119-0.358l0.119-0.119h0.119L17.112,70.997z
	 M13.262,70.87c0,0.198-0.148,0.298-0.447,0.298v0.298h0.149l0.597-0.298L13.262,70.87z M8.496,71.466l-0.447,0.148l-0.447-0.148
	l-0.148,0.148v0.299h0.148l0.148-0.149h0.149l0.597,0.447V71.466z M7.007,71.466H6.857L6.41,71.614v0.299h0.447L7.007,71.466z
	 M12.368,72.062l-0.596,0.149v0.298l0.298,0.298l0.447-0.447h0.148L12.368,72.062z M7.453,72.21H7.304l0.298,0.298h0.149
	L7.453,72.21z M3.729,73.261L3.61,74.095H3.371l-0.238-1.43l0.12-0.119H3.61L3.729,73.261z"/>
<path fill="#FFFFFF" d="M3.23,73.999l0.119-0.12h0.119l0.119,0.12v0.118l-0.119,0.12H3.35l-0.119-0.12V73.999z M16.412,76.381
	c0-1.589,0.119-2.383,0.357-2.383l0.119,0.118v0.358H16.65v0.119c0.238,0.313,0.357,0.869,0.357,1.668l-0.238,0.596h-0.238
	L16.412,76.381z M3.111,76.023v-0.238l0.119-0.477l-0.119-0.357c0.158,0,0.238-0.119,0.238-0.358l0.119-0.119h0.119l0.119,0.119
	v0.358c0,0.874-0.119,1.311-0.357,1.311L3.111,76.023z M9.232,76.195c0,0.595-0.596,0.893-1.787,0.893H6.85l-0.447-0.298H6.253
	l-0.446,0.298l-0.298-1.191v-0.298c0-0.179,0.347-0.477,1.042-0.894c0,0.219,0.447,0.368,1.341,0.447
	c0-0.298,0.099-0.447,0.298-0.447h0.148l0.745,0.745c0,0.298-0.248,0.447-0.745,0.447l0.447,0.447v-0.447h0.149L9.232,76.195z
	 M14.744,76.344c0,0.496-0.695,1.042-2.085,1.638c0,0.298-0.1,0.447-0.299,0.447l-0.894-0.298l0.149,0.149v0.298l-0.149,0.148v0.149
	c-0.993-0.125-1.489-0.323-1.489-0.596l0.149-0.447l-0.149-0.148H9.829c0.232-0.596,0.58-0.894,1.042-0.894l0.299,0.597h0.148
	v-0.299h0.148l-0.148-0.148v-0.298l0.447-0.447l0.298,0.447l0.446-0.149v-0.298c-0.298,0-0.446-0.1-0.446-0.298l1.191-0.894h0.148
	C13.899,75.003,14.347,75.45,14.744,76.344z M7.893,75.599H7.595v0.149l0.298,0.298V75.599z M7.595,76.195l-0.447-0.149v0.149
	l0.447,0.447V76.195z M3.111,78.526V77.93l0.238-0.357l-0.238-0.238v-0.596L3.35,76.5h0.238v0.596l-0.119,0.477l0.238,1.311
	l-0.119,0.119H3.35L3.111,78.526z M16.531,77.454v-0.119l0.358-0.119l0.118,0.119v0.119l-0.238,0.239L16.531,77.454z M16.472,82.831
	l-0.06-0.372l0.119-0.715l-0.119-0.477l0.357-0.119V80.91c-0.238,0-0.357-0.278-0.357-0.834l0.119-0.119v-0.119l-0.119-0.476
	l0.357-0.12v-0.119c-0.238,0-0.357-0.08-0.357-0.238v-0.477l0.238-0.238h0.119v0.119l-0.119,0.357h0.119l0.119,0.119h0.119
	l-0.119,0.715l0.119,1.43l-0.119,0.357l0.119,0.119v0.119l-0.119,0.119v0.12l0.119,0.595l-0.119,0.12H16.77l0.075,0.372H16.472
	L16.472,82.831z M3.111,81.624v-0.238l0.238-0.238L3.23,80.79l0.119-0.357l-0.238-0.238v-1.072H3.23l0.119,0.119h0.119l0.119-0.119
	v0.239L3.35,79.718l0.357,0.119l-0.119,0.119v0.12l0.119,1.072L3.35,81.505v0.119H3.111L3.111,81.624z M14.744,80.366v0.298
	l-0.149,0.148l0.149,0.447c0,0.497-0.795,0.745-2.384,0.745l-0.595-0.297l-0.299,0.297l-1.638-0.148l-0.894,0.148
	c0-0.392-0.397-0.69-1.192-0.894l0.298,0.746l-0.147,0.148l-0.15-0.148H7.147v0.298H6.85c-0.993-0.367-1.49-0.913-1.49-1.638
	l0.299-0.298c0,0.164,0.298,0.362,0.894,0.596v-0.446c-0.298,0-0.447-0.1-0.447-0.298l0.298-0.297l1.788,0.297h0.446L9.53,79.77
	l0.447,0.148l0.894-0.148c0,0.596,0.1,0.894,0.299,0.894l0.148-0.149v-0.149l-0.148-0.148v-0.15c0.228,0,0.526-0.199,0.894-0.596
	h0.446c0.198,0,0.298,0.199,0.298,0.596h0.148c0-0.297,0.101-0.447,0.299-0.447s0.298,0.149,0.298,0.447h0.894L14.744,80.366z
	 M12.659,80.217H12.51l-0.446,0.298l-0.298-0.298h-0.149v0.447h1.043V80.217z M9.978,80.217H9.53v0.149l0.447,0.149V80.217z
	 M10.723,80.664l-0.149-0.149h-0.446v0.149l0.446,0.447L10.723,80.664z M13.85,80.961h-0.297l-0.447,0.298l-0.447-0.149v0.298h0.298
	v0.149C13.553,81.354,13.85,81.155,13.85,80.961z M10.276,81.259l-0.447-0.297H9.68l-0.744,0.148l1.042,0.597L10.276,81.259z
	 M3.186,82.831l-0.074-0.372l0.119-0.12h0.238c0.159,0,0.238,0.12,0.238,0.357l-0.045,0.134H3.186z"/>
<path fill="#FFFFFF" d="M3.7,82.518L3.64,82.823l0.119,0.663l-0.238,0.335H3.401l-0.239-0.335c0-0.224,0.12-0.335,0.358-0.335
	v-0.328H3.162c0.011-0.104,0.022-0.206,0.038-0.305H3.7z M17.053,82.734l-0.067,0.372l0.119,0.804l-0.237,0.268h-0.238v-0.536
	l0.238-0.402v-0.134l-0.164-0.372L17.053,82.734L17.053,82.734z M10.47,84.514l-0.216,0.194l-0.149,0.149l0.149,0.149v0.447
	c0,0.218-0.397,0.417-1.192,0.596l-0.148-0.447L8.466,85.75l0.149,0.149v0.447l-0.448,0.283l-1.058-0.156
	c0.091-0.17,0.135-0.502,0.135-0.999c-0.298,0-0.547-0.148-0.745-0.447c-0.773-0.015-1.161-0.171-1.161-0.469V84.41l0.149-0.745
	l-0.149-0.149l0.596-0.447l0.447,0.298c0-0.298,0.1-0.447,0.298-0.447c0.819,0.397,1.563,0.596,2.234,0.596l0.298,0.297l0.663,0.105
	L10.47,84.514z M3.759,84.536l-0.238,0.358v0.477l0.238,0.357v1.55l-0.477,0.357l-0.12-0.12l0.12-1.191v-0.477l0.119-0.119v-0.119
	l-0.239-0.239v-0.715l0.12-0.12l-0.12-0.119v-0.238l0.239-0.238l0.119,0.119l0.119-0.119l0.119,0.119V84.536z M8.317,83.963
	L7.87,84.112l-0.447-0.149v0.149l-0.148,0.447H7.87l0.148-0.148h0.149l0.447,0.446h0.298L8.317,83.963z M17.104,85.132l-0.119,0.119
	l0.119,0.834v1.549h-0.238l-0.357-0.358v-0.119l0.238-0.953l-0.118-0.119h-0.12l0.12-0.597l-0.12-0.833l0.12-0.12h0.356v0.12
	l-0.118,0.119v0.119L17.104,85.132z M14.722,86.346c-0.145,0.993-0.343,1.489-0.596,1.489c-0.497,0-0.745-0.149-0.745-0.447h-0.446
	v0.149l0.149,0.447l-2.683,0.894l-0.147-0.149V88.58l-3.426,1.341L6.679,90.07l-0.447-0.298l0.149-0.149v-0.298
	c-0.199,0-0.299,0.149-0.299,0.447H5.934c-0.298-0.099-0.447-0.398-0.447-0.893V88.58l0.149-0.149l0.446-0.148
	c0-0.497,0.249-0.745,0.745-0.745l1.788-0.447l0.298,0.596h0.298c0-0.268,0.247-0.517,0.744-0.745l0.596,0.149
	c0-0.397,0.149-0.596,0.447-0.596l1.191-0.446l0.148,0.148v0.149c0.299,0,0.447-0.149,0.447-0.447l0.745,0.149l0.298-0.298h0.446
	L14.722,86.346z M12.487,86.495h-0.596v0.149l0.298,0.298L12.487,86.495z M11.742,87.538h-0.446l0.148,0.447h0.745L11.742,87.538z
	 M17.104,88.587l-0.238,0.358l0.238,0.239v0.119l-0.119,0.596h-0.238l-0.238-0.238l0.238-0.357l-0.238-0.477
	c0.095-0.636,0.253-0.954,0.477-0.954l0.119,0.12V88.587L17.104,88.587z M3.759,88.111v0.239l-0.357,0.357l-0.239-0.239l0.239-0.596
	h0.119L3.759,88.111z M10.401,88.134l-0.147-0.149h-0.149v0.446L10.401,88.134z M7.87,87.984H7.572
	c-0.451,0.194-0.7,0.392-0.744,0.596l0.148,0.149h0.298c0-0.299,0.149-0.447,0.447-0.447l0.149-0.149L7.87,87.984L7.87,87.984z
	 M3.327,90.583l0.074-0.998l-0.119-0.611l0.119-0.148h0.119l0.238,0.305v0.909l-0.104,0.544H3.327L3.327,90.583z"/>
<path fill="#FFFFFF" d="M16.777,93.792l-0.239-0.238v-0.238l0.239-0.238v-0.119l-0.119-0.12v-0.238l0.119-0.119l-0.239-0.239
	l0.12-0.595l-0.12-0.715v-0.476l0.239-0.231h0.357v0.469l-0.119,0.596l0.119,0.119l-0.357,0.357l0.357,0.476v0.477l-0.238,0.358
	l0.238,0.357L16.777,93.792z M3.514,91.387h-0.12l-0.237-0.476v-0.239h0.119l0.477,0.477L3.514,91.387z M14.572,91.73v0.149
	l-0.148,0.595l0.148,0.447l-0.595,0.298l-0.597-0.149l-0.149,0.149l-0.297-0.298l-0.447,0.447h-0.298l-0.596-0.298l-0.447,0.298
	c-0.496-0.099-0.745-0.298-0.745-0.596h-0.298v0.298H9.359L9.21,93.22H9.061v-0.447l-1.638,0.596c-0.795,0-1.192-0.248-1.192-0.744
	H6.082v0.744H5.783L5.636,93.22H5.486c0-1.391,0.198-2.085,0.596-2.085l0.744-0.149l1.788,0.596l0.299,0.298
	c0-0.258,0.396-0.457,1.19-0.595h0.149l0.148,0.148l1.937-0.446l0.447,0.446l0.446-0.148l0.148,0.148v0.149l-0.297,0.298h0.297
	l0.447-0.149l-0.298-0.446l0.149-0.149h0.148L14.572,91.73z M7.423,91.581H7.125v0.448l0.298-0.298V91.581z M3.394,99.252H3.156
	v-0.238l0.237-0.357l-0.237-1.073c0-0.238,0.079-0.357,0.237-0.357L3.275,96.63v-0.596l0.118-0.119
	c-0.158,0-0.237-0.397-0.237-1.192v-0.119l0.237-0.238l-0.237-1.668l0.237-1.073l0.239,0.239v0.357l-0.239,0.358h0.239v0.953
	l-0.119,0.119l0.238,0.835H3.633l-0.119,0.119L3.752,95.2l-0.119,0.478v0.119l0.119,0.12l-0.119,1.31l0.119,0.597l-0.119,0.119
	l0.119,0.477C3.514,98.706,3.394,98.984,3.394,99.252z M12.041,92.177c-0.199,0-0.299-0.149-0.299-0.447h-0.596
	c-0.148,0-0.298,0.199-0.446,0.596c0.361,0,0.759,0.148,1.191,0.447l0.148-0.149L12.041,92.177L12.041,92.177z M9.509,91.879H9.359
	v0.298l0.447,0.149v-0.149L9.509,91.879z M8.466,92.028H8.019l-0.894,0.298c0,0.198,0.298,0.347,0.894,0.447v-0.149
	c0-0.198,0.148-0.297,0.447-0.297V92.028z M16.538,99.155v-0.239l0.12-1.072v-0.12l-0.12-0.12v-0.118l0.12-0.12l-0.12-0.715v-0.119
	l0.12-0.12l-0.12-0.714v-0.357l0.239-0.239l-0.119-0.595v-0.477h0.119l0.119,0.119l-0.119,0.119l0.357,0.596v0.596l-0.238,0.357
	v0.119l0.238,0.357v0.12l-0.238,0.238l0.238,1.788h-0.119l-0.119,0.12l0.238,0.357v0.373l-0.565-0.015
	C16.549,99.239,16.538,99.2,16.538,99.155z M14.572,94.858v1.191c0,0.198-0.397,0.397-1.191,0.596l-0.149,0.745h0.299v0.297h-0.446
	c0-0.297-0.149-0.447-0.447-0.447v0.447l0.298,0.447l-0.149,0.148h-1.043l-0.446-0.447l0.299-0.297h0.147l0.149,0.148h0.149v-0.297
	c0-0.199-0.299-0.348-0.894-0.448v0.149l-0.298,0.745l0.298,0.297L10.7,98.433l-0.149-0.448l-1.191,0.298l-0.148-0.149l-0.745,0.149
	c-0.993-0.075-1.489-0.273-1.489-0.596l-0.148,0.149H6.679l-0.298-0.298l0.298-0.298c-0.497,0-0.745-0.148-0.745-0.447v-0.149h0.298
	v-0.149c0-0.228-0.248-0.377-0.744-0.446v-0.597l0.298-0.297l0.149,0.446h0.148v-0.595c-0.298,0-0.447-0.1-0.447-0.298l0.447-0.298
	h0.149l0.148,0.15l0.149-0.15h0.299c0.163,0,0.361,0.298,0.595,0.894l0.149,0.149c0.199,0,0.298,0.199,0.298,0.596h0.595v0.447
	c-0.496,0-0.745,0.099-0.745,0.297v0.149h0.298c0.784-0.596,1.431-0.893,1.937-0.893l0.596,0.297c0.999,0,1.594-0.347,1.787-1.042
	c0.397,0,0.597-0.249,0.597-0.744l0.148-0.15h0.298l0.148,0.15l0.149-0.15h0.148C14.325,94.54,14.572,94.689,14.572,94.858z
	 M12.637,95.751l-0.298,0.298v0.149h0.298V95.751z M7.274,96.199H7.125l-0.447,0.447h0.299l0.298-0.298V96.199z M9.657,96.497H9.509
	c-0.298,0.099-0.447,0.396-0.447,0.894h0.447L9.657,96.497z"/>
<path fill="#FFFFFF" d="M16.509,99.215l0.12-0.119h0.118c0.238,0,0.357,0.158,0.357,0.476l-0.119,0.12v0.119l0.119,0.358
	l-0.119,0.357l0.119,0.715v0.238l-0.238,0.239l-0.237-0.239v-0.238l0.118-0.119l-0.118-0.12v-0.476l0.118-0.12L16.509,99.215z
	 M3.163,101.241v-0.239l0.238-0.714L3.282,99.93l0.119-0.12h0.12l0.238,0.239v0.715l-0.358,0.714L3.163,101.241z M14.453,101.948
	l-0.744,0.745l-1.192-0.298l0.149-0.149c0-0.695-0.249-1.142-0.745-1.341l-0.148,0.745l0.148-0.149h0.148l0.149,0.149v0.596
	l-1.192,0.745l-0.147-0.149v0.298c0.297,0,0.446,0.1,0.446,0.298c-0.75,1.49-1.396,2.234-1.937,2.234l0.149,0.149v0.148
	c0,0.164-0.349,0.363-1.043,0.596v0.149l-0.745-0.149l-0.447,0.149c-0.794-0.159-1.19-0.358-1.19-0.597l0.148-0.149v-0.148
	c-0.397,0-0.596-0.149-0.596-0.447v-0.447l0.148-0.149v-0.149l-0.148-0.149l0.894-0.596l1.191,0.744l0.149-0.148h0.149l0.595,0.148
	c0.397-0.148,0.597-0.297,0.597-0.446l-0.447-0.149l-0.149,0.149v-0.149c0.194-0.452,0.393-0.701,0.597-0.744l-0.149-0.149v-0.298
	c1.192-1.301,1.788-2.095,1.788-2.383l1.042-0.596l0.894,0.298l0.447-0.148C14.057,100.945,14.453,101.591,14.453,101.948z
	 M8.496,100.756v0.596c0,0.223-0.497,0.421-1.49,0.596v0.148h0.298l0.149-0.148l0.148,0.148v0.15l-0.148,0.148H7.304l-0.148-0.148
	c-0.05,0.396-0.199,0.596-0.447,0.596H6.112l-0.597-0.596v-0.298l0.298-0.298l-0.148-0.447c0.035-0.233,0.332-0.581,0.894-1.043
	h0.447l0.149,0.149h0.147l0.299-0.298h0.298L8.496,100.756z M3.401,101.479h0.119l0.238,0.239l-0.119,0.12H3.521l-0.119-0.12
	V101.479z M16.509,103.862v-0.714l0.12-0.478l-0.12-0.476l0.238-0.239c0.159,0,0.238,0.119,0.238,0.357l-0.119,1.191l0.119,0.477
	l-0.119,0.119h-0.119L16.509,103.862z M3.163,102.075h0.119l0.357,0.12c0,0.412-0.118,0.65-0.357,0.714l-0.119-0.119V102.075z
	 M3.163,104.339l0.238-0.358l-0.238-0.238v-0.119l0.119-0.597h0.239l0.238,0.239l-0.238,0.358l0.238,0.477
	c-0.095,0.635-0.253,0.953-0.478,0.953l-0.119-0.119V104.339z M10.134,103.288H9.984v0.448h0.447v-0.149L10.134,103.288z
	 M14.603,105.226l-0.745,0.596c0,0.496-0.1,0.745-0.297,0.745h-0.597l-0.149-0.149l-0.147,0.149h-0.299
	c-0.596-0.348-0.894-0.794-0.894-1.34v-0.149c0.65,0,1.146-0.348,1.489-1.043l0.298-0.297c0.794,0.119,1.191,0.317,1.191,0.596
	v0.297l-0.149,0.149v0.15L14.603,105.226z M9.836,103.736l-0.446,0.149v0.447l0.446-0.149V103.736z M16.509,104.815v-0.238
	l0.357-0.357l0.238,0.238l-0.238,0.595h-0.119L16.509,104.815z M9.836,104.48l-2.085,1.042v0.298l0.745,0.148h0.148v-0.148H8.347
	v-0.149c0-0.199,0.496-0.446,1.489-0.744V104.48z M16.725,107.526l-0.216-0.327v-1.549l0.477-0.358l0.119,0.119l-0.119,1.191v0.477
	l-0.118,0.12v0.119l0.208,0.208H16.725L16.725,107.526z M3.268,107.526l-0.105-0.685v-1.549h0.239l0.357,0.358v0.119l-0.238,0.953
	l0.119,0.119h0.119l-0.119,0.596l0.015,0.09L3.268,107.526L3.268,107.526z M7.602,105.523l-0.596,0.447h0.298l0.298-0.298V105.523z"
	/>
<g>
	<path fill="#FFFFFF" d="M8.51,214.584l1.916-1.516l-0.47-0.398H8.51v-0.795h4.529v0.795h-2.152l2.152,1.771v0.984l-2.133-1.84
		l-2.396,1.98V214.584z"/>
	<path fill="#FFFFFF" d="M10.153,215.668c0.95,0,1.718,0.691,1.718,1.664c0,0.984-0.747,1.609-1.779,1.609H9.915v-2.525
		c-0.487,0.055-0.901,0.42-0.901,1.039c0,0.324,0.129,0.697,0.365,0.936l-0.469,0.326c-0.312-0.332-0.48-0.814-0.48-1.33
		C8.43,216.395,9.114,215.668,10.153,215.668z M11.287,217.324c0-0.604-0.469-0.889-0.861-0.916v1.848
		C10.811,218.234,11.287,217.971,11.287,217.324z"/>
	<path fill="#FFFFFF" d="M8.51,221.863h2.051c0.517,0,0.68-0.264,0.68-0.664c0-0.359-0.217-0.672-0.436-0.842H8.51v-0.713h3.279
		v0.713h-0.441c0.26,0.217,0.523,0.645,0.523,1.16c0,0.707-0.381,1.061-1.053,1.061H8.51V221.863L8.51,221.863z"/>
	<path fill="#FFFFFF" d="M8.51,225.719h2.051c0.517,0,0.68-0.264,0.68-0.664c0-0.359-0.217-0.672-0.436-0.842H8.51V223.5h3.279
		v0.713h-0.441c0.26,0.217,0.523,0.645,0.523,1.16c0,0.707-0.381,1.061-1.053,1.061H8.51V225.719L8.51,225.719z"/>
	<path fill="#FFFFFF" d="M7.864,227.318c-0.033,0.076-0.054,0.191-0.054,0.271c0,0.23,0.066,0.381,0.285,0.477l0.373,0.162
		l3.319-1.352v0.768l-2.458,0.957l2.458,0.959v0.76l-3.87-1.582c-0.557-0.225-0.732-0.611-0.74-1.121
		c0-0.102,0.021-0.305,0.049-0.398L7.864,227.318z"/>
	<path fill="#FFFFFF" d="M10.77,232.342c1.428,0,2.344,1.059,2.344,2.377c0,0.883-0.422,1.459-0.938,1.818l-0.373-0.645
		c0.34-0.246,0.604-0.674,0.604-1.176c0-0.896-0.68-1.562-1.637-1.562c-0.943,0-1.637,0.666-1.637,1.562
		c0,0.461,0.211,0.869,0.407,1.072h0.699v-1.357h0.698v2.146H9.248c-0.496-0.441-0.828-1.08-0.828-1.859
		C8.422,233.4,9.352,232.342,10.77,232.342z"/>
	<path fill="#FFFFFF" d="M8.51,239.395h0.36c-0.286-0.244-0.44-0.633-0.44-1.066c0-0.529,0.365-1.135,1.086-1.135
		c0.76,0,1.072,0.6,1.072,1.135c0,0.447-0.143,0.822-0.421,1.066h0.488c0.381,0,0.61-0.32,0.61-0.768
		c0-0.367-0.136-0.693-0.42-0.973l0.494-0.299c0.367,0.381,0.53,0.855,0.53,1.379c0,0.732-0.306,1.371-1.183,1.371h-2.18v-0.711
		H8.51z M9.257,239.395H9.76c0.225-0.17,0.34-0.477,0.34-0.781c0-0.4-0.237-0.707-0.592-0.707c-0.359,0-0.591,0.307-0.591,0.707
		C8.917,238.918,9.032,239.225,9.257,239.395z"/>
	<path fill="#FFFFFF" d="M8.51,241.027h3.279v0.713h-0.475c0.312,0.25,0.557,0.645,0.557,1.066h-0.706
		c0.015-0.062,0.021-0.131,0.021-0.219c0-0.307-0.203-0.705-0.44-0.85H8.512v-0.711H8.51z"/>
	<path fill="#FFFFFF" d="M10.153,243.186c0.991,0,1.718,0.699,1.718,1.691c0,0.645-0.271,1.023-0.584,1.256l-0.428-0.469
		c0.258-0.184,0.38-0.436,0.38-0.754c0-0.592-0.448-0.99-1.086-0.99c-0.64,0-1.095,0.398-1.095,0.99c0,0.318,0.137,0.57,0.395,0.754
		l-0.439,0.469c-0.307-0.23-0.584-0.611-0.584-1.256C8.43,243.885,9.162,243.186,10.153,243.186z"/>
	<path fill="#FFFFFF" d="M12.632,246.68c0.244,0,0.44,0.197,0.44,0.441s-0.196,0.441-0.44,0.441c-0.245,0-0.44-0.197-0.44-0.441
		C12.189,246.877,12.387,246.68,12.632,246.68z M8.51,246.762h3.279v0.713H8.51V246.762z"/>
	<path fill="#FFFFFF" d="M8.51,250.406h0.36c-0.286-0.242-0.44-0.631-0.44-1.064c0-0.529,0.365-1.135,1.086-1.135
		c0.76,0,1.072,0.598,1.072,1.135c0,0.447-0.143,0.822-0.421,1.064h0.488c0.381,0,0.61-0.318,0.61-0.768
		c0-0.365-0.136-0.691-0.42-0.971l0.494-0.299c0.367,0.381,0.53,0.855,0.53,1.379c0,0.732-0.306,1.371-1.183,1.371h-2.18v-0.713
		H8.51z M9.257,250.406H9.76c0.225-0.17,0.34-0.475,0.34-0.779c0-0.4-0.237-0.707-0.592-0.707c-0.359,0-0.591,0.307-0.591,0.707
		C8.917,249.932,9.032,250.236,9.257,250.406z"/>
</g>
</svg>
