<?xml version="1.0" encoding="utf-8"?>
<!-- Generator: Adobe Illustrator 16.0.0, SVG Export Plug-In . SVG Version: 6.00 Build 0)  -->
<!DOCTYPE svg PUBLIC "-//W3C//DTD SVG 1.1//EN" "http://www.w3.org/Graphics/SVG/1.1/DTD/svg11.dtd">
<svg version="1.1" id="Layer_1" xmlns="http://www.w3.org/2000/svg" xmlns:xlink="http://www.w3.org/1999/xlink" x="0px" y="0px"
	 width="20px" height="260px" viewBox="0 0 20 260" enable-background="new 0 0 20 260" xml:space="preserve">
<rect fill="#F7EB48" width="20" height="260"/>
<g>
	<path fill="#010101" d="M5.927,11.499c0.078-1.513,0.117-2.547,0.117-3.103c0-0.843-0.043-1.562-0.13-2.151l0.6,0.078
		C6.565,6.662,6.668,6.895,6.82,7.021C6.973,7.146,7.235,7.21,7.609,7.21l5.477,0.014c0.277,0,0.465-0.032,0.561-0.098
		s0.145-0.193,0.145-0.386l-0.026-0.442l0.052-0.026l0.573,0.091c-0.026,0.643-0.039,1.091-0.039,1.344
		c0,0.348,0.039,0.852,0.118,1.512l-0.587-0.051c-0.019-0.097-0.033-0.182-0.045-0.255c-0.014-0.073-0.033-0.139-0.06-0.194
		c-0.025-0.058-0.045-0.104-0.059-0.145c-0.013-0.039-0.048-0.074-0.104-0.104c-0.057-0.031-0.096-0.053-0.117-0.065
		s-0.074-0.026-0.156-0.039s-0.143-0.024-0.176-0.032c-0.175-0.019-0.34-0.027-0.495-0.027c-1.452-0.104-3.129-0.156-5.033-0.156
		c-0.443,0-0.722,0.062-0.834,0.189c-0.113,0.125-0.169,0.5-0.169,1.121s0.107,1.053,0.326,1.291
		c0.217,0.239,0.726,0.434,1.524,0.582l0.065,0.573l-0.065,0.039c-0.791-0.157-1.617-0.283-2.477-0.378L5.927,11.499z"/>
	<path fill="#010101" d="M9.694,14.55l-0.013,1.069l0.104,1.291l-0.064,0.052l-0.678-0.156c0.017-0.6,0.025-1.053,0.025-1.362
		s-0.021-0.615-0.064-0.919c-0.661-0.025-1.193-0.039-1.598-0.039c-0.403,0-0.639,0.041-0.704,0.124
		c-0.064,0.083-0.098,0.356-0.098,0.821s0.028,0.816,0.085,1.056c0.056,0.239,0.163,0.411,0.319,0.515
		c0.156,0.104,0.43,0.188,0.82,0.248l0.053,0.574l-0.065,0.053c-0.574-0.131-1.165-0.227-1.772-0.287l-0.065-0.08
		c0.044-1.442,0.065-2.412,0.065-2.906c0-0.73-0.035-1.374-0.104-1.93l0.548,0.064c0.035,0.322,0.113,0.539,0.235,0.652
		s0.33,0.169,0.625,0.169l4.133,0.013c0.217,0,0.363-0.025,0.438-0.078c0.073-0.052,0.11-0.156,0.11-0.312l-0.013-0.353l0.052-0.026
		l0.496,0.078c-0.018,0.617-0.026,1.402-0.026,2.354s0.039,1.774,0.117,2.472l-0.064,0.038c-0.539-0.122-1.122-0.204-1.748-0.247
		L10.79,16.87c0.19,0.018,0.334,0.026,0.43,0.026c0.321,0,0.519-0.083,0.593-0.248s0.111-0.506,0.111-1.022
		c0-0.518-0.021-0.812-0.06-0.881c-0.04-0.07-0.146-0.109-0.319-0.117L9.694,14.55z"/>
	<path fill="#010101" d="M6.019,27.224c0.017-0.426,0.026-0.729,0.026-0.906s-0.026-0.632-0.078-1.361l0.535,0.051
		c0.025,0.227,0.078,0.387,0.155,0.482c0.078,0.096,0.196,0.143,0.353,0.143l4.081-0.326v-0.064
		c-1.312-0.513-3.029-1.165-5.15-1.956l-0.078-0.378c2.382-0.878,4.125-1.533,5.229-1.969v-0.064
		c-2.634-0.218-4.046-0.326-4.237-0.326c-0.19,0-0.287,0.112-0.287,0.338v0.418l-0.039,0.025l-0.521-0.091
		c0.025-0.496,0.039-0.864,0.039-1.108l-0.078-0.951l0.535,0.052c0.025,0.226,0.093,0.387,0.202,0.481
		c0.108,0.097,0.298,0.162,0.566,0.196c2.435,0.304,3.864,0.457,4.29,0.457c0.174,0,0.302-0.067,0.385-0.202s0.132-0.367,0.15-0.697
		l0.064-0.039l0.432,0.091c-0.035,0.573-0.053,0.978-0.053,1.212l0.039,0.848c-1.79,0.574-3.377,1.135-4.759,1.682v0.065
		c1.356,0.53,2.935,1.108,4.731,1.734v0.196l-0.012,0.664l0.064,1.135l-0.039,0.025l-0.456-0.064
		c-0.035-0.305-0.094-0.518-0.176-0.639s-0.211-0.184-0.385-0.184c-0.601,0-1.942,0.091-4.029,0.273
		c-0.391,0.043-0.646,0.101-0.769,0.17c-0.122,0.07-0.184,0.187-0.184,0.352l0.014,0.3l-0.039,0.026L6.019,27.224z"/>
	<path fill="#010101" d="M9.453,35.007c-0.986,0-1.82-0.34-2.503-1.018s-1.022-1.495-1.022-2.451c0-0.955,0.289-1.71,0.867-2.262
		c0.578-0.553,1.359-0.828,2.347-0.828c0.986,0,1.819,0.334,2.497,1.004s1.017,1.484,1.017,2.445c0,0.96-0.287,1.719-0.86,2.275
		C11.223,34.729,10.44,35.007,9.453,35.007z M9.35,29.556c-0.813,0-1.482,0.203-2.008,0.606c-0.526,0.404-0.789,0.931-0.789,1.578
		s0.229,1.167,0.685,1.558c0.457,0.392,1.091,0.588,1.904,0.588c0.812,0,1.479-0.209,2.001-0.627
		c0.521-0.416,0.781-0.949,0.781-1.597s-0.226-1.161-0.678-1.538C10.795,29.745,10.161,29.556,9.35,29.556z"/>
	<path fill="#010101" d="M12.016,41.2V40.81l0.052-0.026l0.509,0.091c-0.025,0.479-0.039,0.848-0.039,1.108l0.078,1.108
		l-0.535-0.053c-0.061-0.469-0.277-0.707-0.652-0.717l-5.605-0.156l-0.145-0.509c1.947-1.338,3.699-2.594,5.255-3.769v-0.064
		l-3.95-0.039c-0.166,0-0.277,0.026-0.339,0.078c-0.062,0.053-0.091,0.139-0.091,0.262l0.013,0.521l-0.039,0.039l-0.521-0.104
		c0.025-0.486,0.039-0.882,0.039-1.187L5.967,36.31l0.535,0.064c0.051,0.426,0.265,0.644,0.639,0.652l4.303,0.145
		c0.217,0,0.367-0.063,0.45-0.189s0.146-0.368,0.188-0.725l0.065-0.051l0.442,0.09c-0.035,0.426-0.051,0.756-0.051,0.992
		l0.038,0.795c-1.547,1.051-3.134,2.189-4.759,3.416v0.064l3.768-0.014C11.873,41.552,12.016,41.435,12.016,41.2z"/>
	<path fill="#010101" d="M13.854,52.152c-0.365,0.47-0.839,0.704-1.421,0.704c-1.139,0-1.999-0.639-2.582-1.917l-2.27,1.435
		c-0.416,0.252-0.707,0.498-0.867,0.736s-0.24,0.533-0.24,0.88l-0.053,0.052l-0.442-0.078l-0.144-1.108
		c0-0.218,0.111-0.45,0.334-0.698c0.222-0.248,0.522-0.477,0.905-0.686l2.53-1.395v-1.082l-1.943-0.039
		c-0.469,0-0.765,0.053-0.887,0.156s-0.184,0.365-0.184,0.782l-0.051,0.026l-0.549-0.119c0.01,0,0.021-0.461,0.039-1.381l-0.039-1.5
		l0.588,0.116c0.043,0.409,0.131,0.677,0.266,0.802c0.136,0.125,0.39,0.189,0.764,0.189l5.477,0.014
		c0.277,0,0.465-0.033,0.561-0.099s0.145-0.192,0.145-0.385l-0.027-0.443l0.053-0.026l0.572,0.092
		c-0.025,0.634-0.038,1.117-0.038,1.447l0.052,1.604C14.401,51.044,14.219,51.683,13.854,52.152z M12.119,51.774
		c1.147,0,1.721-0.795,1.721-2.387c0-0.086-0.02-0.146-0.059-0.176c-0.039-0.029-0.12-0.05-0.24-0.059
		c-1.33-0.078-2.399-0.122-3.209-0.13l-0.13,1.343c0.078,0.322,0.271,0.631,0.574,0.926c0.13,0.123,0.315,0.232,0.554,0.334
		C11.569,51.724,11.834,51.774,12.119,51.774z"/>
	<path fill="#010101" d="M6.019,60.652c0.017-0.53,0.026-0.925,0.026-1.187c0-0.408-0.031-0.957-0.092-1.643l0.065-0.039
		l0.469,0.039c0.026,0.365,0.065,0.61,0.117,0.737c0.052,0.126,0.144,0.188,0.274,0.188c0.129,0,0.273-0.031,0.43-0.091l1.004-0.313
		c0.009-0.174,0.013-0.461,0.013-0.859c0-0.4-0.026-0.848-0.077-1.343c-0.81-0.304-1.253-0.456-1.33-0.456
		c-0.262,0-0.392,0.203-0.392,0.613v0.561l-0.052,0.039l-0.496-0.078c0.044-0.529,0.064-1.029,0.064-1.5l-0.025-1.199L6.551,54.2
		c0.026,0.191,0.094,0.344,0.203,0.456c0.108,0.113,0.293,0.226,0.554,0.339l5.176,2.047l0.169,0.926l-0.014,0.092
		c-2.189,0.607-3.984,1.16-5.385,1.656c-0.252,0.086-0.428,0.197-0.527,0.332c-0.1,0.136-0.163,0.351-0.189,0.646L6.485,60.72
		L6.019,60.652z M8.86,57.236c0,0.304,0.017,0.622,0.052,0.952l2.529-0.795v-0.092l-2.582-0.951L8.86,57.236L8.86,57.236z"/>
	<path fill="#010101" d="M12.563,61.565l-0.026,1.33l0.092,1.304l-0.535-0.052c-0.035-0.287-0.09-0.479-0.164-0.574
		c-0.073-0.096-0.211-0.152-0.41-0.169c-1.704-0.096-3.125-0.144-4.264-0.144c-0.278,0-0.465,0.031-0.562,0.092
		s-0.144,0.183-0.144,0.365l0.039,0.535l-0.053,0.025l-0.521-0.091c0.017-0.634,0.026-1.078,0.026-1.33
		c0-0.461-0.039-0.935-0.117-1.421l0.533,0.064c0.062,0.33,0.15,0.553,0.269,0.666c0.116,0.112,0.319,0.168,0.606,0.168l4.146,0.014
		c0.217,0,0.362-0.026,0.437-0.078c0.074-0.053,0.111-0.156,0.111-0.312l-0.014-0.431l0.053-0.026L12.563,61.565z"/>
	<path fill="#010101" d="M12.016,70.562v-0.392l0.052-0.025l0.509,0.091c-0.025,0.478-0.039,0.849-0.039,1.108l0.078,1.107
		L12.08,72.4c-0.061-0.47-0.277-0.708-0.652-0.717l-5.605-0.156l-0.145-0.509c1.947-1.338,3.699-2.594,5.255-3.768v-0.065
		l-3.95-0.039c-0.166,0-0.277,0.026-0.339,0.077c-0.062,0.053-0.091,0.14-0.091,0.262l0.013,0.521l-0.039,0.039l-0.521-0.104
		c0.025-0.487,0.039-0.882,0.039-1.187l-0.078-1.084l0.535,0.065c0.051,0.427,0.265,0.644,0.639,0.651l4.303,0.145
		c0.217,0,0.367-0.062,0.45-0.189c0.083-0.125,0.146-0.367,0.188-0.724l0.065-0.052l0.442,0.091
		c-0.035,0.427-0.051,0.757-0.051,0.991l0.038,0.795c-1.547,1.053-3.134,2.189-4.759,3.416v0.064l3.768-0.012
		C11.873,70.915,12.016,70.796,12.016,70.562z"/>
	<path fill="#010101" d="M5.939,76.402l0.104-1.485c0-0.383-0.039-0.818-0.117-1.305l0.535,0.064
		c0.061,0.322,0.149,0.539,0.268,0.652c0.117,0.113,0.314,0.17,0.593,0.17l4.172,0.012c0.208,0,0.351-0.025,0.423-0.077
		c0.073-0.052,0.111-0.152,0.111-0.3l-0.014-0.365l0.053-0.039l0.496,0.078c-0.018,0.582-0.026,1.004-0.026,1.265l0.052,1.356
		c0,0.687-0.135,1.217-0.403,1.59c-0.271,0.374-0.656,0.562-1.161,0.562c-0.348,0-0.661-0.111-0.938-0.334
		c-0.278-0.222-0.488-0.515-0.627-0.88c-0.096,0.478-0.275,0.867-0.541,1.167c-0.265,0.301-0.593,0.451-0.983,0.451
		c-0.558,0-1.028-0.253-1.415-0.757C6.133,77.724,5.939,77.115,5.939,76.402z M6.729,75.687c-0.1,0.173-0.15,0.469-0.15,0.886
		s0.104,0.741,0.313,0.972c0.208,0.23,0.495,0.346,0.86,0.346c0.694,0,1.121-0.448,1.277-1.344l-0.013-1.082l-1.773-0.039
		C7,75.425,6.828,75.511,6.729,75.687z M10.83,77.55c0.79,0,1.187-0.596,1.187-1.785c0-0.07-0.019-0.118-0.052-0.145
		c-0.088-0.061-0.853-0.104-2.295-0.13c-0.062,0.722-0.082,1.117-0.06,1.187c0.021,0.07,0.063,0.156,0.124,0.262
		c0.061,0.104,0.135,0.195,0.223,0.273C10.172,77.438,10.463,77.55,10.83,77.55z"/>
	<path fill="#010101" d="M9.453,86.755c-0.986,0-1.82-0.338-2.503-1.017s-1.022-1.495-1.022-2.451s0.289-1.711,0.867-2.263
		c0.578-0.553,1.359-0.828,2.347-0.828c0.985,0,1.819,0.335,2.497,1.004c0.678,0.67,1.017,1.484,1.017,2.445
		c0,0.96-0.287,1.719-0.86,2.275C11.221,86.477,10.44,86.755,9.453,86.755z M9.35,81.304c-0.813,0-1.482,0.203-2.008,0.606
		c-0.526,0.404-0.789,0.931-0.789,1.578s0.229,1.166,0.685,1.558c0.457,0.393,1.091,0.588,1.904,0.588
		c0.812,0,1.479-0.209,2.001-0.627c0.521-0.416,0.781-0.949,0.781-1.598s-0.226-1.16-0.678-1.537
		C10.795,81.493,10.161,81.304,9.35,81.304z"/>
	<path fill="#010101" d="M12.563,87.434c-0.019,0.563-0.026,0.969-0.026,1.213c0,0.469,0.035,1.008,0.104,1.616l-0.078,0.039
		l-0.47-0.053c-0.025-0.365-0.064-0.604-0.116-0.718c-0.052-0.112-0.144-0.169-0.274-0.169c-0.244,0-1.765,0.408-4.562,1.227v0.078
		c0.426,0.174,1.107,0.432,2.047,0.774c0.939,0.344,1.533,0.563,1.785,0.659c0.053-0.018,0.104-0.039,0.158-0.065
		c0.121-0.044,0.261-0.087,0.416-0.131c0.287-0.087,0.448-0.387,0.482-0.899l0.039-0.025l0.496,0.078
		c-0.018,0.592-0.025,1.005-0.025,1.238c0,0.426,0.034,0.969,0.104,1.631l-0.078,0.039l-0.469-0.039
		c-0.026-0.365-0.065-0.606-0.117-0.725c-0.053-0.117-0.139-0.176-0.262-0.176c-0.217,0-1.742,0.408-4.576,1.227v0.09
		c0.678,0.278,1.574,0.617,2.691,1.018s1.741,0.602,1.871,0.602c0.131,0,0.223-0.052,0.274-0.15c0.052-0.1,0.077-0.276,0.077-0.528
		v-0.495l0.053-0.025l0.495,0.078c-0.043,0.547-0.065,1.043-0.065,1.485l0.026,1.161l-0.535-0.078
		c-0.019-0.199-0.058-0.342-0.117-0.424c-0.061-0.083-0.19-0.159-0.391-0.229l-5.425-2.151l-0.221-0.927
		c0.416-0.068,1.781-0.481,4.094-1.237v-0.065l-3.873-1.42l-0.221-0.939c2.094-0.6,3.945-1.174,5.553-1.721
		c0.375-0.123,0.574-0.427,0.601-0.914c0.009,0,0.022-0.008,0.039-0.024L12.563,87.434z"/>
</g>
<g>
	<path fill="#010101" d="M7.605,184.991c-0.227-0.437-0.34-0.985-0.34-1.646c0-0.662,0.204-1.195,0.612-1.604
		c0.408-0.408,0.956-0.612,1.642-0.612c0.953,0,1.75,0.303,2.396,0.91c0.644,0.607,0.965,1.357,0.965,2.254
		c0,0.374-0.065,0.865-0.196,1.473l-0.051,0.024c-0.42-0.159-0.885-0.287-1.396-0.383l-0.033-0.366
		c0.221,0.051,0.388,0.077,0.502,0.077c0.476,0,0.714-0.372,0.714-1.115c0-0.629-0.245-1.144-0.736-1.54
		c-0.49-0.396-1.13-0.595-1.918-0.595c-0.646,0-1.161,0.146-1.544,0.435c-0.383,0.288-0.574,0.684-0.574,1.182
		c0,0.738,0.454,1.265,1.361,1.582l0.034,0.367c-0.51-0.177-0.964-0.307-1.361-0.392L7.605,184.991z"/>
	<path fill="#010101" d="M9.715,187.611l-0.008,1.072c0,0.293,0.02,0.611,0.06,0.953c0.856,0.112,1.304,0.17,1.344,0.17
		s0.078-0.012,0.115-0.035c0.037-0.022,0.055-0.084,0.055-0.188l-0.009-0.221l0.034-0.018l0.315,0.086
		c-0.018,0-0.026,0.237-0.026,0.713l0.068,0.834l-0.332-0.061c-0.022-0.176-0.061-0.295-0.11-0.357
		c-0.051-0.062-0.139-0.104-0.264-0.127c-1.759-0.295-2.722-0.442-2.889-0.442s-0.271,0.019-0.313,0.056s-0.064,0.102-0.064,0.191
		l0.018,0.289c-0.013,0.005-0.021,0.008-0.025,0.008l-0.332-0.094c0.012-0.346,0.018-0.623,0.018-0.832v-0.23l-0.009-0.502v-0.093
		l0.323,0.093c0.005,0.204,0.052,0.346,0.14,0.421c0.089,0.076,0.271,0.132,0.55,0.166l0.97,0.119v-0.953l-0.068-1.089
		c-0.799-0.113-1.263-0.17-1.391-0.17s-0.191,0.079-0.191,0.238l0.018,0.297c-0.013,0.006-0.021,0.009-0.025,0.009l-0.332-0.103
		c0.012-0.25,0.018-0.465,0.018-0.646c0-0.183-0.009-0.396-0.025-0.638c-0.017-0.243-0.034-0.369-0.051-0.375l0.332,0.085
		c0.045,0.237,0.114,0.393,0.208,0.463c0.094,0.071,0.276,0.121,0.549,0.149c1.758,0.215,2.663,0.322,2.714,0.322
		s0.095-0.01,0.132-0.029c0.037-0.021,0.055-0.082,0.055-0.184l-0.009-0.213l0.034-0.025l0.315,0.094
		c-0.018,0.328-0.026,0.578-0.026,0.748l0.068,0.783l-0.34-0.06c-0.023-0.192-0.067-0.315-0.133-0.37
		c-0.064-0.054-0.211-0.102-0.438-0.141L9.715,187.611z"/>
	<path fill="#010101" d="M9.153,192.748c-0.72-0.102-1.12-0.152-1.203-0.152c-0.082,0-0.147,0.018-0.195,0.055
		s-0.075,0.162-0.081,0.377l-0.025,0.01l-0.306-0.094c0.011-0.295,0.017-0.545,0.017-0.75l-0.025-0.816l0.34,0.104
		c0.021,0.209,0.067,0.352,0.132,0.425c0.065,0.073,0.194,0.122,0.387,0.145c1.884,0.232,2.851,0.349,2.901,0.349
		s0.095-0.01,0.132-0.029s0.055-0.078,0.055-0.174l-0.009-0.221l0.034-0.025l0.315,0.093c-0.018,0.334-0.026,0.587-0.026,0.757
		l0.034,0.799c0,0.409-0.085,0.736-0.255,0.983s-0.399,0.37-0.689,0.37c-0.618,0-1.08-0.357-1.386-1.072l-1.106,0.562
		c-0.21,0.107-0.356,0.217-0.441,0.328c-0.085,0.109-0.127,0.25-0.127,0.42l-0.034,0.025l-0.255-0.068l-0.068-0.621
		c0-0.25,0.207-0.465,0.621-0.646l1.267-0.526L9.153,192.748L9.153,192.748z M10.558,194.289c0.488,0,0.731-0.359,0.731-1.081
		c0-0.04-0.009-0.071-0.025-0.094c-0.062-0.058-0.627-0.156-1.693-0.298l-0.067,0.664c0.096,0.238,0.184,0.395,0.264,0.469
		c0.079,0.074,0.153,0.136,0.221,0.188C10.135,194.236,10.325,194.289,10.558,194.289z"/>
	<path fill="#010101" d="M11.621,196.321l-0.026,0.825l0.068,0.815l-0.341-0.077c-0.022-0.182-0.058-0.306-0.105-0.373
		c-0.048-0.068-0.135-0.115-0.259-0.137c-1.73-0.307-2.726-0.459-2.986-0.459c-0.187,0-0.281,0.083-0.281,0.247l0.018,0.34
		l-0.025,0.017l-0.332-0.102c0.012-0.391,0.018-0.667,0.018-0.824c0-0.289-0.025-0.588-0.077-0.894l0.332,0.085
		c0.04,0.21,0.099,0.355,0.178,0.438c0.08,0.084,0.21,0.135,0.392,0.158c1.884,0.232,2.849,0.35,2.896,0.35s0.092-0.01,0.132-0.03
		s0.06-0.081,0.06-0.183l-0.009-0.272c0.018-0.006,0.028-0.009,0.034-0.009L11.621,196.321z"/>
	<path fill="#010101" d="M7.291,199.484c0-0.385,0.054-0.713,0.162-0.986l0.06-0.137l0.077-0.025
		c0.346,0.102,0.729,0.182,1.147,0.238l0.034,0.349c-0.188-0.022-0.362-0.034-0.527-0.034s-0.289,0.025-0.374,0.076
		c-0.143,0.092-0.213,0.295-0.213,0.613c0,0.316,0.067,0.568,0.203,0.753c0.137,0.185,0.299,0.276,0.485,0.276
		c0.188,0,0.339-0.062,0.455-0.188s0.267-0.354,0.451-0.689c0.184-0.334,0.355-0.578,0.515-0.73s0.346-0.229,0.562-0.229
		c0.38,0,0.699,0.162,0.961,0.484c0.261,0.323,0.392,0.723,0.392,1.199c0,0.363-0.057,0.727-0.17,1.089l-0.042,0.017
		c-0.346-0.112-0.723-0.209-1.131-0.289l-0.025-0.306l0.034-0.043c0.182,0.046,0.346,0.068,0.494,0.068
		c0.147,0,0.256-0.054,0.328-0.158c0.071-0.104,0.105-0.285,0.105-0.54s-0.062-0.469-0.187-0.643
		c-0.125-0.172-0.287-0.258-0.485-0.258c-0.199,0-0.408,0.17-0.629,0.51c-0.045,0.074-0.111,0.189-0.196,0.349
		s-0.158,0.286-0.221,0.384c-0.062,0.096-0.139,0.2-0.229,0.314c-0.177,0.221-0.392,0.332-0.646,0.332
		c-0.403,0-0.733-0.167-0.995-0.502C7.421,200.443,7.291,200.014,7.291,199.484z"/>
	<path fill="#010101" d="M8.03,203.893c-0.227,0-0.34,0.11-0.34,0.332l0.018,0.375l-0.025,0.017l-0.34-0.103
		c0.017-0.459,0.025-0.8,0.025-1.021l-0.034-0.961l0.323,0.085c0.027,0.316,0.084,0.515,0.165,0.591
		c0.082,0.076,0.291,0.138,0.625,0.183l2.833,0.35c-0.012-0.442-0.039-0.715-0.085-0.816c-0.073-0.152-0.322-0.287-0.749-0.4
		l-0.033-0.373c0.419,0.102,0.821,0.181,1.208,0.238l0.06,0.076l-0.077,0.562v2.084l0.077,0.604l-0.06,0.061l-1.175-0.051
		l-0.033-0.375c0.414-0.006,0.658-0.058,0.735-0.154c0.077-0.096,0.12-0.362,0.132-0.799c-0.301-0.062-0.883-0.162-1.747-0.299
		C8.667,203.959,8.167,203.893,8.03,203.893z"/>
	<path fill="#010101" d="M8.864,208.323l0.01-0.681c0-0.188-0.018-0.424-0.052-0.715l-0.654-0.306
		c-0.119-0.062-0.213-0.093-0.281-0.093c-0.147,0-0.221,0.115-0.221,0.349v0.366H7.64l-0.313-0.068
		c0.027-0.328,0.042-0.641,0.042-0.936l-0.018-0.758l0.34,0.094c0.012,0.125,0.053,0.23,0.124,0.314
		c0.071,0.086,0.194,0.17,0.37,0.256l3.377,1.676l0.119,0.57l-0.009,0.06c-1.412,0.215-2.586,0.425-3.521,0.629
		c-0.17,0.034-0.288,0.089-0.353,0.166c-0.065,0.076-0.106,0.205-0.124,0.388l-0.025,0.016l-0.298-0.076
		c0.012-0.329,0.018-0.573,0.018-0.73c0-0.256-0.021-0.602-0.061-1.039l0.042-0.017l0.289,0.06c0.017,0.25,0.047,0.414,0.089,0.493
		c0.043,0.08,0.109,0.119,0.2,0.119C8.003,208.459,8.313,208.414,8.864,208.323z M9.196,207.668c0,0.193,0.012,0.391,0.034,0.596
		l1.677-0.289v-0.061l-1.71-0.809L9.196,207.668L9.196,207.668z"/>
	<path fill="#010101" d="M10.318,213.333l-0.008,1.388c0,0.352,0.028,0.762,0.085,1.232c1.15,0.146,1.755,0.221,1.812,0.221
		c0.057,0,0.108-0.014,0.156-0.042c0.049-0.028,0.072-0.102,0.072-0.221l-0.018-0.281l0.026-0.017l0.366,0.111
		c-0.023,0.34-0.034,0.58-0.034,0.723c0,0.255,0.028,0.598,0.085,1.029l-0.365-0.068c-0.028-0.21-0.076-0.354-0.141-0.434
		s-0.18-0.134-0.345-0.162c-2.354-0.387-3.632-0.58-3.832-0.58c-0.202,0-0.329,0.022-0.384,0.068
		c-0.053,0.045-0.08,0.125-0.08,0.238l0.025,0.375c-0.006,0.005-0.139-0.031-0.4-0.111c0.018-0.437,0.025-0.773,0.025-1.012v-0.264
		c0-0.187-0.005-0.399-0.017-0.637l0.366,0.11c0.006,0.255,0.066,0.431,0.183,0.526c0.116,0.097,0.36,0.168,0.735,0.214l1.311,0.153
		c0.006-0.584,0.008-1.004,0.008-1.26l-0.094-1.378c-1.094-0.153-1.686-0.229-1.773-0.229c-0.086,0-0.156,0.003-0.207,0.009
		c-0.103,0.011-0.153,0.106-0.153,0.289l0.024,0.374l-0.033,0.009l-0.375-0.119c0.018,0,0.025-0.171,0.025-0.515
		s-0.011-0.662-0.033-0.957s-0.045-0.445-0.068-0.451l0.366,0.094c0.062,0.301,0.156,0.496,0.281,0.586
		c0.125,0.092,0.372,0.153,0.739,0.188c2.296,0.282,3.479,0.425,3.543,0.425c0.065,0,0.122-0.013,0.17-0.039
		c0.049-0.025,0.072-0.102,0.072-0.225l-0.017-0.272l0.025-0.017l0.366,0.104c-0.022,0.391-0.034,0.666-0.034,0.824
		c0,0.255,0.028,0.564,0.085,0.928l-0.365-0.068c-0.04-0.244-0.103-0.4-0.188-0.469c-0.085-0.067-0.284-0.125-0.596-0.17
		L10.318,213.333z"/>
	<path fill="#010101" d="M8.864,220.232l0.01-0.68c0-0.188-0.018-0.426-0.052-0.716l-0.655-0.306
		c-0.119-0.062-0.213-0.094-0.28-0.094c-0.147,0-0.222,0.117-0.222,0.35v0.365H7.64l-0.314-0.067
		c0.028-0.329,0.043-0.642,0.043-0.937l-0.018-0.756l0.34,0.092c0.012,0.125,0.053,0.23,0.124,0.315s0.194,0.171,0.37,0.255
		l3.377,1.676l0.119,0.57l-0.01,0.061c-1.411,0.215-2.586,0.425-3.521,0.629c-0.17,0.033-0.288,0.089-0.353,0.166
		c-0.065,0.076-0.106,0.205-0.125,0.387l-0.024,0.018l-0.298-0.078c0.012-0.328,0.018-0.572,0.018-0.73
		c0-0.255-0.021-0.602-0.061-1.038l0.042-0.017l0.289,0.06c0.017,0.25,0.047,0.414,0.089,0.493c0.043,0.08,0.109,0.119,0.2,0.119
		C8.003,220.368,8.313,220.323,8.864,220.232z M9.196,219.577c0,0.192,0.012,0.392,0.034,0.595l1.677-0.289v-0.06l-1.71-0.808
		L9.196,219.577L9.196,219.577z"/>
	<path fill="#010101" d="M8.694,223.1c-0.318,0-0.56,0.078-0.729,0.233c-0.168,0.156-0.25,0.381-0.25,0.677
		c0,0.715,0.354,1.11,1.062,1.19c1.463,0.165,2.227,0.247,2.292,0.247s0.116-0.012,0.153-0.034s0.055-0.08,0.055-0.17l-0.009-0.281
		l0.026-0.008l0.322,0.085c-0.017,0.334-0.025,0.587-0.025,0.757l0.06,0.697l-0.332-0.077c-0.028-0.193-0.063-0.318-0.106-0.378
		c-0.041-0.06-0.129-0.099-0.258-0.115l-2.195-0.272c-0.471-0.057-0.833-0.244-1.09-0.564c-0.254-0.32-0.383-0.722-0.383-1.204
		c0-0.946,0.397-1.415,1.191-1.403c0.08-0.006,0.167,0,0.264,0.017c1.48,0.187,2.254,0.28,2.318,0.28s0.117-0.01,0.157-0.033
		c0.04-0.021,0.06-0.082,0.06-0.178l-0.009-0.23l0.026-0.008l0.322,0.093c-0.017,0.341-0.025,0.604-0.025,0.792l0.06,0.73
		l-0.332-0.067c-0.022-0.165-0.06-0.278-0.11-0.34s-0.14-0.104-0.265-0.128l-1.938-0.289C8.936,223.105,8.831,223.1,8.694,223.1z"/>
	<path fill="#010101" d="M7.29,227.854c0-0.385,0.055-0.713,0.162-0.986l0.061-0.137l0.076-0.025
		c0.347,0.102,0.729,0.182,1.148,0.238l0.034,0.349c-0.188-0.022-0.362-0.034-0.528-0.034c-0.164,0-0.289,0.025-0.373,0.076
		c-0.143,0.091-0.213,0.295-0.213,0.613c0,0.316,0.067,0.568,0.203,0.753c0.137,0.185,0.299,0.276,0.485,0.276
		c0.188,0,0.339-0.062,0.455-0.188s0.267-0.354,0.45-0.689c0.185-0.334,0.356-0.578,0.516-0.73c0.158-0.153,0.346-0.229,0.562-0.229
		c0.379,0,0.699,0.162,0.961,0.484c0.26,0.323,0.392,0.723,0.392,1.199c0,0.363-0.058,0.726-0.17,1.089l-0.042,0.017
		c-0.346-0.113-0.723-0.209-1.131-0.289l-0.025-0.306l0.034-0.043c0.182,0.045,0.346,0.067,0.493,0.067
		c0.148,0,0.257-0.053,0.328-0.157c0.072-0.104,0.106-0.285,0.106-0.54s-0.062-0.469-0.187-0.643
		c-0.125-0.172-0.287-0.258-0.485-0.258c-0.199,0-0.408,0.17-0.629,0.51c-0.045,0.074-0.111,0.189-0.196,0.349
		s-0.158,0.286-0.221,0.383s-0.139,0.201-0.229,0.315c-0.177,0.221-0.392,0.332-0.646,0.332c-0.403,0-0.734-0.168-0.995-0.502
		C7.421,228.812,7.29,228.381,7.29,227.854z"/>
	<path fill="#010101" d="M7.698,235.484l-0.025,0.008l-0.322-0.102c0.012-0.256,0.018-0.438,0.018-0.55
		c0-0.11-0.002-0.2-0.005-0.272c-0.002-0.07-0.007-0.137-0.013-0.199c-0.005-0.062-0.012-0.124-0.018-0.184
		c-0.004-0.06-0.011-0.125-0.017-0.199l0.332,0.076c0.034,0.254,0.146,0.399,0.332,0.434l2.731,0.127v-0.042
		c-1.571-0.767-2.711-1.317-3.42-1.659l-0.043-0.229c0.777-0.182,1.932-0.454,3.463-0.817v-0.042
		c-1.821-0.369-2.779-0.553-2.875-0.553s-0.146,0.062-0.146,0.188v0.264l-0.017,0.017l-0.332-0.11
		c0.017-0.307,0.025-0.533,0.025-0.681l-0.052-0.597l0.332,0.078c0.017,0.142,0.062,0.248,0.132,0.318
		c0.071,0.071,0.176,0.122,0.315,0.153c0.139,0.03,0.448,0.099,0.931,0.2c1.266,0.277,1.932,0.416,1.999,0.416
		c0.183,0,0.284-0.176,0.306-0.526l0.035-0.017l0.264,0.076c-0.022,0.357-0.034,0.609-0.034,0.758l0.034,0.51
		c-0.993,0.188-2.051,0.428-3.174,0.723v0.034c0.902,0.437,1.955,0.921,3.156,1.455c0.006,0.028,0.01,0.067,0.01,0.119
		c-0.013,0.153-0.018,0.286-0.018,0.399l0.034,0.724c-0.011,0.006-0.021,0.009-0.025,0.009l-0.28-0.068
		c-0.022-0.192-0.061-0.33-0.11-0.412c-0.052-0.084-0.134-0.129-0.247-0.142c-0.533-0.062-1.418-0.104-2.654-0.127
		c-0.039,0-0.115,0-0.229,0c-0.114,0-0.208,0.015-0.285,0.042c-0.077,0.028-0.115,0.1-0.115,0.212L7.698,235.484z"/>
	<path fill="#010101" d="M8.864,238.665l0.01-0.681c0-0.188-0.018-0.424-0.052-0.715l-0.655-0.306
		c-0.119-0.062-0.213-0.093-0.28-0.093c-0.147,0-0.222,0.115-0.222,0.35v0.365H7.64l-0.314-0.068
		c0.028-0.328,0.043-0.641,0.043-0.936l-0.018-0.757l0.34,0.093c0.012,0.125,0.053,0.23,0.124,0.314
		c0.071,0.086,0.194,0.17,0.37,0.256l3.377,1.676l0.119,0.57l-0.01,0.06c-1.411,0.216-2.586,0.425-3.521,0.629
		c-0.17,0.034-0.288,0.089-0.353,0.166c-0.065,0.076-0.106,0.205-0.125,0.388l-0.024,0.017l-0.298-0.077
		c0.012-0.329,0.018-0.572,0.018-0.73c0-0.256-0.021-0.602-0.061-1.039l0.042-0.017l0.289,0.06c0.017,0.25,0.047,0.414,0.089,0.494
		c0.043,0.08,0.109,0.119,0.2,0.119C8.003,238.801,8.313,238.756,8.864,238.665z M9.196,238.01c0,0.193,0.012,0.391,0.034,0.596
		l1.677-0.289v-0.061l-1.71-0.808L9.196,238.01L9.196,238.01z"/>
	<path fill="#010101" d="M11.06,244.203c0.146,0,0.221-0.064,0.221-0.195l-0.009-0.246l0.034-0.018l0.322,0.102
		c-0.021,0.295-0.033,0.521-0.033,0.68l0.06,0.699l-0.34-0.068c-0.04-0.301-0.178-0.471-0.417-0.512l-3.684-0.543l-0.094-0.307
		c1.18-0.617,2.346-1.268,3.496-1.947v-0.043l-2.654-0.365c-0.102-0.012-0.172-0.004-0.211,0.025
		c-0.041,0.028-0.061,0.082-0.061,0.162v0.323l-0.025,0.024l-0.322-0.102c0.017-0.301,0.025-0.547,0.025-0.74l-0.052-0.68
		l0.332,0.085c0.034,0.278,0.173,0.431,0.417,0.459c1.917,0.3,2.906,0.451,2.969,0.451c0.153,0,0.248-0.179,0.28-0.536
		c0.022-0.012,0.037-0.018,0.043-0.018l0.272,0.078c-0.022,0.267-0.034,0.474-0.034,0.621l0.034,0.484
		c-1.026,0.539-2.084,1.128-3.174,1.77v0.034C10.169,244.096,11.036,244.203,11.06,244.203z"/>
	<path fill="#010101" d="M11.06,249.223c0.146,0,0.221-0.065,0.221-0.195l-0.009-0.247l0.034-0.017l0.322,0.102
		c-0.021,0.294-0.033,0.521-0.033,0.68l0.06,0.698l-0.34-0.068c-0.04-0.301-0.178-0.471-0.417-0.511l-3.684-0.544l-0.094-0.306
		c1.18-0.618,2.346-1.269,3.496-1.948v-0.042l-2.654-0.366c-0.102-0.011-0.172-0.003-0.211,0.026
		c-0.041,0.027-0.061,0.082-0.061,0.162v0.322l-0.025,0.025l-0.322-0.102c0.017-0.302,0.025-0.547,0.025-0.74l-0.052-0.68
		l0.332,0.084c0.034,0.278,0.173,0.432,0.417,0.459c1.917,0.301,2.906,0.451,2.969,0.451c0.153,0,0.248-0.179,0.28-0.535
		c0.022-0.012,0.037-0.018,0.043-0.018l0.272,0.077c-0.022,0.267-0.034,0.474-0.034,0.62l0.034,0.486
		c-1.026,0.539-2.084,1.127-3.174,1.77v0.033C10.169,249.114,11.036,249.223,11.06,249.223z"/>
</g>
</svg>
